<svg xmlns="http://www.w3.org/2000/svg" viewBox="0 0 750.38 440.85"><path d="M615.52,164a5.32,5.32,0,0,1,2.35-.27h.79l-.26.26c0-.91.14-1.56.26-1.56s.22.65.26,1.56v.25h-1.06A5.32,5.32,0,0,1,615.52,164Z" style="fill:#e0e0e0"/><path d="M609.23,164c0-.15.71-.27,1.57-.27s1.58.12,1.58.27-.71.27-1.58.27S609.23,164.17,609.23,164Z" style="fill:#e0e0e0"/><path d="M603,164c0-.15.7-.27,1.57-.27s1.57.12,1.57.27-.7.27-1.57.27S603,164.17,603,164Z" style="fill:#e0e0e0"/><path d="M596.67,164c0-.15.7-.27,1.57-.27s1.57.12,1.57.27-.71.27-1.57.27S596.67,164.17,596.67,164Z" style="fill:#e0e0e0"/><path d="M590.38,164c0-.15.7-.27,1.57-.27s1.57.12,1.57.27-.7.27-1.57.27S590.38,164.17,590.38,164Z" style="fill:#e0e0e0"/><path d="M584.1,164c0-.15.7-.27,1.57-.27s1.57.12,1.57.27-.7.27-1.57.27S584.1,164.17,584.1,164Z" style="fill:#e0e0e0"/><path d="M577.81,164c0-.15.71-.27,1.57-.27s1.57.12,1.57.27-.7.27-1.57.27S577.81,164.17,577.81,164Z" style="fill:#e0e0e0"/><path d="M571.53,164c0-.15.7-.27,1.57-.27s1.57.12,1.57.27-.7.27-1.57.27S571.53,164.17,571.53,164Z" style="fill:#e0e0e0"/><path d="M565.24,164c0-.15.71-.27,1.57-.27s1.58.12,1.58.27-.71.27-1.58.27S565.24,164.17,565.24,164Z" style="fill:#e0e0e0"/><path d="M559,164c0-.15.7-.27,1.57-.27s1.57.12,1.57.27-.7.27-1.57.27S559,164.17,559,164Z" style="fill:#e0e0e0"/><path d="M552.68,164c0-.15.7-.27,1.57-.27s1.57.12,1.57.27-.71.27-1.57.27S552.68,164.17,552.68,164Z" style="fill:#e0e0e0"/><path d="M546.39,164c0-.15.7-.27,1.57-.27s1.57.12,1.57.27-.7.27-1.57.27S546.39,164.17,546.39,164Z" style="fill:#e0e0e0"/><path d="M540.11,164c0-.15.7-.27,1.57-.27s1.57.12,1.57.27-.7.27-1.57.27S540.11,164.17,540.11,164Z" style="fill:#e0e0e0"/><path d="M533.82,164c0-.15.71-.27,1.57-.27s1.57.12,1.57.27-.7.27-1.57.27S533.82,164.17,533.82,164Z" style="fill:#e0e0e0"/><path d="M527.54,164c0-.15.7-.27,1.57-.27s1.57.12,1.57.27-.7.27-1.57.27S527.54,164.17,527.54,164Z" style="fill:#e0e0e0"/><path d="M521.25,164c0-.15.71-.27,1.57-.27s1.58.12,1.58.27-.71.27-1.58.27S521.25,164.17,521.25,164Z" style="fill:#e0e0e0"/><path d="M515,164c0-.15.7-.27,1.57-.27s1.57.12,1.57.27-.7.27-1.57.27S515,164.17,515,164Z" style="fill:#e0e0e0"/><path d="M508.69,164c0-.15.7-.27,1.57-.27s1.57.12,1.57.27-.71.27-1.57.27S508.69,164.17,508.69,164Z" style="fill:#e0e0e0"/><path d="M506.72,159.7c.16,0,.28.7.28,1.57s-.12,1.57-.28,1.57-.27-.7-.27-1.57S506.57,159.7,506.72,159.7Z" style="fill:#e0e0e0"/><path d="M506.72,153.41c.16,0,.28.71.28,1.57s-.12,1.57-.28,1.57-.27-.7-.27-1.57S506.57,153.41,506.72,153.41Z" style="fill:#e0e0e0"/><path d="M506.72,147.13c.16,0,.28.7.28,1.57s-.12,1.57-.28,1.57-.27-.7-.27-1.57S506.57,147.13,506.72,147.13Z" style="fill:#e0e0e0"/><path d="M506.72,140.84c.16,0,.28.71.28,1.57s-.12,1.58-.28,1.58-.27-.71-.27-1.58S506.57,140.84,506.72,140.84Z" style="fill:#e0e0e0"/><path d="M506.72,134.56c.16,0,.28.7.28,1.57s-.12,1.57-.28,1.57-.27-.7-.27-1.57S506.57,134.56,506.72,134.56Z" style="fill:#e0e0e0"/><path d="M506.72,128.28c.16,0,.28.7.28,1.57s-.12,1.57-.28,1.57-.27-.71-.27-1.57S506.57,128.28,506.72,128.28Z" style="fill:#e0e0e0"/><path d="M506.72,122c.16,0,.28.7.28,1.57s-.12,1.57-.28,1.57-.27-.7-.27-1.57S506.57,122,506.72,122Z" style="fill:#e0e0e0"/><path d="M506.72,115.71c.16,0,.28.7.28,1.57s-.12,1.57-.28,1.57-.27-.7-.27-1.57S506.57,115.71,506.72,115.71Z" style="fill:#e0e0e0"/><path d="M506.72,109.42c.16,0,.28.71.28,1.57s-.12,1.57-.28,1.57-.27-.7-.27-1.57S506.57,109.42,506.72,109.42Z" style="fill:#e0e0e0"/><path d="M506.72,103.14c.16,0,.28.7.28,1.57s-.12,1.57-.28,1.57-.27-.7-.27-1.57S506.57,103.14,506.72,103.14Z" style="fill:#e0e0e0"/><path d="M506.72,96.85c.16,0,.28.71.28,1.57s-.12,1.58-.28,1.58-.27-.71-.27-1.58S506.57,96.85,506.72,96.85Z" style="fill:#e0e0e0"/><path d="M506.72,90.57c.16,0,.28.7.28,1.57s-.12,1.57-.28,1.57-.27-.7-.27-1.57S506.57,90.57,506.72,90.57Z" style="fill:#e0e0e0"/><path d="M506.72,84.29c.16,0,.28.7.28,1.57s-.12,1.57-.28,1.57-.27-.71-.27-1.57S506.57,84.29,506.72,84.29Z" style="fill:#e0e0e0"/><path d="M506.72,78c.16,0,.28.7.28,1.57s-.12,1.57-.28,1.57-.27-.7-.27-1.57S506.57,78,506.72,78Z" style="fill:#e0e0e0"/><path d="M506.72,71.72c.16,0,.28.7.28,1.57s-.12,1.57-.28,1.57-.27-.7-.27-1.57S506.57,71.72,506.72,71.72Z" style="fill:#e0e0e0"/><path d="M506.72,65.43c.16,0,.28.71.28,1.57s-.12,1.57-.28,1.57-.27-.7-.27-1.57S506.57,65.43,506.72,65.43Z" style="fill:#e0e0e0"/><path d="M506.72,59.15c.16,0,.28.7.28,1.57s-.12,1.57-.28,1.57-.27-.7-.27-1.57S506.57,59.15,506.72,59.15Z" style="fill:#e0e0e0"/><path d="M506.72,52.86c.16,0,.28.71.28,1.58s-.12,1.57-.28,1.57-.27-.71-.27-1.57S506.57,52.86,506.72,52.86Z" style="fill:#e0e0e0"/><path d="M512.23,52.08c0,.15-.7.28-1.57.28s-1.57-.13-1.57-.28.7-.27,1.57-.27S512.23,51.93,512.23,52.08Z" style="fill:#e0e0e0"/><path d="M518.51,52.08c0,.15-.7.28-1.57.28s-1.57-.13-1.57-.28.7-.27,1.57-.27S518.51,51.93,518.51,52.08Z" style="fill:#e0e0e0"/><path d="M524.8,52.08c0,.15-.71.28-1.57.28s-1.57-.13-1.57-.28.7-.27,1.57-.27S524.8,51.93,524.8,52.08Z" style="fill:#e0e0e0"/><ellipse cx="529.51" cy="52.08" rx="1.57" ry="0.27" style="fill:#e0e0e0"/><path d="M537.37,52.08c0,.15-.71.28-1.58.28s-1.57-.13-1.57-.28.71-.27,1.57-.27S537.37,51.93,537.37,52.08Z" style="fill:#e0e0e0"/><path d="M543.65,52.08c0,.15-.7.28-1.57.28s-1.57-.13-1.57-.28.7-.27,1.57-.27S543.65,51.93,543.65,52.08Z" style="fill:#e0e0e0"/><path d="M549.93,52.08c0,.15-.7.28-1.57.28s-1.57-.13-1.57-.28.71-.27,1.57-.27S549.93,51.93,549.93,52.08Z" style="fill:#e0e0e0"/><path d="M556.22,52.08c0,.15-.71.28-1.57.28s-1.57-.13-1.57-.28.7-.27,1.57-.27S556.22,51.93,556.22,52.08Z" style="fill:#e0e0e0"/><path d="M562.5,52.08c0,.15-.7.28-1.57.28s-1.57-.13-1.57-.28.7-.27,1.57-.27S562.5,51.93,562.5,52.08Z" style="fill:#e0e0e0"/><path d="M568.79,52.08c0,.15-.71.28-1.57.28s-1.58-.13-1.58-.28.71-.27,1.58-.27S568.79,51.93,568.79,52.08Z" style="fill:#e0e0e0"/><path d="M575.07,52.08c0,.15-.7.28-1.57.28s-1.57-.13-1.57-.28.7-.27,1.57-.27S575.07,51.93,575.07,52.08Z" style="fill:#e0e0e0"/><path d="M581.36,52.08c0,.15-.71.28-1.58.28s-1.57-.13-1.57-.28.71-.27,1.57-.27S581.36,51.93,581.36,52.08Z" style="fill:#e0e0e0"/><path d="M587.64,52.08c0,.15-.7.28-1.57.28s-1.57-.13-1.57-.28.7-.27,1.57-.27S587.64,51.93,587.64,52.08Z" style="fill:#e0e0e0"/><path d="M593.92,52.08c0,.15-.7.28-1.57.28s-1.57-.13-1.57-.28.71-.27,1.57-.27S593.92,51.93,593.92,52.08Z" style="fill:#e0e0e0"/><path d="M600.21,52.08c0,.15-.71.28-1.57.28s-1.57-.13-1.57-.28.7-.27,1.57-.27S600.21,51.93,600.21,52.08Z" style="fill:#e0e0e0"/><path d="M606.49,52.08c0,.15-.7.28-1.57.28s-1.57-.13-1.57-.28.7-.27,1.57-.27S606.49,51.93,606.49,52.08Z" style="fill:#e0e0e0"/><path d="M612.78,52.08c0,.15-.71.28-1.57.28s-1.58-.13-1.58-.28.71-.27,1.58-.27S612.78,51.93,612.78,52.08Z" style="fill:#e0e0e0"/><path d="M618.66,52.48c-.07,0-.13-.14-.18-.4l.18.19a7,7,0,0,1-1.17.09c-.87,0-1.57-.13-1.57-.28s.7-.27,1.57-.27a7,7,0,0,1,1.17.09l.21,0,0,.14C618.79,52.34,618.73,52.48,618.66,52.48Z" style="fill:#e0e0e0"/><path d="M618.66,58.77c-.15,0-.27-.7-.27-1.57s.12-1.57.27-1.57.27.7.27,1.57S618.81,58.77,618.66,58.77Z" style="fill:#e0e0e0"/><path d="M618.66,65.05c-.15,0-.27-.7-.27-1.57s.12-1.57.27-1.57.27.7.27,1.57S618.81,65.05,618.66,65.05Z" style="fill:#e0e0e0"/><path d="M618.66,71.34c-.15,0-.27-.71-.27-1.57s.12-1.57.27-1.57.27.7.27,1.57S618.81,71.34,618.66,71.34Z" style="fill:#e0e0e0"/><path d="M618.66,77.62c-.15,0-.27-.7-.27-1.57s.12-1.57.27-1.57.27.7.27,1.57S618.81,77.62,618.66,77.62Z" style="fill:#e0e0e0"/><path d="M618.66,83.91c-.15,0-.27-.71-.27-1.57s.12-1.58.27-1.58.27.71.27,1.58S618.81,83.91,618.66,83.91Z" style="fill:#e0e0e0"/><path d="M618.66,90.19c-.15,0-.27-.7-.27-1.57s.12-1.57.27-1.57.27.7.27,1.57S618.81,90.19,618.66,90.19Z" style="fill:#e0e0e0"/><path d="M618.66,96.47c-.15,0-.27-.7-.27-1.57s.12-1.57.27-1.57.27.71.27,1.57S618.81,96.47,618.66,96.47Z" style="fill:#e0e0e0"/><path d="M618.66,102.76c-.15,0-.27-.7-.27-1.57s.12-1.57.27-1.57.27.7.27,1.57S618.81,102.76,618.66,102.76Z" style="fill:#e0e0e0"/><path d="M618.66,109c-.15,0-.27-.7-.27-1.57s.12-1.57.27-1.57.27.7.27,1.57S618.81,109,618.66,109Z" style="fill:#e0e0e0"/><path d="M618.66,115.33c-.15,0-.27-.71-.27-1.57s.12-1.57.27-1.57.27.7.27,1.57S618.81,115.33,618.66,115.33Z" style="fill:#e0e0e0"/><path d="M618.66,121.61c-.15,0-.27-.7-.27-1.57s.12-1.57.27-1.57.27.7.27,1.57S618.81,121.61,618.66,121.61Z" style="fill:#e0e0e0"/><path d="M618.66,127.9c-.15,0-.27-.71-.27-1.57s.12-1.58.27-1.58.27.71.27,1.58S618.81,127.9,618.66,127.9Z" style="fill:#e0e0e0"/><path d="M618.66,134.18c-.15,0-.27-.7-.27-1.57s.12-1.57.27-1.57.27.7.27,1.57S618.81,134.18,618.66,134.18Z" style="fill:#e0e0e0"/><path d="M618.66,140.46c-.15,0-.27-.7-.27-1.57s.12-1.57.27-1.57.27.71.27,1.57S618.81,140.46,618.66,140.46Z" style="fill:#e0e0e0"/><path d="M618.66,146.75c-.15,0-.27-.7-.27-1.57s.12-1.57.27-1.57.27.7.27,1.57S618.81,146.75,618.66,146.75Z" style="fill:#e0e0e0"/><path d="M618.66,153c-.15,0-.27-.7-.27-1.57s.12-1.57.27-1.57.27.7.27,1.57S618.81,153,618.66,153Z" style="fill:#e0e0e0"/><path d="M618.66,159.32c-.15,0-.27-.71-.27-1.57s.12-1.57.27-1.57.27.7.27,1.57S618.81,159.32,618.66,159.32Z" style="fill:#e0e0e0"/><rect x="614.51" y="158.74" width="8.29" height="8.29" style="fill:#e0e0e0"/><rect x="502.58" y="159.87" width="8.29" height="8.29" style="fill:#e0e0e0"/><rect x="614.51" y="47.13" width="8.29" height="8.29" style="fill:#e0e0e0"/><rect x="502.58" y="47.94" width="8.29" height="8.29" style="fill:#e0e0e0"/><path d="M168.84,116.89a5.24,5.24,0,0,1,2.35-.28l.79,0-.25.26c0-.91.14-1.56.25-1.56s.22.65.26,1.56v.25H172l-.79,0A5.32,5.32,0,0,1,168.84,116.89Z" style="fill:#e0e0e0"/><path d="M162.56,116.89c0-.15.7-.28,1.57-.28s1.57.13,1.57.28-.7.27-1.57.27S162.56,117,162.56,116.89Z" style="fill:#e0e0e0"/><path d="M156.27,116.89c0-.15.71-.28,1.57-.28s1.58.13,1.58.28-.71.27-1.58.27S156.27,117,156.27,116.89Z" style="fill:#e0e0e0"/><path d="M150,116.89c0-.15.7-.28,1.57-.28s1.57.13,1.57.28-.7.27-1.57.27S150,117,150,116.89Z" style="fill:#e0e0e0"/><path d="M143.7,116.89c0-.15.71-.28,1.58-.28s1.57.13,1.57.28-.71.27-1.57.27S143.7,117,143.7,116.89Z" style="fill:#e0e0e0"/><path d="M137.42,116.89c0-.15.7-.28,1.57-.28s1.57.13,1.57.28-.7.27-1.57.27S137.42,117,137.42,116.89Z" style="fill:#e0e0e0"/><path d="M131.14,116.89c0-.15.7-.28,1.57-.28s1.57.13,1.57.28-.7.27-1.57.27S131.14,117,131.14,116.89Z" style="fill:#e0e0e0"/><path d="M124.85,116.89c0-.15.71-.28,1.57-.28s1.57.13,1.57.28-.7.27-1.57.27S124.85,117,124.85,116.89Z" style="fill:#e0e0e0"/><path d="M118.57,116.89c0-.15.7-.28,1.57-.28s1.57.13,1.57.28-.7.27-1.57.27S118.57,117,118.57,116.89Z" style="fill:#e0e0e0"/><path d="M112.28,116.89c0-.15.71-.28,1.57-.28s1.58.13,1.58.28-.71.27-1.58.27S112.28,117,112.28,116.89Z" style="fill:#e0e0e0"/><path d="M106,116.89c0-.15.7-.28,1.57-.28s1.57.13,1.57.28-.7.27-1.57.27S106,117,106,116.89Z" style="fill:#e0e0e0"/><path d="M99.71,116.89c0-.15.71-.28,1.58-.28s1.57.13,1.57.28-.71.27-1.57.27S99.71,117,99.71,116.89Z" style="fill:#e0e0e0"/><path d="M93.43,116.89c0-.15.7-.28,1.57-.28s1.57.13,1.57.28-.7.27-1.57.27S93.43,117,93.43,116.89Z" style="fill:#e0e0e0"/><path d="M87.15,116.89c0-.15.7-.28,1.57-.28s1.57.13,1.57.28-.7.27-1.57.27S87.15,117,87.15,116.89Z" style="fill:#e0e0e0"/><path d="M80.86,116.89c0-.15.71-.28,1.57-.28s1.57.13,1.57.28-.7.27-1.57.27S80.86,117,80.86,116.89Z" style="fill:#e0e0e0"/><path d="M74.58,116.89c0-.15.7-.28,1.57-.28s1.57.13,1.57.28-.7.27-1.57.27S74.58,117,74.58,116.89Z" style="fill:#e0e0e0"/><path d="M68.29,116.89c0-.15.71-.28,1.57-.28s1.58.13,1.58.28-.71.27-1.58.27S68.29,117,68.29,116.89Z" style="fill:#e0e0e0"/><path d="M62,116.89c0-.15.7-.28,1.57-.28s1.57.13,1.57.28-.7.27-1.57.27S62,117,62,116.89Z" style="fill:#e0e0e0"/><path d="M60.05,112.56c.15,0,.27.71.27,1.58s-.12,1.57-.27,1.57-.27-.71-.27-1.57S59.9,112.56,60.05,112.56Z" style="fill:#e0e0e0"/><path d="M60.05,106.28c.15,0,.27.7.27,1.57s-.12,1.57-.27,1.57-.27-.7-.27-1.57S59.9,106.28,60.05,106.28Z" style="fill:#e0e0e0"/><path d="M60.05,100c.15,0,.27.7.27,1.57s-.12,1.57-.27,1.57-.27-.71-.27-1.57S59.9,100,60.05,100Z" style="fill:#e0e0e0"/><path d="M60.05,93.71c.15,0,.27.71.27,1.57s-.12,1.57-.27,1.57-.27-.7-.27-1.57S59.9,93.71,60.05,93.71Z" style="fill:#e0e0e0"/><path d="M60.05,87.43c.15,0,.27.7.27,1.57s-.12,1.57-.27,1.57-.27-.7-.27-1.57S59.9,87.43,60.05,87.43Z" style="fill:#e0e0e0"/><path d="M60.05,81.14c.15,0,.27.71.27,1.57s-.12,1.58-.27,1.58-.27-.71-.27-1.58S59.9,81.14,60.05,81.14Z" style="fill:#e0e0e0"/><path d="M60.05,74.86c.15,0,.27.7.27,1.57S60.2,78,60.05,78s-.27-.7-.27-1.57S59.9,74.86,60.05,74.86Z" style="fill:#e0e0e0"/><path d="M60.05,68.57c.15,0,.27.71.27,1.58s-.12,1.57-.27,1.57-.27-.71-.27-1.57S59.9,68.57,60.05,68.57Z" style="fill:#e0e0e0"/><path d="M60.05,62.29c.15,0,.27.7.27,1.57s-.12,1.57-.27,1.57-.27-.7-.27-1.57S59.9,62.29,60.05,62.29Z" style="fill:#e0e0e0"/><path d="M60.05,56c.15,0,.27.7.27,1.57s-.12,1.57-.27,1.57-.27-.7-.27-1.57S59.9,56,60.05,56Z" style="fill:#e0e0e0"/><path d="M60.05,49.72c.15,0,.27.71.27,1.57s-.12,1.57-.27,1.57-.27-.7-.27-1.57S59.9,49.72,60.05,49.72Z" style="fill:#e0e0e0"/><path d="M60.05,43.44c.15,0,.27.7.27,1.57s-.12,1.57-.27,1.57-.27-.7-.27-1.57S59.9,43.44,60.05,43.44Z" style="fill:#e0e0e0"/><path d="M60.05,37.15c.15,0,.27.71.27,1.57s-.12,1.58-.27,1.58-.27-.71-.27-1.58S59.9,37.15,60.05,37.15Z" style="fill:#e0e0e0"/><path d="M60.05,30.87c.15,0,.27.7.27,1.57S60.2,34,60.05,34s-.27-.7-.27-1.57S59.9,30.87,60.05,30.87Z" style="fill:#e0e0e0"/><path d="M60.05,24.58c.15,0,.27.71.27,1.58s-.12,1.57-.27,1.57-.27-.71-.27-1.57S59.9,24.58,60.05,24.58Z" style="fill:#e0e0e0"/><path d="M60.05,18.3c.15,0,.27.7.27,1.57s-.12,1.57-.27,1.57-.27-.7-.27-1.57S59.9,18.3,60.05,18.3Z" style="fill:#e0e0e0"/><path d="M60.05,12c.15,0,.27.7.27,1.57s-.12,1.57-.27,1.57-.27-.7-.27-1.57S59.9,12,60.05,12Z" style="fill:#e0e0e0"/><path d="M60.05,5.73c.15,0,.27.71.27,1.57s-.12,1.57-.27,1.57-.27-.7-.27-1.57S59.9,5.73,60.05,5.73Z" style="fill:#e0e0e0"/><path d="M65.55,5c0,.15-.7.27-1.57.27S62.41,5.1,62.41,5s.7-.27,1.57-.27S65.55,4.8,65.55,5Z" style="fill:#e0e0e0"/><path d="M71.84,5c0,.15-.71.27-1.57.27S68.69,5.1,68.69,5s.71-.27,1.58-.27S71.84,4.8,71.84,5Z" style="fill:#e0e0e0"/><path d="M78.12,5c0,.15-.7.27-1.57.27S75,5.1,75,5s.7-.27,1.57-.27S78.12,4.8,78.12,5Z" style="fill:#e0e0e0"/><ellipse cx="82.83" cy="4.95" rx="1.57" ry="0.27" style="fill:#e0e0e0"/><path d="M90.69,5c0,.15-.7.27-1.57.27S87.55,5.1,87.55,5s.7-.27,1.57-.27S90.69,4.8,90.69,5Z" style="fill:#e0e0e0"/><path d="M97,5c0,.15-.7.27-1.57.27S93.83,5.1,93.83,5s.7-.27,1.57-.27S97,4.8,97,5Z" style="fill:#e0e0e0"/><path d="M103.26,5c0,.15-.71.27-1.57.27s-1.57-.12-1.57-.27.7-.27,1.57-.27S103.26,4.8,103.26,5Z" style="fill:#e0e0e0"/><path d="M109.54,5c0,.15-.7.27-1.57.27S106.4,5.1,106.4,5s.7-.27,1.57-.27S109.54,4.8,109.54,5Z" style="fill:#e0e0e0"/><path d="M115.83,5c0,.15-.71.27-1.57.27s-1.58-.12-1.58-.27.71-.27,1.58-.27S115.83,4.8,115.83,5Z" style="fill:#e0e0e0"/><path d="M122.11,5c0,.15-.7.27-1.57.27S119,5.1,119,5s.7-.27,1.57-.27S122.11,4.8,122.11,5Z" style="fill:#e0e0e0"/><path d="M128.39,5c0,.15-.7.27-1.57.27s-1.57-.12-1.57-.27.71-.27,1.57-.27S128.39,4.8,128.39,5Z" style="fill:#e0e0e0"/><path d="M134.68,5c0,.15-.7.27-1.57.27s-1.57-.12-1.57-.27.7-.27,1.57-.27S134.68,4.8,134.68,5Z" style="fill:#e0e0e0"/><path d="M141,5c0,.15-.7.27-1.57.27s-1.57-.12-1.57-.27.7-.27,1.57-.27S141,4.8,141,5Z" style="fill:#e0e0e0"/><path d="M147.25,5c0,.15-.71.27-1.57.27s-1.57-.12-1.57-.27.7-.27,1.57-.27S147.25,4.8,147.25,5Z" style="fill:#e0e0e0"/><path d="M153.53,5c0,.15-.7.27-1.57.27s-1.57-.12-1.57-.27.7-.27,1.57-.27S153.53,4.8,153.53,5Z" style="fill:#e0e0e0"/><path d="M159.82,5c0,.15-.71.27-1.57.27s-1.58-.12-1.58-.27.71-.27,1.58-.27S159.82,4.8,159.82,5Z" style="fill:#e0e0e0"/><path d="M166.1,5c0,.15-.7.27-1.57.27S163,5.1,163,5s.7-.27,1.57-.27S166.1,4.8,166.1,5Z" style="fill:#e0e0e0"/><path d="M172,5.35c-.07,0-.13-.15-.18-.4l.18.18a6.1,6.1,0,0,1-1.17.09c-.86,0-1.57-.12-1.57-.27s.71-.27,1.57-.27a6.1,6.1,0,0,1,1.17.09l.21,0,0,.14C172.12,5.2,172.05,5.35,172,5.35Z" style="fill:#e0e0e0"/><path d="M172,11.64c-.15,0-.27-.71-.27-1.57s.12-1.57.27-1.57.28.7.28,1.57S172.13,11.64,172,11.64Z" style="fill:#e0e0e0"/><path d="M172,17.92c-.15,0-.27-.7-.27-1.57s.12-1.57.27-1.57.28.7.28,1.57S172.13,17.92,172,17.92Z" style="fill:#e0e0e0"/><path d="M172,24.21c-.15,0-.27-.71-.27-1.58s.12-1.57.27-1.57.28.71.28,1.57S172.13,24.21,172,24.21Z" style="fill:#e0e0e0"/><path d="M172,30.49c-.15,0-.27-.7-.27-1.57s.12-1.57.27-1.57.28.7.28,1.57S172.13,30.49,172,30.49Z" style="fill:#e0e0e0"/><path d="M172,36.77c-.15,0-.27-.7-.27-1.57s.12-1.57.27-1.57.28.71.28,1.57S172.13,36.77,172,36.77Z" style="fill:#e0e0e0"/><path d="M172,43.06c-.15,0-.27-.7-.27-1.57s.12-1.57.27-1.57.28.7.28,1.57S172.13,43.06,172,43.06Z" style="fill:#e0e0e0"/><path d="M172,49.34c-.15,0-.27-.7-.27-1.57s.12-1.57.27-1.57.28.7.28,1.57S172.13,49.34,172,49.34Z" style="fill:#e0e0e0"/><path d="M172,55.63c-.15,0-.27-.71-.27-1.57s.12-1.58.27-1.58.28.71.28,1.58S172.13,55.63,172,55.63Z" style="fill:#e0e0e0"/><path d="M172,61.91c-.15,0-.27-.7-.27-1.57s.12-1.57.27-1.57.28.7.28,1.57S172.13,61.91,172,61.91Z" style="fill:#e0e0e0"/><path d="M172,68.2c-.15,0-.27-.71-.27-1.58s.12-1.57.27-1.57.28.71.28,1.57S172.13,68.2,172,68.2Z" style="fill:#e0e0e0"/><path d="M172,74.48c-.15,0-.27-.7-.27-1.57s.12-1.57.27-1.57.28.7.28,1.57S172.13,74.48,172,74.48Z" style="fill:#e0e0e0"/><path d="M172,80.76c-.15,0-.27-.7-.27-1.57s.12-1.57.27-1.57.28.71.28,1.57S172.13,80.76,172,80.76Z" style="fill:#e0e0e0"/><path d="M172,87.05c-.15,0-.27-.71-.27-1.57s.12-1.57.27-1.57.28.7.28,1.57S172.13,87.05,172,87.05Z" style="fill:#e0e0e0"/><path d="M172,93.33c-.15,0-.27-.7-.27-1.57s.12-1.57.27-1.57.28.7.28,1.57S172.13,93.33,172,93.33Z" style="fill:#e0e0e0"/><path d="M172,99.62c-.15,0-.27-.71-.27-1.57s.12-1.58.27-1.58.28.71.28,1.58S172.13,99.62,172,99.62Z" style="fill:#e0e0e0"/><path d="M172,105.9c-.15,0-.27-.7-.27-1.57s.12-1.57.27-1.57.28.7.28,1.57S172.13,105.9,172,105.9Z" style="fill:#e0e0e0"/><path d="M172,112.19c-.15,0-.27-.71-.27-1.58s.12-1.57.27-1.57.28.71.28,1.57S172.13,112.19,172,112.19Z" style="fill:#e0e0e0"/><rect x="167.84" y="111.61" width="8.29" height="8.29" style="fill:#e0e0e0"/><rect x="55.9" y="112.74" width="8.29" height="8.29" style="fill:#e0e0e0"/><rect x="167.84" width="8.29" height="8.29" style="fill:#e0e0e0"/><rect x="55.9" y="0.81" width="8.29" height="8.29" style="fill:#e0e0e0"/><path d="M744.71,252.93a4.1,4.1,0,0,1,1.83-.21h.62l-.2.2c0-.71.1-1.21.2-1.21s.17.5.19,1.21v.2h-.82A4.1,4.1,0,0,1,744.71,252.93Z" style="fill:#e0e0e0"/><path d="M739.83,252.93c0-.12.54-.21,1.22-.21s1.22.09,1.22.21-.55.21-1.22.21S739.83,253.05,739.83,252.93Z" style="fill:#e0e0e0"/><path d="M734.94,252.93c0-.12.55-.21,1.22-.21s1.22.09,1.22.21-.54.21-1.22.21S734.94,253.05,734.94,252.93Z" style="fill:#e0e0e0"/><path d="M730.05,252.93c0-.12.55-.21,1.22-.21s1.23.09,1.23.21-.55.21-1.23.21S730.05,253.05,730.05,252.93Z" style="fill:#e0e0e0"/><path d="M725.17,252.93c0-.12.54-.21,1.22-.21s1.22.09,1.22.21-.55.21-1.22.21S725.17,253.05,725.17,252.93Z" style="fill:#e0e0e0"/><path d="M720.28,252.93c0-.12.55-.21,1.22-.21s1.22.09,1.22.21-.54.21-1.22.21S720.28,253.05,720.28,252.93Z" style="fill:#e0e0e0"/><path d="M715.39,252.93c0-.12.55-.21,1.22-.21s1.23.09,1.23.21-.55.21-1.23.21S715.39,253.05,715.39,252.93Z" style="fill:#e0e0e0"/><path d="M710.51,252.93c0-.12.54-.21,1.22-.21s1.22.09,1.22.21-.55.21-1.22.21S710.51,253.05,710.51,252.93Z" style="fill:#e0e0e0"/><path d="M705.62,252.93c0-.12.55-.21,1.22-.21s1.22.09,1.22.21-.54.21-1.22.21S705.62,253.05,705.62,252.93Z" style="fill:#e0e0e0"/><path d="M700.73,252.93c0-.12.55-.21,1.22-.21s1.23.09,1.23.21-.55.21-1.23.21S700.73,253.05,700.73,252.93Z" style="fill:#e0e0e0"/><path d="M695.85,252.93c0-.12.54-.21,1.22-.21s1.22.09,1.22.21-.55.21-1.22.21S695.85,253.05,695.85,252.93Z" style="fill:#e0e0e0"/><path d="M691,252.93c0-.12.55-.21,1.22-.21s1.22.09,1.22.21-.54.21-1.22.21S691,253.05,691,252.93Z" style="fill:#e0e0e0"/><path d="M686.07,252.93c0-.12.55-.21,1.23-.21s1.22.09,1.22.21-.55.21-1.22.21S686.07,253.05,686.07,252.93Z" style="fill:#e0e0e0"/><path d="M681.19,252.93c0-.12.54-.21,1.22-.21s1.22.09,1.22.21-.55.21-1.22.21S681.19,253.05,681.19,252.93Z" style="fill:#e0e0e0"/><path d="M676.3,252.93c0-.12.55-.21,1.22-.21s1.22.09,1.22.21-.54.21-1.22.21S676.3,253.05,676.3,252.93Z" style="fill:#e0e0e0"/><path d="M671.41,252.93c0-.12.55-.21,1.23-.21s1.22.09,1.22.21-.55.21-1.22.21S671.41,253.05,671.41,252.93Z" style="fill:#e0e0e0"/><path d="M666.53,252.93c0-.12.54-.21,1.22-.21s1.22.09,1.22.21-.55.21-1.22.21S666.53,253.05,666.53,252.93Z" style="fill:#e0e0e0"/><path d="M661.64,252.93c0-.12.55-.21,1.22-.21s1.22.09,1.22.21-.54.21-1.22.21S661.64,253.05,661.64,252.93Z" style="fill:#e0e0e0"/><path d="M660.12,249.57c.11,0,.21.55.21,1.22s-.1,1.22-.21,1.22-.22-.54-.22-1.22S660,249.57,660.12,249.57Z" style="fill:#e0e0e0"/><path d="M660.12,244.68c.11,0,.21.55.21,1.22s-.1,1.23-.21,1.23-.22-.55-.22-1.23S660,244.68,660.12,244.68Z" style="fill:#e0e0e0"/><path d="M660.12,239.8c.11,0,.21.54.21,1.22s-.1,1.22-.21,1.22-.22-.55-.22-1.22S660,239.8,660.12,239.8Z" style="fill:#e0e0e0"/><path d="M660.12,234.91c.11,0,.21.55.21,1.22s-.1,1.22-.21,1.22-.22-.54-.22-1.22S660,234.91,660.12,234.91Z" style="fill:#e0e0e0"/><path d="M660.12,230c.11,0,.21.55.21,1.22s-.1,1.23-.21,1.23-.22-.55-.22-1.23S660,230,660.12,230Z" style="fill:#e0e0e0"/><path d="M660.12,225.14c.11,0,.21.54.21,1.22s-.1,1.22-.21,1.22-.22-.55-.22-1.22S660,225.14,660.12,225.14Z" style="fill:#e0e0e0"/><path d="M660.12,220.25c.11,0,.21.55.21,1.22s-.1,1.22-.21,1.22-.22-.54-.22-1.22S660,220.25,660.12,220.25Z" style="fill:#e0e0e0"/><path d="M660.12,215.36c.11,0,.21.55.21,1.22s-.1,1.23-.21,1.23-.22-.55-.22-1.23S660,215.36,660.12,215.36Z" style="fill:#e0e0e0"/><path d="M660.12,210.48c.11,0,.21.54.21,1.22s-.1,1.22-.21,1.22-.22-.55-.22-1.22S660,210.48,660.12,210.48Z" style="fill:#e0e0e0"/><path d="M660.12,205.59c.11,0,.21.55.21,1.22s-.1,1.22-.21,1.22-.22-.54-.22-1.22S660,205.59,660.12,205.59Z" style="fill:#e0e0e0"/><path d="M660.12,200.7c.11,0,.21.55.21,1.22s-.1,1.23-.21,1.23-.22-.55-.22-1.23S660,200.7,660.12,200.7Z" style="fill:#e0e0e0"/><path d="M660.12,195.82c.11,0,.21.54.21,1.22s-.1,1.22-.21,1.22-.22-.55-.22-1.22S660,195.82,660.12,195.82Z" style="fill:#e0e0e0"/><path d="M660.12,190.93c.11,0,.21.55.21,1.22s-.1,1.22-.21,1.22-.22-.54-.22-1.22S660,190.93,660.12,190.93Z" style="fill:#e0e0e0"/><path d="M660.12,186c.11,0,.21.55.21,1.23s-.1,1.22-.21,1.22-.22-.55-.22-1.22S660,186,660.12,186Z" style="fill:#e0e0e0"/><path d="M660.12,181.16c.11,0,.21.54.21,1.22s-.1,1.22-.21,1.22-.22-.55-.22-1.22S660,181.16,660.12,181.16Z" style="fill:#e0e0e0"/><path d="M660.12,176.27c.11,0,.21.55.21,1.22s-.1,1.22-.21,1.22-.22-.54-.22-1.22S660,176.27,660.12,176.27Z" style="fill:#e0e0e0"/><path d="M660.12,171.38c.11,0,.21.55.21,1.23s-.1,1.22-.21,1.22-.22-.55-.22-1.22S660,171.38,660.12,171.38Z" style="fill:#e0e0e0"/><path d="M660.12,166.5c.11,0,.21.54.21,1.22s-.1,1.22-.21,1.22-.22-.55-.22-1.22S660,166.5,660.12,166.5Z" style="fill:#e0e0e0"/><path d="M664.4,165.89c0,.12-.55.21-1.23.21S662,166,662,165.89s.55-.21,1.22-.21S664.4,165.77,664.4,165.89Z" style="fill:#e0e0e0"/><path d="M669.28,165.89c0,.12-.54.21-1.22.21s-1.22-.09-1.22-.21.55-.21,1.22-.21S669.28,165.77,669.28,165.89Z" style="fill:#e0e0e0"/><path d="M674.17,165.89c0,.12-.55.21-1.22.21s-1.22-.09-1.22-.21.54-.21,1.22-.21S674.17,165.77,674.17,165.89Z" style="fill:#e0e0e0"/><path d="M679.06,165.89c0,.12-.55.21-1.23.21s-1.22-.09-1.22-.21.55-.21,1.22-.21S679.06,165.77,679.06,165.89Z" style="fill:#e0e0e0"/><path d="M683.94,165.89c0,.12-.54.21-1.22.21s-1.22-.09-1.22-.21.55-.21,1.22-.21S683.94,165.77,683.94,165.89Z" style="fill:#e0e0e0"/><path d="M688.83,165.89c0,.12-.55.21-1.22.21s-1.22-.09-1.22-.21.54-.21,1.22-.21S688.83,165.77,688.83,165.89Z" style="fill:#e0e0e0"/><path d="M693.72,165.89c0,.12-.55.21-1.23.21s-1.22-.09-1.22-.21.55-.21,1.22-.21S693.72,165.77,693.72,165.89Z" style="fill:#e0e0e0"/><path d="M698.6,165.89c0,.12-.55.21-1.22.21s-1.22-.09-1.22-.21.55-.21,1.22-.21S698.6,165.77,698.6,165.89Z" style="fill:#e0e0e0"/><path d="M703.49,165.89c0,.12-.55.21-1.22.21S701,166,701,165.89s.55-.21,1.23-.21S703.49,165.77,703.49,165.89Z" style="fill:#e0e0e0"/><path d="M708.37,165.89c0,.12-.54.21-1.22.21s-1.22-.09-1.22-.21.55-.21,1.22-.21S708.37,165.77,708.37,165.89Z" style="fill:#e0e0e0"/><path d="M713.26,165.89c0,.12-.55.21-1.22.21s-1.22-.09-1.22-.21.54-.21,1.22-.21S713.26,165.77,713.26,165.89Z" style="fill:#e0e0e0"/><path d="M718.15,165.89c0,.12-.55.21-1.22.21s-1.23-.09-1.23-.21.55-.21,1.23-.21S718.15,165.77,718.15,165.89Z" style="fill:#e0e0e0"/><path d="M723,165.89c0,.12-.54.21-1.22.21s-1.22-.09-1.22-.21.55-.21,1.22-.21S723,165.77,723,165.89Z" style="fill:#e0e0e0"/><path d="M727.92,165.89c0,.12-.55.21-1.22.21s-1.22-.09-1.22-.21.54-.21,1.22-.21S727.92,165.77,727.92,165.89Z" style="fill:#e0e0e0"/><path d="M732.81,165.89c0,.12-.55.21-1.22.21s-1.23-.09-1.23-.21.55-.21,1.23-.21S732.81,165.77,732.81,165.89Z" style="fill:#e0e0e0"/><path d="M737.69,165.89c0,.12-.54.21-1.22.21s-1.22-.09-1.22-.21.55-.21,1.22-.21S737.69,165.77,737.69,165.89Z" style="fill:#e0e0e0"/><path d="M742.58,165.89c0,.12-.55.21-1.22.21s-1.22-.09-1.22-.21.54-.21,1.22-.21S742.58,165.77,742.58,165.89Z" style="fill:#e0e0e0"/><path d="M747.16,166.2c-.06,0-.11-.11-.15-.31l.15.14a4.54,4.54,0,0,1-.91.07c-.68,0-1.23-.09-1.23-.21s.55-.21,1.23-.21a5.43,5.43,0,0,1,.91.07l.16,0,0,.11C747.26,166.09,747.21,166.2,747.16,166.2Z" style="fill:#e0e0e0"/><ellipse cx="747.16" cy="169.87" rx="0.21" ry="1.22" style="fill:#e0e0e0"/><ellipse cx="747.16" cy="174.75" rx="0.21" ry="1.22" style="fill:#e0e0e0"/><ellipse cx="747.16" cy="179.64" rx="0.21" ry="1.22" style="fill:#e0e0e0"/><ellipse cx="747.16" cy="184.53" rx="0.21" ry="1.22" style="fill:#e0e0e0"/><path d="M747.16,190.64c-.12,0-.22-.55-.22-1.23s.1-1.22.22-1.22.21.55.21,1.22S747.27,190.64,747.16,190.64Z" style="fill:#e0e0e0"/><path d="M747.16,195.52c-.12,0-.22-.55-.22-1.22s.1-1.22.22-1.22.21.55.21,1.22S747.27,195.52,747.16,195.52Z" style="fill:#e0e0e0"/><path d="M747.16,200.41c-.12,0-.22-.55-.22-1.22s.1-1.22.22-1.22.21.54.21,1.22S747.27,200.41,747.16,200.41Z" style="fill:#e0e0e0"/><path d="M747.16,205.3c-.12,0-.22-.55-.22-1.23s.1-1.22.22-1.22.21.55.21,1.22S747.27,205.3,747.16,205.3Z" style="fill:#e0e0e0"/><ellipse cx="747.16" cy="208.96" rx="0.21" ry="1.22" style="fill:#e0e0e0"/><ellipse cx="747.16" cy="213.85" rx="0.21" ry="1.22" style="fill:#e0e0e0"/><ellipse cx="747.16" cy="218.73" rx="0.21" ry="1.22" style="fill:#e0e0e0"/><ellipse cx="747.16" cy="223.62" rx="0.21" ry="1.22" style="fill:#e0e0e0"/><ellipse cx="747.16" cy="228.51" rx="0.21" ry="1.22" style="fill:#e0e0e0"/><path d="M747.16,234.61c-.12,0-.22-.54-.22-1.22s.1-1.22.22-1.22.21.55.21,1.22S747.27,234.61,747.16,234.61Z" style="fill:#e0e0e0"/><path d="M747.16,239.5c-.12,0-.22-.55-.22-1.22s.1-1.22.22-1.22.21.54.21,1.22S747.27,239.5,747.16,239.5Z" style="fill:#e0e0e0"/><path d="M747.16,244.39c-.12,0-.22-.55-.22-1.22s.1-1.23.22-1.23.21.55.21,1.23S747.27,244.39,747.16,244.39Z" style="fill:#e0e0e0"/><path d="M747.16,249.27c-.12,0-.22-.54-.22-1.22s.1-1.22.22-1.22.21.55.21,1.22S747.27,249.27,747.16,249.27Z" style="fill:#e0e0e0"/><rect x="743.93" y="248.83" width="6.45" height="6.45" style="fill:#e0e0e0"/><rect x="656.89" y="249.71" width="6.45" height="6.45" style="fill:#e0e0e0"/><rect x="743.93" y="162.04" width="6.45" height="6.45" style="fill:#e0e0e0"/><rect x="656.89" y="162.67" width="6.45" height="6.45" style="fill:#e0e0e0"/><path d="M750.38,413.72c0,.16-168,.28-375.17.28S0,413.88,0,413.72s168-.29,375.21-.29S750.38,413.56,750.38,413.72Z" style="fill:#263238"/><rect x="601.75" y="231.51" width="126.76" height="181.91" rx="12.65" style="fill:#263238"/><rect x="605.74" y="243.96" width="118.58" height="151.92" style="fill:#fff"/><path d="M670,404.28a4.87,4.87,0,1,1-4.86-4.86A4.87,4.87,0,0,1,670,404.28Z" style="fill:#455a64"/><rect x="646.04" y="236.75" width="38.18" height="2.01" rx="0.99" style="fill:#455a64"/><rect x="666.72" y="312.75" width="47.49" height="30.97" style="fill:#455a64"/><path d="M673.6,318.9a1.9,1.9,0,1,1-1.9-1.91A1.9,1.9,0,0,1,673.6,318.9Z" style="fill:#fafafa"/><path d="M711.63,320.5,710.06,319l-1.45,1.48-.05-4.43,3,0Zm-1.57-1.73.05.05,1.38,1.35,0-4.05-2.74,0,0,4Z" style="fill:#fafafa"/><path d="M699.67,317.89c0,.15-5.22.28-11.65.28s-11.65-.13-11.65-.28,5.21-.29,11.65-.29S699.67,317.73,699.67,317.89Z" style="fill:#fafafa"/><path d="M685.35,320.5a36.14,36.14,0,0,1-9,0,34.9,34.9,0,0,1,9,0Z" style="fill:#fafafa"/><path d="M616.71,248.81c-3.56.68-7.26-.05-10.84.49l-.13,0v24.82c11.14,1.1,22.16,3.9,33.22,5.84,14.79,2.59,30.65,3.5,44.2-2.95,10.91-5.2,19.17-14.63,29.26-21.28a62.38,62.38,0,0,1,11.9-6.08V244H623.08C622.19,246.41,619.43,248.29,616.71,248.81ZM649.18,253a7.66,7.66,0,1,1-7.66,7.66A7.66,7.66,0,0,1,649.18,253Z" style="fill:#e8505b"/><path d="M683.16,277c-13.55,6.45-29.41,5.54-44.2,2.95-11.06-1.94-22.08-4.74-33.22-5.84v17.38H724.32V249.68a62.38,62.38,0,0,0-11.9,6.08C702.33,262.41,694.07,271.84,683.16,277Zm-22,9.84a.66.66,0,1,1,.65-.65A.65.65,0,0,1,661.17,286.88Zm4.17,0a.66.66,0,1,1,.66-.65A.66.66,0,0,1,665.34,286.88Zm4.17,0a.66.66,0,1,1,.66-.65A.65.65,0,0,1,669.51,286.88Z" style="fill:#6320ee"/><g style="opacity:0.30000000000000004"><path d="M683.16,277c-13.55,6.45-29.41,5.54-44.2,2.95-11.06-1.94-22.08-4.74-33.22-5.84v17.38H724.32V249.68a62.38,62.38,0,0,0-11.9,6.08C702.33,262.41,694.07,271.84,683.16,277Zm-22,9.84a.66.66,0,1,1,.65-.65A.65.65,0,0,1,661.17,286.88Zm4.17,0a.66.66,0,1,1,.66-.65A.66.66,0,0,1,665.34,286.88Zm4.17,0a.66.66,0,1,1,.66-.65A.65.65,0,0,1,669.51,286.88Z" style="fill:#6320ee"/></g><path d="M661.17,285.57a.66.66,0,1,0,.65.66A.65.65,0,0,0,661.17,285.57Z" style="fill:#6320ee"/><path d="M665.34,285.57a.66.66,0,1,0,.66.66A.66.66,0,0,0,665.34,285.57Z" style="fill:#6320ee"/><path d="M669.51,285.57a.66.66,0,1,0,.66.66A.65.65,0,0,0,669.51,285.57Z" style="fill:#6320ee"/><circle cx="649.18" cy="260.68" r="7.66" style="fill:#6320ee"/><g style="opacity:0.30000000000000004"><circle cx="649.18" cy="260.68" r="7.66" style="fill:#6320ee"/></g><path d="M616.71,248.81c2.72-.52,5.48-2.4,6.37-4.85H605.74v5.37l.13,0C609.45,248.76,613.15,249.49,616.71,248.81Z" style="fill:#6320ee"/><path d="M711.12,301.23c0,.16-20.63.29-46.09.29s-46.09-.13-46.09-.29,20.63-.29,46.09-.29S711.12,301.07,711.12,301.23Z" style="fill:#263238"/><path d="M688.71,304.41c0,.15-11.06.28-24.69.28s-24.7-.13-24.7-.28,11.06-.29,24.7-.29S688.71,304.25,688.71,304.41Z" style="fill:#263238"/><rect x="612.67" y="312.75" width="47.49" height="30.97" style="fill:#6320ee"/><path d="M619.55,318.9a1.9,1.9,0,1,1-1.9-1.91A1.9,1.9,0,0,1,619.55,318.9Z" style="fill:#fafafa"/><path d="M657.58,320.5,656,319l-1.46,1.48,0-4.43,3,0ZM656,318.77l0,.05,1.38,1.35,0-4.05-2.75,0,.05,4Z" style="fill:#fafafa"/><path d="M645.62,317.89c0,.15-5.22.28-11.65.28s-11.65-.13-11.65-.28,5.22-.29,11.65-.29S645.62,317.73,645.62,317.89Z" style="fill:#fafafa"/><path d="M631.3,320.5a36.14,36.14,0,0,1-9,0,34.9,34.9,0,0,1,9,0Z" style="fill:#fafafa"/><path d="M660.16,347.93c0,.16-10.64.29-23.75.29s-23.74-.13-23.74-.29,10.63-.28,23.74-.28S660.16,347.78,660.16,347.93Z" style="fill:#263238"/><path d="M660.16,350.76c0,.16-10.64.28-23.75.28s-23.74-.12-23.74-.28,10.63-.29,23.74-.29S660.16,350.6,660.16,350.76Z" style="fill:#263238"/><path d="M637.41,353.58c0,.16-5.54.29-12.37.29s-12.37-.13-12.37-.29,5.54-.28,12.37-.28S637.41,353.43,637.41,353.58Z" style="fill:#263238"/><rect x="612.67" y="359.04" width="47.49" height="30.97" style="fill:#6320ee"/><path d="M619.55,365.18a1.9,1.9,0,1,1-1.9-1.9A1.9,1.9,0,0,1,619.55,365.18Z" style="fill:#fafafa"/><path d="M657.58,366.78,656,365.25l-1.46,1.49,0-4.44,3,0ZM656,365.06l0,.05,1.38,1.34,0-4-2.75,0,.05,4Z" style="fill:#fafafa"/><path d="M645.62,364.17c0,.16-5.22.29-11.65.29s-11.65-.13-11.65-.29,5.22-.28,11.65-.28S645.62,364,645.62,364.17Z" style="fill:#fafafa"/><path d="M631.3,366.78a34.9,34.9,0,0,1-9,0,36.14,36.14,0,0,1,9,0Z" style="fill:#fafafa"/><path d="M660.16,394.22c0,.16-10.64.28-23.75.28s-23.74-.12-23.74-.28,10.63-.29,23.74-.29S660.16,394.06,660.16,394.22Z" style="fill:#263238"/><rect x="667.99" y="359.04" width="47.49" height="30.97" style="fill:#455a64"/><path d="M674.88,365.18a1.91,1.91,0,1,1-1.9-1.9A1.9,1.9,0,0,1,674.88,365.18Z" style="fill:#fafafa"/><path d="M712.9,366.78l-1.56-1.53-1.45,1.49,0-4.44,3,0Zm-1.56-1.72,0,.05,1.37,1.34,0-4-2.74,0,0,4Z" style="fill:#fafafa"/><path d="M700.94,364.17c0,.16-5.21.29-11.65.29s-11.64-.13-11.64-.29,5.21-.28,11.64-.28S700.94,364,700.94,364.17Z" style="fill:#fafafa"/><path d="M686.63,366.78a34.9,34.9,0,0,1-9,0,36.14,36.14,0,0,1,9,0Z" style="fill:#fafafa"/><path d="M715.48,394.22c0,.16-10.63.28-23.74.28s-23.75-.12-23.75-.28,10.63-.29,23.75-.29S715.48,394.06,715.48,394.22Z" style="fill:#263238"/><path d="M714.85,347.93c0,.16-10.63.29-23.74.29s-23.75-.13-23.75-.29,10.63-.28,23.75-.28S714.85,347.78,714.85,347.93Z" style="fill:#263238"/><path d="M714.85,350.76c0,.16-10.63.28-23.74.28s-23.75-.12-23.75-.28,10.63-.29,23.75-.29S714.85,350.6,714.85,350.76Z" style="fill:#263238"/><path d="M692.11,353.58c0,.16-5.54.29-12.37.29s-12.38-.13-12.38-.29,5.54-.28,12.38-.28S692.11,353.43,692.11,353.58Z" style="fill:#263238"/><g style="opacity:0.30000000000000004"><path d="M616.71,248.81c2.72-.52,5.48-2.4,6.37-4.85H605.74v5.37l.13,0C609.45,248.76,613.15,249.49,616.71,248.81Z" style="fill:#7e5aff"/></g><path d="M579.51,106.66H232a10.85,10.85,0,0,0-10.85,10.85V363A10.85,10.85,0,0,0,232,373.82H365.37s8.48,26.23-17.82,39.81H472.27s-29.7-10.18-22.06-39.81h129.3A10.85,10.85,0,0,0,590.36,363V117.51A10.85,10.85,0,0,0,579.51,106.66Z" style="fill:#263238"/><path d="M410.39,348c4.73,6.76-2.67,14.16-9.43,9.43a2.66,2.66,0,0,1-.58-.58c-4.71-6.76,2.68-14.15,9.43-9.43A2.66,2.66,0,0,1,410.39,348Z" style="fill:#455a64"/><rect x="228.99" y="121.38" width="352.81" height="209.27" rx="3.59" style="fill:#fafafa"/><path d="M578.21,331.19H232.57a4.13,4.13,0,0,1-4.13-4.13V125a4.13,4.13,0,0,1,4.13-4.13H578.21a4.14,4.14,0,0,1,4.13,4.13v202.1A4.14,4.14,0,0,1,578.21,331.19ZM232.57,121.92a3.05,3.05,0,0,0-3,3v202.1a3.05,3.05,0,0,0,3,3H578.21a3,3,0,0,0,3-3V125a3,3,0,0,0-3-3Z" style="fill:#fff"/><path d="M257.92,129.46a2.82,2.82,0,1,1-2.82-2.82A2.81,2.81,0,0,1,257.92,129.46Z" style="fill:#455a64"/><path d="M240.84,129.46a2.82,2.82,0,1,1-2.81-2.82A2.81,2.81,0,0,1,240.84,129.46Z" style="fill:#455a64"/><path d="M249,129.46a2.82,2.82,0,1,1-2.82-2.82A2.81,2.81,0,0,1,249,129.46Z" style="fill:#455a64"/><path d="M472.24,236.25c0,.16-29.28.29-65.4.29s-65.42-.13-65.42-.29,29.28-.28,65.42-.28S472.24,236.1,472.24,236.25Z" style="fill:#263238"/><path d="M440.43,240.76c0,.16-15.69.29-35,.29s-35-.13-35-.29,15.68-.28,35-.28S440.43,240.6,440.43,240.76Z" style="fill:#263238"/><rect x="263.81" y="260.14" width="83.5" height="54.46" style="fill:#6320ee"/><path d="M275.92,270.94a3.35,3.35,0,1,1-3.34-3.34A3.34,3.34,0,0,1,275.92,270.94Z" style="fill:#fafafa"/><path d="M342.78,273.76,340,271.07l-2.56,2.61-.08-7.8,5.3-.06Zm-2.75-3,.09.08,2.42,2.37-.08-7.11-4.82.05.07,7Z" style="fill:#fafafa"/><path d="M321.75,269.17c0,.16-9.17.28-20.48.28s-20.48-.12-20.48-.28,9.17-.29,20.48-.29S321.75,269,321.75,269.17Z" style="fill:#fafafa"/><path d="M296.58,273.76a54.85,54.85,0,0,1-7.89.28,54.94,54.94,0,0,1-7.9-.28,54,54,0,0,1,7.9-.29A53.92,53.92,0,0,1,296.58,273.76Z" style="fill:#fafafa"/><rect x="365.08" y="260.14" width="83.5" height="54.46" style="fill:#455a64"/><path d="M447.49,320.94c0,.16-18.07.28-40.35.28s-40.34-.12-40.34-.28,18.06-.29,40.34-.29S447.49,320.78,447.49,320.94Z" style="fill:#263238"/><circle cx="373.85" cy="270.94" r="3.35" style="fill:#fafafa"/><path d="M444.05,273.76l-2.75-2.69-2.55,2.61-.08-7.8,5.3-.06Zm-2.75-3,.09.08,2.42,2.37-.08-7.11-4.82.05.07,7Z" style="fill:#fafafa"/><path d="M423,269.17c0,.16-9.17.28-20.48.28s-20.48-.12-20.48-.28,9.17-.29,20.48-.29S423,269,423,269.17Z" style="fill:#fafafa"/><path d="M397.85,273.76a55.05,55.05,0,0,1-7.9.28,54.85,54.85,0,0,1-7.89-.28,53.92,53.92,0,0,1,7.89-.29A54.12,54.12,0,0,1,397.85,273.76Z" style="fill:#fafafa"/><rect x="466.35" y="260.14" width="83.5" height="54.46" style="fill:#6320ee"/><path d="M548.76,320.94c0,.16-18.07.28-40.35.28s-40.34-.12-40.34-.28,18.06-.29,40.34-.29S548.76,320.78,548.76,320.94Z" style="fill:#263238"/><path d="M478.46,270.94a3.35,3.35,0,1,1-3.34-3.34A3.35,3.35,0,0,1,478.46,270.94Z" style="fill:#fafafa"/><path d="M545.32,273.76l-2.75-2.69L540,273.68l-.08-7.8,5.3-.06Zm-2.75-3,.09.08,2.42,2.37-.08-7.11-4.82.05.07,7Z" style="fill:#fafafa"/><path d="M524.29,269.17c0,.16-9.17.28-20.48.28s-20.48-.12-20.48-.28,9.17-.29,20.48-.29S524.29,269,524.29,269.17Z" style="fill:#fafafa"/><path d="M499.12,273.76a111.45,111.45,0,0,1-15.79,0,107.61,107.61,0,0,1,15.79,0Z" style="fill:#fafafa"/><path d="M579.05,288.11a11.58,11.58,0,1,1-11.58-11.58A11.58,11.58,0,0,1,579.05,288.11Z" style="fill:#e0e0e0"/><path d="M565.71,293a13,13,0,0,1,1.63-1.5c1-.9,2.49-2.1,4.12-3.42v.31l-.08-.07c-1.6-1.39-3-2.66-4-3.6a13.37,13.37,0,0,1-1.61-1.58,11.63,11.63,0,0,1,1.8,1.36c1.07.88,2.53,2.12,4.13,3.51l.08.07.19.16-.19.16c-1.63,1.31-3.11,2.49-4.2,3.32A11.83,11.83,0,0,1,565.71,293Z" style="fill:#263238"/><path d="M232.92,288.11a11.58,11.58,0,1,1,11.58,11.58A11.58,11.58,0,0,1,232.92,288.11Z" style="fill:#e0e0e0"/><path d="M246.26,283.18a12.39,12.39,0,0,1-1.62,1.5c-1,.89-2.5,2.1-4.12,3.42v-.32l.08.08c1.6,1.38,3,2.66,4.06,3.6a12.72,12.72,0,0,1,1.6,1.58,12.18,12.18,0,0,1-1.79-1.36c-1.07-.88-2.54-2.12-4.14-3.51l-.08-.07-.18-.17.19-.15c1.62-1.32,3.11-2.49,4.19-3.32A11.21,11.21,0,0,1,246.26,283.18Z" style="fill:#263238"/><path d="M250.56,133.17l-.4,13.68.4-13.67,105.38,3.23c.77,5.6-5,10.09-10.61,11s-11.3-.42-16.91.28c-11.19,1.38-19.81,10.34-30.21,14.73-17.06,7.21-38.65.44-48-15.51L248.1,218l.1-3.57c12.12-20,37.95-29.13,61.35-29.16s46.13,7.07,69.06,11.78,47.61,6.84,69-2.61c17.24-7.61,30.54-21.93,46.57-31.83,32.56-20.11,76.63-19.75,108.85.9l-1.87,64.69L248.1,218l353.47,10.42L604,143.6Zm144.5,46.15a11.94,11.94,0,1,1,12.28-11.6A11.95,11.95,0,0,1,395.06,179.32Z" style="fill:#e8505b"/><path d="M603.05,163.47c-32.22-20.65-76.29-21-108.85-.9-16,9.9-29.33,24.22-46.57,31.83-21.41,9.45-46.09,7.31-69,2.61S333,185.19,309.55,185.23s-49.23,9.14-61.35,29.16l-.1,3.57,353.08,10.2ZM415.39,212.8a1.39,1.39,0,1,1,1.42-1.35A1.38,1.38,0,0,1,415.39,212.8Zm8.8.25a1.39,1.39,0,1,1,1.43-1.35A1.39,1.39,0,0,1,424.19,213.05Zm8.81.26a1.39,1.39,0,1,1,1.43-1.35A1.39,1.39,0,0,1,433,213.31Zm135.29-22.82a3.89,3.89,0,1,1,.16-5.5A3.88,3.88,0,0,1,568.29,190.49Z" style="fill:#6320ee"/><g style="opacity:0.30000000000000004"><path d="M603.05,163.47c-32.22-20.65-76.29-21-108.85-.9-16,9.9-29.33,24.22-46.57,31.83-21.41,9.45-46.09,7.31-69,2.61S333,185.19,309.55,185.23s-49.23,9.14-61.35,29.16l-.1,3.57,353.08,10.2ZM415.39,212.8a1.39,1.39,0,1,1,1.42-1.35A1.38,1.38,0,0,1,415.39,212.8Zm8.8.25a1.39,1.39,0,1,1,1.43-1.35A1.39,1.39,0,0,1,424.19,213.05Zm8.81.26a1.39,1.39,0,1,1,1.43-1.35A1.39,1.39,0,0,1,433,213.31Zm135.29-22.82a3.89,3.89,0,1,1,.16-5.5A3.88,3.88,0,0,1,568.29,190.49Z" style="fill:#6320ee"/></g><path d="M415.47,210a1.39,1.39,0,1,0,1.34,1.43A1.39,1.39,0,0,0,415.47,210Z" style="fill:#6320ee"/><path d="M424.27,210.28a1.39,1.39,0,1,0,1.35,1.42A1.39,1.39,0,0,0,424.27,210.28Z" style="fill:#6320ee"/><path d="M433.08,210.53a1.39,1.39,0,1,0,1.35,1.43A1.39,1.39,0,0,0,433.08,210.53Z" style="fill:#6320ee"/><path d="M298.21,162.42c10.4-4.39,19-13.35,30.21-14.73,5.61-.7,11.34.62,16.91-.28s11.38-5.4,10.61-11l-105.38-3.23-.4,13.67v.06h0C259.56,162.86,281.15,169.63,298.21,162.42Z" style="fill:#6320ee"/><g style="opacity:0.30000000000000004"><path d="M298.21,162.42c10.4-4.39,19-13.35,30.21-14.73,5.61-.7,11.34.62,16.91-.28s11.38-5.4,10.61-11l-105.38-3.23-.4,13.67v.06h0C259.56,162.86,281.15,169.63,298.21,162.42Z" style="fill:#6320ee"/></g><path d="M395.75,155.44a11.94,11.94,0,1,0,11.59,12.28A12,12,0,0,0,395.75,155.44Z" style="fill:#6320ee"/><g style="opacity:0.30000000000000004"><path d="M395.75,155.44a11.94,11.94,0,1,0,11.59,12.28A12,12,0,0,0,395.75,155.44Z" style="fill:#6320ee"/></g><path d="M563,184.83a3.89,3.89,0,1,0,5.5.16A3.9,3.9,0,0,0,563,184.83Z" style="fill:#6320ee"/><path d="M549.83,228.56c2.92-4.91,3.78-11.45,4.53-17.11.35-2.66,1-6.45-.9-8.12s-2.19-4.55-4.49-5.93a7.1,7.1,0,0,0-7.61.06" style="fill:#263238"/><path d="M541.73,245.93h0a7.88,7.88,0,0,1-8.48-7.56c-.17-4.29-.31-8.62-.31-8.62s-6.5-.61-7-7.05-.26-21.29-.26-21.29h0a22.43,22.43,0,0,1,22.66,1.46l-.4,22.65V237.7C547.93,241.79,545.8,245.62,541.73,245.93Z" style="fill:#ffbe9d"/><path d="M532.38,214.85a3.29,3.29,0,0,1,4.4-1,3.73,3.73,0,0,1,1.24,4.67,4.92,4.92,0,0,1-3.16,2.39,2.47,2.47,0,0,0-1.93,2.66c.19,1.62,2.87,2.22,4.08,3.56,1.89,2.08,6,3,8.82,3.29s2.41.35,4-1.9a8.65,8.65,0,0,0,1.57-5.23l.29-14.23a20.32,20.32,0,0,0-.32-5.11,6.9,6.9,0,0,0-2.7-4.22c-1.56-1-3.54-1.12-5.33-1.7-2.23-.72-4.12-2.19-6.2-3.26s-4.64-1.71-6.74-.65c-1.5.75-2.51,2.25-4,3.08-2.08,1.18-4.91.91-5.92,4a5.25,5.25,0,0,0,0,3.28c1.41,4.16,6.57,5.84,10.28,4,.08.7-.62,2.27.12,4.5.24.71.33,1.8,1.44,1.82" style="fill:#263238"/><path d="M533.53,218.86c.06,0,.29.32.8.28a1.49,1.49,0,0,0,1.16-1.44,1.6,1.6,0,0,0-1.07-1.57c-.51-.2-.89-.11-.91-.2s.35-.32,1-.18a1.89,1.89,0,0,1,1.53,2,1.81,1.81,0,0,1-1.72,1.81,1,1,0,0,1-.74-.38C533.49,219,533.5,218.88,533.53,218.86Z" style="fill:#eb996e"/><path d="M552.08,210.63a8,8,0,0,1,5.52-4.2,6.75,6.75,0,0,1,6.43,2.35,5.84,5.84,0,0,1,.29,6.71c-1.56,2.26-4.54,3-7.26,3.33a11.22,11.22,0,0,0,7.94,3.82,7.25,7.25,0,0,1-7.36.35l4.43,3.77A9.88,9.88,0,0,1,554,209.13" style="fill:#263238"/><path d="M556.15,218.52a2.54,2.54,0,0,1-2.29-.05,5.62,5.62,0,0,1-3.23-4.44,6,6,0,0,1,1.78-5.2,3.59,3.59,0,0,1,2-1.16,17.62,17.62,0,0,0-1.7,1.44,5.91,5.91,0,0,0-1.51,4.84A5.49,5.49,0,0,0,554,218.1,5.19,5.19,0,0,0,556.15,218.52Z" style="fill:#e8505b"/><path d="M565.47,212.05a5.93,5.93,0,0,0-1.82-1.2,10,10,0,0,0-5.24-.17,13.69,13.69,0,0,0-4.89,2.08c-1.14.76-1.74,1.39-1.81,1.32a5.36,5.36,0,0,1,1.58-1.65,12,12,0,0,1,5-2.3,9.17,9.17,0,0,1,5.5.35C565.16,211.11,565.54,212,565.47,212.05Z" style="fill:#455a64"/><path d="M563.52,216.37a3,3,0,0,1-1.56.44,7.45,7.45,0,0,1-6.85-3.21,3,3,0,0,1-.66-1.47c.08,0,.37.5,1,1.23a8.66,8.66,0,0,0,2.91,2.27,8.53,8.53,0,0,0,3.6.77A9.26,9.26,0,0,1,563.52,216.37Z" style="fill:#455a64"/><path d="M553.72,225a3.83,3.83,0,0,1-1.68-1.07,8.43,8.43,0,0,1-2.3-8.94,4,4,0,0,1,1-1.74c.09,0-.27.71-.56,1.86a9,9,0,0,0,2.2,8.53C553.14,224.51,553.77,224.92,553.72,225Z" style="fill:#455a64"/><path d="M540.23,199.46a3.33,3.33,0,0,1,2.49-1.34,5.62,5.62,0,0,1,3.1.47,7,7,0,0,1,2.86,2.55,14.24,14.24,0,0,1,2,6.53,14.56,14.56,0,0,1,.14,2.82,12.78,12.78,0,0,1-.54-2.76,15.68,15.68,0,0,0-2.07-6.28,6.8,6.8,0,0,0-2.61-2.39,5.48,5.48,0,0,0-2.83-.54A5.84,5.84,0,0,0,540.23,199.46Z" style="fill:#455a64"/><path d="M522.11,206s-.37.06-.9-.29a2.26,2.26,0,0,1-1-2.35,2.5,2.5,0,0,1,1-1.53,3.6,3.6,0,0,1,2.06-.41,2.8,2.8,0,0,0,1.92-.48,14.5,14.5,0,0,0,1.56-1.69,8.07,8.07,0,0,1,4-2.33,8.61,8.61,0,0,1,3.8-.07,7.17,7.17,0,0,1,2.37.93,2.37,2.37,0,0,1,.73.58,12.21,12.21,0,0,0-3.18-1.11,8.6,8.6,0,0,0-3.59.18,7.83,7.83,0,0,0-3.74,2.2,13,13,0,0,1-1.65,1.76,2.8,2.8,0,0,1-1.13.5,5.5,5.5,0,0,1-1.13.06,3.09,3.09,0,0,0-1.79.28,2,2,0,0,0-.21,3.3A5.55,5.55,0,0,0,522.11,206Z" style="fill:#455a64"/><path d="M539.32,224a9.87,9.87,0,0,1,.84-.53,5.28,5.28,0,0,0,1.74-2,4.94,4.94,0,0,0-.88-5.66,9.55,9.55,0,0,0-2-1.46c-.75-.43-1.52-.84-2.22-1.32a7.53,7.53,0,0,1-3.29-5.52,7,7,0,0,1,.22-2.76,2.4,2.4,0,0,1,.41-.93,10.18,10.18,0,0,0-.23,3.64,7.69,7.69,0,0,0,1.52,3.56,11.73,11.73,0,0,0,3.88,2.84,9.35,9.35,0,0,1,2.11,1.57,5.23,5.23,0,0,1,1.26,2.14,5.16,5.16,0,0,1-2.4,6.05A2.08,2.08,0,0,1,539.32,224Z" style="fill:#455a64"/><path d="M550.48,214.51a3.08,3.08,0,0,1-.83.2,12.12,12.12,0,0,1-2.32.08,14.16,14.16,0,0,1-7.2-2.46,11.31,11.31,0,0,1-4.71-6,4.76,4.76,0,0,1-.08-2.35,1.73,1.73,0,0,1,.33-.79,6.14,6.14,0,0,0,.13,3,11.75,11.75,0,0,0,4.65,5.6,15.13,15.13,0,0,0,6.92,2.53C549.27,214.61,550.47,214.4,550.48,214.51Z" style="fill:#455a64"/><polygon points="528.18 432.91 524.98 439.68 539.33 439.51 539.97 432.33 528.18 432.91" style="fill:#e8505b"/><path d="M539.61,438.15a9,9,0,0,1-2.09.16c-1.3,0-3.08,0-5,0l-5-.16a10.13,10.13,0,0,1-2.09-.17,9,9,0,0,1,2.09-.16c1.3,0,3.08,0,5.05,0l5,.16A9.79,9.79,0,0,1,539.61,438.15Z" style="fill:#263238"/><path d="M533.45,432.05a10.18,10.18,0,0,1,.06,3,10.35,10.35,0,0,1-.39,3,10.06,10.06,0,0,1-.06-3A10.54,10.54,0,0,1,533.45,432.05Z" style="fill:#263238"/><g style="opacity:0.6000000000000001"><polyline points="525 439.84 539.35 439.36 539.44 437.99 525.72 438.11 524.99 439.67" style="fill:#fff"/></g><path d="M590.59,435.69,568.26,307.24h0c0-.19-.09-.37-.14-.56v0h0c-3.81-15.1-6.82-18.8-6.82-18.8l-37.1,1c-2.91,5.24-3.28,17.79-3.28,17.79-.4,1.54,7.23,126.26,7.23,126.26l11.45-.32,6.21-118L579,435.94Z" style="fill:#ffbe9d"/><path d="M466.15,224.25c-.09-2.33.9-6.82,1.45-7.17s1.21.32.94,1a8.73,8.73,0,0,0-.35,2.33,5.61,5.61,0,0,0,.22,1.87c.15.53.3,1,.45,1.4l.26.76,24.53,22,15.32-.94,3,15.64-24.93-2.17-25.62-28.28h0c-2.17-1.57-4.39-3.48-5.78-4.39-2.52-1.64-1.8-2.1-1.49-2.36Z" style="fill:#ffbe9d"/><path d="M603.89,211.19l-15.27,31.2-15.3,6.52-5.71-13.77,11.22-3,17.48-27.9,0-.8c0-.43,0-.91,0-1.45a5.49,5.49,0,0,0-.31-1.88,8.7,8.7,0,0,0-1-2.14c-.44-.57,0-1.39.63-1.21s1.89,1.72,2.45,4,2.08-1,2.65-2.23,2.51-4.81,3-4.91c.73-.16,1,.62.44,1.8s-2.15,4.85-1.51,5.13l1.08-.06.85,4.23A10,10,0,0,1,603.89,211.19Z" style="fill:#ffbe9d"/><path d="M593.86,436.9l-.05-1.46-14.83.43.13,4.82.92,0c4.08.1,20.74.25,23.44-.59C606.48,439.19,593.86,436.9,593.86,436.9Z" style="fill:#e8505b"/><g style="opacity:0.6000000000000001"><path d="M584.46,440.44a4.74,4.74,0,0,0-2-2.87,5.27,5.27,0,0,0-3.48-.91l.12,3.84Z" style="fill:#fff"/></g><g style="opacity:0.6000000000000001"><path d="M600,438.22s4.44,1.06,3.91,1.75-17.38,1.13-24.83.72v-.3l19.66-.36S599.18,438.28,600,438.22Z" style="fill:#fff"/></g><path d="M578.89,440.38a.76.76,0,0,0,.26,0l.73,0,2.68,0c2.27,0,5.4,0,8.86-.09s6.59-.23,8.86-.36l2.68-.18.72-.06.26,0h-.26l-.73,0-2.68.12c-2.26.1-5.39.23-8.85.32s-6.59.12-8.86.13l-2.68,0h-1Z" style="fill:#263238"/><path d="M598.79,440.24a4.81,4.81,0,0,1,.46-1.21,5.87,5.87,0,0,1,.89-1,1.85,1.85,0,0,0-1,.89A1.67,1.67,0,0,0,598.79,440.24Z" style="fill:#263238"/><path d="M594.37,438.3s.24-.22.45-.54.34-.6.29-.62-.24.21-.45.53S594.33,438.28,594.37,438.3Z" style="fill:#263238"/><path d="M593.16,437.74s.26-.11.51-.33.42-.43.38-.46-.26.12-.51.34S593.12,437.71,593.16,437.74Z" style="fill:#263238"/><path d="M592.36,436.47a1.93,1.93,0,0,0,.77.07,1.79,1.79,0,0,0,.77-.1,2.12,2.12,0,0,0-.77-.07A1.79,1.79,0,0,0,592.36,436.47Z" style="fill:#263238"/><path d="M592.07,435.56a2.34,2.34,0,0,0,1.75.08,5.1,5.1,0,0,0-.87,0A5.61,5.61,0,0,0,592.07,435.56Z" style="fill:#263238"/><path d="M594.83,437.09a2.93,2.93,0,0,0,.95,0,5.73,5.73,0,0,0,1-.24,2.5,2.5,0,0,0,.58-.23.48.48,0,0,0,.22-.28.32.32,0,0,0-.15-.35,1.82,1.82,0,0,0-2.14.53,1.46,1.46,0,0,0-.29.6c0,.15,0,.23,0,.23a2.88,2.88,0,0,1,.41-.76,1.82,1.82,0,0,1,.8-.51,1.57,1.57,0,0,1,1.13,0c.15.1.1.27-.06.36a3.54,3.54,0,0,1-.53.23,7.14,7.14,0,0,1-1,.26C595.19,437.05,594.83,437.06,594.83,437.09Z" style="fill:#263238"/><path d="M595.08,437.13a.83.83,0,0,0,.09-.62,1.41,1.41,0,0,0-.28-.64,1,1,0,0,0-.8-.43.36.36,0,0,0-.28.42,1,1,0,0,0,.17.39,2.71,2.71,0,0,0,.47.52,1.31,1.31,0,0,0,.55.34s-.19-.15-.46-.42a3.38,3.38,0,0,1-.42-.52c-.13-.18-.23-.52,0-.56a.83.83,0,0,1,.64.36,1.43,1.43,0,0,1,.29.56A3,3,0,0,1,595.08,437.13Z" style="fill:#263238"/><path d="M579.08,436.62s.42-.05,1.09,0a5,5,0,0,1,2.41.85,4.42,4.42,0,0,1,1.54,1.91,9.07,9.07,0,0,1,.31,1,.57.57,0,0,0,0-.27,3.22,3.22,0,0,0-.18-.74,4.24,4.24,0,0,0-1.56-2,4.79,4.79,0,0,0-2.5-.83,4.49,4.49,0,0,0-.81,0A.92.92,0,0,0,579.08,436.62Z" style="fill:#263238"/><path d="M586.27,439.06a9.45,9.45,0,0,0,2.16.14,9.26,9.26,0,0,0,2.16-.22c0-.05-1,0-2.16,0S586.28,439,586.27,439.06Z" style="fill:#263238"/><path d="M583.38,439.13s.09.19.19.39.16.38.22.38.06-.22-.06-.45S583.41,439.09,583.38,439.13Z" style="fill:#263238"/><path d="M582.25,437.89s.07.18.22.32.32.22.35.19-.06-.17-.22-.31S582.29,437.86,582.25,437.89Z" style="fill:#263238"/><path d="M580.67,437.36c0,.05.21,0,.43.1s.38.17.42.14-.09-.22-.37-.29S580.66,437.32,580.67,437.36Z" style="fill:#263238"/><path d="M579.56,437.12s.07.11.19.15.24,0,.25,0-.07-.11-.19-.15S579.57,437.07,579.56,437.12Z" style="fill:#263238"/><path d="M558,260.62l.45-1.65c1.14-.71,14.54-9.06,15-9.14s-6-15.39-6-15.39l-15.25,2.19a24.41,24.41,0,0,0-4.31-.53L533.51,236s-6.47.77-8.54,2.26l-16.21,6.13,3.66,18.87,14.13-2.49c-.68,1.93,0,5.28.58,9.1.74,4.69,1.14,11.26-1.26,15.33,0,0-3,10.32-3,18.51l41.48-4.84s-.12-8.9-8.33-19.48l.39-11.15Z" style="fill:#263238"/><path d="M527.88,255.83a25.81,25.81,0,0,1-.62-3.59l.32.14-3.92,2.91-.38.29,0-.49c-.1-1.22-.21-2.53-.31-3.9l.44.22-.18.12-4.33,2.87-.28.19-.11-.32a14.46,14.46,0,0,1-.67-3.7l.29.17a6,6,0,0,0-2.11,1.6c-.42.48-.59.8-.64.77a2.57,2.57,0,0,1,.46-.91,5.63,5.63,0,0,1,2.11-1.82l.26-.14,0,.31a15.67,15.67,0,0,0,.76,3.55l-.39-.13,4.3-2.92.18-.12.41-.27,0,.49c.1,1.37.2,2.68.29,3.9l-.43-.2,4-2.79.28-.2,0,.34A22.46,22.46,0,0,1,527.88,255.83Z" style="fill:#fafafa"/><path d="M548.69,248.76a22.35,22.35,0,0,1-2.47-2.68l.34-.05-1.71,4.56-.17.45-.3-.38L542,247.55l.49-.06-.09.2-2.08,4.76-.13.32-.27-.22a14.61,14.61,0,0,1-2.57-2.74h.34a6,6,0,0,0-.91,2.48,9.47,9.47,0,0,1-.11,1,2.32,2.32,0,0,1-.12-1,5.83,5.83,0,0,1,.79-2.68l.15-.25.19.24a14.82,14.82,0,0,0,2.57,2.57l-.4.1c.62-1.47,1.3-3.08,2-4.77l.09-.2.2-.46.29.4c.83,1.09,1.62,2.15,2.35,3.12l-.46.07,1.84-4.52.13-.32.21.27A23.74,23.74,0,0,1,548.69,248.76Z" style="fill:#fafafa"/><path d="M531,260.41a24.64,24.64,0,0,1-1.05,3.49l-.22-.27,4.8-.84.47-.09-.18.45c-.46,1.14-.95,2.36-1.47,3.63l-.3-.39.22,0,5.15-.63.35,0-.06.33a14.05,14.05,0,0,1-1,3.61l-.18-.28a6.2,6.2,0,0,0,2.6-.48c.59-.25.89-.45.91-.42s-.23.3-.81.62a5.67,5.67,0,0,1-2.71.68h-.29l.11-.28a15.11,15.11,0,0,0,.91-3.52l.29.3-5.15.68-.21,0-.49.06.19-.45c.52-1.27,1-2.49,1.49-3.62l.29.37-4.82.71-.34.05.12-.32A21.7,21.7,0,0,1,531,260.41Z" style="fill:#fafafa"/><path d="M555.49,239.52a22.13,22.13,0,0,1-1,3.48l-.22-.26,4.8-.85.48-.08-.18.45-1.47,3.63-.3-.39.22,0,5.15-.64.34,0,0,.34a13.85,13.85,0,0,1-1.05,3.6l-.18-.28a6,6,0,0,0,2.6-.48,8.45,8.45,0,0,1,.91-.41,2.19,2.19,0,0,1-.81.61,5.69,5.69,0,0,1-2.71.69h-.29l.11-.28a15.34,15.34,0,0,0,.91-3.53l.29.3-5.15.68-.22,0-.48.06.18-.45c.53-1.27,1-2.49,1.5-3.61l.29.36-4.82.71-.35.05.13-.31A23.14,23.14,0,0,1,555.49,239.52Z" style="fill:#fafafa"/><path d="M525.43,240a22.34,22.34,0,0,1,1.46,3.33l-.34-.06c.91-1.09,2-2.36,3.11-3.76l.3-.37.16.46c.39,1.16.8,2.41,1.24,3.71l-.48-.1.14-.16,3.51-3.83.23-.25.18.29a14.21,14.21,0,0,1,1.55,3.42l-.33-.09a5.94,5.94,0,0,0,1.67-2.06,6.1,6.1,0,0,1,.43-.9,2.17,2.17,0,0,1-.23,1,5.62,5.62,0,0,1-1.61,2.28l-.22.19-.1-.28a15.05,15.05,0,0,0-1.6-3.27l.42,0-3.47,3.86-.15.17L531,244l-.15-.47c-.43-1.3-.84-2.55-1.21-3.72l.46.09-3.21,3.67-.23.26-.11-.32A23.75,23.75,0,0,1,525.43,240Z" style="fill:#fafafa"/><path d="M547.45,258.38a22.92,22.92,0,0,1,2.89,2.22l-.33.11c.27-1.4.57-3,.9-4.79l.09-.48.36.33,2.88,2.65-.47.14.05-.21c.43-1.79.84-3.49,1.22-5l.08-.34.3.17a14.47,14.47,0,0,1,3,2.25l-.33.07a6.06,6.06,0,0,0,.47-2.6,6.17,6.17,0,0,1-.06-1,2.29,2.29,0,0,1,.28,1,5.56,5.56,0,0,1-.31,2.77l-.1.28-.23-.2a15.56,15.56,0,0,0-3-2.1l.38-.16c-.37,1.56-.76,3.26-1.18,5.05l0,.22-.11.47-.36-.33c-1-.94-2-1.84-2.86-2.67l.45-.15c-.38,1.77-.73,3.38-1,4.77l-.07.34-.25-.23A22.17,22.17,0,0,1,547.45,258.38Z" style="fill:#fafafa"/><path d="M549.59,267.59a21.9,21.9,0,0,1-3.12,1.87l0-.34,4.12,2.6.41.26-.44.21-3.52,1.7,0-.49.18.13,4.24,3,.28.2-.26.21a14.24,14.24,0,0,1-3.2,2l0-.33a6,6,0,0,0,2.25,1.4c.6.21,1,.26,1,.3a2,2,0,0,1-1-.09,5.62,5.62,0,0,1-2.47-1.31l-.22-.2.27-.13a15.34,15.34,0,0,0,3-2l0,.41L547,274l-.18-.12-.4-.28.44-.21,3.54-1.68,0,.47-4.05-2.71-.29-.2.3-.15A24.48,24.48,0,0,1,549.59,267.59Z" style="fill:#fafafa"/><path d="M527.13,283.5a22,22,0,0,1,3.44,1.2l-.28.21c-.18-1.41-.4-3-.63-4.84l-.07-.47.45.2,3.56,1.62-.41.28v-.22c-.15-1.83-.29-3.57-.41-5.17l0-.34.33.06a14.52,14.52,0,0,1,3.56,1.21l-.29.17a5.93,5.93,0,0,0-.37-2.62,9.51,9.51,0,0,1-.37-.93s.28.25.58.84a5.76,5.76,0,0,1,.57,2.73l0,.3-.27-.13a15.58,15.58,0,0,0-3.48-1.06l.31-.27c.14,1.59.29,3.33.45,5.17l0,.21,0,.49-.44-.2-3.55-1.65.38-.28c.19,1.8.35,3.43.5,4.85l0,.35-.31-.14A23.79,23.79,0,0,1,527.13,283.5Z" style="fill:#fafafa"/><path d="M525.87,238.54a2.59,2.59,0,0,1,1.15,0,6.82,6.82,0,0,1,3,1,8.5,8.5,0,0,1,3.08,3.5,12.22,12.22,0,0,1,1.19,5.57,14.51,14.51,0,0,1-3.77,9.46,13.49,13.49,0,0,1-2.38,2,3.57,3.57,0,0,1-1,.53,23.8,23.8,0,0,0,3.08-2.83,14.75,14.75,0,0,0,3.51-9.2,12,12,0,0,0-1.1-5.33,7.87,7.87,0,0,0-6.71-4.73Z" style="fill:#455a64"/><path d="M523.54,289.4c-10.8,34.09,1.8,76.51-1.54,116.22-.3,3.65-1.7,8,1.09,10.33a6.83,6.83,0,0,0,6,1,47.1,47.1,0,0,0,5.88-2.35,23.68,23.68,0,0,1,15.65-.61c3.45,1.08,6.87,3,10.44,2.44,4.74-.72,7.81-5.4,12.17-7.39,4.08-1.86,8.8-1.16,13.29-1.28s9.62-1.6,11.33-5.75c0,0-31-115.71-41.85-122.61l-28.78,1.83Z" style="fill:#455a64"/><path d="M555.66,310.58c0,.13-4.1,1.3-9.23,2.63s-9.3,2.3-9.33,2.18,4.09-1.3,9.22-2.62S555.63,310.46,555.66,310.58Z" style="fill:#263238"/><path d="M189,213l-57.91-.27a12.59,12.59,0,0,1-12.55-12.63l.61-144.76a12.59,12.59,0,0,1,12.67-12.52l57.91.26A12.59,12.59,0,0,1,202.3,55.7l-.61,144.76A12.61,12.61,0,0,1,189,213Z" style="fill:#263238"/><path d="M189.66,48.07l-11.22,0a2.78,2.78,0,0,0-2.74,2.83v2A2.79,2.79,0,0,1,173,55.71l-21.88-.1a2.79,2.79,0,0,1-2.71-2.86v-2a2.78,2.78,0,0,0-2.72-2.85l-4,0-9.82-.05A8.83,8.83,0,0,0,123,56.57l-.6,141.3a8.82,8.82,0,0,0,8.8,8.84L189,207a8.82,8.82,0,0,0,8.88-8.77l.6-141.3A8.82,8.82,0,0,0,189.66,48.07Z" style="fill:#fff"/><path d="M188.92,105.93c0,.16-12.57.29-28.06.29s-28.07-.13-28.07-.29,12.56-.28,28.07-.28S188.92,105.77,188.92,105.93Z" style="fill:#263238"/><path d="M188.92,109.39c0,.16-12.57.28-28.06.28s-28.07-.12-28.07-.28,12.56-.29,28.07-.29S188.92,109.23,188.92,109.39Z" style="fill:#263238"/><path d="M170,112.48a110.4,110.4,0,0,1-11.3.29,110.4,110.4,0,0,1-11.3-.29c0-.15,5.06-.28,11.3-.28S170,112.33,170,112.48Z" style="fill:#263238"/><rect x="129.54" y="120.09" width="59.38" height="38.01" style="fill:#6320ee"/><ellipse cx="135.77" cy="127.63" rx="2.38" ry="2.33" style="fill:#fafafa"/><path d="M185.7,129.6l-2-1.88-1.81,1.82-.06-5.44,3.77,0Zm-2-2.12.06.06,1.72,1.65-.05-5-3.43,0,.05,4.87Z" style="fill:#fafafa"/><path d="M170.74,126.39c0,.16-6.52.29-14.56.29s-14.57-.13-14.57-.29,6.52-.28,14.57-.28S170.74,126.24,170.74,126.39Z" style="fill:#fafafa"/><path d="M152.84,129.6a28.76,28.76,0,0,1-5.61.28,28.91,28.91,0,0,1-5.62-.28,27.53,27.53,0,0,1,5.62-.29A27.38,27.38,0,0,1,152.84,129.6Z" style="fill:#fafafa"/><path d="M131.8,85.06c-3-.52-5.94-1.1-8.91-1.69L122.83,97h75.46l.12-29.94c-6.68,5.48-13.14,11.25-20.91,15C163.49,88.69,147.09,87.74,131.8,85.06Zm23,7.14a.68.68,0,1,1,.68-.68A.68.68,0,0,1,154.76,92.2Zm4.32,0a.68.68,0,1,1,.68-.68A.68.68,0,0,1,159.08,92.2Zm4.31,0a.68.68,0,1,1,0-1.36.68.68,0,0,1,0,1.36Z" style="fill:#6320ee"/><path d="M154.76,90.84a.68.68,0,1,0,.68.68A.67.67,0,0,0,154.76,90.84Z" style="fill:#6320ee"/><path d="M159.08,90.84a.68.68,0,0,0,0,1.36.68.68,0,1,0,0-1.36Z" style="fill:#6320ee"/><path d="M163.39,90.84a.68.68,0,1,0,.68.68A.68.68,0,0,0,163.39,90.84Z" style="fill:#6320ee"/><path d="M142.36,57.18a7.92,7.92,0,1,0,7.92,7.92A7.93,7.93,0,0,0,142.36,57.18Z" style="fill:#6320ee"/><path d="M129.54,206.55a9.07,9.07,0,0,0,1.66.16l56.62.27V177.22H129.54Zm55.06-25.37.06,5.54-1.92-1.88L181,186.66l-.06-5.44Zm-48.94,1.24a2.34,2.34,0,1,1-2.34,2.34A2.33,2.33,0,0,1,135.66,182.42Z" style="fill:#6320ee"/><polygon points="182.74 184.61 182.8 184.66 184.49 186.32 184.43 181.35 181.07 181.39 181.12 186.26 182.74 184.61" style="fill:#6320ee"/><circle cx="135.66" cy="184.76" r="2.33" style="fill:#6320ee"/><path d="M182.74,184.84l1.92,1.88-.06-5.54-3.7,0,.06,5.44Zm1.69-3.49.06,5-1.69-1.66-.06,0-1.62,1.65-.05-4.87Z" style="fill:#6320ee"/><path d="M145.65,47.87l-4,0-9.82-.05A8.83,8.83,0,0,0,123,56.57l-.11,26.8c3,.59,5.94,1.17,8.91,1.69,15.29,2.68,31.69,3.63,45.7-3,7.77-3.7,14.23-9.47,20.91-15l.05-10.15a8.82,8.82,0,0,0-8.8-8.84l-11.22,0a2.78,2.78,0,0,0-2.74,2.83v2A2.79,2.79,0,0,1,173,55.71l-21.88-.1a2.79,2.79,0,0,1-2.71-2.86v-2A2.78,2.78,0,0,0,145.65,47.87Zm4.63,17.23a7.92,7.92,0,1,1-7.92-7.92A7.92,7.92,0,0,1,150.28,65.1Z" style="fill:#e8505b"/><g style="opacity:0.30000000000000004"><path d="M142.36,57.18a7.92,7.92,0,1,0,7.92,7.92A7.93,7.93,0,0,0,142.36,57.18Z" style="fill:#6320ee"/></g><g style="opacity:0.30000000000000004"><path d="M131.8,85.06c-3-.52-5.94-1.1-8.91-1.69L122.83,97h75.46l.12-29.94c-6.68,5.48-13.14,11.25-20.91,15C163.49,88.69,147.09,87.74,131.8,85.06Zm23,7.14a.68.68,0,1,1,.68-.68A.68.68,0,0,1,154.76,92.2Zm4.32,0a.68.68,0,1,1,.68-.68A.68.68,0,0,1,159.08,92.2Zm4.31,0a.68.68,0,1,1,0-1.36.68.68,0,0,1,0,1.36Z" style="fill:#6320ee"/></g><path d="M187.33,161.91c0,.16-12.94.29-28.89.29s-28.9-.13-28.9-.29,12.94-.28,28.9-.28S187.33,161.76,187.33,161.91Z" style="fill:#263238"/><path d="M187.33,164.84c0,.15-12.94.28-28.89.28s-28.9-.13-28.9-.28,12.94-.29,28.9-.29S187.33,164.68,187.33,164.84Z" style="fill:#263238"/><path d="M187.33,168.17c0,.16-12.94.28-28.89.28s-28.9-.12-28.9-.28,12.94-.29,28.9-.29S187.33,168,187.33,168.17Z" style="fill:#263238"/><path d="M159.66,171.06c0,.16-6.75.29-15.06.29s-15.06-.13-15.06-.29,6.74-.28,15.06-.28S159.66,170.91,159.66,171.06Z" style="fill:#263238"/><path d="M38.64,224.87H304.53a7.38,7.38,0,0,1,7.38,7.38v163a16,16,0,0,1-16,16H46.11a16,16,0,0,1-16-16V233.36a8.49,8.49,0,0,1,8.49-8.49Z" style="fill:#263238"/><path d="M18.37,397.41H323.64a0,0,0,0,1,0,0v1.27a15,15,0,0,1-15,15H33.4a15,15,0,0,1-15-15v-1.27a0,0,0,0,1,0,0Z" style="fill:#263238"/><rect x="37.71" y="232.27" width="265.85" height="157.35" style="fill:#455a64"/><polygon points="143.26 397.42 147.04 403.44 200.35 403.44 203.87 397.42 143.26 397.42" style="fill:#455a64"/><rect x="46.58" y="242.75" width="244.77" height="146.81" style="fill:#fff"/><path d="M57,250A2.06,2.06,0,1,1,55,247.93,2.05,2.05,0,0,1,57,250Z" style="fill:#263238"/><path d="M65.41,250a2.06,2.06,0,1,1-2.06-2.06A2.05,2.05,0,0,1,65.41,250Z" style="fill:#263238"/><path d="M73.79,250a2.06,2.06,0,1,1-2.05-2.06A2.05,2.05,0,0,1,73.79,250Z" style="fill:#263238"/><rect x="30.15" y="397.54" width="281.77" height="0.9" style="fill:#455a64"/><path d="M227.71,326.66c0,.16-26.09.29-58.26.29s-58.26-.13-58.26-.29,26.08-.28,58.26-.28S227.71,326.51,227.71,326.66Z" style="fill:#263238"/><path d="M199.38,330.68c0,.16-14,.28-31.22.28s-31.21-.12-31.21-.28,14-.29,31.21-.29S199.38,330.52,199.38,330.68Z" style="fill:#263238"/><rect x="64.4" y="344.27" width="65.34" height="42.62" style="fill:#6320ee"/><path d="M73.87,352.72a2.62,2.62,0,1,1-2.62-2.62A2.61,2.61,0,0,1,73.87,352.72Z" style="fill:#fafafa"/><path d="M126.19,354.92,124,352.81l-2,2.05-.07-6.11,4.15,0ZM124,352.55l.06.06,1.9,1.86-.06-5.57-3.78,0,.06,5.46Z" style="fill:#fafafa"/><path d="M109.73,351.33c0,.16-7.17.28-16,.28s-16-.12-16-.28,7.17-.29,16-.29S109.73,351.17,109.73,351.33Z" style="fill:#fafafa"/><path d="M90,354.92a33.79,33.79,0,0,1-6.18.28,33.7,33.7,0,0,1-6.18-.28,33.13,33.13,0,0,1,6.18-.29A33.22,33.22,0,0,1,90,354.92Z" style="fill:#fafafa"/><rect x="136.78" y="344.27" width="65.34" height="42.62" style="fill:#455a64"/><path d="M146.26,352.72a2.62,2.62,0,1,1-2.62-2.62A2.62,2.62,0,0,1,146.26,352.72Z" style="fill:#fafafa"/><path d="M198.57,354.92l-2.15-2.11-2,2.05-.06-6.11,4.15,0Zm-2.15-2.37.07.06,1.89,1.86-.06-5.57-3.77,0,.06,5.46Z" style="fill:#fafafa"/><path d="M182.12,351.33c0,.16-7.18.28-16,.28s-16-.12-16-.28,7.18-.29,16-.29S182.12,351.17,182.12,351.33Z" style="fill:#fafafa"/><path d="M162.42,354.92a33.79,33.79,0,0,1-6.18.28,33.79,33.79,0,0,1-6.18-.28,33.22,33.22,0,0,1,6.18-.29A33.22,33.22,0,0,1,162.42,354.92Z" style="fill:#fafafa"/><rect x="209.03" y="344.27" width="65.34" height="42.62" style="fill:#6320ee"/><path d="M218.51,352.72a2.62,2.62,0,1,1-2.62-2.62A2.62,2.62,0,0,1,218.51,352.72Z" style="fill:#fafafa"/><path d="M270.82,354.92l-2.15-2.11-2,2.05-.06-6.11,4.15,0Zm-2.15-2.37.07.06,1.89,1.86-.06-5.57-3.77,0,.06,5.46Z" style="fill:#fafafa"/><path d="M254.37,351.33c0,.16-7.18.28-16,.28s-16-.12-16-.28,7.18-.29,16-.29S254.37,351.17,254.37,351.33Z" style="fill:#fafafa"/><path d="M234.67,354.92a33.79,33.79,0,0,1-6.18.28,33.79,33.79,0,0,1-6.18-.28,33.22,33.22,0,0,1,6.18-.29A33.22,33.22,0,0,1,234.67,354.92Z" style="fill:#fafafa"/><path d="M104.44,262.91c-4.5.86-9.17-.07-13.7.62-9,1.39-15.81,8.85-24.13,12.65a31.37,31.37,0,0,1-20,1.83v23.75a71.07,71.07,0,0,1,29.75-7.37c19-.57,37.55,4.66,56.24,7.93s38.73,4.43,55.86-3.73c13.79-6.57,24.24-18.49,37-26.89,19.16-12.62,43.68-16.29,65.92-10.9v-4H112.49C111.37,259.87,107.88,262.25,104.44,262.91Zm41,5.33a9.68,9.68,0,1,1-9.68,9.68A9.68,9.68,0,0,1,145.48,268.24Z" style="fill:#e8505b"/><path d="M225.43,271.7c-12.76,8.4-23.21,20.32-37,26.89-17.13,8.16-37.18,7-55.86,3.73s-37.28-8.5-56.24-7.93a71.07,71.07,0,0,0-29.75,7.37v15.15H291.35V260.8C269.11,255.41,244.59,259.08,225.43,271.7ZM162,309.84a1,1,0,1,1,1-1A1,1,0,0,1,162,309.84Zm6.1,0a1,1,0,1,1,1-1A1,1,0,0,1,168.12,309.84Zm6.11,0a1,1,0,0,1,0-1.93,1,1,0,1,1,0,1.93Zm107.43-21.71a3.15,3.15,0,1,1,0,4.46A3.16,3.16,0,0,1,281.66,288.13Z" style="fill:#6320ee"/><path d="M162,307.91a1,1,0,1,0,1,1A1,1,0,0,0,162,307.91Z" style="fill:#6320ee"/><circle cx="168.12" cy="308.88" r="0.96" style="fill:#6320ee"/><circle cx="174.23" cy="308.88" r="0.96" style="fill:#6320ee"/><path d="M66.61,276.18c8.32-3.8,15.09-11.26,24.13-12.65,4.53-.69,9.2.24,13.7-.62,3.44-.66,6.93-3,8-6.14H46.58V278A31.37,31.37,0,0,0,66.61,276.18Z" style="fill:#6320ee"/><g style="opacity:0.30000000000000004"><path d="M66.61,276.18c8.32-3.8,15.09-11.26,24.13-12.65,4.53-.69,9.2.24,13.7-.62,3.44-.66,6.93-3,8-6.14H46.58V278A31.37,31.37,0,0,0,66.61,276.18Z" style="fill:#6320ee"/></g><circle cx="145.48" cy="277.92" r="9.68" transform="translate(-153.91 184.27) rotate(-45)" style="fill:#6320ee"/><g style="opacity:0.30000000000000004"><circle cx="145.48" cy="277.92" r="9.68" transform="translate(-153.91 184.27) rotate(-45)" style="fill:#6320ee"/></g><circle cx="283.89" cy="290.36" r="3.15" style="fill:#6320ee"/><g style="opacity:0.30000000000000004"><path d="M225.43,271.7c-12.76,8.4-23.21,20.32-37,26.89-17.13,8.16-37.18,7-55.86,3.73s-37.28-8.5-56.24-7.93a71.07,71.07,0,0,0-29.75,7.37v15.15H291.35V260.8C269.11,255.41,244.59,259.08,225.43,271.7ZM162,309.84a1,1,0,1,1,1-1A1,1,0,0,1,162,309.84Zm6.1,0a1,1,0,1,1,1-1A1,1,0,0,1,168.12,309.84Zm6.11,0a1,1,0,0,1,0-1.93,1,1,0,1,1,0,1.93Zm107.43-21.71a3.15,3.15,0,1,1,0,4.46A3.16,3.16,0,0,1,281.66,288.13Z" style="fill:#6320ee"/></g><path d="M281.83,369.65a5.75,5.75,0,0,1,.9-.83c.57-.5,1.37-1.17,2.27-1.9v.18l0,0c-.89-.77-1.68-1.47-2.25-2a7.21,7.21,0,0,1-.88-.88,8,8,0,0,1,1,.76c.59.48,1.4,1.17,2.29,1.94l0,0,.1.09-.1.08c-.9.73-1.72,1.38-2.32,1.84A7.13,7.13,0,0,1,281.83,369.65Z" style="fill:#263238"/><path d="M57.22,364.19a5.75,5.75,0,0,1-.9.83c-.57.5-1.37,1.17-2.27,1.9v-.18l0,0c.89.77,1.68,1.47,2.25,2a5.23,5.23,0,0,1,.88.88,8,8,0,0,1-1-.76c-.59-.48-1.4-1.17-2.28-1.94l-.05,0-.1-.09.1-.08c.9-.73,1.72-1.38,2.32-1.84A7.91,7.91,0,0,1,57.22,364.19Z" style="fill:#263238"/></svg>