<svg xmlns="http://www.w3.org/2000/svg" viewBox="0 0 493.91 457.85"><ellipse cx="246.96" cy="315.27" rx="246.96" ry="142.58" style="fill:#f5f5f5"/><ellipse cx="319.08" cy="238.35" rx="36.2" ry="20.9" style="fill:#e0e0e0"/><path d="M375,262.44l71,41a7.12,7.12,0,0,0,6.42,0l10.79-6.23c1.77-1,1.77-2.69,0-3.71l-71-41a7.12,7.12,0,0,0-6.42,0L375,258.73C373.21,259.76,373.21,261.41,375,262.44Z" style="fill:#e0e0e0"/><path d="M144.88,383.2,243,439.86a9.66,9.66,0,0,0,8.76,0L407.5,350c2.42-1.4,2.42-3.67,0-5.07l-98.14-56.66a9.68,9.68,0,0,0-8.77,0l-155.71,89.9C142.46,379.54,142.46,381.8,144.88,383.2Z" style="fill:#e0e0e0"/><path d="M127.83,320.16l-20-11.56a9.68,9.68,0,0,0-8.77,0L33.8,346.27a9.66,9.66,0,0,1-8.76,0l-7.68-4.44c-2.42-1.39-2.42-3.66,0-5.06L222.41,218.39a9.66,9.66,0,0,1,8.76,0l7.69,4.43c2.42,1.4,2.42,3.67,0,5.06l-65.25,37.67c-2.42,1.4-2.42,3.67,0,5.07l20,11.55c2.43,1.4,2.43,3.67,0,5.06l-57,32.93A9.74,9.74,0,0,1,127.83,320.16Z" style="fill:#e0e0e0"/><path d="M151,372.51l94.05,54.29a5.15,5.15,0,0,0,4.65,0l151.61-87.53c1.28-.74,1.28-1.94,0-2.68L307.3,282.3a5.18,5.18,0,0,0-4.65,0L151,369.83C149.76,370.57,149.76,371.78,151,372.51Zm140-79.63a3.19,3.19,0,0,1,3.34.37l88.25,50.93a1.21,1.21,0,0,1,0,2.3L262,416.08a4.45,4.45,0,0,1-4,0L169.8,365.14a1.21,1.21,0,0,1,0-2.3Z" style="fill:#6320ee"/><path d="M151,372.51l94.05,54.29a5.15,5.15,0,0,0,4.65,0l151.61-87.53c1.28-.74,1.28-1.94,0-2.68L307.3,282.3a5.18,5.18,0,0,0-4.65,0L151,369.83C149.76,370.57,149.76,371.78,151,372.51Zm140-79.63a3.19,3.19,0,0,1,3.34.37l88.25,50.93a1.21,1.21,0,0,1,0,2.3L262,416.08a4.45,4.45,0,0,1-4,0L169.8,365.14a1.21,1.21,0,0,1,0-2.3Z" style="fill:#6320ee;opacity:0.35000000000000003"/><path d="M201.32,398a9.36,9.36,0,0,0,8.47,0c2.34-1.35,2.34-3.54,0-4.89a9.36,9.36,0,0,0-8.47,0C199,394.48,199,396.67,201.32,398Z" style="fill:#5e24ff"/><path d="M401.62,336.77a5.21,5.21,0,0,1,2.06,3.85v3.07a5.15,5.15,0,0,1-2.33,4l-151.6,87.52a4.45,4.45,0,0,1-1.71.52c-.2,0-.41,0-.62,0h0v-8.45h0a7.15,7.15,0,0,0,.94-.08,4.3,4.3,0,0,0,1.39-.47l151.61-87.53C402.53,338.59,402.63,337.51,401.62,336.77Z" style="fill:#2f188c"/><path d="M401.62,336.77a5.21,5.21,0,0,1,2.06,3.85v3.07a5.15,5.15,0,0,1-2.33,4l-151.6,87.52a4.45,4.45,0,0,1-1.71.52c-.2,0-.41,0-.62,0h0v-8.45h0a7.15,7.15,0,0,0,.94-.08,4.3,4.3,0,0,0,1.39-.47l151.61-87.53C402.53,338.59,402.63,337.51,401.62,336.77Z" style="fill:#2f188c"/><path d="M291,292.88a3.19,3.19,0,0,1,3.34.37l88.25,50.93a1.21,1.21,0,0,1,0,2.3L262,416.08a4.45,4.45,0,0,1-4,0L169.8,365.14a1.21,1.21,0,0,1,0-2.3Z" style="fill:#27debf"/><path d="M291,292.88a3.19,3.19,0,0,1,3.34.37l88.25,50.93a1.21,1.21,0,0,1,0,2.3L262,416.08a4.45,4.45,0,0,1-4,0L169.8,365.14a1.21,1.21,0,0,1,0-2.3Z" style="fill:#fff"/><path d="M150.73,370c-1,.75-.85,1.8.31,2.47l94.05,54.29a4.75,4.75,0,0,0,2.33.55v8.45a4.71,4.71,0,0,1-2.31-.57l-94-54.27a5.15,5.15,0,0,1-2.33-4v-3.08A5.22,5.22,0,0,1,150.73,370Z" style="fill:#2f188c"/><path d="M150.73,370c-1,.75-.85,1.8.31,2.47l94.05,54.29a4.75,4.75,0,0,0,2.33.55v8.45a4.71,4.71,0,0,1-2.31-.57l-94-54.27a5.15,5.15,0,0,1-2.33-4v-3.08A5.22,5.22,0,0,1,150.73,370Z" style="fill:#2f188c;opacity:0.45"/><path d="M348.18,313.29a1.59,1.59,0,0,0,1.41,0,.43.43,0,0,0,0-.82,1.59,1.59,0,0,0-1.41,0A.43.43,0,0,0,348.18,313.29Z" style="fill:#263238"/><path d="M350.43,319.68a3.11,3.11,0,0,0,2.82,0,.86.86,0,0,0,0-1.63,3.11,3.11,0,0,0-2.82,0A.86.86,0,0,0,350.43,319.68Z" style="fill:#263238"/><path d="M348.44,316.84c.52-.3.49-.8-.06-1.12l-9.27-5.35a2.14,2.14,0,0,0-1.94,0c-.52.29-.49.8.06,1.12l9.27,5.35A2.14,2.14,0,0,0,348.44,316.84Z" style="fill:#263238"/><polygon points="247.41 323.69 329.65 371.17 296.75 390.17 214.51 342.69 247.41 323.69" style="fill:#fff"/><path d="M276.17,308.87c-2.28,1.31-2.28,3.43,0,4.75a9.09,9.09,0,0,0,8.22,0c2.27-1.31,2.27-3.44,0-4.75A9.09,9.09,0,0,0,276.17,308.87Z" style="fill:#5725e8"/><path d="M281.21,311.15a.73.73,0,0,0,0,1.38,2.65,2.65,0,0,0,2.39,0,.73.73,0,0,0,0-1.38A2.65,2.65,0,0,0,281.21,311.15Z" style="fill:#fff"/><path d="M382.6,344.18l-88.25-50.93a3.19,3.19,0,0,0-3.34-.37l-12.12,7,92.22,53.25,11.49-6.64A1.21,1.21,0,0,0,382.6,344.18Z" style="fill:#37474f"/><path d="M292.9,297.46l.62-.36a.46.46,0,0,1,.42,0l.05,0c.1.06.08.17-.06.25l-.62.36a.49.49,0,0,1-.42,0l-.05,0C292.73,297.64,292.76,297.53,292.9,297.46Z" style="fill:#fff"/><path d="M293.73,297.93l1.07-.61a.48.48,0,0,1,.43,0l0,0c.1.06.07.17-.06.25l-1.08.61a.46.46,0,0,1-.42,0l-.05,0C293.57,298.12,293.59,298,293.73,297.93Z" style="fill:#fff"/><path d="M294.56,298.42l1.52-.89a.51.51,0,0,1,.43,0l.05,0c.1.06.07.17-.06.24l-1.53.88a.46.46,0,0,1-.42,0l-.05,0C294.4,298.6,294.42,298.49,294.56,298.42Z" style="fill:#fff"/><path d="M295.39,298.89l2.63-1.52a.51.51,0,0,1,.43,0l.05,0c.1.06.07.17-.06.24l-2.64,1.52a.46.46,0,0,1-.42,0l-.05,0C295.23,299.08,295.25,299,295.39,298.89Z" style="fill:#fff"/><path d="M297.46,300.3a.1.1,0,0,1,.06-.07l.39-.22-.93-.54c-.06,0-.05-.06,0-.09l.14-.08.08,0,.1,0,2.37-.22h.1l.08,0,.13.08s0,0,0,.07,0,0-.07.07l-1.35.77.21.12s.05.05.05.07,0,0-.07.06l-.09.06-.11,0a.17.17,0,0,1-.11,0l-.21-.12-.38.23a.27.27,0,0,1-.12,0l-.11,0-.16-.09S297.46,300.32,297.46,300.3Zm.84-.45,1-.55-1.64.16Z" style="fill:#fff"/><path d="M298.8,300.8c0-.23.23-.45.62-.67a2.45,2.45,0,0,1,1.16-.36,2,2,0,0,1,1.09.27,1.16,1.16,0,0,1,.32.24.46.46,0,0,1,.15.24s0,0,0,0l-.06,0-.25.05h-.07l0,0a.72.72,0,0,0-.35-.34,1.34,1.34,0,0,0-.74-.18,1.83,1.83,0,0,0-.85.27c-.3.17-.46.34-.48.49s.07.3.29.42l.25.12a1.53,1.53,0,0,0,.24.07l.63-.36-.39-.23s-.05,0-.05-.06,0,0,.07-.07l.09-.05a.19.19,0,0,1,.11,0l.11,0,.62.36s.06.05.06.08a.24.24,0,0,1-.09.08l-.89.51s-.06,0-.09,0h-.08a2.43,2.43,0,0,1-.93-.31C298.92,301.23,298.77,301,298.8,300.8Z" style="fill:#fff"/><path d="M377.06,343.45a.3.3,0,0,0-.16-.34l-2.78-1.61a1.13,1.13,0,0,0-1,.08l-1.36.78a.69.69,0,0,0-.33.38.32.32,0,0,0,0,.17.29.29,0,0,0,.14.17l2.79,1.61a1.13,1.13,0,0,0,1-.08l1.36-.78A.73.73,0,0,0,377.06,343.45Zm-5.39-.73a.3.3,0,0,1,.16-.16l1.35-.78a.85.85,0,0,1,.77-.06l2.78,1.61a.15.15,0,0,1,.09.08v.06a.3.3,0,0,1-.16.16l-1.36.78a.83.83,0,0,1-.76.06l-2.79-1.61A.14.14,0,0,1,371.67,342.72Z" style="fill:#fff"/><path d="M375.2,342.72l-1.61.92-1.5-.86,0,0,.06,0,1.21-.7a.69.69,0,0,1,.57-.05Z" style="fill:#fff"/><path d="M376.86,343.91c.1.06,0,.24-.32.4l-.25.14a1,1,0,0,1-.71.19l-.2-.1,1.29-.74Z" style="fill:#fff"/><path d="M304.32,303.76a1.15,1.15,0,0,1-1.08,0,.33.33,0,0,1,0-.62,1.21,1.21,0,0,1,1.08,0A.33.33,0,0,1,304.32,303.76Z" style="fill:#fff"/><path d="M305.2,302.63a3.16,3.16,0,0,0-2-.29c-.14,0-.23.1-.21.19h0c0,.1.2.17.38.14a2.18,2.18,0,0,1,1.42.2c.38.23.5.54.35.82-.06.1.07.21.25.22h0a.33.33,0,0,0,.32-.12C305.91,303.39,305.75,302.94,305.2,302.63Z" style="fill:#fff"/><path d="M306.07,302.13a5,5,0,0,0-3-.5c-.16,0-.26.1-.24.19h0c0,.1.19.17.36.15a4.05,4.05,0,0,1,2.44.4c.66.39.9.92.71,1.42,0,.1.08.19.25.21h0a.35.35,0,0,0,.34-.14C307.17,303.26,306.88,302.6,306.07,302.13Z" style="fill:#fff"/><path d="M333.42,321l-.09,0-.09,0-.14-.08s0,0,0-.05a.09.09,0,0,1,0-.06l1.85-1.06-.95-.08a.12.12,0,0,1-.09,0,.05.05,0,0,1,0-.05l0-.11s0,0,0-.05h.09l1.27.1h.08l.05,0,.14.08s0,0,0,.05a.07.07,0,0,1,0,.06Z" style="fill:#fff"/><path d="M335.71,320.59a.05.05,0,0,1,0,.05.05.05,0,0,1,0,.05l-.22.13-.09,0-.09,0-.23-.13s0,0,0-.05a.05.05,0,0,1,0-.05l.22-.13a.12.12,0,0,1,.09,0l.09,0Zm-1.18.67s0,0,0,.06,0,0,0,.05l-.23.13-.08,0-.09,0-.23-.13s0,0,0-.05,0,0,0-.06l.23-.13.09,0,.09,0Z" style="fill:#fff"/><path d="M335.78,322.45a.05.05,0,0,1,0-.1l.46-.27-1.05-.61a.05.05,0,0,1,0-.1l.12-.07.06,0h.1l2.45-.19H338a.17.17,0,0,1,.1,0l.13.07a.07.07,0,0,1,0,.06s0,0,0,0l-1.4.81.29.16a.09.09,0,0,1,0,.06s0,0,0,.05l-.12.07-.09,0-.09,0-.29-.17-.46.27-.1,0-.09,0Zm.76-.55.95-.54-1.68.12Z" style="fill:#fff"/><path d="M337.51,322.8l-.06.09a.16.16,0,0,0,0,.1.51.51,0,0,0,.09.13,1.07,1.07,0,0,0,.24.17,1.12,1.12,0,0,0,.22.1,1,1,0,0,0,.24.05h.24a1,1,0,0,0,.24-.09.3.3,0,0,0,.14-.13.12.12,0,0,0,0-.13.23.23,0,0,0-.1-.13.64.64,0,0,0-.18-.13l-.28-.16s0,0,0-.05,0,0,0-.06l.12-.07.08,0h.08l1.25,0-1-.56a.05.05,0,0,1,0-.05.05.05,0,0,1,0-.05l.13-.07s.05,0,.09,0a.15.15,0,0,1,.09,0l1.32.76a.07.07,0,0,1,0,.05.1.1,0,0,1,0,.05l-.12.07s-.05,0-.08,0h-.1l-1.23,0a1.1,1.1,0,0,1,.25.21.42.42,0,0,1,.11.22.35.35,0,0,1-.07.21.57.57,0,0,1-.23.19.92.92,0,0,1-.37.14,1.35,1.35,0,0,1-.4,0,1.85,1.85,0,0,1-.41-.07,1.61,1.61,0,0,1-.38-.16,1.18,1.18,0,0,1-.33-.25A.42.42,0,0,1,337,323a.25.25,0,0,1,0-.21.46.46,0,0,1,.16-.15l.08,0a.1.1,0,0,1,.07,0l.15.09s0,0,0,0S337.52,322.78,337.51,322.8Z" style="fill:#fff"/><path d="M294.83,301.22l73.74,42.57c1.21.7,1.27,1.81.14,2.49a4.65,4.65,0,0,1-4.25,0L290.72,303.6c-1.21-.7-1.27-1.8-.14-2.46A4.72,4.72,0,0,1,294.83,301.22Z" style="fill:#455a64"/><path d="M296.57,335.61l-7.95,4.59a1.34,1.34,0,0,0,0,2.53l8,4.59a4.83,4.83,0,0,0,4.38,0l8-4.59a1.34,1.34,0,0,0,0-2.53l-8-4.59A4.85,4.85,0,0,0,296.57,335.61Z" style="fill:#2f188c"/><path d="M302.8,344.48l1.18-.69a.09.09,0,0,0,0-.16l-.94-.67a.12.12,0,0,1,0-.19,2.86,2.86,0,0,0,.33-.47.31.31,0,0,1,.21-.14l1.58-.1a.15.15,0,0,0,.15-.15V341a.16.16,0,0,0-.15-.16l-1.58-.1a.31.31,0,0,1-.21-.14,2.86,2.86,0,0,0-.33-.47.12.12,0,0,1,0-.19l.94-.67a.09.09,0,0,0,0-.16l-1.18-.69a.34.34,0,0,0-.26,0l-1.2.56a.42.42,0,0,1-.27,0,9.21,9.21,0,0,0-.94-.22.23.23,0,0,1-.17-.17l-.15-.79a.17.17,0,0,0-.17-.14H297.9a.19.19,0,0,0-.18.14l-.15.79a.21.21,0,0,1-.17.17,9,9,0,0,0-.93.22.45.45,0,0,1-.28,0l-1.2-.56a.34.34,0,0,0-.26,0l-1.18.69a.09.09,0,0,0,0,.16l.94.67a.12.12,0,0,1,0,.19,2.43,2.43,0,0,0-.34.47.31.31,0,0,1-.21.14l-1.58.1a.15.15,0,0,0-.14.16v.88a.15.15,0,0,0,.14.15l1.58.1a.31.31,0,0,1,.21.14,2.43,2.43,0,0,0,.34.47.12.12,0,0,1,0,.19l-.94.67a.09.09,0,0,0,0,.16l1.18.69a.34.34,0,0,0,.26,0l1.2-.56a.45.45,0,0,1,.28,0,9,9,0,0,0,.93.22.21.21,0,0,1,.17.17l.15.79a.19.19,0,0,0,.18.14h1.74a.17.17,0,0,0,.17-.14l.15-.79a.23.23,0,0,1,.17-.17,9.21,9.21,0,0,0,.94-.22.42.42,0,0,1,.27,0l1.2.56A.34.34,0,0,0,302.8,344.48Zm-6-1.86a1.22,1.22,0,0,1,0-2.31,4.39,4.39,0,0,1,4,0,1.22,1.22,0,0,1,0,2.31A4.39,4.39,0,0,1,296.77,342.62Z" style="fill:#2f188c"/><path d="M276,323.75,268,328.34a1.34,1.34,0,0,0,0,2.53l7.95,4.59a4.85,4.85,0,0,0,4.39,0l7.95-4.59a1.34,1.34,0,0,0,0-2.53l-7.95-4.59A4.85,4.85,0,0,0,276,323.75Z" style="fill:#2f188c"/><polygon points="276.79 330.41 275.77 329.83 273.27 331.28 271.38 330.19 275.42 327.86 274.3 327.22 282.35 327.21 282.32 331.85 281.21 331.21 277.18 333.54 275.3 332.45 277.8 331 276.79 330.41" style="fill:#2f188c"/><path d="M317.12,347.49l-7.95,4.59a1.34,1.34,0,0,0,0,2.53l7.95,4.59a4.85,4.85,0,0,0,4.39,0l7.95-4.59a1.34,1.34,0,0,0,0-2.53l-7.95-4.59A4.85,4.85,0,0,0,317.12,347.49Z" style="fill:#2f188c"/><path d="M326.6,354.5a.25.25,0,0,0-.12-.16l-8.34-4.81a.67.67,0,0,0-.38-.06l.81,4.62Z" style="fill:#2f188c"/><path d="M317.76,349.47a.71.71,0,0,0-.26.06l-6,3.44a.26.26,0,0,0-.13.17l6.42.33Z" style="fill:#2f188c"/><path d="M326.6,354.5l-6.8,0,.38,3.72-.84-3.72h-1a.52.52,0,0,1-.51-.5v-.21l-6.42-.68a.23.23,0,0,0,.13.2l8.35,4.83a.7.7,0,0,0,.63,0l6-3.46A.18.18,0,0,0,326.6,354.5Z" style="fill:#2f188c"/><polygon points="317.76 349.46 317.76 349.47 317.76 349.47 317.76 349.46" style="fill:#2f188c"/><polygon points="326.62 354.5 326.6 354.5 326.6 354.5 326.62 354.5" style="fill:#2f188c"/><polygon points="224.08 342.06 246.2 329.28 279.39 348.44 257.27 361.22 224.08 342.06" style="fill:#5725e8"/><polygon points="224.08 342.06 246.2 329.28 279.39 348.44 257.27 361.22 224.08 342.06" style="fill:#5725e8;opacity:0.8"/><path d="M263.51,346.6a1.22,1.22,0,0,0,0,2.31,4.43,4.43,0,0,0,4,0,1.22,1.22,0,0,0,0-2.31A4.43,4.43,0,0,0,263.51,346.6Z" style="fill:#5725e8"/><polygon points="224.08 342.06 232.37 337.27 249.13 339.35 249.29 353.05 250.22 347.88 259.11 349.41 259.58 359.89 257.27 361.22 224.08 342.06" style="fill:#5725e8"/><path d="M286.4,352.49l21.94,12.67c.82.47.86,1.21.09,1.65a3.15,3.15,0,0,1-2.85-.05l-21.95-12.67c-.81-.47-.85-1.21-.09-1.65A3.17,3.17,0,0,1,286.4,352.49Z" style="fill:#5725e8"/><path d="M280.28,355.34l33,19.06c.49.28.58.69.2.91a1.79,1.79,0,0,1-1.58-.11l-33-19.06c-.48-.28-.57-.69-.19-.91A1.79,1.79,0,0,1,280.28,355.34Z" style="fill:#5725e8"/><path d="M277.51,356.94l33,19.06c.49.28.57.69.19.91a1.79,1.79,0,0,1-1.58-.11l-33-19.06c-.49-.28-.58-.69-.19-.91A1.77,1.77,0,0,1,277.51,356.94Z" style="fill:#5725e8"/><path d="M274.75,358.54l33,19c.49.29.58.69.19.91a1.77,1.77,0,0,1-1.57-.11l-33-19.05c-.49-.29-.57-.69-.19-.91A1.76,1.76,0,0,1,274.75,358.54Z" style="fill:#5725e8"/><path d="M272,360.13l10.89,6.28c.49.28.57.69.19.91a1.76,1.76,0,0,1-1.57-.11l-10.89-6.28c-.49-.28-.58-.69-.2-.91A1.79,1.79,0,0,1,272,360.13Z" style="fill:#5725e8"/><path d="M264.27,363.56l1.2-.69a3.26,3.26,0,0,1,2.95,0l8.12,4.68a.91.91,0,0,1,0,1.71l-1.2.69a3.26,3.26,0,0,1-2.95,0l-8.12-4.68A.91.91,0,0,1,264.27,363.56Z" style="fill:#5725e8"/><path d="M290.69,377.18a.85.85,0,0,1,0,1.6,3.07,3.07,0,0,1-2.77,0,.85.85,0,0,1,0-1.6A3.07,3.07,0,0,1,290.69,377.18Z" style="fill:#5725e8"/><path d="M294.84,379.58a.85.85,0,0,1,0,1.6,3.07,3.07,0,0,1-2.77,0,.85.85,0,0,1,0-1.6A3.07,3.07,0,0,1,294.84,379.58Z" style="fill:#5725e8"/><path d="M299,382a.85.85,0,0,1,0,1.6,3.07,3.07,0,0,1-2.77,0,.85.85,0,0,1,0-1.6A3.07,3.07,0,0,1,299,382Z" style="fill:#5725e8"/><path d="M211.72,345.82l79.6,46a.8.8,0,0,1,0,1.52l-5.59,3.23a2.9,2.9,0,0,1-2.63,0l-79.61-46a.8.8,0,0,1,0-1.52l5.6-3.23A2.9,2.9,0,0,1,211.72,345.82Z" style="fill:#6320ee"/><path d="M211.72,345.82l79.6,46a.8.8,0,0,1,0,1.52l-5.59,3.23a2.9,2.9,0,0,1-2.63,0l-79.61-46a.8.8,0,0,1,0-1.52l5.6-3.23A2.9,2.9,0,0,1,211.72,345.82Z" style="fill:#6320ee;opacity:0.6000000000000001"/><path d="M282,394c-1-.59-.74-1.7.62-2.49a4.88,4.88,0,0,1,4.31-.35c1,.59.74,1.7-.62,2.49A4.88,4.88,0,0,1,282,394Zm4.45-2.57a4,4,0,0,0-3.48.29c-1.09.63-1.32,1.53-.49,2a3.94,3.94,0,0,0,3.48-.29C287,392.77,287.23,391.87,286.4,391.39Z" style="fill:#6320ee"/><path d="M285,393.15l-1.83-1.06c-.1,0-.08-.16.06-.24a.46.46,0,0,1,.41,0l1.84,1.06c.1.06.07.16-.06.24A.45.45,0,0,1,285,393.15Z" style="fill:#6320ee"/><path d="M283.14,393.24a.1.1,0,0,1-.05-.14.42.42,0,0,1,.36-.17l1.6,0,0-.93c0-.09.14-.18.3-.21s.29,0,.29.13l0,1.13a.21.21,0,0,1-.12.15.56.56,0,0,1-.26.07l-2,0A.35.35,0,0,1,283.14,393.24Z" style="fill:#6320ee"/><path d="M208.4,348.65a1.22,1.22,0,0,0,0,2.31,4.41,4.41,0,0,0,4,0,1.22,1.22,0,0,0,0-2.31A4.41,4.41,0,0,0,208.4,348.65Z" style="fill:#6320ee"/><path d="M217.16,352.34,273,384.55c.83.48,1,1.17.33,1.54a3,3,0,0,1-2.67-.19l-55.79-32.21c-.83-.48-1-1.17-.33-1.54A3,3,0,0,1,217.16,352.34Z" style="fill:#6320ee"/><path d="M199.38,352.94l79.61,46a.8.8,0,0,1,0,1.52l-5.59,3.23a2.9,2.9,0,0,1-2.63,0l-79.61-46a.8.8,0,0,1,0-1.52l5.59-3.23A2.9,2.9,0,0,1,199.38,352.94Z" style="fill:#2f188c;opacity:0.55"/><path d="M269.62,401.09c-1-.59-.75-1.71.61-2.49a4.86,4.86,0,0,1,4.31-.36c1,.59.75,1.71-.61,2.49A4.92,4.92,0,0,1,269.62,401.09Zm4.45-2.58a4,4,0,0,0-3.48.29c-1.1.63-1.32,1.54-.5,2a3.9,3.9,0,0,0,3.48-.29C274.67,399.89,274.89,399,274.07,398.51Z" style="fill:#fff"/><path d="M272.67,400.28l-1.84-1.06c-.1-.06-.07-.17.06-.24a.46.46,0,0,1,.42,0l1.83,1.06c.1.06.08.17-.06.24A.47.47,0,0,1,272.67,400.28Z" style="fill:#fff"/><path d="M270.8,400.36a.1.1,0,0,1-.05-.13.43.43,0,0,1,.37-.18l1.6,0,0-.92c0-.09.14-.19.31-.21s.29,0,.29.12l-.05,1.13a.19.19,0,0,1-.12.15.52.52,0,0,1-.25.07l-2,0A.38.38,0,0,1,270.8,400.36Z" style="fill:#fff"/><path d="M196.06,355.77a1.23,1.23,0,0,0,0,2.32,4.49,4.49,0,0,0,4,0,1.23,1.23,0,0,0,0-2.32A4.49,4.49,0,0,0,196.06,355.77Z" style="fill:#fff"/><path d="M204.86,359.48l55.8,32.22c.83.47,1,1.16.33,1.54a3,3,0,0,1-2.67-.19l-55.79-32.22c-.83-.47-1-1.16-.33-1.54A3,3,0,0,1,204.86,359.48Z" style="fill:#fff"/><path d="M187.05,360.06l79.61,46a.8.8,0,0,1,0,1.52l-5.6,3.23a2.9,2.9,0,0,1-2.63,0l-79.61-46a.8.8,0,0,1,0-1.52l5.6-3.23A2.9,2.9,0,0,1,187.05,360.06Z" style="fill:#2f188c"/><path d="M187.05,360.06l79.61,46a.8.8,0,0,1,0,1.52l-5.6,3.23a2.9,2.9,0,0,1-2.63,0l-79.61-46a.8.8,0,0,1,0-1.52l5.6-3.23A2.9,2.9,0,0,1,187.05,360.06Z" style="fill:#2f188c;opacity:0.35000000000000003"/><path d="M257.28,408.21c-1-.59-.74-1.71.62-2.49a4.86,4.86,0,0,1,4.31-.36c1,.59.74,1.71-.62,2.49A4.86,4.86,0,0,1,257.28,408.21Zm4.45-2.57a3.93,3.93,0,0,0-3.48.28c-1.09.64-1.32,1.54-.49,2a3.93,3.93,0,0,0,3.48-.28C262.33,407,262.56,406.11,261.73,405.64Z" style="fill:#2f188c"/><path d="M260.33,407.4l-1.83-1.06c-.1-.06-.08-.17.06-.24a.47.47,0,0,1,.41,0l1.84,1.07c.1.05.07.16-.06.23A.46.46,0,0,1,260.33,407.4Z" style="fill:#2f188c"/><path d="M258.47,407.48c-.06,0-.08-.08-.05-.13a.42.42,0,0,1,.36-.18l1.6,0,0-.92c0-.09.14-.19.3-.21s.29,0,.29.12l0,1.14c0,.05-.05.1-.12.14a.56.56,0,0,1-.26.07l-2,0A.34.34,0,0,1,258.47,407.48Z" style="fill:#2f188c"/><path d="M183.73,362.9a1.22,1.22,0,0,0,0,2.31,4.41,4.41,0,0,0,4,0,1.22,1.22,0,0,0,0-2.31A4.41,4.41,0,0,0,183.73,362.9Z" style="fill:#2f188c"/><path d="M192.56,366.63l55.8,32.21c.82.48,1,1.17.33,1.54a3,3,0,0,1-2.67-.19L190.23,368c-.83-.48-1-1.17-.33-1.54A3,3,0,0,1,192.56,366.63Z" style="fill:#2f188c"/><path d="M189.62,273.73l-57.41,33.15-.13-.07-21.82-12.6A11.78,11.78,0,0,1,105,282.63l8.1-42.07,57.41-33.17-8.1,42.07a11.79,11.79,0,0,0,5.29,11.59Z" style="fill:#2f188c"/><polygon points="113.07 240.56 105.04 282.26 162.44 249.13 169.87 210.55 166.25 209.83 113.07 240.56" style="fill:#263238"/><path d="M132.22,306.89l-22-12.68A11.78,11.78,0,0,1,105,282.63l8.1-42.07L103.5,235l-9.26,48.13c-1.22,6.37,2.37,14.23,8,17.47l30,17.31Z" style="fill:#2f188c"/><polygon points="189.62 273.72 132.22 306.89 132.22 317.94 189.62 284.78 189.62 273.72" style="fill:#5725e8"/><path d="M245.78,1.09a11,11,0,0,1,4.78,8.66V185.9a11.25,11.25,0,0,1-5.1,8.84L25.88,321.51a11,11,0,0,1-9.89.19A11,11,0,0,1,11.21,313V136.89a11.25,11.25,0,0,1,5.1-8.84L235.89,1.28A11,11,0,0,1,245.78,1.09Z" style="fill:#455a64"/><path d="M25.28,321.82a11,11,0,0,1-9.29-.13A10.92,10.92,0,0,1,11.21,313V136.88a10.52,10.52,0,0,1,1.49-5l9.58,5.54a10.44,10.44,0,0,0-1.5,5V318.56C20.78,321.59,22.74,322.94,25.28,321.82Z" style="fill:#2f188c"/><path d="M250.56,185.9V9.75c0-3.25-2.28-4.57-5.1-2.95L25.89,133.57a11.3,11.3,0,0,0-5.11,8.84V318.57c0,3.25,2.29,4.57,5.1,2.94L245.46,194.74A11.25,11.25,0,0,0,250.56,185.9Z" style="fill:#2f188c"/><path d="M239.35,15.8,29.65,136.93A9,9,0,0,0,25.57,144V300.4c0,2.6,1.83,3.66,4.08,2.36L239.36,181.62a9,9,0,0,0,4.08-7.07V18.15C243.44,15.55,241.61,14.49,239.35,15.8Z" style="fill:#27debf"/><path d="M239.35,15.8,29.65,136.93A9,9,0,0,0,25.57,144V300.4c0,2.6,1.83,3.66,4.08,2.36L239.36,181.62a9,9,0,0,0,4.08-7.07V18.15C243.44,15.55,241.61,14.49,239.35,15.8Z" style="fill:#5725e8"/><path d="M35.74,289.78c-1.13,0-1.81-.93-1.81-2.49V157.16L235.08,41V170.55a8.78,8.78,0,0,1-4,6.86L37.36,289.27a3.34,3.34,0,0,1-1.62.51Z" style="fill:#fff"/><path d="M234.55,42v128.6a8.3,8.3,0,0,1-3.7,6.4L37.1,288.81a2.83,2.83,0,0,1-1.36.44c-1.16,0-1.28-1.37-1.28-2V157.47L234.55,42m1.06-1.84L33.4,156.86V287.29c0,1.91,1,3,2.34,3a3.86,3.86,0,0,0,1.89-.58L231.38,177.87a9.34,9.34,0,0,0,4.23-7.32V40.11Z" style="fill:#e0e0e0"/><path d="M33.4,148a9.34,9.34,0,0,1,4.23-7.32L231.38,28.82c2.34-1.35,4.23-.26,4.23,2.44v8.85L33.4,156.86Z" style="fill:#37474f"/><path d="M211.82,44.68a4.36,4.36,0,0,0-2,3.43c0,1.27.88,1.78,2,1.15a4.39,4.39,0,0,0,2-3.44C213.8,44.56,212.91,44.05,211.82,44.68Z" style="fill:#27debf"/><path d="M218.76,40.68a4.39,4.39,0,0,0-2,3.44c0,1.26.89,1.77,2,1.14a4.39,4.39,0,0,0,2-3.43C220.74,40.56,219.85,40.05,218.76,40.68Z" style="fill:#27debf"/><path d="M225.7,36.69a4.37,4.37,0,0,0-2,3.43c0,1.27.89,1.78,2,1.15a4.41,4.41,0,0,0,2-3.44C227.68,36.57,226.79,36.06,225.7,36.69Z" style="fill:#27debf"/><path d="M58.49,156.55c0,2.62,1.84,3.69,4.11,2.37a9.09,9.09,0,0,0,4.11-7.12c0-2.62-1.84-3.68-4.11-2.37A9.09,9.09,0,0,0,58.49,156.55Z" style="fill:#5725e8"/><path d="M63,153.32c0,.77.54,1.07,1.2.69a2.65,2.65,0,0,0,1.2-2.07c0-.76-.54-1.07-1.2-.69A2.65,2.65,0,0,0,63,153.32Z" style="fill:#fff"/><path d="M177.73,85.48v9.19c0,1.39,1,2,2.19,1.26l8-4.59a4.85,4.85,0,0,0,2.19-3.8V78.36c0-1.4-1-2-2.19-1.26l-8,4.59A4.85,4.85,0,0,0,177.73,85.48Z" style="fill:#5725e8"/><path d="M188.53,84.53V83.16c0-.08-.06-.12-.14-.09l-1,.48a.14.14,0,0,1-.18-.08,2.57,2.57,0,0,0-.23-.53.31.31,0,0,1,0-.25l.7-1.42a.15.15,0,0,0-.06-.2l-.76-.44a.16.16,0,0,0-.21.05L185.71,82a.31.31,0,0,1-.23.12,2.28,2.28,0,0,0-.57,0,.13.13,0,0,1-.16-.11l-.12-1.15c0-.08-.07-.11-.14-.07l-1.18.68a.35.35,0,0,0-.14.23l-.12,1.31a.49.49,0,0,1-.12.25,7.23,7.23,0,0,0-.66.69.21.21,0,0,1-.23.07l-.76-.27a.21.21,0,0,0-.22.08l-.87,1.51a.18.18,0,0,0,0,.22l.61.53a.22.22,0,0,1,.06.23,8,8,0,0,0-.27.92.51.51,0,0,1-.15.23l-1.08.76a.31.31,0,0,0-.12.23v1.37c0,.08.06.12.13.08l1.05-.47a.13.13,0,0,1,.18.08,2.48,2.48,0,0,0,.23.52.3.3,0,0,1,0,.26l-.7,1.41a.16.16,0,0,0,.06.21l.76.44a.16.16,0,0,0,.21-.05l.87-1.32a.34.34,0,0,1,.23-.11,1.91,1.91,0,0,0,.57-.06.13.13,0,0,1,.16.11l.12,1.15a.09.09,0,0,0,.14.08l1.18-.69a.3.3,0,0,0,.14-.22l.12-1.31a.45.45,0,0,1,.12-.25,8.64,8.64,0,0,0,.66-.69.21.21,0,0,1,.23-.07l.76.26a.19.19,0,0,0,.22-.07l.87-1.51a.2.2,0,0,0,0-.23L187,86.9a.22.22,0,0,1-.06-.23,8.62,8.62,0,0,0,.27-.92.51.51,0,0,1,.15-.23l1.08-.76A.32.32,0,0,0,188.53,84.53Zm-4.63,4.29c-1.1.64-2,.12-2-1.15a4.41,4.41,0,0,1,2-3.46c1.1-.64,2-.12,2,1.15A4.44,4.44,0,0,1,183.9,88.82Z" style="fill:#fff"/><path d="M157.17,97.38v9.18c0,1.4,1,2,2.19,1.27l8-4.59a4.85,4.85,0,0,0,2.19-3.8V90.26c0-1.4-1-2-2.19-1.27l-8,4.59A4.85,4.85,0,0,0,157.17,97.38Z" style="fill:#5725e8"/><polygon points="163.34 100.02 162.32 100.61 162.32 103.5 160.44 104.59 160.44 99.93 159.33 100.58 163.34 93.6 167.35 95.94 166.24 96.59 166.24 101.24 164.36 102.33 164.36 99.44 163.34 100.02" style="fill:#fff"/><path d="M198.29,73.63v9.18c0,1.4,1,2,2.19,1.27l8-4.6a4.82,4.82,0,0,0,2.19-3.79V66.51c0-1.4-1-2-2.19-1.27l-8,4.59A4.85,4.85,0,0,0,198.29,73.63Z" style="fill:#5725e8"/><path d="M209.11,68.93a.24.24,0,0,0-.2,0l-8.34,4.82a.7.7,0,0,0-.24.29l4.4,1.62Z" style="fill:#fff"/><path d="M200.33,74.07a.61.61,0,0,0-.08.25v6.91a.23.23,0,0,0,.08.2l3.49-5.4Z" style="fill:#fff"/><path d="M209.11,68.93l-3.39,5.9,3.42,1.53-3.64-1.13-.52.89a.51.51,0,0,1-.68.19l-.19-.11-3.79,5.23a.23.23,0,0,0,.24,0l8.35-4.82a.69.69,0,0,0,.32-.55V69.14C209.23,69,209.18,69,209.11,68.93Z" style="fill:#fff"/><polygon points="200.32 81.43 200.32 81.43 200.32 81.43 200.32 81.43" style="fill:#fff"/><polygon points="200.32 74.06 200.33 74.06 200.33 74.06 200.32 74.06" style="fill:#fff"/><polygon points="209.12 68.91 209.11 68.92 209.11 68.92 209.12 68.91" style="fill:#fff"/><polygon points="58.49 170.79 210.63 82.96 210.63 130.44 58.49 218.28 58.49 170.79" style="fill:#fff"/><polygon points="66.71 208.78 66.71 170.79 116.05 142.31 116.05 180.29 66.71 208.78" style="fill:#27debf"/><polygon points="66.71 208.78 66.71 170.79 116.05 142.31 116.05 180.29 66.71 208.78" style="fill:#2f188c"/><path d="M101.88,161.38c0,1.9,1.33,2.67,3,1.72a6.57,6.57,0,0,0,3-5.16c0-1.89-1.33-2.66-3-1.71A6.57,6.57,0,0,0,101.88,161.38Z" style="fill:#5725e8"/><polygon points="66.71 208.78 66.71 194.53 81.86 174.5 99.61 184.48 93.64 179.44 102.22 169.13 116.05 176.32 116.05 180.29 66.71 208.78" style="fill:#5725e8"/><path d="M126.47,136.29l32.62-18.83c1.21-.7,2.19-.2,2.19,1.11a4.7,4.7,0,0,1-2.19,3.64L126.47,141c-1.21.7-2.19.2-2.19-1.11A4.7,4.7,0,0,1,126.47,136.29Z" style="fill:#5725e8"/><path d="M125.59,146.3l75.5-43.59c.72-.42,1.31-.23,1.31.43a2.62,2.62,0,0,1-1.31,1.94l-75.5,43.59c-.72.42-1.31.23-1.31-.43A2.63,2.63,0,0,1,125.59,146.3Z" style="fill:#e0e0e0"/><path d="M125.59,151l75.5-43.58c.72-.42,1.31-.23,1.31.42a2.62,2.62,0,0,1-1.31,2l-75.5,43.59c-.72.42-1.31.22-1.31-.43A2.64,2.64,0,0,1,125.59,151Z" style="fill:#e0e0e0"/><path d="M125.59,155.79l75.5-43.59c.72-.42,1.31-.22,1.31.43a2.62,2.62,0,0,1-1.31,2l-75.5,43.58c-.72.42-1.31.23-1.31-.42A2.64,2.64,0,0,1,125.59,155.79Z" style="fill:#e0e0e0"/><path d="M125.59,160.54l42.6-24.61c.73-.42,1.32-.23,1.32.43a2.63,2.63,0,0,1-1.32,1.94l-42.6,24.61c-.72.42-1.31.23-1.31-.43A2.64,2.64,0,0,1,125.59,160.54Z" style="fill:#e0e0e0"/><path d="M124.28,173V171a4.85,4.85,0,0,1,2.19-3.8l12.06-7c1.21-.7,2.19-.13,2.19,1.26v2.07a4.85,4.85,0,0,1-2.19,3.79l-12.06,7C125.26,175,124.28,174.41,124.28,173Z" style="fill:#5725e8"/><path d="M188,134c1.14-.66,2.06-.13,2.06,1.18a4.55,4.55,0,0,1-2.06,3.57c-1.13.65-2,.12-2-1.19A4.54,4.54,0,0,1,188,134Z" style="fill:#5725e8"/><path d="M194.18,130.44c1.13-.66,2.06-.13,2.06,1.18a4.53,4.53,0,0,1-2.06,3.56c-1.14.66-2.06.13-2.06-1.18A4.53,4.53,0,0,1,194.18,130.44Z" style="fill:#5725e8"/><path d="M200.35,126.88c1.13-.66,2.05-.13,2.05,1.18a4.54,4.54,0,0,1-2.05,3.56c-1.14.66-2.06.13-2.06-1.18A4.53,4.53,0,0,1,200.35,126.88Z" style="fill:#5725e8"/><path d="M60.68,226.51l40.85-23.59c1.21-.7,2.19-.13,2.19,1.27v37.67a4.82,4.82,0,0,1-2.19,3.79L60.68,269.24c-1.21.7-2.19.13-2.19-1.27V230.3A4.82,4.82,0,0,1,60.68,226.51Z" style="fill:#27debf"/><path d="M60.68,226.51l40.85-23.59c1.21-.7,2.19-.13,2.19,1.27v37.67a4.82,4.82,0,0,1-2.19,3.79L60.68,269.24c-1.21.7-2.19.13-2.19-1.27V230.3A4.82,4.82,0,0,1,60.68,226.51Z" style="fill:#5725e8"/><path d="M66.76,227.74c2.3-1.33,4.17-.28,4.17,2.34a9.16,9.16,0,0,1-4.17,7.16c-2.3,1.32-4.16.27-4.16-2.35A9.14,9.14,0,0,1,66.76,227.74Z" style="fill:#fff"/><path d="M77.13,221.76,97.42,210c1.21-.69,2.19-.2,2.19,1.11a4.7,4.7,0,0,1-2.19,3.64L77.13,226.5c-1.21.7-2.19.21-2.19-1.1A4.68,4.68,0,0,1,77.13,221.76Z" style="fill:#fff"/><path d="M76.25,229.39l13.82-8c.72-.42,1.31-.23,1.31.43a2.64,2.64,0,0,1-1.31,1.94l-13.82,8c-.73.42-1.31.23-1.31-.43A2.57,2.57,0,0,1,76.25,229.39Z" style="fill:#fff"/><path d="M63.91,243.63l34.38-19.85c.73-.42,1.32-.23,1.32.43a2.63,2.63,0,0,1-1.32,1.95L63.91,246c-.72.42-1.31.23-1.31-.42A2.64,2.64,0,0,1,63.91,243.63Z" style="fill:#fff"/><path d="M63.91,248.38l34.38-19.85c.73-.42,1.32-.23,1.32.43a2.63,2.63,0,0,1-1.32,1.94L63.91,250.75c-.72.42-1.31.23-1.31-.43A2.64,2.64,0,0,1,63.91,248.38Z" style="fill:#fff"/><path d="M63.91,253.13l34.38-19.85c.73-.42,1.32-.23,1.32.43a2.63,2.63,0,0,1-1.32,1.94L63.91,255.5c-.72.42-1.31.23-1.31-.43A2.64,2.64,0,0,1,63.91,253.13Z" style="fill:#fff"/><path d="M98.29,245.6c-1,.59-1.85-.21-1.85-1.78a4.88,4.88,0,0,1,1.85-3.91c1-.59,1.84.21,1.84,1.78A4.9,4.9,0,0,1,98.29,245.6Zm0-5.14a3.91,3.91,0,0,0-1.5,3.15c0,1.27.67,1.92,1.5,1.44a3.94,3.94,0,0,0,1.49-3.16C99.78,240.62,99.11,240,98.29,240.46Z" style="fill:#fff"/><path d="M99.11,242.55l-1.84,1.06c-.09.06-.17,0-.17-.17a.51.51,0,0,1,.17-.38L99.11,242c.1-.06.18,0,.18.17A.48.48,0,0,1,99.11,242.55Z" style="fill:#fff"/><path d="M98.25,244.21a.1.1,0,0,1-.14,0,.42.42,0,0,1,0-.4l.78-1.4-.78-.49c-.08,0-.09-.21,0-.37s.17-.23.25-.19l1,.61a.22.22,0,0,1,.07.18.59.59,0,0,1-.07.25l-1,1.72A.32.32,0,0,1,98.25,244.21Z" style="fill:#fff"/><path d="M114.1,195.64,155,172.06c1.21-.7,2.19-.13,2.19,1.27V211a4.85,4.85,0,0,1-2.19,3.79l-40.82,23.58c-1.21.7-2.19.14-2.19-1.26l0-37.67A4.85,4.85,0,0,1,114.1,195.64Z" style="fill:#5725e8"/><path d="M120.22,196.88c2.3-1.33,4.16-.28,4.16,2.34a9.13,9.13,0,0,1-4.16,7.15c-2.3,1.33-4.17.28-4.17-2.34A9.16,9.16,0,0,1,120.22,196.88Z" style="fill:#fff"/><path d="M130.58,190.9l20.29-11.72c1.21-.7,2.19-.2,2.19,1.11a4.7,4.7,0,0,1-2.19,3.64l-20.29,11.71c-1.21.7-2.19.21-2.19-1.11A4.67,4.67,0,0,1,130.58,190.9Z" style="fill:#fff"/><path d="M129.7,198.52l13.82-8c.73-.42,1.32-.23,1.32.42a2.63,2.63,0,0,1-1.32,1.95l-13.81,8c-.73.42-1.32.22-1.32-.43A2.64,2.64,0,0,1,129.7,198.52Z" style="fill:#fff"/><path d="M117.37,212.77l34.38-19.85c.72-.42,1.31-.23,1.31.43a2.64,2.64,0,0,1-1.31,1.94l-34.38,19.85c-.73.42-1.32.23-1.32-.43A2.63,2.63,0,0,1,117.37,212.77Z" style="fill:#fff"/><path d="M117.37,217.52l34.38-19.85c.72-.42,1.31-.23,1.31.43a2.64,2.64,0,0,1-1.31,1.94l-34.38,19.85c-.73.42-1.32.23-1.32-.43A2.61,2.61,0,0,1,117.37,217.52Z" style="fill:#fff"/><path d="M117.37,222.26l34.38-19.84c.72-.42,1.31-.23,1.31.42a2.64,2.64,0,0,1-1.31,1.95l-34.38,19.85c-.73.42-1.32.23-1.32-.43A2.63,2.63,0,0,1,117.37,222.26Z" style="fill:#fff"/><path d="M151.74,214.74c-1,.59-1.85-.21-1.85-1.78a4.9,4.9,0,0,1,1.85-3.92c1-.58,1.85.21,1.85,1.78A4.9,4.9,0,0,1,151.74,214.74Zm0-5.15a4,4,0,0,0-1.49,3.16c0,1.27.67,1.91,1.49,1.44a4,4,0,0,0,1.49-3.16C153.23,209.76,152.56,209.12,151.74,209.59Z" style="fill:#fff"/><path d="M152.57,211.69l-1.84,1.06c-.1.06-.18,0-.18-.17a.48.48,0,0,1,.18-.38l1.84-1.06c.1-.06.17,0,.17.17A.47.47,0,0,1,152.57,211.69Z" style="fill:#fff"/><path d="M151.7,213.35a.1.1,0,0,1-.14,0,.45.45,0,0,1,0-.4l.79-1.4-.79-.49c-.07-.05-.09-.21,0-.37s.18-.24.25-.19l1,.61s.06.09.06.17a.58.58,0,0,1-.06.26l-1,1.71A.36.36,0,0,1,151.7,213.35Z" style="fill:#fff"/><path d="M167.53,164.78l40.85-23.58c1.21-.7,2.19-.13,2.19,1.26v37.67a4.85,4.85,0,0,1-2.19,3.8l-40.79,23.58c-1.21.7-2.19.14-2.2-1.26l0-37.67A4.85,4.85,0,0,1,167.53,164.78Z" style="fill:#27debf"/><path d="M167.53,164.78l40.85-23.58c1.21-.7,2.19-.13,2.19,1.26v37.67a4.85,4.85,0,0,1-2.19,3.8l-40.79,23.58c-1.21.7-2.19.14-2.2-1.26l0-37.67A4.85,4.85,0,0,1,167.53,164.78Z" style="fill:#5725e8"/><path d="M173.67,166c2.3-1.33,4.17-.28,4.17,2.34a9.16,9.16,0,0,1-4.17,7.15c-2.3,1.33-4.16.28-4.16-2.34A9.13,9.13,0,0,1,173.67,166Z" style="fill:#fff"/><path d="M184,160l20.28-11.71c1.22-.7,2.2-.2,2.2,1.11a4.69,4.69,0,0,1-2.2,3.64L184,164.78c-1.21.7-2.2.2-2.2-1.11A4.69,4.69,0,0,1,184,160Z" style="fill:#fff"/><path d="M183.16,167.66l13.82-8c.72-.42,1.31-.22,1.31.43a2.64,2.64,0,0,1-1.31,1.95l-13.82,8c-.73.42-1.32.23-1.32-.42A2.63,2.63,0,0,1,183.16,167.66Z" style="fill:#fff"/><path d="M170.82,181.91l34.38-19.85c.73-.42,1.32-.23,1.32.43a2.63,2.63,0,0,1-1.32,1.94l-34.38,19.85c-.72.42-1.31.23-1.31-.43A2.63,2.63,0,0,1,170.82,181.91Z" style="fill:#fff"/><path d="M170.82,186.65l34.38-19.84c.73-.42,1.32-.23,1.32.42a2.63,2.63,0,0,1-1.32,2L170.82,189c-.72.42-1.31.23-1.31-.43A2.64,2.64,0,0,1,170.82,186.65Z" style="fill:#fff"/><path d="M170.82,191.4l34.38-19.85c.73-.42,1.32-.22,1.32.43a2.63,2.63,0,0,1-1.32,2l-34.38,19.85c-.72.41-1.31.22-1.31-.43A2.64,2.64,0,0,1,170.82,191.4Z" style="fill:#fff"/><path d="M205.19,183.87c-1,.59-1.84-.2-1.84-1.77a4.92,4.92,0,0,1,1.84-3.92c1-.59,1.85.21,1.85,1.78A4.86,4.86,0,0,1,205.19,183.87Zm0-5.14a4,4,0,0,0-1.49,3.16c0,1.27.67,1.91,1.49,1.44a4,4,0,0,0,1.5-3.16C206.69,178.9,206,178.26,205.19,178.73Z" style="fill:#fff"/><path d="M206,180.83l-1.84,1.06c-.09.05-.17,0-.17-.17a.47.47,0,0,1,.17-.38l1.84-1.06c.1-.06.18,0,.18.17A.48.48,0,0,1,206,180.83Z" style="fill:#fff"/><path d="M205.16,182.48a.1.1,0,0,1-.14,0,.42.42,0,0,1,0-.4l.78-1.4-.78-.49c-.08,0-.09-.22,0-.37s.17-.24.25-.19l1,.6a.23.23,0,0,1,.07.18.63.63,0,0,1-.07.26l-1,1.71A.26.26,0,0,1,205.16,182.48Z" style="fill:#fff"/><path d="M468.64,237.78c-6.06,1.63-11,8.79-13.42,15.77A46.41,46.41,0,0,0,452.81,267l.79,5.9,3.43-.57c1.42-7.2,7.49-14.9,10.78-18.13s7.7-6.37,8.63-9.92C477.52,240.14,474.7,236.16,468.64,237.78Zm3.88,2.95c-.17.11-17.12,11-16.81,28.94a.39.39,0,0,1-.37.39h0a.39.39,0,0,1-.39-.38c-.32-18.33,17-29.49,17.17-29.6a.37.37,0,0,1,.53.12A.39.39,0,0,1,472.52,240.73Z" style="fill:#4440ff"/><path d="M456.31,294.6l.08.11a3.69,3.69,0,0,0,2.46,1,9.78,9.78,0,0,0,6.63-2.13,18.1,18.1,0,0,0,4.52-5.43,15.57,15.57,0,0,1,1.87-2.85c1.59-1.72,4.33-1.83,6.47-2.41a8.28,8.28,0,0,0,6-5.74c.67-2.82.16-6.18-2.51-7.82l2.11-1.52a14.93,14.93,0,0,0,2.7-2.3,4.87,4.87,0,0,0,1.25-3.24,4.65,4.65,0,0,0-3.1-3.86,9.85,9.85,0,0,0-5.17-.25,23.58,23.58,0,0,0-5.07,1.48,3.56,3.56,0,0,1-1.42.4,3.7,3.7,0,0,1-1.79-.71c-3.89-2.28-10-1.77-11.77,3-.26.7-.4,1.45-.67,2.14-1,2.58-4.37,2-6.42,3.29a5.37,5.37,0,0,0-2.27,4c-.29,2.51.56,5.32,1.15,7.76s1.3,4.69,2.09,7c.65,1.9,1.35,3.77,2.09,5.63A11.3,11.3,0,0,0,456.31,294.6Z" style="fill:#5725e8"/><path d="M453.89,288.86a34.58,34.58,0,0,1,8.25-14,.41.41,0,0,1,.2-.21,46.22,46.22,0,0,1,3.48-3.27,18.67,18.67,0,0,0-1.77-9.72.39.39,0,0,1,.68-.37,19,19,0,0,1,1.92,9.39,59.32,59.32,0,0,1,16.45-9.37.4.4,0,0,1,.49.25.39.39,0,0,1-.24.49,57.43,57.43,0,0,0-19.47,12.13c5.46-1.26,12.19,1.06,12.5,1.16a.39.39,0,0,1,.24.5.36.36,0,0,1-.34.25.26.26,0,0,1-.15,0c-.08,0-8-2.74-13.36-.76a33.89,33.89,0,0,0-8.14,13.75.38.38,0,0,1-.35.28h-.13A.39.39,0,0,1,453.89,288.86Z" style="fill:#fff"/><path d="M380.57,113.8V257.9a5.17,5.17,0,0,0,2.32,4l63.89,36.88c1.28.74,2.32.14,2.32-1.34V153.37a5.13,5.13,0,0,0-2.32-4l-63.89-36.89C381.61,111.72,380.57,112.32,380.57,113.8Zm3.34,17.2c0-1.27.89-1.79,2-1.15L444,163.39a4.44,4.44,0,0,1,2,3.45V279.72c0,1.27-.9,1.78-2,1.15l-58.1-33.54a3.21,3.21,0,0,1-2-2.71Z" style="fill:#27debf"/><path d="M380.57,113.8V257.9a5.17,5.17,0,0,0,2.32,4l63.89,36.88c1.28.74,2.32.14,2.32-1.34V153.37a5.13,5.13,0,0,0-2.32-4l-63.89-36.89C381.61,111.72,380.57,112.32,380.57,113.8Zm3.34,17.2c0-1.27.89-1.79,2-1.15L444,163.39a4.44,4.44,0,0,1,2,3.45V279.72c0,1.27-.9,1.78-2,1.15l-58.1-33.54a3.21,3.21,0,0,1-2-2.71Z" style="fill:#5725e8"/><path d="M447.07,299a5.19,5.19,0,0,0,4.36-.15l2.66-1.53a5.14,5.14,0,0,0,2.33-4V149.16a4.4,4.4,0,0,0-.4-1.73,5.85,5.85,0,0,0-.28-.56h0l-7.32,4.22h0a7.41,7.41,0,0,1,.4.86,4.13,4.13,0,0,1,.28,1.43v144.1C449.1,298.84,448.22,299.46,447.07,299Z" style="fill:#27debf"/><path d="M447.07,299a5.19,5.19,0,0,0,4.36-.15l2.66-1.53a5.14,5.14,0,0,0,2.33-4V149.16a4.4,4.4,0,0,0-.4-1.73,5.85,5.85,0,0,0-.28-.56h0l-7.32,4.22h0a7.41,7.41,0,0,1,.4.86,4.13,4.13,0,0,1,.28,1.43v144.1C449.1,298.84,448.22,299.46,447.07,299Z" style="fill:#2f188c"/><path d="M414.28,267.71c-2-1.17-3.67-.23-3.67,2.11a8.14,8.14,0,0,0,3.67,6.36c2,1.17,3.67.22,3.67-2.12A8.08,8.08,0,0,0,414.28,267.71Z" style="fill:none;stroke:#e6e6e6;stroke-miterlimit:10;stroke-width:1.0589746236801147px"/><path d="M414.83,134c-.86-.49-1.55-.09-1.55.9a3.43,3.43,0,0,0,1.55,2.7c.86.5,1.56.09,1.56-.9A3.46,3.46,0,0,0,414.83,134Z"/><path d="M420.85,143.49l-12-7c-.72-.41-1.3-.12-1.3.66a2.79,2.79,0,0,0,1.3,2.16l12,6.94c.72.42,1.3.12,1.3-.66A2.77,2.77,0,0,0,420.85,143.49Z"/><path d="M383.91,244.62a3.21,3.21,0,0,0,2,2.71L444,280.87c1.09.63,2,.12,2-1.15V166.84a4.44,4.44,0,0,0-2-3.45l-58.1-33.54c-1.1-.64-2-.12-2,1.15Z" style="fill:#27debf"/><path d="M383.91,244.62a3.21,3.21,0,0,0,2,2.71L444,280.87c1.09.63,2,.12,2-1.15V166.84a4.44,4.44,0,0,0-2-3.45l-58.1-33.54c-1.1-.64-2-.12-2,1.15Z" style="fill:#fff"/><path d="M380.59,113.43c.17-1.2,1.13-1.64,2.29-1l63.9,36.89a4.72,4.72,0,0,1,1.64,1.73l7.32-4.22a4.71,4.71,0,0,0-1.65-1.72l-63.89-36.9a5.15,5.15,0,0,0-4.65,0l-2.67,1.53A5.24,5.24,0,0,0,380.59,113.43Z" style="fill:#27debf"/><path d="M380.59,113.43c.17-1.2,1.13-1.64,2.29-1l63.9,36.89a4.72,4.72,0,0,1,1.64,1.73l7.32-4.22a4.71,4.71,0,0,0-1.65-1.72l-63.89-36.9a5.15,5.15,0,0,0-4.65,0l-2.67,1.53A5.24,5.24,0,0,0,380.59,113.43Z" style="fill:#2f188c"/><path d="M444,163.39l-58.1-33.54c-1.1-.64-2-.12-2,1.15v13L446,179.87v-13A4.41,4.41,0,0,0,444,163.39Z" style="fill:#263238"/><path d="M391.64,143.6a4.6,4.6,0,0,0,2.18,3.51l36.75,21.47c1.21.71,2.19.22,2.19-1.09a4.7,4.7,0,0,0-2.19-3.64l-36.74-21.21C392.62,141.94,391.64,142.37,391.64,143.6Z" style="fill:#455a64"/><path d="M409.61,182.28v10.61a5,5,0,0,0,1.9,4l6.88,4c1.05.6,1.9-.21,1.9-1.83v-10.6a5,5,0,0,0-1.9-4l-6.88-4C410.46,179.85,409.61,180.67,409.61,182.28Z" style="fill:#5725e8"/><path d="M419,193.77v-1.58a.4.4,0,0,0-.12-.26l-.91-.68a.47.47,0,0,1-.15-.29c-.06-.3-.13-.59-.21-.88a.55.55,0,0,1,0-.31l.61-.82s0-.18-.06-.31l-.66-1.4c-.06-.13-.14-.21-.18-.18l-.76.49s-.12,0-.19-.13a6.11,6.11,0,0,0-.5-.6.51.51,0,0,1-.13-.31l-.1-1.46a.34.34,0,0,0-.13-.25l-1-.6c-.06,0-.12,0-.12.09l-.11,1.39c0,.08,0,.14-.1.14a1.54,1.54,0,0,0-.57,0c-.05,0-.14-.07-.2-.19l-.66-1.19c-.07-.12-.15-.2-.19-.16l-.75.72a.45.45,0,0,0,0,.31l.53,1.31a.51.51,0,0,1,.05.34,4.6,4.6,0,0,0-.23.74c0,.07-.08.11-.13.09l-.94-.38c-.06,0-.11,0-.11.13v1.57a.38.38,0,0,0,.12.26l.91.68a.57.57,0,0,1,.16.3c.05.29.12.59.2.88a.47.47,0,0,1,0,.31l-.61.81a.45.45,0,0,0,.06.31l.66,1.4c.06.13.14.21.18.19l.76-.5s.12,0,.2.14a5.68,5.68,0,0,0,.49.59.54.54,0,0,1,.13.32l.1,1.46a.38.38,0,0,0,.13.25l1,.59c.06,0,.12,0,.12-.09l.11-1.38c0-.09.05-.15.1-.14a1.54,1.54,0,0,0,.57,0c.05,0,.14.08.2.2l.66,1.19c.07.12.15.19.19.16l.75-.73a.42.42,0,0,0,0-.3l-.53-1.32a.57.57,0,0,1-.05-.34,3.21,3.21,0,0,0,.23-.74.11.11,0,0,1,.14-.09l.93.39C418.91,193.92,419,193.86,419,193.77Zm-4-.44a4.54,4.54,0,0,1-1.73-3.66c0-1.47.77-2.22,1.73-1.67a4.55,4.55,0,0,1,1.73,3.67C416.68,193.14,415.91,193.88,415,193.33Z" style="fill:#fff"/><path d="M391.8,172v10.6a5,5,0,0,0,1.9,4l6.89,4c1.05.6,1.9-.21,1.9-1.83V178.2a5,5,0,0,0-1.9-4l-6.89-4C392.65,169.6,391.8,170.42,391.8,172Z" style="fill:#5725e8"/><polygon points="397.14 182.28 396.27 181.77 396.27 185.11 394.63 184.17 394.63 178.79 393.67 178.24 397.14 174.87 400.62 182.25 399.66 181.69 399.66 187.07 398.02 186.13 398.02 182.79 397.14 182.28" style="fill:#fff"/><path d="M427.41,192.58v10.6a5,5,0,0,0,1.9,4l6.89,4c1.05.61,1.9-.21,1.9-1.82V198.74a5,5,0,0,0-1.9-4l-6.89-4C428.26,190.15,427.41,191,427.41,192.58Z" style="fill:#5725e8"/><path d="M436.78,199.76a.64.64,0,0,0-.17-.19l-7.22-4.17a.14.14,0,0,0-.21.06l3.81,7Z" style="fill:#fff"/><path d="M429.18,195.46a.3.3,0,0,0-.07.2v8a.88.88,0,0,0,.07.32l3-2.15Z" style="fill:#fff"/><path d="M436.78,199.77l-2.93,2.86,2.95,5.76-3.15-5.56-.44.43c-.12.12-.39-.14-.59-.58l-.16-.34L429.17,204a.47.47,0,0,0,.21.26l7.23,4.19c.15.09.28,0,.28-.27v-8A.84.84,0,0,0,436.78,199.77Z" style="fill:#fff"/><polygon points="429.17 203.95 429.17 203.95 429.17 203.95 429.17 203.95" style="fill:#fff"/><polygon points="429.17 195.45 429.18 195.46 429.18 195.46 429.17 195.45" style="fill:#fff"/><polygon points="436.79 199.76 436.78 199.76 436.78 199.76 436.79 199.76" style="fill:#fff"/><path d="M386.4,135.62v-.83c0-.18.07-.28.15-.23l.05,0a.57.57,0,0,1,.15.42v.82c0,.18-.07.29-.15.24l-.05,0A.54.54,0,0,1,386.4,135.62Z" style="fill:#fff"/><path d="M387.11,136V134.6c0-.18.07-.28.16-.23l.05,0a.57.57,0,0,1,.15.42v1.43c0,.18-.07.28-.15.23l-.05,0A.53.53,0,0,1,387.11,136Z" style="fill:#fff"/><path d="M387.83,136.45v-2c0-.17.07-.28.16-.23l.05,0a.54.54,0,0,1,.15.41v2c0,.18-.07.29-.15.24l-.05,0A.51.51,0,0,1,387.83,136.45Z" style="fill:#fff"/><path d="M388.55,136.86v-3.51c0-.18.07-.28.16-.23l.05,0a.57.57,0,0,1,.15.42v3.51c0,.18-.07.28-.16.23l0,0A.53.53,0,0,1,388.55,136.86Z" style="fill:#fff"/><path d="M390.5,138.23a.51.51,0,0,1,0-.13v-.52l-.81-.46a.18.18,0,0,1-.06-.15v-.28l0-.07.86-1.35s0,0,0,0,0,0,.06,0l.11.07a.14.14,0,0,1,.07.08.3.3,0,0,1,0,.14v1.8l.18.1a.13.13,0,0,1,.07.08.3.3,0,0,1,0,.14v.12c0,.06,0,.09,0,.11s0,0-.07,0l-.18-.1v.51c0,.06,0,.09,0,.11s0,0-.07,0l-.14-.08A.16.16,0,0,1,390.5,138.23Zm0-1.06v-1.28l-.58,1Z" style="fill:#fff"/><path d="M391.46,138.47a3.33,3.33,0,0,1-.24-1.33,1.68,1.68,0,0,1,.24-1c.16-.19.38-.2.67,0a1.46,1.46,0,0,1,.32.25,1.85,1.85,0,0,1,.25.32.24.24,0,0,1,0,.08.06.06,0,0,1,0,0l-.07.19s0,0,0,0l0,0a1.15,1.15,0,0,0-.41-.41q-.29-.16-.45,0a1.29,1.29,0,0,0-.17.79,2.75,2.75,0,0,0,.16,1,1.15,1.15,0,0,0,.44.54.64.64,0,0,0,.2.08.3.3,0,0,0,.16,0v-.84l-.34-.19a.27.27,0,0,1-.07-.08.46.46,0,0,1,0-.14v-.11a.2.2,0,0,1,0-.11s0,0,.07,0l.54.31a.18.18,0,0,1,.08.09.37.37,0,0,1,0,.16v1.29s0,0,0,0-.36,0-.63-.1A1.63,1.63,0,0,1,391.46,138.47Z" style="fill:#fff"/><path d="M442.8,165.32a.89.89,0,0,0-.32-.47l-2.41-1.4c-.21-.12-.37.12-.37.55v1.81a2.1,2.1,0,0,0,.14.73.85.85,0,0,0,.13.27.56.56,0,0,0,.19.21l2.41,1.39c.21.12.37-.12.37-.55v-1.8A2.15,2.15,0,0,0,442.8,165.32Zm-2.88,1.09a1,1,0,0,1-.05-.32v-1.81c0-.31.13-.5.29-.41l2.41,1.39a.27.27,0,0,1,.1.11.2.2,0,0,1,0,.08.83.83,0,0,1,.06.32v1.81c0,.32-.13.51-.29.42l-2.41-1.4A.38.38,0,0,1,439.92,166.41Z" style="fill:#fff"/><path d="M441.45,164.94v2.13l-1.3-.75,0,0v-1.7c0-.23.1-.37.21-.31Z" style="fill:#fff"/><path d="M443.06,166.14c.09.05.16.39.16.76v.34c0,.37-.07.63-.16.59l-.16-.08v-1.7Z" style="fill:#fff"/><path d="M396.07,140.87c0,.4-.21.6-.47.45a1.25,1.25,0,0,1-.46-1c0-.39.21-.6.46-.45A1.24,1.24,0,0,1,396.07,140.87Z" style="fill:#fff"/><path d="M395.6,138.7a.7.7,0,0,0-1.08.38.43.43,0,0,0,.05.39h0c.08.16.22.19.27.07a.49.49,0,0,1,.76-.27,1.94,1.94,0,0,1,.77,1.15c.05.19.18.3.27.25h0a.32.32,0,0,0,.05-.33A2.78,2.78,0,0,0,395.6,138.7Z" style="fill:#fff"/><path d="M395.6,137.55a1.11,1.11,0,0,0-1.67.45.48.48,0,0,0,0,.4h0c.09.16.21.19.27.09a.9.9,0,0,1,1.36-.37,3.54,3.54,0,0,1,1.37,1.94c.06.18.18.28.27.23h0a.35.35,0,0,0,0-.36A4.41,4.41,0,0,0,395.6,137.55Z" style="fill:#fff"/><path d="M411.82,150.45a.14.14,0,0,1,0,.07h-.06l-.12-.07a.1.1,0,0,1-.05-.07.16.16,0,0,1,0-.09v-2.47l-.47.28s0,0-.06,0A.13.13,0,0,1,411,148l-.07-.18a.18.18,0,0,1,0-.1.06.06,0,0,1,0-.06l.62-.38a0,0,0,0,1,0,0l.05,0,.12.07a.22.22,0,0,1,.06.07.3.3,0,0,1,0,.1Z" style="fill:#fff"/><path d="M412.51,148.86s0,0,.05.06a.2.2,0,0,1,0,.1v.3s0,.06,0,.07,0,0-.05,0l-.2-.12a.1.1,0,0,1-.05-.06.22.22,0,0,1,0-.1v-.3a.08.08,0,0,1,0-.07s0,0,.05,0Zm0,1.56s0,0,.05.07a.16.16,0,0,1,0,.1v.3a.08.08,0,0,1,0,.07h-.05l-.2-.11a.1.1,0,0,1-.05-.07.17.17,0,0,1,0-.1v-.3a.09.09,0,0,1,0-.07h.05Z" style="fill:#fff"/><path d="M413.93,151.79s0,0-.05-.07a.18.18,0,0,1,0-.1V151l-.92-.52a.13.13,0,0,1-.05-.07.19.19,0,0,1,0-.1v-.16s0,0,0-.07a.21.21,0,0,1,0-.06l.91-1.32.06,0s0,0,.06,0l.11.07.06.06a.44.44,0,0,1,0,.1v1.87l.25.15a.17.17,0,0,1,.06.06.44.44,0,0,1,0,.1v.16a.1.1,0,0,1,0,.07,0,0,0,0,1-.06,0l-.25-.15v.62a.12.12,0,0,1,0,.07,0,0,0,0,1-.06,0Zm-.07-1.19v-1.26l-.64.9Z" style="fill:#fff"/><path d="M414.94,151.62a1.42,1.42,0,0,0,.05.16.51.51,0,0,0,.07.17,1.1,1.1,0,0,0,.14.18,1.14,1.14,0,0,0,.23.16.51.51,0,0,0,.17.07.22.22,0,0,0,.14,0,.19.19,0,0,0,.09-.12.47.47,0,0,0,0-.23,1.09,1.09,0,0,0,0-.26,1.12,1.12,0,0,0-.1-.22.75.75,0,0,0-.14-.17,1.09,1.09,0,0,0-.17-.13l-.25-.14a.1.1,0,0,1-.05-.06.2.2,0,0,1,0-.1v-.16a.15.15,0,0,1,0-.07l0,0,.52-.57-.83-.48a.14.14,0,0,1-.06-.07.29.29,0,0,1,0-.09v-.17a.14.14,0,0,1,0-.07.06.06,0,0,1,.06,0l1.14.66a.14.14,0,0,1,.06.07.3.3,0,0,1,0,.1v.16a.17.17,0,0,1,0,.07l0,0-.52.56a.93.93,0,0,1,.27.22,1.61,1.61,0,0,1,.21.3,1.91,1.91,0,0,1,.13.36,1.84,1.84,0,0,1,0,.41,1,1,0,0,1-.06.38.49.49,0,0,1-.15.21.46.46,0,0,1-.23.06.63.63,0,0,1-.28-.1,1.14,1.14,0,0,1-.34-.26,1.36,1.36,0,0,1-.23-.32,1.17,1.17,0,0,1-.14-.33,1.25,1.25,0,0,1-.05-.32.14.14,0,0,1,0-.06,0,0,0,0,1,.05,0l.13.08a.1.1,0,0,1,.05.06A.19.19,0,0,1,414.94,151.62Z" style="fill:#fff"/><polygon points="391.8 236.53 391.8 192.03 438.11 218.77 438.12 263.27 391.8 236.53" style="fill:#27debf"/><polygon points="391.8 236.53 391.8 192.03 438.11 218.77 438.12 263.27 391.8 236.53" style="fill:#5725e8"/><path d="M424.81,221.68c0,2.37,1.25,5,2.79,5.91s2.8-.31,2.8-2.69-1.25-5-2.8-5.91S424.81,219.3,424.81,221.68Z" style="fill:#5725e8"/><polygon points="391.8 236.53 391.8 218.7 406.02 212.79 422.68 247.71 417.07 233.86 425.13 231.81 438.12 258.3 438.12 263.27 391.8 236.53" style="fill:#5725e8"/><path d="M408.29,249.23a4.93,4.93,0,0,1,2.06,3.93c0,1.52-.92,2.21-2.06,1.56a5,5,0,0,1-2.05-3.93C406.24,249.28,407.16,248.58,408.29,249.23Z" style="fill:#5725e8"/><path d="M413.64,253.08h0a1.19,1.19,0,0,1,.56.17,4.42,4.42,0,0,1,1.79,3.47,1.83,1.83,0,0,1-.25,1,.54.54,0,0,1-.46.26,1.08,1.08,0,0,1-.55-.18,4.4,4.4,0,0,1-1.8-3.47c0-.59.19-1.27.71-1.27m0-.53c-.72,0-1.24.67-1.24,1.8a5,5,0,0,0,2.06,3.93,1.64,1.64,0,0,0,.82.25c.73,0,1.24-.68,1.24-1.81a4.9,4.9,0,0,0-2.06-3.92,1.64,1.64,0,0,0-.82-.25Z" style="fill:#27debf"/><path d="M419.81,256.64h0a1.11,1.11,0,0,1,.55.18,4.4,4.4,0,0,1,1.79,3.47,1.8,1.8,0,0,1-.24,1,.57.57,0,0,1-.47.26,1.11,1.11,0,0,1-.55-.18,4.42,4.42,0,0,1-1.79-3.47c0-.58.19-1.27.71-1.27m0-.53c-.73,0-1.24.67-1.24,1.8a4.92,4.92,0,0,0,2.06,3.93,1.61,1.61,0,0,0,.81.25c.73,0,1.24-.68,1.24-1.8a4.92,4.92,0,0,0-2.05-3.93,1.64,1.64,0,0,0-.82-.25Z" style="fill:#27debf"/><path d="M389.68,156.9c0,2.21,1.16,4.69,2.6,5.52s2.61-.29,2.61-2.51-1.17-4.69-2.61-5.52S389.68,154.68,389.68,156.9Z" style="fill:#5725e8"/><path d="M392.53,158a2,2,0,0,0,.76,1.6c.41.25.75-.08.75-.72a2,2,0,0,0-.75-1.61C392.87,157,392.53,157.37,392.53,158Z" style="fill:#fff"/><path d="M302.83,91.77c-4.77.2-6.18,2.54-8.65,7.75-2.32,4.9-4.11,9-6.16,14.2l0,.18c-2.65,5.93-11.76,21.69-14.26,24.35a3.19,3.19,0,0,1-1.79,1.21c-1.94.2-2.71,1.07-4.39,1.69-1.32.49-2.17.36-2.2.7a1.58,1.58,0,0,0,1.52,1.55,8.1,8.1,0,0,0,2.27-.1,16.39,16.39,0,0,1-3.86,2.43c-3.31,1.54-4.16,3.05,0,5.13,2.61,1.3,5.49.7,10.28-4.12a58.09,58.09,0,0,0,4.68-5.88c3.1-4.29,10-14.13,12.84-18.94a4.08,4.08,0,0,0,.43-1c2.58-3.93,6.91-11.23,6.91-11.23s3.1-5,3.21-8.08C303.92,95.15,302.83,91.77,302.83,91.77Z" style="fill:#ffa8a7"/><path d="M370.68,136.84c3.5-3.09,2.28-4.33-1.31-5a16.38,16.38,0,0,1-4.37-1.35,8.34,8.34,0,0,0,2.22-.49,1.61,1.61,0,0,0,1.08-1.89c-.12-.33-.91,0-2.31-.11-1.79-.17-2.75-.81-4.68-.5a3.08,3.08,0,0,1-2.09-.44c-2.88-1.79-7.26-7-11.13-11.12-9-12-8.47-5.44-10.16-4.15a7,7,0,0,0-1.24,1.29,4.22,4.22,0,0,0,.69,5.2,136.39,136.39,0,0,0,16.14,12.86c2.53,1.68,4.47,3.35,6.16,4.33C365.56,138.93,368.5,138.77,370.68,136.84Z" style="fill:#ffa8a7"/><path d="M324.38,90.37A8.61,8.61,0,0,1,331,93.1c2.57,2.66,13.23,16,13.23,16a11.22,11.22,0,0,1-7.46,8.74l-13.6-13.11Z" style="fill:#27debf"/><path d="M324.38,90.37A8.61,8.61,0,0,1,331,93.1c2.57,2.66,13.23,16,13.23,16a11.22,11.22,0,0,1-7.46,8.74l-13.6-13.11Z" style="fill:#5725e8"/><rect x="301.19" y="228.24" width="6.54" height="11.66" style="fill:#ffa8a7"/><polygon points="323.86 227.62 330.39 227.85 330.72 215.51 323.86 215.28 323.86 227.62" style="fill:#ffa8a7"/><path d="M300.27,127.3c0,6.5,1,58.84,1,58.84-.15,1.87-1.83,5.32-1.47,12.51.5,9.76,1.16,35.42,1.16,35.42a8.3,8.3,0,0,0,7.28.15s6.18-35.54,7.35-45.21c1-8.45,2.76-36.88,2.76-36.88l3.55,33.06A40.28,40.28,0,0,0,321,196c.31,4.48,2.41,27.79,2.41,27.79a8.64,8.64,0,0,0,7.55.6s3.72-35.1,3.8-39.21c.08-4.68-2.18-58-2.18-58Z" style="fill:#37474f"/><path d="M307.72,236.54v-1c.63.29,2.08,6.06,4.68,8.53,2.06,2,4.87,4.22,5.59,6.4s-3.92,3.53-5.84,3.17c-2.24-.41-6.12-2-7.1-3.57s-1.43-3.77-2.22-4.89-2.62-2.36-3-3.65a8.44,8.44,0,0,1,.37-3.57c.3-1.21.63-2.53,1-2.42v.74a5,5,0,0,0,3.27,1.16C305.41,237.49,307.73,237.3,307.72,236.54Z" style="fill:#263238"/><path d="M330.46,225.75c.34,0,.62.51,1.37,1.36a14.19,14.19,0,0,0,3.84,2.88c2.45,1.28,7.21,3.24,9.37,4.25,1.34.63,1.28,2.33-.11,3.29s-4.75,1.66-8.79.72c-2.19-.51-5.05-2.63-6.86-2.51s-5.2.08-6.54-.88-.8-3-.42-4.76c.41-1.93.93-4.92,1.54-4.79V226c.78,1.24,4.84,1.75,6.57.83Z" style="fill:#263238"/><path d="M318.3,152.13a23.93,23.93,0,0,0,9.11-5.43s-1.76,3.42-7,6.61l1.12,29.52Z" style="fill:#263238"/><path d="M303.44,91.53s-4.89.77-4.53,10.51L300,117.57l-.1,23.3c4.81,5.45,26.12,5,33.42-.43,0,0-.75-27.58-1.24-38.19-.35-7.54-2.09-11.34-9.5-12.17l-9.44-.75Z" style="fill:#5725e8"/><path d="M312.56,69a9.74,9.74,0,1,0,9.73-10.14A9.94,9.94,0,0,0,312.56,69Z" style="fill:#37474f"/><path d="M305.83,73.68s1.49,7.31,2.09,8.51a3.19,3.19,0,0,0,1.84,1.54l-.11-5.14Z" style="fill:#37474f"/><path d="M307.7,63.22s-1.07-.27-2.2,1.5c-1,1.53-1.2,5,.33,9l2.81.34Z" style="fill:#37474f"/><path d="M309.49,74c-.57.35-1.37-.78-2.07-1.53a2.4,2.4,0,0,0-4.1.69c-1.15,2.53,1.06,5.73,2.79,6.46a2.75,2.75,0,0,0,3.54-1l.24,12.78c4.09,6.33,13.35,6.1,10-.31V86.33a18.44,18.44,0,0,0,4.15.23c2.27-.37,3.69-2.23,4.38-4.78,1.11-4.11,1.52-7.42.59-15.48-1-8.85-10.9-8.94-16.24-5.44S309.49,74,309.49,74Z" style="fill:#ffa8a7"/><path d="M309.49,75c-.29,0-1.37-1.86-2.07-2.52-1-.93.28-9.27.28-9.27a4.1,4.1,0,0,1,.94-4.23c1.33-1.52,3.56-1.69,7.36-2.32a39.76,39.76,0,0,0,4.51-.81A27.18,27.18,0,0,0,325,53.67a2.21,2.21,0,0,1,1.52-.35,1.47,1.47,0,0,1,1,1.1,4.37,4.37,0,0,1,0,1.53,2.48,2.48,0,0,1,3.5.13,3.56,3.56,0,0,1,.55,3.69A6.53,6.53,0,0,1,329,62.68c-4.78,3.23-10.42,2.33-15.77,1.7a1.39,1.39,0,0,0-.76.05c-.84.38-1,3-1.16,3.73C310.85,70.7,310.44,75,309.49,75Z" style="fill:#37474f"/><path d="M307.71,63.66l-3.41-1.91a1.84,1.84,0,0,1,2.58-.89A2.18,2.18,0,0,1,307.71,63.66Z" style="fill:#37474f"/><path d="M319.9,86.33s-5.06-1.06-6.82-2a6,6,0,0,1-2.45-2.52,8.44,8.44,0,0,0,1.39,3c1.29,1.72,7.88,3,7.88,3Z" style="fill:#f28f8f"/><path d="M318.07,72.4a1,1,0,1,1-1-1.1A1.07,1.07,0,0,1,318.07,72.4Z" style="fill:#263238"/><path d="M316.33,68l-2.17,1.24a1.37,1.37,0,0,1,.51-1.79A1.18,1.18,0,0,1,316.33,68Z" style="fill:#263238"/><path d="M317.13,78.16l7.09,2.77a3.69,3.69,0,0,1-4.81,2.44A4.18,4.18,0,0,1,317.13,78.16Z" style="fill:#f28f8f"/><path d="M328.2,69l-2.28-1.11a1.17,1.17,0,0,1,1.61-.65A1.42,1.42,0,0,1,328.2,69Z" style="fill:#263238"/><path d="M327.07,72.4a1,1,0,1,1-1-1.1A1.08,1.08,0,0,1,327.07,72.4Z" style="fill:#263238"/><polygon points="320.95 71.62 321.07 78.02 324.7 77.19 320.95 71.62" style="fill:#f28f8f"/><path d="M316.7,69.79a2.7,2.7,0,0,0,0,5.39h.49a2.7,2.7,0,0,0,0-5.39Zm-3.18,2.7a3.22,3.22,0,0,1,3.18-3.25h.49a3.25,3.25,0,0,1,0,6.49h-.49A3.21,3.21,0,0,1,313.52,72.49Z" style="fill:#263238"/><path d="M326.4,69.79a2.7,2.7,0,0,0,0,5.39h.49a2.7,2.7,0,0,0,0-5.39Zm-3.18,2.7a3.22,3.22,0,0,1,3.18-3.25h.49a3.25,3.25,0,0,1,0,6.49h-.49A3.21,3.21,0,0,1,323.22,72.49Z" style="fill:#263238"/><path d="M320.33,71.85A2.07,2.07,0,0,1,322,71a1.7,1.7,0,0,1,1.47.57l.42-.33a2.16,2.16,0,0,0-1.92-.78,2.6,2.6,0,0,0-2.11,1.13Z" style="fill:#263238"/><path d="M307.07,72.18h6.72v-.52h-7.87A3,3,0,0,1,307.07,72.18Z" style="fill:#263238"/><path d="M303.44,91.53s-5.31-.32-7.25,3.15c-2.46,4.41-7.39,15.71-7.39,15.71s4,4.63,8.76,5.85c0,0,4.64-8.73,5.92-11.63A22.49,22.49,0,0,0,303.44,91.53Z" style="fill:#27debf"/><path d="M303.44,91.53s-5.31-.32-7.25,3.15c-2.46,4.41-7.39,15.71-7.39,15.71s4,4.63,8.76,5.85c0,0,4.64-8.73,5.92-11.63A22.49,22.49,0,0,0,303.44,91.53Z" style="fill:#5725e8"/></svg>