<svg xmlns="http://www.w3.org/2000/svg" xmlns:xlink="http://www.w3.org/1999/xlink" viewBox="0 0 500.22 446.84"><defs><clipPath id="a"><path d="M104.94,137.9s-23.85,12.54-56.26,4.28S-1.16,101.21.06,74,21.77,4.89,71.92.92,139.19,35.47,142.86,59s-3.67,48.93-17.74,68.8c7.34,20.18,21.1,26.3,21.1,26.3a55.73,55.73,0,0,1-25.07-.92C107.39,149.52,104.94,137.9,104.94,137.9Z" style="fill:#fff"/></clipPath><clipPath id="b"><path d="M333.2,149.37A52.86,52.86,0,0,0,355.68,153a86,86,0,0,0,21.55-4.59s30.27,24.31,70.64,11.93S504.59,112.52,499.24,70C493.67,25.8,462.08,2.6,418.05,7.64s-68.45,44-70.63,70.64c-2.75,33.63,15.14,54.12,15.14,54.12s-6.27,7-12.69,10.4A73.24,73.24,0,0,1,333.2,149.37Z" style="fill:#fff"/></clipPath><clipPath id="c"><path d="M163.65,443.07s-5.81.3-17.74-7.34-14.37-13.15-14.37-13.15,22.63-10.7,31.5-48-15.9-84.39-63-92.95-74.92,13.45-86.54,55,10.4,73.69,28.14,85.92,41,12.84,48.61,13.45a47.32,47.32,0,0,0,15-1.53s10.55,9.48,30.27,11.78S163.65,443.07,163.65,443.07Z" style="fill:#fff"/></clipPath><clipPath id="d"><path d="M316.84,409.74s8.26,4.89,22.63,4,18.65-4,18.65-4,10.7,26.6,54.43,28.13S489,408.82,489.3,362.65,459,291.1,420.19,289.26s-68.8,23.55-74,52.29A92.25,92.25,0,0,0,352,393.23a29.37,29.37,0,0,1-15.9,11.61A193.69,193.69,0,0,1,316.84,409.74Z" style="fill:#fff"/></clipPath></defs><g style="isolation:isolate"><path d="M104.94,137.9s-23.85,12.54-56.26,4.28S-1.16,101.21.06,74,21.77,4.89,71.92.92,139.19,35.47,142.86,59s-3.67,48.93-17.74,68.8c7.34,20.18,21.1,26.3,21.1,26.3a55.73,55.73,0,0,1-25.07-.92C107.39,149.52,104.94,137.9,104.94,137.9Z" style="fill:#fff"/><g style="clip-path:url(#a)"><path d="M23.15,151a149.13,149.13,0,0,1,2.15-32.48.82.82,0,0,1,.77-.84A29.5,29.5,0,0,1,44,119.19a1.24,1.24,0,0,1,1,1.39c.25,8.77-1.66,17.48-1.67,26.25a1.91,1.91,0,0,1-.19,1,1.81,1.81,0,0,1-.82.58,32.54,32.54,0,0,1-18.82,2.48" style="fill:#e67d54"/><path d="M86,91.13c-.11-.25.51-.37.3-.54a24.59,24.59,0,0,0-4-2.11,3.21,3.21,0,0,1-1.32-.9,3,3,0,0,1-.43-1.36c-.41-2.82-.68-5.66-.81-8.5a1.84,1.84,0,0,0-.23-1c-.37-.52-1.12-.52-1.75-.46L62.24,77.57,62,77.21c0,1.88-.08,3.77-.11,5.65,0,1.49-.14,3.17-1.25,4.16-.75.67-5.24,2.23-6.32,3.06a.81.81,0,0,0-.31.4.75.75,0,0,0,.13.47,14.09,14.09,0,0,0,5.36,4.94,24,24,0,0,0,13.87,3.54,16.34,16.34,0,0,0,12.29-6.8A1.7,1.7,0,0,0,86,91.13Z" style="fill:#e67d54"/><g style="mix-blend-mode:multiply"><path d="M62.7,85a18.42,18.42,0,0,0,13,1.18,16.16,16.16,0,0,0,4.5-2.08c-.26-2.13-.46-4.26-.56-6.4a1.84,1.84,0,0,0-.23-1c-.37-.52-1.12-.52-1.75-.46L62.24,77.57,62,77.21l-.11,5.65a14.86,14.86,0,0,1-.11,1.62C62.05,84.66,62.37,84.85,62.7,85Z" style="fill:#f6d1c3"/></g><path d="M95.77,122.55a35.35,35.35,0,0,1,17-3.77c.64,4.85,1.7,9.67,1.78,14.57s-.92,10-4,13.85c-1.5,1.91-3.95,3.54-6.25,2.76-1.66-.56-2.69-2.2-3.47-3.77-3.57-7.19-4.79-15.33-5-23.35" style="fill:#e67d54"/><g style="mix-blend-mode:multiply"><path d="M95.77,122.55a35.35,35.35,0,0,1,17-3.77c.64,4.85,1.7,9.67,1.78,14.57s-.92,10-4,13.85c-1.5,1.91-3.95,3.54-6.25,2.76-1.66-.56-2.69-2.2-3.47-3.77-3.57-7.19-4.79-15.33-5-23.35" style="fill:#f6d1c3"/></g><path d="M55.25,88.6s5.2,6.8,16.06,7,14.06-6,14.06-6S97,94,103,98.15s6.12,5.81,6.88,8.57,2.3,7.49,3.06,10.09,1.38,6.11,1.38,6.11a22.75,22.75,0,0,0-6.88,1.53,85,85,0,0,0-11,5.53l2.46,13.73A228.55,228.55,0,0,1,73,146.77a129.63,129.63,0,0,1-29.66-2.14l1.37-19.72s-3.21-2-10.24-3.06-9.94-1.22-9.94-1.22.92-17,4.74-20.64S55.25,88.6,55.25,88.6Z" style="fill:#fcd53d"/><path d="M55.46,61.43c-.3-.48-.6-1-.91-1.42-1.07-1.67-2.36-3.5-4.42-3.94a1.91,1.91,0,0,0-1.11,0,1.67,1.67,0,0,0-.76.75,6.09,6.09,0,0,0-.34,4.07,7.52,7.52,0,0,0,.86,2.77,3.37,3.37,0,0,0,2.44,1.67,4,4,0,0,0,2.48-.69,7.4,7.4,0,0,0,2.89-3.57Z" style="fill:#e67d54"/><path d="M93,58.47a11.26,11.26,0,0,0-.43-2.75,2.51,2.51,0,0,0-.74-1.26,1.49,1.49,0,0,0-1.54-.23,1.71,1.71,0,0,0-.53.47,16.5,16.5,0,0,0-3,5.29l-1.43,2.2c.26.55.51,1.09.77,1.63a2.91,2.91,0,0,0,.61.95,2.79,2.79,0,0,0,2.31.47,4.83,4.83,0,0,0,3.39-2.71A8.39,8.39,0,0,0,93,58.47Z" style="fill:#e67d54"/><path d="M62.53,116.19,61.12,95a1.47,1.47,0,0,1,1.55-2,126.52,126.52,0,0,1,14.43-.82,3.88,3.88,0,0,1,1.89.33c1.09.6,1.35,2,1.48,3.24A132.13,132.13,0,0,1,81,116.64a6.37,6.37,0,0,1-.32,2c-.62,1.6-2.37,2.44-4,2.81a13.92,13.92,0,0,1-14.14-5.58" style="fill:#253044"/><path d="M86,42.85a11.4,11.4,0,0,0-5.2-6.58,10.39,10.39,0,0,0-6.09-1.17c-2.09.15-4.15.62-6.24.82-3.55.34-7.32-.07-10.55,1.34a2.3,2.3,0,0,0-1.59.64,5.15,5.15,0,0,0-1.2,2c-1.58,4.16-1.4,8.75-1.2,13.2l.58,13c.14,3.06.32,6.27,1.94,8.86a14.71,14.71,0,0,0,3.44,3.56c3.32,2.62,7.31,4.77,11.54,4.59a18.57,18.57,0,0,0,6.1-1.62,22.75,22.75,0,0,0,6.29-4.81,10.39,10.39,0,0,0,2.45-3.47A13.13,13.13,0,0,0,87,69.75C87.91,60.77,88.53,51.53,86,42.85Z" style="fill:#e67d54"/><path d="M106.5,140.33a74.48,74.48,0,0,0-6.73-6.92c-2.41-2.39-4.71-4.89-7.08-7.3-2.2-2.23-4.5-4.34-6.81-6.46a24.6,24.6,0,0,0,.21-2.66,30.55,30.55,0,0,0-.29-4.87,41.26,41.26,0,0,0-.83-4.57,23.16,23.16,0,0,0-1.39-4.47,1.45,1.45,0,0,0-1.92-.91c-.91.47-.69,2.23-.77,3a38.2,38.2,0,0,1-.78,5.11c-.18.81-.41,1.6-.64,2.39v0c-6,1-11.87-.06-17.85-1.49-1.34-.32-6.32-2.28-5.78.89a4.4,4.4,0,0,0,2.29,2.77,4.52,4.52,0,0,0,1,2.85,13.78,13.78,0,0,0,2.71,2.39,4.91,4.91,0,0,0,1.07,2.53,11.59,11.59,0,0,0,3.76,3.16,17.06,17.06,0,0,0,5.2,1.74,17.87,17.87,0,0,0,4.64.42,46.54,46.54,0,0,0,3.74,10c1.86,3.82,4,8.38,7.4,11.09,3.18,2.53,7.42,2.75,11.24,1.78,3.08-.77,10.39,1.15,11.64-1.87C111.57,147.43,109,143.53,106.5,140.33Z" style="fill:#e67d54"/><g style="mix-blend-mode:multiply"><path d="M66.91,118.22c1.12.26,2.25.48,3.39.68a12.36,12.36,0,0,0,3.13.38c.24,0-9.16-2.23-10.8-2.68a22.66,22.66,0,0,1-4.54-1.68h0a5.46,5.46,0,0,0,0,.56,21.37,21.37,0,0,0,3.7,1.42C63.53,117.41,65.22,117.84,66.91,118.22Z" style="fill:#ba9a91"/><path d="M66.31,121.9a20,20,0,0,1-4.52-1.73,3.11,3.11,0,0,0,.08.44,18,18,0,0,0,4.2,1.77,29.31,29.31,0,0,0,3.07.77c.49.1,1,.18,1.48.24a2.43,2.43,0,0,0,1.31,0C72.06,123.33,67.23,122.16,66.31,121.9Z" style="fill:#ba9a91"/></g><path d="M88.51,43c-1.65-4.86-4.16-9.68-9.12-11.78A19.37,19.37,0,0,0,73.68,30a32.13,32.13,0,0,0-6.43,0,21.14,21.14,0,0,0-4.55.94A16.29,16.29,0,0,0,52.32,41.86a29.65,29.65,0,0,0-.66,9c.06,1.9.12,3.8.17,5.71a2.81,2.81,0,0,0,.14,1c.44,1.23,2.86,3,3.05,4.28l.16-.24c1.38-4.68-.29-7.51.54-12.31.2-1.2.72-2.53,1.94-2.93a3.44,3.44,0,0,1,1.53-.09,25.26,25.26,0,0,1,5.43,1.54,17.75,17.75,0,0,0,10.06.15c2.55-.71,5-2,7.63-2a2.64,2.64,0,0,1,2.17.77,2.4,2.4,0,0,1,.39,1c1,4.73.44,7.89,2.45,12.5,2-2,1.93-6,2.1-8.7A22.75,22.75,0,0,0,88.51,43Z" style="fill:#253044"/><path d="M60.81,58.15a3.18,3.18,0,0,1,2.26-1.07,6.19,6.19,0,0,1,1.55,0c.5.07,1,.26,1.46.36a1.24,1.24,0,0,0,.91,0,.63.63,0,0,0,.26-.79c-.2-.54-1-.84-1.46-1a6.11,6.11,0,0,0-3.34,0,3.17,3.17,0,0,0-2.35,2.14.39.39,0,0,0,.71.3Z" style="fill:#253044"/><path d="M65.51,60.59a2.19,2.19,0,0,0-.87-.55c-1.41-.43-2.18.76-2.27,1.78a3,3,0,0,0,.2,1.41c.71,1.53,3.3,1.41,3.7-.23a2.66,2.66,0,0,0-.61-2.24Z" style="fill:#253044"/><path d="M83,57.74c-.54-2.2-3.41-2.62-5.28-2.26a3.36,3.36,0,0,0-1.51.63.82.82,0,0,0-.41.8.68.68,0,0,0,.71.53,4,4,0,0,0,.82-.16c.27-.08.54-.18.82-.24a5.43,5.43,0,0,1,1.45-.1,4.27,4.27,0,0,1,1.54.31,2.2,2.2,0,0,1,1.14.79.4.4,0,0,0,.72-.3Z" style="fill:#253044"/><path d="M77.18,60.58A2.68,2.68,0,0,0,77,62.9c.71,1.53,3.28,1.14,3.67-.5A2.89,2.89,0,0,0,80.61,61,1.78,1.78,0,0,0,78,59.68a2.13,2.13,0,0,0-.75.71Z" style="fill:#253044"/><g style="mix-blend-mode:multiply"><path d="M71.32,58.1a9.4,9.4,0,0,0,2.25,7.29c.49.59,1,1.14,1.49,1.76.26.36.6.86.19,1.25a1.49,1.49,0,0,1-.85.31,9.46,9.46,0,0,1-2.06,0,14.94,14.94,0,0,0-2.25-.39.24.24,0,0,0-.17.4,3.77,3.77,0,0,0,2.13.71,7.71,7.71,0,0,0,2.3,0c1.24-.21,2.05-1.14,1.27-2.33-.92-1.42-2.21-2.5-2.93-4.05a15.58,15.58,0,0,1-1.12-4.85c0-.13-.23-.19-.25,0Z" style="fill:#ba9a91"/></g><path d="M77.8,72.45a48.32,48.32,0,0,1-5,.43c-1.56.05-3.1.1-4.66.06a12.29,12.29,0,0,0-3.05.26l.28.28a9.72,9.72,0,0,0,13.51-1.25A7.35,7.35,0,0,1,77.8,72.45Z" style="fill:#253044"/></g><path d="M333.2,149.37A52.86,52.86,0,0,0,355.68,153a86,86,0,0,0,21.55-4.59s30.27,24.31,70.64,11.93S504.59,112.52,499.24,70C493.67,25.8,462.08,2.6,418.05,7.64s-68.45,44-70.63,70.64c-2.75,33.63,15.14,54.12,15.14,54.12s-6.27,7-12.69,10.4A73.24,73.24,0,0,1,333.2,149.37Z" style="fill:#fff"/><g style="clip-path:url(#b)"><path d="M412.74,111.47a46.9,46.9,0,0,0-2.81-5.46,2.07,2.07,0,0,0-3.08-1,59.6,59.6,0,0,0-9.44,6.59,62,62,0,0,0-7.14,6.72l-.13-.24c-.71-1.41-1.39-2.84-2-4.28-1.35-3.07-2.49-6.25-3.53-9.42a90.1,90.1,0,0,1-2.5-9.14,61,61,0,0,1-1.34-8.64c.51-.9,3.9-8.18,4.32-9.1a3.25,3.25,0,0,0,.28-.77,1.26,1.26,0,0,0-.42-1.21,1.13,1.13,0,0,0-1.23-.18,3,3,0,0,0-.73.52c-1,.91-2.07,1.82-3.09,2.74l-.74.66c-.11-1-2.87-10.22-3.59-12-.5-1.23-.9-3-2.26-3.47a.54.54,0,0,0-.66.37,11.63,11.63,0,0,0,.37,4.46c.27,1.57,1.28,5.36,1.61,6.92-1-2.29-3.11-6.56-4.33-8.74-.43-.77-1-2-2-2s-1,1-.76,1.83a19.94,19.94,0,0,0,1.25,3.45c.61,1.29,1.07,2.65,1.63,4l1.52,3.5c-.27-.42-.66-.76-.94-1.17-.74-1.07-1.51-2.12-2.3-3.15a17.59,17.59,0,0,0-2.23-2.7c-.54-.46-1.35-1-2-.35s-.08,1.17.11,1.73a33.48,33.48,0,0,0,3.25,6.15c.49.84.9,1.89,1.41,2.72-.75-.58-1.57-1.12-2.27-1.7a26.76,26.76,0,0,0-2.71-2c-.53-.34-1.41-1-2.06-.58s-.49.81-.29,1.35c.55,1.51,5.2,6.44,6.32,7.7.91,1,3,2.73,3.1,2.83.06,2.37.23,4.72.33,7.11.14,3.22.33,6.44.69,9.64a78.15,78.15,0,0,0,3.76,17.5,50.25,50.25,0,0,0,3.51,7.86,13.59,13.59,0,0,0,4.41,5.1c4.62,2.83,10.6,0,14.93-2.11a51.22,51.22,0,0,0,7.84-4.82,35.28,35.28,0,0,0,6.69-6.1.61.61,0,0,0,.68-.36C415.55,118.87,414.11,114.58,412.74,111.47Z" style="fill:#fec091"/><path d="M480,76.33c-2.82-4.48-7.59-7.15-10.09-11.81-2.67-5-2.33-10.41-2.51-16.06A33.91,33.91,0,0,0,465,37a12.23,12.23,0,0,0-2.46-4.16c-2.38-2.44-6.09-3-9.51-3s-6.81,0-10,1.07c-7.5-2.88-16.87-3.44-23.75.63s-11.19,13.34-8.18,20.92c.69,1.73,1.7,3.33,2.4,5.07a14.87,14.87,0,0,1,.6,9C413,71,409.18,75.54,408,80c-1.46,5.46.28,11.48,3.78,15.91s9.35,6.6,14.71,8.38a73.88,73.88,0,0,0,16.67,3c5.47.49,11,.84,16.41-.24a31.63,31.63,0,0,0,14.35-7,23.6,23.6,0,0,0,7.44-10.82A15.73,15.73,0,0,0,480,76.33Z" style="fill:#e98b67"/><path d="M426.79,90.74l-9.13,2a12.42,12.42,0,0,0-3.38,1.11A12.7,12.7,0,0,0,411,96.93q-5.85,6.85-12.09,13.41a23.2,23.2,0,0,1,10.41,12.11,28.83,28.83,0,0,0,1.53,3.87,31.76,31.76,0,0,0,3.59-5.6,58.15,58.15,0,0,0,5.23-11.47c.92-3.17,1.3-6.48,2.08-9.7s1.65-5.74,4-8.07" style="fill:#253044"/><path d="M467.74,102.05c-5.91-3.83-11.63-7.4-18.21-9.9a38.53,38.53,0,0,0-21.08-1.9l.09-.62c-2.31,1.33-5.22,1.55-7.21,3.32a11.31,11.31,0,0,0-2,2.58A108.32,108.32,0,0,0,410,114.92a30.62,30.62,0,0,0-2.25,9.93,12.65,12.65,0,0,0,3.46,9.33,7.18,7.18,0,0,1,1.95,2.24,5.3,5.3,0,0,1,0,2.85,154.77,154.77,0,0,0-2,25.62,1.5,1.5,0,0,0,1.52,1.88,82.72,82.72,0,0,0,44.55-5,2.21,2.21,0,0,0,1.15-.8,2.25,2.25,0,0,0,.14-1.41c-.38-3-1.13-6-1.16-9a124.39,124.39,0,0,1,2.44-25c1.53-8,2.87-15,8.12-21.25a1.27,1.27,0,0,0,.42-1A2.47,2.47,0,0,0,467.74,102.05Z" style="fill:#253044"/><path d="M428.67,77.36a101.28,101.28,0,0,1,.06,11,3.37,3.37,0,0,1-.21,1.18,3.59,3.59,0,0,1-.67.94,28.72,28.72,0,0,0-5.64,9.75c-1.08,3.18-1.48,7,.71,9.58a7.47,7.47,0,0,0,6.09,2.31,15.68,15.68,0,0,0,6.38-2A36.9,36.9,0,0,0,451.7,92.88c-3.58-.81-6.15-4.12-7.15-7.64s-.7-7.27-.4-10.91q-7.51,1.82-15.06,3.49" style="fill:#fec091"/><g style="mix-blend-mode:multiply"><path d="M428.82,85.76c3.88.54,7.69-.5,11.28-2a22.12,22.12,0,0,0,3.86-2,46.65,46.65,0,0,1,.19-7.47q-7.51,1.82-15.06,3.49l-.42-.46Q428.91,81.56,428.82,85.76Z" style="fill:#e6dbd7"/></g><path d="M449.68,61.75a9,9,0,0,1,4.62-3.26,4,4,0,0,1,2.5-.09,3,3,0,0,1,1.86,2.94,4.29,4.29,0,0,1-1.74,3.15,7.47,7.47,0,0,1-3.42,1.35,4.86,4.86,0,0,1-3.28-.42A3,3,0,0,1,448.79,63" style="fill:#fec091"/><path d="M421.14,38.69c-2.31,6.5-4.28,13.26-4.18,20.15s2.53,14,7.77,18.51a16.85,16.85,0,0,0,2.94,2c5.7,3,13.49,2,17.56-3a27,27,0,0,0,5.16-10.78c1.14-5.45,1.05-11.4,1-17A11.87,11.87,0,0,0,449.7,42c-1.93-3-5.84-6.76-9.33-7.46C436,33.67,431.51,35.62,427,36c-2.49.19-5.19.92-6.59,3" style="fill:#fec091"/><path d="M413.89,48.13c4.67,1.23,9.71,0,13.91-2.42s7.72-5.78,11.18-9.14a78.34,78.34,0,0,0,4.41,13.5c1.76,3.77,4.94,10.36,8.95,11.47,1.33-3.26,2-9.14,2-12.66A16.31,16.31,0,0,0,451.26,39a17,17,0,0,0-8-5.47A34.4,34.4,0,0,0,433.57,32c-4.64-.21-9.72.21-13.18,3.31s-4.45,8.22-5.17,12.89" style="fill:#e98b67"/><path d="M476.54,125.8c0-1.45-.06-2.89-.11-4.34a9,9,0,0,0-.42-3.18c-.85-1.93-3.33-2.43-5.2-2.72-4.72-.73-10.17.49-13.7,3.82a.78.78,0,0,0,.32,1.25c-.09,2.89.35,5.87.54,8.74.23,3.48.41,7,.56,10.45q.44,10.34.54,20.67a.8.8,0,0,0,.78.78,16.75,16.75,0,0,0,12.65-4.11,8.75,8.75,0,0,0,2.85-5.4c.38-2.85.54-5.74.72-8.6C476.45,137.38,476.62,131.59,476.54,125.8Z" style="fill:#fec091"/><path d="M464.61,100.18s8.06,4.59,10.7,8.48,2.06,11.47,2.18,13.88a31.73,31.73,0,0,1-.23,4.93s-2.22-.46-8.75,1.15a51.28,51.28,0,0,0-11.36,4s-1-8.6-1.72-13.3S457.73,99.15,464.61,100.18Z" style="fill:#253044"/><path d="M433.65,57.32a3.3,3.3,0,0,0-.33,2.59c.6,1.77,3.19,1.5,3.7-.32A3.5,3.5,0,0,0,437,58c-.21-1.12-1.12-2.32-2.47-1.62a2.19,2.19,0,0,0-.79.75A2.39,2.39,0,0,0,433.65,57.32Z" style="fill:#253044"/><path d="M422.52,57.11a3.47,3.47,0,0,0,0,2.61c.78,1.69,3.21,1.09,3.48-.77a3.75,3.75,0,0,0-.18-1.6c-.33-1.08-1.33-2.17-2.53-1.3a2.1,2.1,0,0,0-.66.84A2.14,2.14,0,0,0,422.52,57.11Z" style="fill:#253044"/><g style="mix-blend-mode:multiply"><path d="M428.94,56.47a8.54,8.54,0,0,0-.19,2.37c0,.87,0,1.75.06,2.62a4.85,4.85,0,0,1,0,1.26c0,.2,0,.13-.24.1l-.66,0c-.85-.05-1.7,0-2.54-.13a.3.3,0,0,0-.29.22,2.77,2.77,0,0,0,.92,2.94,3.62,3.62,0,0,0,1.52.72c.48.11,1.21.28,1.61,0a.2.2,0,0,0,0-.31c-.34-.19-.81-.06-1.19-.13a3.06,3.06,0,0,1-1.39-.58,2.3,2.3,0,0,1-.86-2.44l-.28.22c.93,0,1.88.19,2.82.26.35,0,.8.15,1.1-.09a1.07,1.07,0,0,0,.25-.88c0-1,0-2.07-.05-3.11a10.06,10.06,0,0,0-.34-3,.13.13,0,0,0-.25,0Z" style="fill:#dfd1cc"/></g><path d="M438.35,67.4a36.36,36.36,0,0,1-3.5,1.1c-2.38.64-4.81,1.12-7.2,1.74h0a6.69,6.69,0,0,0,6.51,3.81,6.16,6.16,0,0,0,4-2.93A11.94,11.94,0,0,0,440,66.77C439.47,67,438.89,67.2,438.35,67.4Z" style="fill:#253044"/><path d="M421.06,54.35a4.8,4.8,0,0,1,.61-.68c.11-.12.22-.24.34-.35l.18-.16s.08-.06,0,0l.11-.07c.27-.2.57-.32.85-.49a3.17,3.17,0,0,1,.41-.21h0l.19-.08a2.05,2.05,0,0,0,.23-.2.33.33,0,0,0-.07-.51l-.27-.11a.91.91,0,0,0-.33,0,6,6,0,0,0-.61.11,3.35,3.35,0,0,0-1.1.63,3.75,3.75,0,0,0-.8.84,4.09,4.09,0,0,0-.41,1.05.34.34,0,0,0,.62.26Z" style="fill:#e98b67"/><path d="M435.22,53.56a2.23,2.23,0,0,1,.93,0l.27.08.11,0h0l.12,0,.13,0,.06,0,.23.11.23.13.09.07.06,0s0,0,0,0a3.15,3.15,0,0,1,.37.36l.08.09c-.11-.13.15.19.08.11l.18.19.07.08c-.07-.08.14.17.08.11a.8.8,0,0,0,.26.16.32.32,0,0,0,.46-.18,1.35,1.35,0,0,0-.43-1.3,3.54,3.54,0,0,0-1.05-.75,2.62,2.62,0,0,0-1.29-.26,3,3,0,0,0-1.22.31c-.28.14-.08.53.2.48Z" style="fill:#e98b67"/><path d="M431.08,71.58a16.52,16.52,0,0,0,3.48-.92,6.76,6.76,0,0,0,2.8-1.93,5.78,5.78,0,0,0,.8-1.27,34.34,34.34,0,0,1-3.31,1c-2.38.64-4.81,1.12-7.2,1.74h0a5.3,5.3,0,0,0,.89,1.41A9.8,9.8,0,0,0,431.08,71.58Z" style="fill:#fff"/></g><path d="M232.42,92.23l0-1.92c0-1.19,0-2.38-.07-3.57s0-2.38,0-3.56a10.08,10.08,0,0,0-.23-3.68.4.4,0,0,0-.64-.18,13,13,0,0,0-1.75,0,6.29,6.29,0,0,1-2.89-.7c-1.84-1.11-2.72-3.64-2.93-5.66a34,34,0,0,0-.46-3.65c-.17-.76-.42-1.84-1.36-1.93s-1.3.7-1.61,1.32A19.65,19.65,0,0,0,219.19,72a41.62,41.62,0,0,0-.91,4.16c-.06.39-.12.79-.17,1.19l-1.3,0c-1.06,0-2.12-.08-3.17-.1a13.35,13.35,0,0,0-5.37.68c-1.33.54-2.9,1.76-2.21,3.38A3.48,3.48,0,0,0,208,83a4.43,4.43,0,0,0-1.41.78,2.2,2.2,0,0,0-.74,2.2,2.78,2.78,0,0,0,1.57,1.75,2.5,2.5,0,0,0,.38.15,3.39,3.39,0,0,0-1.47,1,2,2,0,0,0-.1,2.41,3.71,3.71,0,0,0,2.56,1.29,2.23,2.23,0,0,0-.62.73,1.92,1.92,0,0,0,.14,2.14,3.3,3.3,0,0,0,2.21.9,39.73,39.73,0,0,0,4.76.25,70.53,70.53,0,0,0,9.19-.44c1.49-.2,3-.42,4.45-.7A4.7,4.7,0,0,0,232,94a.61.61,0,0,0,.24-.18A2.46,2.46,0,0,0,232.42,92.23Z" style="fill:#fff"/><path d="M239.22,93.16c-.12-2.36-.13-4.72-.18-7.08a47.41,47.41,0,0,1,.26-7.54c.14-1-7.09-.58-7.71-.58s-1.89-.26-2.29.29a1.58,1.58,0,0,0-.16.8c-.07.61-.14,1.23-.2,1.84a65.21,65.21,0,0,0-.06,14.58.54.54,0,0,0,.51.51,50.34,50.34,0,0,0,6.94.26c.6,0,1.21,0,1.81-.11a1.38,1.38,0,0,0,.92-.3C239.63,95.23,239.26,93.88,239.22,93.16Z" style="fill:#374586"/><path d="M235.62,90.84a2,2,0,0,0-.12-.77,1.78,1.78,0,0,0-1.45-1.15,1.61,1.61,0,0,0-1.75,1.62c0,1.18,1.33,2.38,2.49,1.77A1.68,1.68,0,0,0,235.62,90.84Zm-1.61-1h0Z" style="fill:#fff"/><path d="M267.15,431l0-1.92-.06-3.57c0-1.18,0-2.37,0-3.56a9.81,9.81,0,0,0-.23-3.67.39.39,0,0,0-.63-.19,14.89,14.89,0,0,0-1.75,0,6.28,6.28,0,0,1-2.89-.69c-1.85-1.12-2.73-3.65-2.94-5.67a30.09,30.09,0,0,0-.46-3.65c-.16-.76-.41-1.84-1.36-1.93s-1.3.7-1.6,1.33a18.48,18.48,0,0,0-1.26,3.37A40.16,40.16,0,0,0,253,415c-.06.39-.12.79-.17,1.19l-1.3,0c-1,0-2.11-.09-3.17-.11a13.37,13.37,0,0,0-5.37.68c-1.32.54-2.9,1.77-2.21,3.38a3.44,3.44,0,0,0,2,1.67,4.43,4.43,0,0,0-1.41.78,2.21,2.21,0,0,0-.73,2.21,2.77,2.77,0,0,0,1.56,1.75c.12.06.26.1.39.15a3.4,3.4,0,0,0-1.48,1,2,2,0,0,0-.1,2.41,3.67,3.67,0,0,0,2.57,1.29,2.18,2.18,0,0,0-.63.74,1.9,1.9,0,0,0,.14,2.13,3.32,3.32,0,0,0,2.21.9,38,38,0,0,0,4.76.25,67.19,67.19,0,0,0,9.19-.44c1.49-.19,3-.42,4.45-.7a4.68,4.68,0,0,0,3-1.43.65.65,0,0,0,.25-.17A2.48,2.48,0,0,0,267.15,431Z" style="fill:#fff"/><path d="M274,432c-.12-2.36-.14-4.72-.19-7.08a49.94,49.94,0,0,1,.26-7.54c.14-1-7.08-.57-7.7-.58s-1.9-.25-2.3.3a1.8,1.8,0,0,0-.16.79c-.06.62-.13,1.23-.2,1.85a65.12,65.12,0,0,0-.05,14.57.53.53,0,0,0,.51.51,50.14,50.14,0,0,0,6.93.27c.61,0,1.22-.06,1.82-.12a1.42,1.42,0,0,0,.91-.29C274.36,434,274,432.69,274,432Z" style="fill:#374586"/><path d="M270.35,429.64a1.93,1.93,0,0,0-.12-.76,1.81,1.81,0,0,0-1.45-1.16,1.6,1.6,0,0,0-1.74,1.62c0,1.19,1.32,2.38,2.48,1.77A1.67,1.67,0,0,0,270.35,429.64Zm-1.6-1h0Z" style="fill:#fff"/><path d="M393.82,259l0-1.92-.06-3.57c0-1.19,0-2.37,0-3.56a9.86,9.86,0,0,0-.23-3.68.39.39,0,0,0-.63-.18,14.89,14.89,0,0,0-1.75,0,6.28,6.28,0,0,1-2.89-.69c-1.85-1.12-2.73-3.65-2.93-5.67a32.24,32.24,0,0,0-.47-3.65c-.16-.76-.41-1.84-1.36-1.93-.79-.07-1.3.7-1.6,1.33a18.48,18.48,0,0,0-1.26,3.37,39.55,39.55,0,0,0-.91,4.16l-.18,1.19-1.29,0c-1.06,0-2.12-.09-3.18-.11a13.37,13.37,0,0,0-5.37.68c-1.32.54-2.89,1.76-2.21,3.38a3.49,3.49,0,0,0,2,1.67,4.32,4.32,0,0,0-1.41.78,2.19,2.19,0,0,0-.74,2.21,2.82,2.82,0,0,0,1.56,1.75,3,3,0,0,0,.39.14,3.48,3.48,0,0,0-1.47,1,1.94,1.94,0,0,0-.11,2.41,3.71,3.71,0,0,0,2.57,1.29,2.36,2.36,0,0,0-.63.73,1.9,1.9,0,0,0,.15,2.14,3.3,3.3,0,0,0,2.2.9,38,38,0,0,0,4.77.25,68.59,68.59,0,0,0,9.18-.44c1.49-.19,3-.42,4.46-.7a4.68,4.68,0,0,0,3-1.43.58.58,0,0,0,.25-.18A2.52,2.52,0,0,0,393.82,259Z" style="fill:#fff"/><path d="M400.62,260c-.12-2.36-.14-4.72-.19-7.08a49.94,49.94,0,0,1,.26-7.54c.14-1-7.08-.57-7.7-.58s-1.9-.25-2.3.29a1.82,1.82,0,0,0-.16.8c-.06.62-.13,1.23-.2,1.85a65.12,65.12,0,0,0-.05,14.57.54.54,0,0,0,.51.51,50.22,50.22,0,0,0,6.94.27c.6,0,1.21-.06,1.81-.12a1.4,1.4,0,0,0,.91-.29C401,262,400.66,260.68,400.62,260Z" style="fill:#374586"/><path d="M397,257.63a2.13,2.13,0,0,0-.13-.76,1.79,1.79,0,0,0-1.45-1.16,1.6,1.6,0,0,0-1.74,1.62c0,1.19,1.32,2.38,2.48,1.77A1.68,1.68,0,0,0,397,257.63Zm-1.61-1h0Z" style="fill:#fff"/><path d="M125.54,259.91l0-1.92-.06-3.56c0-1.19,0-2.38,0-3.57a9.81,9.81,0,0,0-.23-3.67.4.4,0,0,0-.63-.19,12.94,12.94,0,0,0-1.75,0,6.29,6.29,0,0,1-2.89-.7c-1.85-1.12-2.73-3.64-2.93-5.66a31.67,31.67,0,0,0-.47-3.65c-.16-.76-.41-1.85-1.36-1.93-.79-.08-1.3.7-1.6,1.32a18.3,18.3,0,0,0-1.26,3.38,39.37,39.37,0,0,0-.91,4.15q-.09.59-.18,1.2l-1.29-.05-3.18-.11a13.2,13.2,0,0,0-5.37.69c-1.32.54-2.89,1.76-2.21,3.37a3.51,3.51,0,0,0,2,1.68,4.15,4.15,0,0,0-1.41.78,2.17,2.17,0,0,0-.74,2.2,2.79,2.79,0,0,0,1.56,1.75l.39.15a3.46,3.46,0,0,0-1.47,1,2,2,0,0,0-.11,2.42,3.75,3.75,0,0,0,2.57,1.29,2.25,2.25,0,0,0-.63.73,1.9,1.9,0,0,0,.15,2.14,3.29,3.29,0,0,0,2.2.89,38,38,0,0,0,4.76.26,70.36,70.36,0,0,0,9.19-.44c1.49-.2,3-.42,4.46-.7a4.73,4.73,0,0,0,3-1.43.58.58,0,0,0,.25-.18A2.48,2.48,0,0,0,125.54,259.91Z" style="fill:#fff"/><path d="M132.35,260.85c-.12-2.36-.14-4.73-.19-7.09a49.81,49.81,0,0,1,.26-7.53c.14-1-7.08-.58-7.7-.58s-1.9-.26-2.3.29a1.82,1.82,0,0,0-.16.8c-.06.61-.13,1.23-.2,1.84a65.12,65.12,0,0,0,0,14.57.53.53,0,0,0,.51.51,50.14,50.14,0,0,0,6.93.27c.61,0,1.22-.06,1.82-.11a1.41,1.41,0,0,0,.91-.3C132.75,262.92,132.39,261.57,132.35,260.85Z" style="fill:#374586"/><path d="M128.75,258.52a2.17,2.17,0,0,0-.13-.76,1.79,1.79,0,0,0-1.45-1.16,1.61,1.61,0,0,0-1.74,1.63c0,1.18,1.32,2.38,2.48,1.77A1.7,1.7,0,0,0,128.75,258.52Zm-1.61-1h0Z" style="fill:#fff"/><rect x="183.38" y="101.36" width="140.48" height="255.7" rx="13.01" style="fill:#253044"/><rect x="190.56" y="108.93" width="126.13" height="240.57" rx="11.97" style="fill:#fff"/><path d="M284.12,312c-2.75-15-5.19-20.26-5.19-20.26l-32.72-5.81c0,.15.14,1.1.38,2.62l-22.4,1.05s-.61,15.67-1.53,33.4c-.77,15-1.11,24.1-1.2,26.53h29.72l2.42-28.69c.4,2,.79,4,1.17,5.83,2.53,12.23,4.48,19.51,5.44,22.86h31.52C290.53,343.87,286.45,324.64,284.12,312Z" style="fill:#374586"/><path d="M212.85,216.19c-.4-3.52-2.34-6.75-3.82-9.9a.5.5,0,0,0-.51-.29,2.42,2.42,0,0,0-1.65-1c-2.43-.29-4.57,2.67-6.11,4.11-3.62,3.4-7.46,6.55-11.19,9.82l-.06-.44c-.28-2.74-.58-5.46-.92-8.19-.47-3.79-.81-7.71-1.51-11.52a25.37,25.37,0,0,0,3.79-5c1.08-1.9,2.41-4.77.94-6.81-1.34-1.85-3.62-.92-4.63.73a13.4,13.4,0,0,0-1.14,2.6,3.2,3.2,0,0,0-.41-.07,3.83,3.83,0,0,0-2.11.57,13,13,0,0,0-1.84,1.29,7.46,7.46,0,0,0-1.48,1.69.26.26,0,0,0,.09.38c-2.09,7-3,14.41-3.7,21.65a62.1,62.1,0,0,0-.36,10.82c.24,3,.76,6.42,2.51,8.93,3.69,5.29,10.94,3.17,15.63.7a61.61,61.61,0,0,0,8.31-5.36,45.94,45.94,0,0,0,6.79-6C211.62,222.55,213.22,219.53,212.85,216.19Z" style="fill:#fec091"/><path d="M238.72,189.54a28.07,28.07,0,0,0-5.81-.57,29.65,29.65,0,0,0-17.55,5.62c-5.84,4.47-15.86,14-15.86,14s4.13,11.23,5.28,14.67,3,7.46,3,7.46L226,221.07Z" style="fill:#f4624d"/><path d="M239.81,178.88a18.4,18.4,0,0,1-5,13.29,2.17,2.17,0,0,0-.54.74,1.82,1.82,0,0,0-.07.7,6.75,6.75,0,0,0,3.38,5.14,11.6,11.6,0,0,0,6.16,1.43,18.58,18.58,0,0,0,14.69-7.85,2.05,2.05,0,0,0,.41-.9,2.34,2.34,0,0,0-.19-1,34.51,34.51,0,0,1-1.58-16.65,46.26,46.26,0,0,1-17.19,4.8" style="fill:#fec091"/><g style="mix-blend-mode:multiply"><path d="M238.68,188.64a27.22,27.22,0,0,0,13.71-2.81,24.18,24.18,0,0,0,4.52-2.91,34.11,34.11,0,0,1,.14-9.14,46.26,46.26,0,0,1-17.19,4.8l-.05.3a18.46,18.46,0,0,1-2.35,9.63C237.87,188.56,238.28,188.62,238.68,188.64Z" style="fill:#e6dbd7"/></g><path d="M235.14,137.09c-4.27,7.89-5.49,17-5.57,26,0,4,.16,8.16,1.66,11.91s4.51,7.12,8.48,8.14,8-.33,11.58-2a23.49,23.49,0,0,0,5.64-3.48c3.08-2.74,4.83-6.65,6-10.58a46.79,46.79,0,0,0,.57-23.53c-.54-2.28-1.35-4.67-3.25-6.06a11,11,0,0,0-5.78-1.6,106.23,106.23,0,0,0-12-.23c-2.63.09-5.46.36-7.44,2.06" style="fill:#fec091"/><path d="M261.9,162.61a11.52,11.52,0,0,1,2.26-2.26,6.17,6.17,0,0,1,3.74-1.41,3.21,3.21,0,0,1,3.07,2.23,4.17,4.17,0,0,1-.4,2.54A5.87,5.87,0,0,1,269,166a8,8,0,0,1-3.64,1.36,9.29,9.29,0,0,1-1.95.24,2.11,2.11,0,0,1-1-.22,2.48,2.48,0,0,1-1-1.95,8.4,8.4,0,0,1,.36-3.72" style="fill:#fec091"/><path d="M247.24,156.15a3.64,3.64,0,0,0-.66,2.78c.44,2,3.27,2,4,.09a3.87,3.87,0,0,0,.22-1.75c-.1-1.24-.94-2.67-2.48-2.06a2.37,2.37,0,0,0-.94.72A1.84,1.84,0,0,0,247.24,156.15Z" style="fill:#253044"/><path d="M235.33,154.59a4.13,4.13,0,0,0-.3,2.84c.61,1.93,3.15,1.57,3.64-.43a4.35,4.35,0,0,0,0-1.76c-.21-1.22-1.12-2.53-2.44-1.72a2.28,2.28,0,0,0-.77.83Z" style="fill:#253044"/><path d="M236.78,167.5a6,6,0,0,1,1.05,4.57,4.28,4.28,0,0,0-.15,1.66c.24,1.05,1.46,1.55,2.53,1.66a8.43,8.43,0,0,0,7.14-2.82,3.14,3.14,0,0,0,.91-1.95,2.55,2.55,0,0,0-1.42-2.11,7.12,7.12,0,0,0-2.55-.66,56.83,56.83,0,0,0-7.14-.37" style="fill:#253044"/><path d="M246.06,170.19a5.27,5.27,0,0,0-2.72,1.58,8.78,8.78,0,0,0-2.19,3.66,8.49,8.49,0,0,0,6.2-2.86,3.14,3.14,0,0,0,.91-1.95,1.86,1.86,0,0,0-.06-.34A6.18,6.18,0,0,0,246.06,170.19Z" style="fill:#f4624d"/><g style="mix-blend-mode:multiply"><path d="M242.64,152.57a54,54,0,0,1-1.26,5.91,4.29,4.29,0,0,1-1.09,2.06c-.81.68-1.81.24-2.75.36-1.41.19-2.08,1.62-.91,2.62a4.9,4.9,0,0,0,2.25.95,2.76,2.76,0,0,0,2.24-.18.17.17,0,0,0,0-.26,2,2,0,0,0-.9-.15,5.69,5.69,0,0,1-1.42-.17c-.63-.16-1.81-.49-2-1.24-.24-1,1.36-.88,1.91-.86a2.76,2.76,0,0,0,1.88-.45c1-.77,1.36-2.17,1.66-3.34a20.36,20.36,0,0,0,.76-5.2c0-.19-.31-.25-.35-.05Z" style="fill:#d4c1bb"/></g><path d="M249.34,151.82a5.21,5.21,0,0,1,1,.24l.25.08h0l.12.06.5.26.23.13.11.08.06,0,.06.05.12.11.19.19a3.3,3.3,0,0,0,.3.22c-.1-.07,0,0,0,0l.1.09c.08.07.15.15.24.22a.68.68,0,0,0,.21.1l0,0a.34.34,0,0,0,.49-.19,1.2,1.2,0,0,0,.06-.33,1,1,0,0,0-.1-.38,2.58,2.58,0,0,0-.35-.68,3.49,3.49,0,0,0-1.13-.88,3.6,3.6,0,0,0-1.41-.37,2.84,2.84,0,0,0-1.34.28.34.34,0,0,0-.16.38.35.35,0,0,0,.33.25Z" style="fill:#753623"/><path d="M238.17,148.64c-.33,0-.67-.11-1-.14a3.39,3.39,0,0,0-1.1.08,3,3,0,0,0-1.68.88,1.33,1.33,0,0,0-.41,1.1.57.57,0,0,0,.36.41h.07c-.14,0,.1,0,.06,0a.72.72,0,0,0,.43-.08c.22-.13.44-.28.67-.4l.07,0c.13-.07,0,0,0,0l.33-.14.15-.08.1,0c.09,0-.15.06,0,0s.31-.11.48-.15.35-.07.52-.13l1-.31a.52.52,0,0,0,.38-.5.51.51,0,0,0-.38-.5Z" style="fill:#753623"/><path d="M269.06,135.35a6.43,6.43,0,0,0-2.76-2,5.24,5.24,0,0,0-1.46-.33c-1-.07-2.07.37-3-.16-1.09-.62-1.66-2.14-2.49-3a8.91,8.91,0,0,0-3.2-2.22,9.3,9.3,0,0,0-7.35.11c-1.37.61-2.71,2-4.31,1.68-1.34-.26-2.3-1.43-3.34-2.22a4.85,4.85,0,0,0-6.22-.09c-2.26,1.76-2.82,4.9-2.77,7.6a13,13,0,0,0,.31,2.64c-.08.33-.14.67-.2,1-.24,1.39-.47,2.78-.7,4.16a61.57,61.57,0,0,0-1.22,9.08c0,.53,2.72-7,4.13-10.1a18.91,18.91,0,0,0,6.91,2.75,39.3,39.3,0,0,0,9.12.74,37,37,0,0,0,7.76-1.07,37.66,37.66,0,0,0,1.21,7.18,52.15,52.15,0,0,0,4.08,10.5.56.56,0,0,0,.95,0,34.33,34.33,0,0,0,4-8.64,51.54,51.54,0,0,0,2.28-9.32C271.11,140.74,270.9,137.65,269.06,135.35Z" style="fill:#753623"/><path d="M352.55,187.65a8.22,8.22,0,0,0-1.57-6.56c-.57-.45-1.13-.9-1.71-1.33-1.49-.56-3.23-.07-4.78.61l-.26.15a39.13,39.13,0,0,0-10.4,8.07,1.54,1.54,0,0,1-.08-.19c-.18-.46-.37-.91-.56-1.36-.4-.93-.82-1.85-1.27-2.76-.36-.73-1.53-3.85-2.8-2.58a2.94,2.94,0,0,0-.57,1.91,15.11,15.11,0,0,0,.18,3.15c.12.77.29,1.53.47,2.29,0,.48,0,1,0,1.37,0,1.28,0,2.57,0,3.86,0,.83,0,1.68,0,2.54-.34.61-.66,1.21-1,1.77A64,64,0,0,1,320,210.4a82.29,82.29,0,0,1-8.69,8.22c-1.28-.83-2.55-1.68-3.79-2.57a62.16,62.16,0,0,1-6.85-5.7c-.28-.28-.66.08-.55.38q-2.25,4.8-4.49,9.58c-.72,1.55-1.46,3.09-2.17,4.64-.36.78-.7,1.56-1,2.34a18.55,18.55,0,0,0-.83,1.94l-.34-.18a.28.28,0,0,0-.27.5l.51.32a.26.26,0,0,0,.33.2c4.27,2.63,8.54,5.36,13,7.65a16.34,16.34,0,0,0,6.06,2c2.23.18,3.68-.81,5.24-2.3,3.48-3.32,5.88-7.62,8.43-11.65,2.77-4.37,5.58-8.72,8.08-13.24,1.42-2.56,2.86-5.11,4.23-7.7.56-1,1.15-2.11,1.71-3.2.81-.63,1.59-1.3,2.39-2,1.73-1.4,3.51-2.94,5.21-4.4C347.13,194.44,352.15,189.59,352.55,187.65Z" style="fill:#fec091"/><g style="mix-blend-mode:multiply"><path d="M342.75,184.91c.88-.74,1.32-.87,2.17-1.63a30.15,30.15,0,0,1,2.71-2.22,7,7,0,0,1,1.65-.92l.32-.13-.33-.25a3,3,0,0,0-.32-.09c-.45.36-.93.7-1.41,1a22.34,22.34,0,0,0-2.86,2.19c-.89.82-1.31,1-2.21,1.79-.4.36-.8.73-1.18,1.11a7.52,7.52,0,0,0-1.18,1.35c-.05.08.06.17.14.12a11.89,11.89,0,0,0,1.07-1.06C341.78,185.75,342.26,185.32,342.75,184.91Z" style="fill:#d4c1bb"/><path d="M341.93,189.25c-.13.12,0,.35.17.24,1.91-1.54,3.88-2.68,5.68-4.34.91-.82,1.83-1.63,2.78-2.4.33-.27.67-.53,1-.79-.09-.15-.19-.3-.29-.44l-.91.71c-1,.79-1.94,1.61-2.87,2.47C345.65,186.38,343.8,187.59,341.93,189.25Z" style="fill:#d4c1bb"/><path d="M352.59,185.64l.08-.06a8.15,8.15,0,0,0-.1-.83l-.3.24c-.95.73-1.9,1.48-2.8,2.28-1.77,1.59-4,3.09-5.82,4.61a.09.09,0,0,0,.11.15c1.89-1.44,4.29-2.67,6.13-4.18C350.78,187.11,351.67,186.36,352.59,185.64Z" style="fill:#d4c1bb"/></g><path d="M235.2,189.27s-1.22,5.35,3.36,7.8,10.25.92,14.38-1.37a14.79,14.79,0,0,0,5.69-5.27s11.43-4.83,21.67,1.75,23.39,19.42,23.39,19.42l-11.46,20.79-13.92-6.73s-.15,24.31.77,41.28a145.41,145.41,0,0,0,4.13,28.44s-15.14.91-27.68.91-32.41-1.37-32.41-1.37-2.75-56.26-.76-76.14,3.51-27.21,5.35-28.89S235.2,189.27,235.2,189.27Z" style="fill:#f4624d"/><path d="M187.26,171.66a32,32,0,0,1-1.22,8.05c-1,4.35-2.22,8.92-5.3,12.16a16.63,16.63,0,0,0-1.92,2.11,3,3,0,0,0-.49,2.7c.59,1.51,2.63,1.84,4.19,1.4,3.59-1,5.84-4.49,7.57-7.79a97.29,97.29,0,0,0,6.81-16.58,1,1,0,0,0-.52-1.47,9.14,9.14,0,0,0-8.87-.61" style="fill:#374586"/><path d="M180.6,132.3A22.34,22.34,0,0,0,191.32,144c8.41,4.43,8.56,4.74,13.91,5.5s9.41,2.64,11,8.72c1.67,6.32-.3,13-5,16s-10.55,1.53-12.08,1.07a28,28,0,0,0-11.47-1.53c-6.72.31-13.91,2.6-16.66,4.13a58.9,58.9,0,0,1-5.53,2.67s-2.58-5.27-1.2-15.67,6.12-23.69,6.88-24.76S177.52,128.53,180.6,132.3Z" style="fill:#fcd53d"/><path d="M180.6,132.3c-1.06-2.66-2.9-4.56-6-4.21a7.32,7.32,0,0,0-3.66,1.76c-5,4-7.8,10.54-9.85,16.48a57.16,57.16,0,0,0-2.82,26c.46,3.61,2.12,10.52,7.21,8.33,3.39-1.46,5.81-5.28,7.66-8.3a62.59,62.59,0,0,0,8.74-28.67C182,141,182,135.92,180.6,132.3Z" style="fill:#374586"/><path d="M206.27,149.69l-1-.17a27.87,27.87,0,0,1-4.39-.86,19.83,19.83,0,0,1,1,3.93,24.75,24.75,0,0,1-.57,8.31,32.33,32.33,0,0,1-2.48,7.29,27.6,27.6,0,0,1-3.53,5.63l-.34.41a29,29,0,0,1,4.22,1.13l.95.26a9.2,9.2,0,0,0,.77-.76,22.71,22.71,0,0,0,2.71-3.46,30,30,0,0,0,4.2-11.54A15.81,15.81,0,0,0,206.27,149.69Z" style="fill:#374586"/><path d="M175.55,166.42c-1.64-2.85-5.6-6-8.21-8a.61.61,0,0,1-.28-.36.56.56,0,0,1,.11-.37c1.65-3,2.94-6.43,2.69-9.85a23.66,23.66,0,0,0,10.67-.2c-.32,1.55-.65,3.1-1,4.65a43.73,43.73,0,0,1-2.55,8.87,12.51,12.51,0,0,0-1.56,4.55" style="fill:#fcd53d"/><path d="M171.63,149.32a2.32,2.32,0,0,0-2.62-1.61,3,3,0,0,0-1.34.83,9.1,9.1,0,0,0-2.29,5.92c0,1.44,0,3.61,1.84,3.93s3.18-1.87,3.83-3.24a9,9,0,0,0,.71-5.46C171.72,149.57,171.67,149.45,171.63,149.32Z" style="fill:#fff"/><path d="M180.6,132.3c-1.06-2.66-2.9-4.56-6-4.21a7.32,7.32,0,0,0-3.66,1.76c-5,4-7.8,10.54-9.85,16.48a57.16,57.16,0,0,0-2.82,26c.46,3.61,2.12,10.52,7.21,8.33,3.39-1.46,5.81-5.28,7.66-8.3a62.59,62.59,0,0,0,8.74-28.67C182,141,182,135.92,180.6,132.3Zm-1,11.49a60,60,0,0,1-7.44,26.11c-1.57,2.75-4,7.33-6.88,8.65-4.34,2-5.75-4.3-6.14-7.58-1-8,.33-17.15,2.77-24.75,1.75-5.41,4.68-11.67,8.94-15.33a6.12,6.12,0,0,1,3.12-1.6c2.66-.32,4.22,1.41,5.12,3.84C180.31,136.42,179.75,141.32,179.6,143.79Z" style="fill:#fff"/><path d="M190,191.14a5.83,5.83,0,0,0,.92-3.71c-.05-1.3-.32-2.58-.41-3.87a3.49,3.49,0,0,1,.16-1.58,1.5,1.5,0,0,1,1.17-1,1.79,1.79,0,0,1,1.53.92,5.29,5.29,0,0,1,.82,3.23,12.58,12.58,0,0,1-.68,3.31c-.78,2.5-2,5.1-4.23,6.4a5.58,5.58,0,0,1,.92-2.55" style="fill:#fec091"/><path d="M189.21,182.34a8.14,8.14,0,0,0-1.77-1.84,8.24,8.24,0,0,0-3.12-1.2,8.6,8.6,0,0,0-1.43-.18,5.85,5.85,0,0,0-4.46,2.24,9.4,9.4,0,0,0-1.9,4.72,9.71,9.71,0,0,0,1,6.16,14.88,14.88,0,0,0,1.13,1.6l.12.14c.08-.1.67-.81.84-1,.31-.36,1-1,1-1a3,3,0,0,1,.43-.52,4.36,4.36,0,0,1,3.18-.88,3,3,0,0,1,1,.28,5.8,5.8,0,0,0,.78.41,1.35,1.35,0,0,0,1.34-.44,2.11,2.11,0,0,0,.46-1.38,1.23,1.23,0,0,1,0-.33,1.06,1.06,0,0,1,.36-.4,1.84,1.84,0,0,0,.73-1.29,1.63,1.63,0,0,1,0-.44,2.69,2.69,0,0,1,.41-.66,2.25,2.25,0,0,0,.24-1.21C189.68,184,189.89,183.25,189.21,182.34Z" style="fill:#fec091"/><g style="mix-blend-mode:multiply"><path d="M187.91,188.81c-.3-.22-.6-.44-.91-.64a11.58,11.58,0,0,0-2-1,11.76,11.76,0,0,0-4.34-.84.15.15,0,0,0,0,.29,10,10,0,0,1,4.17.95,10.5,10.5,0,0,1,1.77,1.11,6.5,6.5,0,0,1,.74.65c.17.17.33.34.51.49a2.83,2.83,0,0,0,0-.41,1.23,1.23,0,0,1,0-.33.66.66,0,0,1,.12-.17Z" style="fill:#d4c1bb"/><path d="M189.17,186.68h0a10.12,10.12,0,0,0-1-.89,10.88,10.88,0,0,0-2.17-1.37,11.57,11.57,0,0,0-4.94-1.11.23.23,0,0,0,0,.45,10,10,0,0,1,4.74,1.25,10.68,10.68,0,0,1,2,1.37,10.31,10.31,0,0,1,.88.87,2.31,2.31,0,0,0,.3.32,1.13,1.13,0,0,0,0-.18,1.63,1.63,0,0,1,0-.44A.78.78,0,0,1,189.17,186.68Z" style="fill:#d4c1bb"/><path d="M189.66,184.27a10.46,10.46,0,0,0-3.12-2.28,8.46,8.46,0,0,0-4.48-.84c-.23,0-.24.38,0,.37a8.44,8.44,0,0,1,4.21.94,10.6,10.6,0,0,1,3,2.54,5.33,5.33,0,0,0,.36.45c0-.12,0-.25,0-.37,0-.27,0-.53,0-.77Z" style="fill:#d4c1bb"/></g><path d="M163.65,443.07s-5.81.3-17.74-7.34-14.37-13.15-14.37-13.15,22.63-10.7,31.5-48-15.9-84.39-63-92.95-74.92,13.45-86.54,55,10.4,73.69,28.14,85.92,41,12.84,48.61,13.45a47.32,47.32,0,0,0,15-1.53s10.55,9.48,30.27,11.78S163.65,443.07,163.65,443.07Z" style="fill:#fff"/><g style="clip-path:url(#c)"><path d="M68.27,343.71a40.7,40.7,0,0,1,.17,9,13.54,13.54,0,0,1-3.66,8A11,11,0,0,0,71.9,364c1.9.19,6.89,10.26,9.67,9.84,1.12-.17-.38-9.6.9-10.4,1.11-.69,1.23-2.29,1.42-3.59a58.73,58.73,0,0,0,.41-13.38c-5.49,1.18-10.78,0-15.78-2.53" style="fill:#ffb5a8"/><path d="M155.3,349.26c-.45-.57-1.2-.15-1.65.15a38.73,38.73,0,0,0-3.91,3.09c.54-.87,1-1.78,1.52-2.64a22,22,0,0,0,2.44-5.26c.13-.56.36-1.46-.19-1.88s-1.34.23-1.78.63a51.08,51.08,0,0,0-4.75,6.42c.44-.92,1.21-2.8,1.66-3.69a18,18,0,0,0,2.05-5.64c.08-.57.22-1.44-.44-1.74s-1.39.55-1.8.95c-1.37,1.36-4.45,8.43-4.6,8.7.24-1,1.38-5,1.58-5.93a6.42,6.42,0,0,0,.07-3.53c-.22-.55-.73-1.08-1.28-.62-.86.71-1.3,2.18-1.71,3.18-.78,1.9-1.48,3.83-2.14,5.77q-1.25,3.6-2.22,7.28a20.23,20.23,0,0,0-2.41-2.73c-.61-.6-3.64-3.4-4-1.16a3.71,3.71,0,0,0,.23,1.51q.28,1.1.66,2.16c.42,1.19,1.06,2.31,1.57,3.54,1.06,2.56,2.76,4.59,1.47,7.51a.22.22,0,0,0,0,.08.15.15,0,0,0-.16.22,8.2,8.2,0,0,0,3.39,2.49,13.05,13.05,0,0,0,4.2,1.15l1.07.06c.29,0,.74.08,1-.12s.18-.27.1-.36,0,0,0,0c.37-1.43.67-2.86.91-4.31.12-.69.22-1.39.32-2.09.24-.25.47-.53.69-.77.53-.6,1-1.21,1.55-1.83,1.07-1.32,2.11-2.67,3.14-4a31.61,31.61,0,0,0,2.88-4.3C155,351,155.76,349.85,155.3,349.26Z" style="fill:#ffb5a8"/><path d="M147.31,368a.5.5,0,0,0-.73-.41.77.77,0,0,0-.23-.06,19,19,0,0,1-10.74-4.12.46.46,0,0,0-.76.2,149.4,149.4,0,0,1-5.75,16.56,71.84,71.84,0,0,1-5.55,11c-1-1-2.16-2-3.17-2.94q-2.25-2.17-4.35-4.5-4.41-4.86-8.34-10.13c-2.15-2.89-3.84-6.25-7.29-7.75-4.2-1.82-8.66-3.2-13-4.73a.34.34,0,0,0-.24-.11,18.62,18.62,0,0,0-2,.21l-2,.27c-1.22.18-2.43.41-3.64.69a.43.43,0,0,0-.61.47,40.34,40.34,0,0,1,1.33,8.43c-.32-1-.62-2-1-3.07s-.6-1.77-.91-2.66a11.8,11.8,0,0,0-1-2.45.2.2,0,0,0-.21-.24,18.87,18.87,0,0,1-11.92-2.95.52.52,0,0,0-.55,0,120.27,120.27,0,0,1-12.39,8.09c-4,2.25-8.06,4.25-11.47,7.34a12.6,12.6,0,0,0-3.49,5,34.87,34.87,0,0,0-1.4,7.1q-1,7.44-1.58,14.94c-.43,5.92-.68,11.88-.55,17.81a.64.64,0,0,0,.85.6,24,24,0,0,0,5.74,6.23,23.41,23.41,0,0,0,8.15,3.69.6.6,0,0,0,.54-.12.37.37,0,0,0,.47-.23,77.4,77.4,0,0,0,2.21-13.8c0,1.12,0,2.24,0,3.36,0,2.21.16,4.43.4,6.63.12,1,.25,2,.41,3a6.79,6.79,0,0,0,.37,1.77.55.55,0,0,0,.21.41l.15.1.08.09a.45.45,0,0,0,.12.06c6.55,4.78,15.66,5.57,23.5,6.06a102.31,102.31,0,0,0,27-1.93c.11.26.2.52.31.78.25.54,1,.13.9-.38-.44-2.5-1.09-4.94-1.45-7.45s-.59-5.26-.76-7.91c-.31-5-.53-10.1-.8-15.16-.09-1.81-.18-3.62-.28-5.43a64.08,64.08,0,0,0,8.81,6.07c4.54,2.6,9.66,5.08,15,4.32,4.73-.66,8.29-4.14,10.77-8a46.23,46.23,0,0,0,3.34-7.21c1.11-2.67,2.1-5.4,3-8.14,1-3.11,2.24-6.18,3-9.38S147.56,371.26,147.31,368Z" style="fill:#374586"/><g style="mix-blend-mode:multiply"><path d="M70.58,350.76A17.94,17.94,0,0,0,79.94,354a14.35,14.35,0,0,0,4.52-.47,50.34,50.34,0,0,0-.16-7.12c-5.49,1.18-10.78,0-15.78-2.53l-.25-.2c.16,1.78.31,3.57.34,5.36A15.14,15.14,0,0,0,70.58,350.76Z" style="fill:#eee7e5"/></g><path d="M64.81,330.54a21.38,21.38,0,0,0-3.54-2.92,3.8,3.8,0,0,0-4.3.18,3.11,3.11,0,0,0-.85,2.81,4.74,4.74,0,0,0,1.51,2.6,7.61,7.61,0,0,0,8.16,1.06" style="fill:#ffb5a8"/><path d="M63.3,308.71A61.62,61.62,0,0,0,64.11,338a23.11,23.11,0,0,0,2.28,5.81,14.82,14.82,0,0,0,16.89,6.27c5.14-1.71,9-6.28,10.9-11.33s2.27-10.57,2.23-16A19,19,0,0,0,93.47,312a12.48,12.48,0,0,0-8.86-5.24,33.38,33.38,0,0,0-10.89.84,63.23,63.23,0,0,1-10.82,1.68" style="fill:#ffb5a8"/><path d="M76.11,327a3.53,3.53,0,0,0,.12,2.58c.84,1.63,3.16.92,3.32-.95A3.65,3.65,0,0,0,79.3,327c-.37-1.06-1.4-2.08-2.51-1.16a2.3,2.3,0,0,0-.6.87A1.55,1.55,0,0,0,76.11,327Z" style="fill:#253044"/><path d="M87.48,326.71a3.33,3.33,0,0,0,.12,2.39c.77,1.49,2.91.84,3.06-.88a3.56,3.56,0,0,0-.23-1.45c-.35-1-1.3-1.92-2.32-1.07a2,2,0,0,0-.55.8Z" style="fill:#253044"/><path d="M103.32,307.17c-1.11-.11-2.2-.38-3.3-.53-.72-.09-1.45-.17-2.18-.23a7.89,7.89,0,0,0,1-.46c.95-.49,3-1.59,2.2-2.93-1-1.55-3.27-2.5-4.95-3a27.42,27.42,0,0,0-6.87-.94A34.87,34.87,0,0,0,75,301.94a41.24,41.24,0,0,0-6.1,3.21c-.95.59-1.87,1.21-2.77,1.86l-.58.42a18.76,18.76,0,0,0-1.17-2.94c-.54-1.24-1.06-2.5-1.65-3.71a.53.53,0,0,0-1,.12,10.66,10.66,0,0,0-.17,3.47,10.38,10.38,0,0,0,.33,1.66,8.07,8.07,0,0,0,.35.82,8.51,8.51,0,0,0-1.74-.91,13,13,0,0,0-2.94-.79c-.37-.06-.81.23-.66.66a8.48,8.48,0,0,0,2.94,4.11,13.94,13.94,0,0,0-.21,1.4c-.11.88-.18,1.78-.22,2.67a39.32,39.32,0,0,0,.15,5.74,38.29,38.29,0,0,0,1,5.41,15.25,15.25,0,0,0,1.93,5.06.48.48,0,0,0,.45,0c1.1-1.21,1.63-3.32,2.11-4.85a37.29,37.29,0,0,0,1.43-5.76,37.49,37.49,0,0,0,.39-5.7c0-.94-.07-1.87-.17-2.81a22.41,22.41,0,0,0,6.46,2.45,73.94,73.94,0,0,0,10,2.12A40.5,40.5,0,0,0,93,316a21.9,21.9,0,0,0,4.53-1,9.42,9.42,0,0,0,2.78-1.39c.36-.28,1.14-1,1.08-1.53s-1-1-1.35-1.23a9.17,9.17,0,0,0-2.06-.94,18.55,18.55,0,0,0,2.65-.73,11.62,11.62,0,0,0,2.86-1.38A.33.33,0,0,0,103.32,307.17Z" style="fill:#8b5646"/><path d="M74.64,323.86l.15-.24.07-.09c-.07.09,0,0,0,0a3.33,3.33,0,0,1,.36-.39l.2-.17.11-.09c-.08.06,0,0,0,0a4.34,4.34,0,0,1,.46-.28l.45-.24.13-.06c.15-.08,0,0,0,0l.24-.09.52-.14a2.85,2.85,0,0,0,.63-.25.66.66,0,0,0-.16-1.19,1.63,1.63,0,0,0-.85,0,3.68,3.68,0,0,0-.57.15,4.59,4.59,0,0,0-1.17.59,5.2,5.2,0,0,0-1.65,2,.6.6,0,0,0,1,.6Z" style="fill:#8b5646"/><path d="M89.08,321.93c.14,0,0,0,0,0l.1,0,.21,0,.23.07.11,0c.09,0,0,0,0,0a3.6,3.6,0,0,1,.39.2l.2.13.07.05,0,0,0,0,.27.2c.1.08-.07-.06,0,0l.09.07c.11.1.2.21.31.31a2,2,0,0,0,.28.2l.1.07s-.09-.07,0,0a.9.9,0,0,0,.28.2.66.66,0,0,0,.28.05.36.36,0,0,0,.3-.17.59.59,0,0,0,.11-.33.88.88,0,0,0-.07-.32,2,2,0,0,0-.32-.65,3.7,3.7,0,0,0-.36-.33,2.68,2.68,0,0,0-.52-.36,4,4,0,0,0-2.22-.32.4.4,0,0,0-.3.45.42.42,0,0,0,.41.36Z" style="fill:#8b5646"/><g style="mix-blend-mode:multiply"><path d="M84.8,323.29a51.32,51.32,0,0,0-.64,6.42c0,.73-.33,1.9.16,2.54s1.54.31,2.2.28,1.06,0,1.59,0c.35,0,1.35-.13,1.57.27.35.65-.84,1.75-1.26,2.09a4.81,4.81,0,0,1-2.34.93c-.75.12-1.63-.21-2.32.1a.57.57,0,0,0-.12.88c.59.62,1.83.38,2.58.21a6.69,6.69,0,0,0,2.27-1.12c.92-.64,2.85-2.52,1.71-3.74-.58-.63-1.82-.4-2.58-.39l-1.84,0c-.22,0-.66.11-.82-.11s0-.77,0-.95a58.56,58.56,0,0,0,.34-7.37c0-.29-.48-.39-.53-.07Z" style="fill:#d0bbb4"/></g><path d="M87.46,340.35c-2-.48-4-1-6-1.37-1-.2-2-.4-3-.56a23.25,23.25,0,0,0-3-.43c-.35,0-.28.32-.18.61a12.26,12.26,0,0,0,1.89,3.93,6.26,6.26,0,0,0,3.86,2.52,5.84,5.84,0,0,0,6.59-4.3A.32.32,0,0,0,87.46,340.35Z" style="fill:#253044"/><path d="M78.39,340a21.65,21.65,0,0,0,3.74,1.26c.78.11,1.57.11,2.36.17a3.93,3.93,0,0,0,1.43-.33,4,4,0,0,0,1.07-.69l.17-.18c-1.89-.45-3.78-.9-5.69-1.29-1-.2-2-.4-3-.56l-1.44-.26A2.81,2.81,0,0,0,78.39,340Z" style="fill:#fff"/><path d="M77.3,362.4a15.71,15.71,0,0,1-11.61-4.2.42.42,0,0,0-.75-.13,18.92,18.92,0,0,1-5,4.89,16.92,16.92,0,0,0,5.46,6.16,28.31,28.31,0,0,0,4.3,2.58,23.09,23.09,0,0,0,2.52,1.05c.79.27,1.63.44,2.41.75,1-3.52,2.12-7,3.12-10.57A.43.43,0,0,0,77.3,362.4Z" style="fill:#838cb4"/><path d="M86.48,371.24a16.84,16.84,0,0,0,3.62-5.88,33.08,33.08,0,0,0,1.12-3.67,16.59,16.59,0,0,0,.34-1.76c-.51-.28-1-.56-1.55-.82a28,28,0,0,0-3.59-1.48.51.51,0,0,0-.5.13A12.9,12.9,0,0,1,79.63,362c-.19.05-.86.22-.74.38,1.44,1.89,3.42,4,5,5.79L86.27,371Z" style="fill:#838cb4"/></g><path d="M316.84,409.74s8.26,4.89,22.63,4,18.65-4,18.65-4,10.7,26.6,54.43,28.13S489,408.82,489.3,362.65,459,291.1,420.19,289.26s-68.8,23.55-74,52.29A92.25,92.25,0,0,0,352,393.23a29.37,29.37,0,0,1-15.9,11.61A193.69,193.69,0,0,1,316.84,409.74Z" style="fill:#fff"/><g style="clip-path:url(#d)"><path d="M399.21,336.1c-.93-.85-3.91-.77-4.34.61a.23.23,0,0,0,.11.27.88.88,0,0,0,.15,0,31.24,31.24,0,0,0-1.75,4.38,34,34,0,0,0-.95,5.2,22.41,22.41,0,0,0-.16,5.24,11.06,11.06,0,0,0,1.17,4.65.2.2,0,0,0,.36-.15,3.57,3.57,0,0,0-.1-.35c1.7-4.71,3.33-9.43,4.76-14.23.36-1.19.76-2.39,1.08-3.6A2,2,0,0,0,399.21,336.1Z" style="fill:#303a4d"/><path d="M421.26,367.51c1.72,1.05,1.84,3.46,1.25,5.33s-1.69,3.65-1.72,5.61a7,7,0,0,0,3.31,5.68,15.46,15.46,0,0,0,6.59,2.22,33.3,33.3,0,0,0,10.59-.22,13.14,13.14,0,0,0,6.52-2.74c1.75-1.57,2.69-4.18,1.69-6.28A13.55,13.55,0,0,0,446.8,374c-1-1-1.79-2.32-1.51-3.65s1.47-2.18,2.62-2.89c3.47-2.16,7.52-4.11,9.12-7.77,1.69-3.88,0-8.42-2.72-11.74s-6.28-5.85-9.11-9.05a8.94,8.94,0,0,1-1.8-2.73c-.76-2.1-.11-4.39.33-6.57,1-4.89.7-10.47-2.82-14.12a10.88,10.88,0,0,0-16.46,1.09A15.77,15.77,0,0,0,421.9,325a37.21,37.21,0,0,0,.79,10.31,25,25,0,0,1,1,5.91c-.12,5.08-4.29,9.33-5,14.37-.53,4,1.24,8,3,11.69" style="fill:#253044"/><path d="M405.54,377.94a42,42,0,0,1-.5,7.92c-.23,1.44-.68,3.06-2,3.69a4.9,4.9,0,0,1-2.09.31h-7.23c-.81,3.5-1.61,7.16-.73,10.65a11.71,11.71,0,0,0,10,8.58c3.51.33,7-1,10.13-2.5a27,27,0,0,0,4.59-2.68c4.6-3.46,7.23-9,8.59-14.6.11-.46.17-1.05-.22-1.33a1.21,1.21,0,0,0-.78-.12c-2.76.21-5.58,1.07-8.24.31a1.24,1.24,0,0,1-.6-.31,1.38,1.38,0,0,1-.26-1l-.12-10.79a1.57,1.57,0,0,0-.23-1,1.49,1.49,0,0,0-1-.42,12.16,12.16,0,0,0-8.58,2.1" style="fill:#ffa393"/><g style="mix-blend-mode:multiply"><path d="M405.3,384a25.26,25.26,0,0,0,7.24-.6,17.89,17.89,0,0,0,3.61-1.3c0-2,0-4-.07-5.95a1.57,1.57,0,0,0-.23-1,1.49,1.49,0,0,0-1-.42,12.16,12.16,0,0,0-8.58,2.1l-.75,1.14A43.16,43.16,0,0,1,405.3,384Z" style="fill:#e9dfdc"/></g><path d="M398.54,334.77c-2.85,6.2-4.12,13-5.13,19.77-.9,6-1.56,12.42,1,17.95a15.72,15.72,0,0,0,7.28,7.6,13.88,13.88,0,0,0,10.43.74,22.22,22.22,0,0,0,5-2.69,23.71,23.71,0,0,0,4.24-3.42,18.08,18.08,0,0,0,4.28-9.46,46.75,46.75,0,0,0,.21-10.51q-.51-7.9-1.52-15.75a7.36,7.36,0,0,0-1-3.34c-1.33-1.9-4-2.14-6.32-2.2-6.09-.15-12.3-.28-18.12,1.52" style="fill:#ffa393"/><path d="M424.52,359a8.34,8.34,0,0,1,6.27-3.86,4.15,4.15,0,0,1,1.95.22,3.18,3.18,0,0,1,1.82,2.93,4.38,4.38,0,0,1-1.58,3.18,7,7,0,0,1-3.29,1.49,6.82,6.82,0,0,1-3.3-.1,4.08,4.08,0,0,1-2.48-2.08" style="fill:#ffa393"/><path d="M443.56,395.31c-.56-4.43-2.14-9.13-6.56-11.05a8.5,8.5,0,0,0-6.29.06,51.75,51.75,0,0,0-7.55,3.52.5.5,0,0,0-.36.32c-2.6,7.08-8,13.8-15.22,16.5-3.51,1.31-9.11,1.76-10.62-2.62a12.63,12.63,0,0,1-.28-5.16,55.61,55.61,0,0,1,1-6.79.34.34,0,0,0-.38-.42,5.41,5.41,0,0,0-6.44-3.1c-3.55.81-5.77,4-7.16,7.12-3.51,7.92-4.45,16.65-5.32,25.18-.25,2.51-.52,5-.65,7.55a23.17,23.17,0,0,0,.43,7.43.4.4,0,0,0,.62.22,15.57,15.57,0,0,0,5,2.93,49.24,49.24,0,0,0,6.91,2.23,110.19,110.19,0,0,0,14.19,2.45,58.24,58.24,0,0,0,14.57.13c2.43-.32,4.84-.78,7.27-1.13a44.53,44.53,0,0,1,6.41-.36.64.64,0,0,0,1.08.52c1.62-1.87,2.57-4.58,3.53-6.84s1.92-4.79,2.69-7.26a80.41,80.41,0,0,0,3.19-15.43A69.05,69.05,0,0,0,443.56,395.31Z" style="fill:#fcd53d"/><path d="M411.65,357.17A8,8,0,0,1,413,355.4a2.07,2.07,0,0,1,.82-.39,1.27,1.27,0,0,1,.77,0,2.31,2.31,0,0,1,1.11,1.36,4.34,4.34,0,0,1,.24,1,2.08,2.08,0,0,0,.39,1.13.35.35,0,0,0,.53.07c.83-.7.42-2,.06-2.82a3.42,3.42,0,0,0-2-2,2.66,2.66,0,0,0-2.57.75,5.23,5.23,0,0,0-1.3,2.47.3.3,0,0,0,.54.23Z" style="fill:#253044"/><path d="M398.08,355.23c.2-.36.36-.72.54-1.09a6.28,6.28,0,0,1,.58-1,1.66,1.66,0,0,1,1.6-.76c.59.14.81.86.94,1.37a5.65,5.65,0,0,1,.2,1.15c0,.2,0,.41,0,.62a1.22,1.22,0,0,0,.12.84.63.63,0,0,0,1,.12,1,1,0,0,0,.24-.74c0-.24,0-.47-.08-.7A10.59,10.59,0,0,0,403,354a4.23,4.23,0,0,0-1-1.93,2,2,0,0,0-1.93-.5,2.88,2.88,0,0,0-1.58,1.27,5.13,5.13,0,0,0-.84,2.32.22.22,0,0,0,.41.11Z" style="fill:#253044"/><g style="mix-blend-mode:multiply"><path d="M408.53,351.43a18.16,18.16,0,0,0-.62,3c-.13,1-.31,2-.5,3l-.29,1.57c-.1.54,0,1.28-.73,1.17a16.17,16.17,0,0,1-2.59-.89,2.79,2.79,0,0,0-2.26-.1,1.36,1.36,0,0,0-.65,1.66,5,5,0,0,0,1.69,1.77,16.32,16.32,0,0,0,2.3,1.65.44.44,0,0,0,.52-.06.43.43,0,0,0-.09-.68c-.73-.53-1.48-1-2.17-1.63-.31-.27-.63-.55-.92-.85s-.62-.95.12-1a8.4,8.4,0,0,1,2.37.55,6.78,6.78,0,0,0,2.29.1c.52-.08.66-.47.79-1,.25-.9.35-1.86.51-2.78s.35-1.77.56-2.65a17.42,17.42,0,0,0,.41-2.78c0-.44-.62-.5-.74-.1Z" style="fill:#d6c3bd"/></g><path d="M415.47,365.5c-4.78,1.74-9.77,2.71-14.65,4.12-.13,0-.21.42-.1.52,2.51,2.3,6.34,4.71,9.87,4.17a4.37,4.37,0,0,0,3.41-2.76,25.49,25.49,0,0,0,1.73-5.8C415.75,365.61,415.63,365.44,415.47,365.5Z" style="fill:#253044"/><path d="M414.85,347.65a.61.61,0,0,1,.19,0H415l.09,0a1.67,1.67,0,0,1,.32.08l.14,0,.09,0-.09,0s.13.06.17.08l.12.07.12.08s.2.14.07,0l.06.05a2.56,2.56,0,0,0,.26.2c-.23-.15-.07-.06,0,0l.12.12a2.85,2.85,0,0,1,.23.26l-.15-.2a9,9,0,0,1,.46.79l.1.19c.05.09-.09-.22,0-.06s.07.18.11.26a1.34,1.34,0,0,0,.5.58l-.22-.23.12.22a.49.49,0,0,0,.42.23.5.5,0,0,0,.41-.23c.06-.08.11-.17.16-.25l-.39.3c.45-.06.66-.67.66-1.07a3.12,3.12,0,0,0-.13-.81,3.59,3.59,0,0,0-1-1.36,3,3,0,0,0-.86-.51,3.49,3.49,0,0,0-.78-.16,3,3,0,0,0-1.38.16.57.57,0,0,0,.16,1.12Z" style="fill:#253044"/><path d="M402.79,345.89a3.43,3.43,0,0,0-1-.4,3.15,3.15,0,0,0-1.33.06,2.82,2.82,0,0,0-1.21.57,3.51,3.51,0,0,0-.34.33,2.09,2.09,0,0,0-.4.75.83.83,0,0,0,.21.82h0l-.21-.5a.77.77,0,0,0,.22.7.5.5,0,0,0,.5,0l.1,0c.05,0,.05,0,0,0h0l.07,0-.54-.07h0a.81.81,0,0,0,.85,0,2.47,2.47,0,0,0,.36-.19,2.33,2.33,0,0,1,.34-.2c.13-.07.24-.15.37-.23l.18-.1s.27-.12.1-.05l.08,0,.2-.06.41-.09.2-.05.1,0c-.14,0,0,0,0,0h.32a.67.67,0,0,0,.64-.48.67.67,0,0,0-.3-.75Z" style="fill:#253044"/><path d="M434.36,334.15a5.69,5.69,0,0,0-5.46-.38c-1.31-3.36-2.93-7.11-6.44-8.59a8.41,8.41,0,0,0-10.06,3.56,25,25,0,0,0-2.87-3.46,31.79,31.79,0,0,0-5-4.39,12.44,12.44,0,0,0-6.09-2.61,12.64,12.64,0,0,0-6.15,1.1c-3.53,1.52-7.89,4.82-7.2,9.2a5.48,5.48,0,0,0,3.42,4.08,7.05,7.05,0,0,0,2.73.58,5,5,0,0,0-1.37,2.18c-.63,2.09.5,3.82,2.36,4.73,4.11,2,9,.94,12.89-1.17a2.55,2.55,0,0,0,.82,1.92,8.06,8.06,0,0,0,5.37,1.66c2.95-.11,6.75-.72,9.47-2.36,0,.09,0,.18,0,.27.06,1,.15,2,.28,3a47.2,47.2,0,0,0,1.1,5.64,44.92,44.92,0,0,0,1.9,5.67,8.91,8.91,0,0,0,2.12,3.61.29.29,0,0,0,.2.16l0,0a.24.24,0,0,0,.36-.18,73.62,73.62,0,0,0,5.8-8.64c1.64-2.91,3.65-6.18,4.24-9.51A5.67,5.67,0,0,0,434.36,334.15Z" style="fill:#303a4d"/><path d="M410.84,371.77a7.5,7.5,0,0,0-.7,2.58l.45,0a4.37,4.37,0,0,0,3.41-2.76,22.52,22.52,0,0,0,1.05-2.88A5.72,5.72,0,0,0,410.84,371.77Z" style="fill:#f4624d"/></g><path d="M60.69,222c-.22-4.52-1.91-9.19-5.3-11.9-6.72-5.37-18-5-23.86,1.54-4.79,5.41-5.42,13.56-3.35,20.2,2.12,6.83,10.31,10.47,17.08,9.47a18.47,18.47,0,0,0,14.91-13.74A19.44,19.44,0,0,0,60.69,222Z" style="fill:#fbca0c"/><path d="M39.25,221.73a2.21,2.21,0,0,0,1.4-.58,2.16,2.16,0,0,0,.58-1.39l-.07-.53a2.13,2.13,0,0,0-.51-.87l-.4-.31a2,2,0,0,0-1-.27,2.16,2.16,0,0,0-1.39.58,2.21,2.21,0,0,0-.58,1.4l.07.52a2,2,0,0,0,.51.87l.4.31a1.94,1.94,0,0,0,1,.27Z" style="fill:#253044"/><path d="M48.79,221.73a2.21,2.21,0,0,0,1.4-.58,1.42,1.42,0,0,0,.4-.63,1.44,1.44,0,0,0,.17-.76c0-.18,0-.35-.07-.53a2,2,0,0,0-.5-.87l-.4-.31a2,2,0,0,0-1-.27,2.16,2.16,0,0,0-1.39.58A1.41,1.41,0,0,0,47,219a1.49,1.49,0,0,0-.17.76l.07.52a1.93,1.93,0,0,0,.51.87l.4.31a1.91,1.91,0,0,0,1,.27Z" style="fill:#253044"/><path d="M36.67,226.32l14.45-.46s1.54,9-7.33,9C35.68,234.83,36.67,226.32,36.67,226.32Z" style="fill:#fff"/><path d="M307.55,388.43c-.22-4.52-1.91-9.19-5.3-11.9-6.72-5.37-18-5-23.86,1.54-4.79,5.41-5.41,13.55-3.35,20.2,2.13,6.82,10.31,10.47,17.08,9.47A18.49,18.49,0,0,0,307,394,19.48,19.48,0,0,0,307.55,388.43Z" style="fill:#fbca0c"/><path d="M286.12,388.2a2.16,2.16,0,0,0,1.39-.58,2.21,2.21,0,0,0,.58-1.4c0-.17,0-.35-.07-.52a2,2,0,0,0-.51-.87l-.4-.31a1.94,1.94,0,0,0-1-.27,2.21,2.21,0,0,0-1.4.58,2.16,2.16,0,0,0-.58,1.39l.07.53a2.13,2.13,0,0,0,.51.87l.4.31a2,2,0,0,0,1,.27Z" style="fill:#253044"/><path d="M295.65,388.2a2,2,0,0,0,2-2l-.07-.52a2.13,2.13,0,0,0-.51-.87l-.4-.31a2,2,0,0,0-1-.27,2,2,0,0,0-2,2l.07.53a2,2,0,0,0,.51.87l.4.31a1.94,1.94,0,0,0,1,.27Z" style="fill:#253044"/><path d="M283.54,392.79l14.44-.46s1.54,9-7.33,9C282.54,401.3,283.54,392.79,283.54,392.79Z" style="fill:#fff"/><path d="M451.82,209.63c-.21-4.53-1.91-9.2-5.29-11.9-6.72-5.37-18-5-23.86,1.53-4.8,5.41-5.42,13.56-3.35,20.2,2.12,6.83,10.3,10.47,17.07,9.47a18.5,18.5,0,0,0,14.92-13.73A19.13,19.13,0,0,0,451.82,209.63Z" style="fill:#fbca0c"/><g style="mix-blend-mode:multiply"><path d="M435.75,210.41c0-1.71,0-3.44-.05-5.16l.48.1c.64.15,1.24.3,1.89.42a.41.41,0,0,0,.45-.59,3.94,3.94,0,0,0-2.92-1.72c-.08-.85-.18-1.69-.33-2.53-.1-.54-.84-.35-.89.12-.08.81-.13,1.61-.15,2.42a4.64,4.64,0,0,0-1.4.43,4,4,0,0,0-2.07,4.73c.59,1.58,2.19,2.24,3.63,2.89,0,1.6.1,3.19.11,4.79,0,.4,0,.8,0,1.21a3.83,3.83,0,0,1-.69.13,2.51,2.51,0,0,1-1.67-.41,8.79,8.79,0,0,1-1-1.23.46.46,0,0,0-.71.1,2,2,0,0,0,.81,2.49,4.14,4.14,0,0,0,3.28.67,12.49,12.49,0,0,0,.14,1.85.42.42,0,0,0,.8,0,11.4,11.4,0,0,0,.23-2.2,4.89,4.89,0,0,0,3.07-3.93A4.46,4.46,0,0,0,435.75,210.41Zm-3.48-3.1a2.57,2.57,0,0,1,2-2c0,1.52.07,3,.11,4.55C433.17,209.36,432,208.68,432.27,207.31Zm4.42,8.63a3.38,3.38,0,0,1-1.06,1.07c0-.23,0-.47,0-.7,0-1.37.07-2.75.1-4.12a3.15,3.15,0,0,1,.93.85A2.8,2.8,0,0,1,436.69,215.94Z" style="fill:#c9b1a9"/><path d="M446,201.21a13.37,13.37,0,0,0-7.58-4.1c-5.58-1.08-11.66.79-14.9,5.63a16.66,16.66,0,0,0-2.6,9c0,3,.46,6.38,2.15,8.9,3.1,4.62,9.44,6.53,14.71,5.16A15.7,15.7,0,0,0,449.15,210,14.7,14.7,0,0,0,446,201.21ZM439.79,224a13.21,13.21,0,0,1-14.68-2.4c-3.88-3.88-4-11.06-2.08-15.9,2.14-5.31,7.34-8.17,13-7.91a13.93,13.93,0,0,1,8,2.87c2.78,2.22,3.94,5.86,4.15,9.3A14.77,14.77,0,0,1,439.79,224Z" style="fill:#c9b1a9"/></g><path d="M384.57,45.75c-4.66-3.93-13.22-10.11-14.4-15.87-.69-3.34,1.2-9-1.22-11.85-2.08-2.42-6.75-1.86-9.55-1.89-8.94-.12-17.77.38-26.72.1-6.24-.2-16.33-2.34-17.5,5.64a85.87,85.87,0,0,0,0,24.49c1.65,9.85,9.92,8.59,18.15,8.81,8.66.24,17.38.13,26-.34s10.5-4.53,11-12.89q4.35,1.75,8.82,3.17C379.73,45.29,385.65,46.66,384.57,45.75Z" style="fill:#f4624d"/><path d="M324.05,27.28c6,.73,12.11.48,18.12.49h8.91a91.24,91.24,0,0,0,9.21,0,.83.83,0,0,0,0-1.66,83.48,83.48,0,0,0-9,0h-9.17c-6,0-12.14-.25-18.12.48a.38.38,0,0,0,0,.75Z" style="fill:#fff"/><path d="M323.9,36.17a48.32,48.32,0,0,0,9.08.53l9.19,0c3,0,5.95,0,8.93,0s6.32.24,9.34-.46a.59.59,0,0,0,0-1.13c-2.94-.69-6.07-.44-9.07-.46l-9.2,0h-8.93a50.24,50.24,0,0,0-9.34.52.58.58,0,0,0,0,1.1Z" style="fill:#fff"/><path d="M323.88,45a16.23,16.23,0,0,0,4.29.41l4.67.12c3.11.08,6.22.08,9.33.08h9.06c1.56,0,3.11-.08,4.67-.18a20.34,20.34,0,0,0,4.53-.55.52.52,0,0,0,0-1,18.55,18.55,0,0,0-4.26-.54c-1.56-.1-3.11-.2-4.67-.2h-9.33c-3,0-6,0-9.06.08l-4.66.12a17.49,17.49,0,0,0-4.57.41.65.65,0,0,0,0,1.23Z" style="fill:#fff"/><path d="M164.76,389.65c4.32,3.64,12.25,9.37,13.35,14.71.63,3.09-1.12,8.35,1.13,11,1.92,2.24,6.25,1.72,8.85,1.76,8.28.1,16.46-.36,24.74-.1,5.79.19,15.14,2.17,16.22-5.23a79.78,79.78,0,0,0,0-22.68c-1.53-9.13-9.19-8-16.81-8.17-8-.22-16.11-.11-24.12.32s-9.73,4.2-10.17,11.94q-4-1.62-8.17-2.93C169.25,390.08,163.76,388.81,164.76,389.65Z" style="fill:#f4624d"/><path d="M220.83,406.73c-5.53-.73-11.22-.47-16.79-.48h-8.36a78.81,78.81,0,0,0-8.42,0,.83.83,0,0,0,0,1.66,79.3,79.3,0,0,0,8.16,0H204c5.57,0,11.26.24,16.79-.49a.38.38,0,0,0,0-.75Z" style="fill:#fff"/><path d="M221,398.48a41.46,41.46,0,0,0-8.26-.52c-2.89,0-5.79,0-8.68,0l-8.4,0c-2.82,0-5.78-.23-8.53.46a.59.59,0,0,0,0,1.13c2.67.67,5.53.44,8.26.46l8.67,0h8.41a42.67,42.67,0,0,0,8.53-.52.58.58,0,0,0,0-1.11Z" style="fill:#fff"/><path d="M221,390.35a14.28,14.28,0,0,0-4-.41l-4.41-.12c-2.84-.08-5.68-.08-8.53-.08h-8.53c-1.47,0-2.93.09-4.4.2a16.25,16.25,0,0,0-4,.53.52.52,0,0,0,0,1,16.26,16.26,0,0,0,4,.54c1.47.1,2.93.2,4.4.19H204c2.85,0,5.69,0,8.53-.09L217,392a13.92,13.92,0,0,0,4-.4.65.65,0,0,0,0-1.23Z" style="fill:#fff"/><path d="M121.38,173.86c-2.89-2-6.39.23-8.53,2.28a23.71,23.71,0,0,0-3.71,4.58c-.33.53-.75,1.17-1.12,1.86a16.37,16.37,0,0,0-2.84-4.25c-1.89-2.05-5-4.69-8-3.6s-3.64,5-3.1,7.84c.69,3.58,3.22,6.51,5.63,9.1,1.47,1.6,3,3.16,4.5,4.72a27.85,27.85,0,0,0,4.46,4.36.49.49,0,0,0,.7-.16c1.5-1,2.69-2.73,3.81-4.07,1.25-1.51,2.45-3.05,3.6-4.64,2.27-3.11,4.75-6.48,6.19-10.09C124,179.15,124,175.63,121.38,173.86Z" style="fill:#f4624d"/><path d="M250.79.55c-2.07-1.41-4.57.16-6.1,1.63A17.21,17.21,0,0,0,242,5.46c-.23.37-.53.83-.79,1.32a11.75,11.75,0,0,0-2-3c-1.35-1.46-3.6-3.35-5.74-2.57s-2.61,3.61-2.22,5.61c.49,2.56,2.31,4.66,4,6.51,1.06,1.14,2.14,2.26,3.22,3.38a20.52,20.52,0,0,0,3.2,3.12.36.36,0,0,0,.5-.12,13.69,13.69,0,0,0,2.72-2.91c.89-1.08,1.75-2.19,2.58-3.32a34.57,34.57,0,0,0,4.43-7.22C252.66,4.33,252.65,1.81,250.79.55Z" style="fill:#f4624d"/><path d="M281.83,71.66c-.22-4.52-1.91-9.19-5.3-11.9-6.72-5.37-18-5-23.86,1.54-4.79,5.41-5.41,13.55-3.35,20.2C251.44,88.32,259.63,92,266.4,91a18.47,18.47,0,0,0,14.91-13.74A19.12,19.12,0,0,0,281.83,71.66Z" style="fill:#fbca0c"/><g style="mix-blend-mode:multiply"><path d="M265.75,72.45c0-1.72,0-3.44,0-5.16a4,4,0,0,1,.48.09c.63.16,1.24.31,1.88.43.32.06.66-.28.46-.59a4,4,0,0,0-2.93-1.73c-.07-.84-.18-1.69-.32-2.52-.1-.54-.85-.35-.9.12-.08.8-.12,1.61-.14,2.41a4.77,4.77,0,0,0-1.4.44,4,4,0,0,0-2.07,4.72c.59,1.59,2.19,2.25,3.62,2.89,0,1.6.11,3.2.11,4.8,0,.39,0,.8,0,1.21a3.33,3.33,0,0,1-.69.12,2.4,2.4,0,0,1-1.67-.41,8.7,8.7,0,0,1-1-1.22.47.47,0,0,0-.72.09,2,2,0,0,0,.81,2.5,4.17,4.17,0,0,0,3.29.67,10.09,10.09,0,0,0,.14,1.84.42.42,0,0,0,.8,0,11.32,11.32,0,0,0,.22-2.2A4.9,4.9,0,0,0,268.7,77,4.47,4.47,0,0,0,265.75,72.45Zm-3.47-3.1a2.59,2.59,0,0,1,2-2c0,1.52.06,3,.11,4.56C263.18,71.4,262,70.72,262.28,69.35ZM266.69,78a3.31,3.31,0,0,1-1.06,1.08v-.7c0-1.38.08-2.75.1-4.12a2.71,2.71,0,0,1,.93.85A2.78,2.78,0,0,1,266.69,78Z" style="fill:#c9b1a9"/><path d="M276,63.24a13.3,13.3,0,0,0-7.58-4.09c-5.58-1.08-11.66.78-14.9,5.63a16.64,16.64,0,0,0-2.61,9c0,3,.46,6.37,2.16,8.9,3.09,4.62,9.44,6.53,14.7,5.15A15.69,15.69,0,0,0,279.15,72,14.71,14.71,0,0,0,276,63.24Zm-6.18,22.83a13.25,13.25,0,0,1-14.68-2.4c-3.88-3.88-4-11.07-2.07-15.9,2.14-5.31,7.34-8.17,13-7.91a14,14,0,0,1,8,2.86c2.78,2.23,3.94,5.87,4.15,9.3A14.79,14.79,0,0,1,269.79,86.07Z" style="fill:#c9b1a9"/></g><path d="M474.55,257.8c-2.89-2-6.39.23-8.53,2.28a23.71,23.71,0,0,0-3.71,4.58c-.33.52-.75,1.17-1.12,1.85a16.37,16.37,0,0,0-2.84-4.25c-1.89-2-5-4.68-8-3.59s-3.64,5-3.1,7.84c.68,3.58,3.22,6.51,5.62,9.1,1.48,1.59,3,3.16,4.5,4.72s2.76,3.25,4.47,4.36a.51.51,0,0,0,.7-.16c1.5-.95,2.69-2.73,3.8-4.08s2.46-3.05,3.61-4.63c2.27-3.12,4.75-6.49,6.19-10.09C477.16,263.09,477.14,259.56,474.55,257.8Z" style="fill:#f4624d"/></g></svg>