<svg xmlns="http://www.w3.org/2000/svg" viewBox="0 0 500.45 482.49"><path d="M457.73,173c2-17,8.56-33.66,7-50.71-1.42-15.11-9.16-28.95-18.44-41C389.82,8.3,263.89-6.24,196.14,61a103.79,103.79,0,0,0-13,15.7C172,93.14,164.92,112.42,151.5,127.07c-24.35,26.59-64.1,32.44-93,54a102.83,102.83,0,0,0-40.45,74.83,97.39,97.39,0,0,0,.32,16,4.78,4.78,0,0,0-1.29-.18,3,3,0,0,0-2.5,1.93,6.37,6.37,0,0,0,.65,6,3.91,3.91,0,0,0,4.43,1.13,102.82,102.82,0,0,0,29.18,54.42C87.4,372.42,151.41,376,185.22,417.53c16.24,19.93,24.71,47.78,47.54,59.61,18.51,9.6,41.66,5.29,59.72-5.12,31.43-18.1,50.56-51.63,78.41-74.87,31.63-26.39,76.16-41.49,92.61-79.26C483.05,273,452,221.6,457.73,173Z" style="fill:#6320ee"/><path d="M469.89,462.78a4.56,4.56,0,0,0-3.78-.64,6.27,6.27,0,0,0-3.08,1.68,7.44,7.44,0,0,0-2.27,5.68,3.88,3.88,0,0,0,1.58,3.16,5.34,5.34,0,0,0,3.44,1.09,7.26,7.26,0,0,0,6-4.31A5.52,5.52,0,0,0,469.89,462.78Z" style="fill:#6320ee"/><path d="M484.84,448a2.79,2.79,0,0,0-3.25-4.11,2.86,2.86,0,0,0-1.88,3.44,3.12,3.12,0,0,0,2.42,2A2.59,2.59,0,0,0,484.84,448Z" style="fill:#6320ee"/><path d="M489,465.51a7.77,7.77,0,0,0-1.44-.73c-1.6-.63-3.52-.82-4.87.16a5.69,5.69,0,0,0-1.72,7c1.08,2.4,3.85,4.35,6.54,3.78a5.59,5.59,0,0,0,4.34-5.14A6,6,0,0,0,489,465.51Z" style="fill:#6320ee"/><path d="M494.08,326c-5.26-1-6.58,9.42-.16,7.5a4,4,0,0,0,3-3.78A3.75,3.75,0,0,0,494.08,326Z" style="fill:#6320ee"/><path d="M480.91,193.39c-.24-2.54-3-4.73-5.48-3.83a4.22,4.22,0,0,0-1.72,6.44,4,4,0,0,0,4.62,1.21A3.82,3.82,0,0,0,480.91,193.39Z" style="fill:#6320ee"/><path d="M497.71,187.65c-2.49-1.92-5.7-1.94-7.23,1.07a8.1,8.1,0,0,0-.87,5.53,5.93,5.93,0,0,0,5.35,4.24,5.33,5.33,0,0,0,5.28-4.09A6.44,6.44,0,0,0,497.71,187.65Z" style="fill:#6320ee"/><path d="M494.32,174a3,3,0,0,0,1.41-3.31,2.91,2.91,0,0,0-2.65-2,2.64,2.64,0,0,0-2.64,2.52,2.9,2.9,0,0,0,.2,1.37A2.57,2.57,0,0,0,494.32,174Z" style="fill:#6320ee"/><path d="M146.06,19.81a4.61,4.61,0,0,0,5.63-1.89,5.27,5.27,0,0,0,.76-3.87,4.85,4.85,0,0,0-4.94-4.22,5.08,5.08,0,0,0-4.43,4.55A5,5,0,0,0,146.06,19.81Z" style="fill:#6320ee"/><path d="M162.13,38.48a3.6,3.6,0,0,0,2.37-.33A3.06,3.06,0,0,0,166,34.08a5,5,0,0,0-1.41-2,3.67,3.67,0,0,0-2.84-.93c-2.83.4-2.87,3.87-1.6,5.77A3.44,3.44,0,0,0,162.13,38.48Z" style="fill:#6320ee"/><path d="M44.46,174.39a5.35,5.35,0,0,0,3.08.4,3.43,3.43,0,0,0,2-1.35,3,3,0,0,0,.52-2.65,4.55,4.55,0,0,0-4.62-3.08,3.51,3.51,0,0,0-2.13,1,3.8,3.8,0,0,0-.69,4.12A3.28,3.28,0,0,0,44.46,174.39Z" style="fill:#6320ee"/><path d="M19,163.37a4.17,4.17,0,0,0,3.1.71,4.46,4.46,0,0,0,2.58-1.59,5.75,5.75,0,0,0,.32-6.21,7.28,7.28,0,0,0-2.57-3,4,4,0,0,0-3.93.08,4.66,4.66,0,0,0-2.21,3.74,7.57,7.57,0,0,0,.29,3.81A5.81,5.81,0,0,0,19,163.37Z" style="fill:#6320ee"/><path d="M29.08,185.84a3.2,3.2,0,0,0,3.47-1.1,2.85,2.85,0,0,0,.08-3.58A3.46,3.46,0,0,0,30.91,180C27.4,178.84,25.52,184.53,29.08,185.84Z" style="fill:#6320ee"/><path d="M443.12,19.8a6.54,6.54,0,0,0,5.75-4.32c.78-2.42-.56-5-2.61-6.42a5.13,5.13,0,0,0-5-.6,6.32,6.32,0,0,0-3.34,6.43C438.23,17.6,440.21,20,443.12,19.8Z" style="fill:#6320ee"/><path d="M466.28,23.44a3.74,3.74,0,0,0,3.37-3.28,3.63,3.63,0,0,0-.27-1.83,3.53,3.53,0,0,0-3.46-2.17C461.18,16.44,461.56,24,466.28,23.44Z" style="fill:#6320ee"/><path d="M461.79,5.89a3.29,3.29,0,0,0,1.94-.14,2.91,2.91,0,0,0,1.37-1.29,3,3,0,0,0-2-4.4C459.48-.63,458.06,5.14,461.79,5.89Z" style="fill:#6320ee"/><path d="M5.57,345.41a3.73,3.73,0,0,0-4.34.15,3.61,3.61,0,0,0,3.16,6.24,3.55,3.55,0,0,0,2.78-3.43A3.34,3.34,0,0,0,5.57,345.41Z" style="fill:#6320ee"/><path d="M45.7,460.37c-2.59-1-6.42-.3-8,2.14a10.16,10.16,0,0,0-1.47,5.06,6.11,6.11,0,0,0,1.3,4.12,5.84,5.84,0,0,0,4,1.81c1.56.14,3.23.55,4.69-.22,4-2.08,4.67-7.57,2.19-10.85A6.31,6.31,0,0,0,45.7,460.37Z" style="fill:#6320ee"/><path d="M76.09,473.84a6.91,6.91,0,0,0-.53,6.34,3.7,3.7,0,0,0,2,2,4,4,0,0,0,2.8.17,5.32,5.32,0,0,0,3.4-5.16,5.13,5.13,0,0,0-1.28-3.47C80.68,471.65,77.65,471.45,76.09,473.84Z" style="fill:#6320ee"/><path d="M100.92,466.51c-3.78-.51-5.65,4.51-2.13,6.27a3.87,3.87,0,0,0,2.24.41,3.58,3.58,0,0,0,2.08-1.17,3.15,3.15,0,0,0,.17-4.14A3.52,3.52,0,0,0,100.92,466.51Z" style="fill:#6320ee"/></svg>