<svg xmlns="http://www.w3.org/2000/svg" viewBox="0 0 500 486.63"><path d="M426.2,239.42c-97.95-56.55-256.24-56.55-353.55,0s-96.8,148.24,1.15,204.79,256.24,56.55,353.55,0S524.15,296,426.2,239.42Z" style="fill:#f5f5f5"/><path d="M306.3,219.52a14.87,14.87,0,0,1,13.5,0c3.71,2.16,3.7,5.66-.05,7.82a14.87,14.87,0,0,1-13.5,0C302.54,225.18,302.55,221.68,306.3,219.52Z" style="fill:#e0e0e0"/><path d="M320.25,248.68c5.76-3.33,15.07-3.33,20.79,0s5.7,8.72-.07,12-15.07,3.33-20.79,0S314.48,252,320.25,248.68Z" style="fill:#e0e0e0"/><path d="M293.34,239.82a12.05,12.05,0,0,1,10.91,0c3,1.75,3,4.58,0,6.32a12,12,0,0,1-10.92,0C290.3,244.4,290.32,241.57,293.34,239.82Z" style="fill:#e0e0e0"/><path d="M413,281.82c-23.61-13.33-61.76-13.33-85.22,0s-23.33,34.94.28,48.26,61.76,13.33,85.22,0S436.57,295.15,413,281.82Z" style="fill:#e0e0e0"/><path d="M326.14,368.4c-25.84-14.59-67.61-14.59-93.29,0s-25.54,38.24.31,52.83,67.61,14.6,93.29,0S352,383,326.14,368.4Z" style="fill:#e0e0e0"/><path d="M187,405c-20.72-11.7-54.2-11.7-74.79,0s-20.48,30.66.24,42.36,54.21,11.69,74.79,0S207.68,416.66,187,405Z" style="fill:#e0e0e0"/><path d="M18,372.44c4.35-2.52,11.38-2.52,15.7,0s4.3,6.58,0,9.09-11.38,2.51-15.7,0S13.64,375,18,372.44Z" style="fill:#e0e0e0"/><path d="M53.91,325.77c-6.87-4-18-4-24.81,0s-6.79,10.4.08,14.37,18,4,24.81,0S60.79,329.73,53.91,325.77Z" style="fill:#e0e0e0"/><path d="M62.62,394.31c5.29-3.06,13.84-3.06,19.1,0s5.23,8-.06,11.06-13.85,3.05-19.1,0S57.33,397.36,62.62,394.31Z" style="fill:#e0e0e0"/><path d="M48.1,402.83a14.13,14.13,0,0,1,12.82,0c3.52,2.05,3.5,5.37-.05,7.42a14.11,14.11,0,0,1-12.81,0C44.54,408.2,44.56,404.88,48.1,402.83Z" style="fill:#e0e0e0"/><path d="M392.4,413.8a16.7,16.7,0,0,1,15.2,0c4.19,2.43,4.17,6.37-.05,8.8a16.7,16.7,0,0,1-15.2,0C388.16,420.17,388.19,416.23,392.4,413.8Z" style="opacity:0.1"/><path d="M374.92,425.62a11.25,11.25,0,0,1,10.2,0c2.81,1.63,2.8,4.28,0,5.91a11.25,11.25,0,0,1-10.2,0C372.08,429.9,372.1,427.25,374.92,425.62Z" style="opacity:0.1"/><path d="M458.07,387c-7.24-4.18-18.95-4.18-26.15,0s-7.16,11,.09,15.15,18.95,4.18,26.15,0S465.32,391.22,458.07,387Z" style="opacity:0.1"/><polygon points="302.81 291.22 108.98 403.87 96.66 396.75 290.49 284.11 302.81 291.22" style="fill:#e0e0e0"/><path d="M58.19,302.93l-16.64.48-16.65-.48c-.71,11.24,1.48,22.69,4.51,28.29h0a7.61,7.61,0,0,0,3.29,3.35c4.91,2.83,12.85,2.83,17.73,0a7.35,7.35,0,0,0,3.29-3.44C56.73,325.5,58.9,314.11,58.19,302.93Z" style="fill:#fff"/><path d="M53.28,296.11c6.52,3.77,6.55,9.87.08,13.64s-17,3.76-23.54,0-6.56-9.87-.08-13.64S46.76,292.35,53.28,296.11Z" style="fill:#ebebeb"/><path d="M50.7,297.61c5.09,2.94,5.11,7.7.06,10.64s-13.28,2.93-18.36,0-5.12-7.7-.06-10.64S45.61,294.67,50.7,297.61Z" style="fill:#e0e0e0"/><g style="opacity:0.15"><path d="M50.7,297.61c5.09,2.94,5.11,7.7.06,10.64s-13.28,2.93-18.36,0-5.12-7.7-.06-10.64S45.61,294.67,50.7,297.61Z"/></g><path d="M41.89,253A24.26,24.26,0,0,0,36,247.35a11.17,11.17,0,0,0-7.82-1.75,7.37,7.37,0,0,0-5.83,5.13c-.71,2.86.7,5.81,2.4,8.22,2.48,3.54,5.62,6.55,8.33,9.92a50.08,50.08,0,0,1,4.8,7.17,50.63,50.63,0,0,1,5.2,14.14c.75,3.6.14,9.73,4.68,11.08a4.83,4.83,0,0,0,5-1.53,8.77,8.77,0,0,0,1.55-4.82A58.77,58.77,0,0,0,41.89,253Zm6.22,43.73H48a.39.39,0,0,1-.32-.37C47.38,289,45,264.2,27.9,250.1a.4.4,0,0,1-.06-.56.41.41,0,0,1,.56,0c17.37,14.3,19.77,39.43,20.09,46.79A.4.4,0,0,1,48.11,296.7Z" style="fill:#6320ee"/><path d="M47.58,291.17c-.09-1.26-.47-2.73-1.92-2.91a2.2,2.2,0,0,0-1.56.45l-.08.05a.66.66,0,0,1-1-.69A42.37,42.37,0,0,0,44.2,281a6.53,6.53,0,0,0-1.62-4.83,11.75,11.75,0,0,0-3.77-3,2,2,0,0,0-2.57.81l-1.65,3.05a.37.37,0,0,1-.7-.2c.17-2.09-.25-4-1.86-5.32a10.33,10.33,0,0,0-3.94-1.72,41,41,0,0,0-14.47-1,10.26,10.26,0,0,1-.17,4.89c-.38,1.6-.94,3.16-1.25,4.78a4.25,4.25,0,0,0,.49,3.55,4.93,4.93,0,0,0,2,1.22l2.59,1.07a.82.82,0,0,1-.19,1.56c-.61.09-1.22.2-1.83.34a3.67,3.67,0,0,0-1.9.82c-.86.85-.75,2.29-.33,3.43a8.47,8.47,0,0,0,2.36,3.5,10.85,10.85,0,0,0,5.11,2.31,21.79,21.79,0,0,0,2.43.3.87.87,0,0,1,.47,1.57,9.66,9.66,0,0,0-.89.77,3,3,0,0,0-1,2.39c.15,1.7,1.67,2.33,3.05,2.79a37,37,0,0,0,8.54,2,15.58,15.58,0,0,0,8.41-1.41,12.17,12.17,0,0,0,5.56-7.7A24.66,24.66,0,0,0,47.58,291.17Zm-8.51,13.64h-.15a.4.4,0,0,1-.31-.31,57.79,57.79,0,0,0-3.86-11.17c-6.55-3.66-14.12-2.28-14.19-2.27h-.15a.41.41,0,0,1-.32-.31.4.4,0,0,1,.32-.47,24.42,24.42,0,0,1,13.79,1.87c-3.21-6.7-8.49-14.77-16.85-20.59a.39.39,0,0,1-.1-.55.4.4,0,0,1,.55-.1c8.11,5.65,13.36,13.37,16.65,20a36.93,36.93,0,0,1,3.8-12,.4.4,0,0,1,.69.4,36.3,36.3,0,0,0-3.85,12.91l.27.59a.37.37,0,0,1,.14.29,58.84,58.84,0,0,1,3.89,11.28A.4.4,0,0,1,39.07,304.81Z" style="fill:#6320ee"/><path d="M462.58,363l-17.54.51L427.5,363c-.75,11.85,1.56,23.92,4.75,29.82h0a8,8,0,0,0,3.47,3.53c5.18,3,13.54,3,18.68,0a7.75,7.75,0,0,0,3.47-3.63C461.05,386.77,463.33,374.76,462.58,363Z" style="fill:#fff"/><path d="M457.4,355.79c6.88,4,6.91,10.4.09,14.37s-17.94,4-24.81,0-6.91-10.4-.08-14.37S450.53,351.82,457.4,355.79Z" style="fill:#ebebeb"/><path d="M454.69,357.37c5.36,3.09,5.39,8.11.06,11.21s-14,3.09-19.35,0-5.39-8.12-.07-11.21S449.33,354.27,454.69,357.37Z" style="fill:#e0e0e0"/><g style="opacity:0.15"><path d="M454.69,357.37c5.36,3.09,5.39,8.11.06,11.21s-14,3.09-19.35,0-5.39-8.12-.07-11.21S449.33,354.27,454.69,357.37Z"/></g><path d="M462.7,294.73c-17.5,16-19,30.31-17.81,44.21a33.46,33.46,0,0,1,1.77,6.44,28.18,28.18,0,0,1,10.41-13.59c.27-1,.54-2,.8-3l-10.38,1.33,12.1-6.13,3.14-9.4-10.08.75,12.8-5.38a190.43,190.43,0,0,1,8.43-21.83c-28.07,9.19-36.38,25.2-35.65,40.44a31,31,0,0,1,5,6.79C441.7,320.88,446.41,307.1,462.7,294.73Z" style="fill:#6320ee"/><path d="M462.7,294.73c-17.5,16-19,30.31-17.81,44.21a33.46,33.46,0,0,1,1.77,6.44,28.18,28.18,0,0,1,10.41-13.59c.27-1,.54-2,.8-3l-10.38,1.33,12.1-6.13,3.14-9.4-10.08.75,12.8-5.38a190.43,190.43,0,0,1,8.43-21.83c-28.07,9.19-36.38,25.2-35.65,40.44a31,31,0,0,1,5,6.79C441.7,320.88,446.41,307.1,462.7,294.73Z" style="fill:#6320ee;opacity:0.2"/><path d="M462.7,294.73c-17.5,16-19,30.31-17.81,44.21a33.46,33.46,0,0,1,1.77,6.44,28.18,28.18,0,0,1,10.41-13.59c.27-1,.54-2,.8-3l-10.38,1.33,12.1-6.13,3.14-9.4-10.08.75,12.8-5.38a190.43,190.43,0,0,1,8.43-21.83c-28.07,9.19-36.38,25.2-35.65,40.44a31,31,0,0,1,5,6.79C441.7,320.88,446.41,307.1,462.7,294.73Z" style="fill:#6320ee;opacity:0.2"/><path d="M445.68,348.59a4.62,4.62,0,0,1-2.77-2.25,47.19,47.19,0,0,1-4.68-17.78c-6.23-6.43-16.18-11.45-31.3-13.58a180,180,0,0,1,11.48,18.93l12.82,2.89-9.52,1,4.48,8.22,12.29,3.71-9.89.48c9,19.87,14.84,18,16.63,14.4a3.82,3.82,0,0,1-.15-.48A40.86,40.86,0,0,1,445.68,348.59Zm-2.77,17.16c-.83-15.87-1.53-31.95-24.47-46.46C440.48,330.56,445.25,347.14,442.91,365.75Z" style="fill:#6320ee"/><path d="M445.68,348.59a4.62,4.62,0,0,1-2.77-2.25,47.19,47.19,0,0,1-4.68-17.78c-6.23-6.43-16.18-11.45-31.3-13.58a180,180,0,0,1,11.48,18.93l12.82,2.89-9.52,1,4.48,8.22,12.29,3.71-9.89.48c9,19.87,14.84,18,16.63,14.4a3.82,3.82,0,0,1-.15-.48A40.86,40.86,0,0,1,445.68,348.59Zm-2.77,17.16c-.83-15.87-1.53-31.95-24.47-46.46C440.48,330.56,445.25,347.14,442.91,365.75Z" style="fill:#6320ee;opacity:0.2"/><path d="M445.68,348.59c.27-1.08.6-2.15,1-3.21a33.46,33.46,0,0,0-1.77-6.44c.25,2.91.61,5.8,1,8.69a64.69,64.69,0,0,1-2.63-12.28,31,31,0,0,0-5-6.79,47.19,47.19,0,0,0,4.68,17.78A4.62,4.62,0,0,0,445.68,348.59Z" style="fill:#6320ee"/><path d="M445.68,348.59c.27-1.08.6-2.15,1-3.21a33.46,33.46,0,0,0-1.77-6.44c.25,2.91.61,5.8,1,8.69a64.69,64.69,0,0,1-2.63-12.28,31,31,0,0,0-5-6.79,47.19,47.19,0,0,0,4.68,17.78A4.62,4.62,0,0,0,445.68,348.59Z" style="fill:#6320ee;opacity:0.2"/><path d="M445.86,347.63c-.36-2.89-.72-5.78-1-8.69a29.78,29.78,0,0,0-1.66-3.59A64.69,64.69,0,0,0,445.86,347.63Z" style="fill:#6320ee"/><path d="M445.86,347.63c-.36-2.89-.72-5.78-1-8.69a29.78,29.78,0,0,0-1.66-3.59A64.69,64.69,0,0,0,445.86,347.63Z" style="fill:#6320ee;opacity:0.2"/><path d="M485.29,324.19c-12.81.21-21.91,3.13-28.22,7.6a56.73,56.73,0,0,1-4.13,10.94c4.19-6.64,11-12.13,21.49-16-22.3,10.52-24.73,24.93-27.26,39.14,0-7.82,1.29-15.08,4.73-21.4-1.74,2.7-3.41,3.88-4.85,4.12a45.75,45.75,0,0,1-1.6,15.42c-.07.18-.15.36-.23.53,1.19,3.48,6.27,5.85,16.6-11.09L453,352l11.49-2,5-6.91-8.48-1.95L472.82,340A162.56,162.56,0,0,1,485.29,324.19Z" style="fill:#6320ee"/><path d="M485.29,324.19c-12.81.21-21.91,3.13-28.22,7.6a56.73,56.73,0,0,1-4.13,10.94c4.19-6.64,11-12.13,21.49-16-22.3,10.52-24.73,24.93-27.26,39.14,0-7.82,1.29-15.08,4.73-21.4-1.74,2.7-3.41,3.88-4.85,4.12a45.75,45.75,0,0,1-1.6,15.42c-.07.18-.15.36-.23.53,1.19,3.48,6.27,5.85,16.6-11.09L453,352l11.49-2,5-6.91-8.48-1.95L472.82,340A162.56,162.56,0,0,1,485.29,324.19Z" style="fill:#6320ee;opacity:0.2"/><path d="M446.66,345.38c.18,1.08.3,2.17.39,3.26,1.44-.24,3.11-1.42,4.85-4.12.33-.6.67-1.2,1-1.79a56.73,56.73,0,0,0,4.13-10.94A28.18,28.18,0,0,0,446.66,345.38Z" style="fill:#6320ee"/><path d="M446.66,345.38c.18,1.08.3,2.17.39,3.26,1.44-.24,3.11-1.42,4.85-4.12.33-.6.67-1.2,1-1.79a56.73,56.73,0,0,0,4.13-10.94A28.18,28.18,0,0,0,446.66,345.38Z" style="fill:#6320ee;opacity:0.2"/><path d="M447.05,348.64a3.48,3.48,0,0,1-1.37-.05,40.86,40.86,0,0,0-.61,15.52,3.82,3.82,0,0,0,.15.48c.08-.17.16-.35.23-.53A45.75,45.75,0,0,0,447.05,348.64Z" style="fill:#6320ee"/><path d="M447.05,348.64a3.48,3.48,0,0,1-1.37-.05,40.86,40.86,0,0,0-.61,15.52,3.82,3.82,0,0,0,.15.48c.08-.17.16-.35.23-.53A45.75,45.75,0,0,0,447.05,348.64Z" style="fill:#6320ee;opacity:0.2"/><path d="M445.68,348.59a3.48,3.48,0,0,0,1.37.05c-.09-1.09-.21-2.18-.39-3.26C446.28,346.44,446,347.51,445.68,348.59Z" style="fill:#6320ee"/><path d="M445.68,348.59a3.48,3.48,0,0,0,1.37.05c-.09-1.09-.21-2.18-.39-3.26C446.28,346.44,446,347.51,445.68,348.59Z" style="fill:#6320ee;opacity:0.2"/><path d="M452.94,342.73c-.37.59-.71,1.19-1,1.79C452.25,344,452.59,343.39,452.94,342.73Z" style="fill:#6320ee"/><path d="M452.94,342.73c-.37.59-.71,1.19-1,1.79C452.25,344,452.59,343.39,452.94,342.73Z" style="fill:#6320ee;opacity:0.2"/><path d="M305.16,202.75c-.12.15-.24.29-.34.43C304.92,203,305,202.9,305.16,202.75Z" style="fill:#455a64"/><path d="M321.31,202.72a6.49,6.49,0,0,0-1.61-1.28A6.49,6.49,0,0,1,321.31,202.72Z" style="fill:#455a64"/><path d="M306.83,201.44a6.21,6.21,0,0,0-.63.4A6.21,6.21,0,0,1,306.83,201.44Z" style="fill:#455a64"/><path d="M304.8,203.22a3.68,3.68,0,0,0-.28.45A3.68,3.68,0,0,1,304.8,203.22Z" style="fill:#455a64"/><path d="M305.62,202.3a5.75,5.75,0,0,0-.43.42A5.75,5.75,0,0,1,305.62,202.3Z" style="fill:#455a64"/><path d="M322.3,204.66a3.7,3.7,0,0,0-.9-1.83A3.7,3.7,0,0,1,322.3,204.66Z" style="fill:#455a64"/><path d="M306.14,201.89c-.17.12-.34.25-.49.38C305.8,202.14,306,202,306.14,201.89Z" style="fill:#455a64"/><path d="M322.34,205.17a2.7,2.7,0,0,0,0-.49A2.7,2.7,0,0,1,322.34,205.17Z" style="fill:#455a64"/><path d="M306.2,201.84l-.06,0Z" style="fill:#455a64"/><path d="M321.4,202.83a.48.48,0,0,0-.09-.11A.48.48,0,0,1,321.4,202.83Z" style="fill:#455a64"/><path d="M322.3,204.68v0Z" style="fill:#455a64"/><path d="M319,205.5a12.56,12.56,0,0,0-11.42,0,5.62,5.62,0,0,0-1.75,1.5c-1.24-1.7-.66-3.75,1.75-5.14a12.56,12.56,0,0,1,11.42,0c2.38,1.38,2.94,3.42,1.71,5.12A5.4,5.4,0,0,0,319,205.5Z" style="fill:#455a64"/><path d="M318.94,208.48a12.64,12.64,0,0,1-11.44,0,5.46,5.46,0,0,1-1.7-1.48,5.62,5.62,0,0,1,1.75-1.5,12.56,12.56,0,0,1,11.42,0,5.4,5.4,0,0,1,1.71,1.48A5.83,5.83,0,0,1,318.94,208.48Z" style="fill:#ba68c8"/><path d="M318.94,208.48a12.64,12.64,0,0,1-11.44,0,5.46,5.46,0,0,1-1.7-1.48,5.62,5.62,0,0,1,1.75-1.5,12.56,12.56,0,0,1,11.42,0,5.4,5.4,0,0,1,1.71,1.48A5.83,5.83,0,0,1,318.94,208.48Z" style="opacity:0.30000000000000004"/><path d="M305.65,202.27l0,0Z" style="fill:#455a64"/><path d="M304.52,203.67h0Z" style="fill:#455a64"/><path d="M304.14,205.17h0c0,1.35.87,2.7,2.64,3.73a14.23,14.23,0,0,0,12.88,0c1.78-1,2.67-2.38,2.68-3.73h0v17.11h0c0,1.35-.9,2.7-2.68,3.73a14.19,14.19,0,0,1-12.88,0c-1.77-1-2.65-2.38-2.64-3.73h0V205.17Z" style="fill:#455a64"/><path d="M304.14,205.17h0c0,1.35.87,2.7,2.64,3.73a14.23,14.23,0,0,0,12.88,0c1.78-1,2.67-2.38,2.68-3.73h0v17.11h0c0,1.35-.9,2.7-2.68,3.73a14.19,14.19,0,0,1-12.88,0c-1.77-1-2.65-2.38-2.64-3.73h0V205.17Z" style="fill:#fff;opacity:0.1"/><path d="M304.82,203.18l0,0Z" style="fill:#455a64"/><path d="M305.19,202.72l0,0Z" style="fill:#455a64"/><path d="M322.34,205.17a2.7,2.7,0,0,0,0-.49v0a3.7,3.7,0,0,0-.9-1.83.48.48,0,0,0-.09-.11,6.49,6.49,0,0,0-1.61-1.28,14.17,14.17,0,0,0-12.87,0,6.21,6.21,0,0,0-.63.4l-.06,0c-.17.12-.34.25-.49.38l0,0a5.75,5.75,0,0,0-.43.42l0,0c-.12.15-.24.29-.34.43l0,0a3.68,3.68,0,0,0-.28.45h0a3.26,3.26,0,0,0-.38,1.49c0,1.35.87,2.7,2.64,3.73a14.23,14.23,0,0,0,12.88,0C321.44,207.87,322.33,206.52,322.34,205.17Zm-3.4,3.31a12.64,12.64,0,0,1-11.44,0c-3.14-1.83-3.12-4.8.05-6.62a12.56,12.56,0,0,1,11.42,0C322.11,203.68,322.09,206.65,318.94,208.48Z" style="fill:#455a64"/><path d="M322.34,205.17a2.7,2.7,0,0,0,0-.49v0a3.7,3.7,0,0,0-.9-1.83.48.48,0,0,0-.09-.11,6.49,6.49,0,0,0-1.61-1.28,14.17,14.17,0,0,0-12.87,0,6.21,6.21,0,0,0-.63.4l-.06,0c-.17.12-.34.25-.49.38l0,0a5.75,5.75,0,0,0-.43.42l0,0c-.12.15-.24.29-.34.43l0,0a3.68,3.68,0,0,0-.28.45h0a3.26,3.26,0,0,0-.38,1.49c0,1.35.87,2.7,2.64,3.73a14.23,14.23,0,0,0,12.88,0C321.44,207.87,322.33,206.52,322.34,205.17Zm-3.4,3.31a12.64,12.64,0,0,1-11.44,0c-3.14-1.83-3.12-4.8.05-6.62a12.56,12.56,0,0,1,11.42,0C322.11,203.68,322.09,206.65,318.94,208.48Z" style="fill:#fff;opacity:0.30000000000000004"/><path d="M318.62,223.75c-.19.21-.36.43-.52.64C318.26,224.18,318.43,224,318.62,223.75Z" style="fill:#455a64"/><path d="M342.6,223.7a10.37,10.37,0,0,0-2.4-1.9A10.37,10.37,0,0,1,342.6,223.7Z" style="fill:#455a64"/><path d="M321.08,221.8a10.61,10.61,0,0,0-.93.6A10.61,10.61,0,0,1,321.08,221.8Z" style="fill:#455a64"/><path d="M318.07,224.44a5.91,5.91,0,0,0-.4.67A5.91,5.91,0,0,1,318.07,224.44Z" style="fill:#455a64"/><path d="M319.29,223.09a7.33,7.33,0,0,0-.63.61A7.33,7.33,0,0,1,319.29,223.09Z" style="fill:#455a64"/><path d="M344.06,226.59a5.59,5.59,0,0,0-1.33-2.72A5.59,5.59,0,0,1,344.06,226.59Z" style="fill:#455a64"/><path d="M320.06,222.47c-.25.18-.49.37-.71.56C319.57,222.84,319.81,222.65,320.06,222.47Z" style="fill:#455a64"/><path d="M344.12,227.34a5.81,5.81,0,0,0-.05-.72A5.81,5.81,0,0,1,344.12,227.34Z" style="fill:#455a64"/><path d="M320.15,222.4l-.09.07Z" style="fill:#455a64"/><path d="M342.73,223.87c-.05-.06-.08-.12-.13-.17S342.68,223.81,342.73,223.87Z" style="fill:#455a64"/><path d="M344.07,226.62v0Z" style="fill:#455a64"/><path d="M339.12,227.83c-4.66-2.71-12.28-2.71-17,0a8.29,8.29,0,0,0-2.59,2.23c-1.84-2.53-1-5.57,2.59-7.64,4.69-2.7,12.31-2.71,17,0,3.53,2.06,4.37,5.08,2.54,7.6A8.22,8.22,0,0,0,339.12,227.83Z" style="fill:#455a64"/><path d="M339.07,232.25c-4.7,2.71-12.31,2.72-17,0a8.18,8.18,0,0,1-2.53-2.2,8.29,8.29,0,0,1,2.59-2.23c4.69-2.71,12.31-2.71,17,0a8.22,8.22,0,0,1,2.54,2.19A8.29,8.29,0,0,1,339.07,232.25Z" style="fill:#ba68c8"/><path d="M339.07,232.25c-4.7,2.71-12.31,2.72-17,0a8.18,8.18,0,0,1-2.53-2.2,8.29,8.29,0,0,1,2.59-2.23c4.69-2.71,12.31-2.71,17,0a8.22,8.22,0,0,1,2.54,2.19A8.29,8.29,0,0,1,339.07,232.25Z" style="fill:#6320ee"/><path d="M319.35,223l-.06.06Z" style="fill:#455a64"/><path d="M317.67,225.11v0Z" style="fill:#455a64"/><path d="M317.1,227.34h0c0,2,1.29,4,3.92,5.54,5.25,3.05,13.83,3.05,19.12,0,2.65-1.53,4-3.53,4-5.54h0v25.41h0c0,2-1.33,4-4,5.54-5.29,3-13.87,3-19.12,0-2.63-1.53-3.93-3.53-3.92-5.54h0V227.34Z" style="fill:#455a64"/><path d="M317.1,227.34h0c0,2,1.29,4,3.92,5.54,5.25,3.05,13.83,3.05,19.12,0,2.65-1.53,4-3.53,4-5.54h0v25.41h0c0,2-1.33,4-4,5.54-5.29,3-13.87,3-19.12,0-2.63-1.53-3.93-3.53-3.92-5.54h0V227.34Z" style="fill:#fff;opacity:0.1"/><path d="M318.1,224.39l0,.05Z" style="fill:#455a64"/><path d="M318.66,223.7l0,.05Z" style="fill:#455a64"/><path d="M344.12,227.34a5.81,5.81,0,0,0-.05-.72v0a5.59,5.59,0,0,0-1.33-2.72c-.05-.06-.08-.12-.13-.17a10.37,10.37,0,0,0-2.4-1.9c-5.25-3.05-13.83-3.05-19.12,0a10.61,10.61,0,0,0-.93.6l-.09.07c-.25.18-.49.37-.71.56l-.06.06a7.33,7.33,0,0,0-.63.61l0,.05c-.19.21-.36.43-.52.64l0,.05a5.91,5.91,0,0,0-.4.67v0a4.83,4.83,0,0,0-.56,2.21c0,2,1.29,4,3.92,5.54,5.25,3.05,13.83,3.05,19.12,0C342.79,231.35,344.11,229.35,344.12,227.34Zm-5.05,4.91c-4.7,2.71-12.31,2.72-17,0s-4.63-7.12.06-9.84,12.31-2.71,17,0S343.76,229.55,339.07,232.25Z" style="fill:#455a64"/><path d="M344.12,227.34a5.81,5.81,0,0,0-.05-.72v0a5.59,5.59,0,0,0-1.33-2.72c-.05-.06-.08-.12-.13-.17a10.37,10.37,0,0,0-2.4-1.9c-5.25-3.05-13.83-3.05-19.12,0a10.61,10.61,0,0,0-.93.6l-.09.07c-.25.18-.49.37-.71.56l-.06.06a7.33,7.33,0,0,0-.63.61l0,.05c-.19.21-.36.43-.52.64l0,.05a5.91,5.91,0,0,0-.4.67v0a4.83,4.83,0,0,0-.56,2.21c0,2,1.29,4,3.92,5.54,5.25,3.05,13.83,3.05,19.12,0C342.79,231.35,344.11,229.35,344.12,227.34Zm-5.05,4.91c-4.7,2.71-12.31,2.72-17,0s-4.63-7.12.06-9.84,12.31-2.71,17,0S343.76,229.55,339.07,232.25Z" style="fill:#fff;opacity:0.30000000000000004"/><path d="M292.49,226.75a3.92,3.92,0,0,0-.27.33A3.92,3.92,0,0,1,292.49,226.75Z" style="fill:#455a64"/><path d="M305.07,226.71a5.27,5.27,0,0,0-1.26-1A5.27,5.27,0,0,1,305.07,226.71Z" style="fill:#455a64"/><path d="M293.78,225.72l-.49.31Z" style="fill:#455a64"/><path d="M292.2,227.11a2.5,2.5,0,0,0-.21.35A2.5,2.5,0,0,1,292.2,227.11Z" style="fill:#455a64"/><path d="M292.84,226.4a3.34,3.34,0,0,0-.33.32A3.34,3.34,0,0,1,292.84,226.4Z" style="fill:#455a64"/><path d="M305.84,228.23a3,3,0,0,0-.7-1.43A3,3,0,0,1,305.84,228.23Z" style="fill:#455a64"/><path d="M293.24,226.07a3.72,3.72,0,0,0-.37.3A3.72,3.72,0,0,1,293.24,226.07Z" style="fill:#455a64"/><path d="M305.87,228.63a2.34,2.34,0,0,0,0-.38A2.34,2.34,0,0,1,305.87,228.63Z" style="fill:#455a64"/><path d="M293.29,226a.1.1,0,0,1-.05,0A.1.1,0,0,0,293.29,226Z" style="fill:#455a64"/><path d="M305.14,226.8l-.07-.09Z" style="fill:#455a64"/><path d="M305.84,228.25v0Z" style="fill:#455a64"/><path d="M303.24,228.88a9.83,9.83,0,0,0-8.9,0,4.34,4.34,0,0,0-1.36,1.18c-1-1.33-.51-2.93,1.36-4a9.83,9.83,0,0,1,8.9,0c1.86,1.07,2.3,2.66,1.33,4A4.27,4.27,0,0,0,303.24,228.88Z" style="fill:#455a64"/><path d="M303.22,231.2a9.82,9.82,0,0,1-8.91,0,4.27,4.27,0,0,1-1.33-1.15,4.34,4.34,0,0,1,1.36-1.18,9.83,9.83,0,0,1,8.9,0,4.27,4.27,0,0,1,1.33,1.15A4.15,4.15,0,0,1,303.22,231.2Z" style="fill:#ba68c8"/><path d="M303.22,231.2a9.82,9.82,0,0,1-8.91,0,4.27,4.27,0,0,1-1.33-1.15,4.34,4.34,0,0,1,1.36-1.18,9.83,9.83,0,0,1,8.9,0,4.27,4.27,0,0,1,1.33,1.15A4.15,4.15,0,0,1,303.22,231.2Z" style="fill:#fff;opacity:0.30000000000000004"/><path d="M292.87,226.37l0,0Z" style="fill:#455a64"/><path d="M292,227.46h0Z" style="fill:#455a64"/><path d="M291.69,228.63h0a3.49,3.49,0,0,0,2.06,2.9,11.08,11.08,0,0,0,10,0,3.56,3.56,0,0,0,2.09-2.9h0V242h0a3.56,3.56,0,0,1-2.09,2.9,11,11,0,0,1-10,0,3.49,3.49,0,0,1-2.06-2.9h0V228.63Z" style="fill:#455a64"/><path d="M291.69,228.63h0a3.49,3.49,0,0,0,2.06,2.9,11.08,11.08,0,0,0,10,0,3.56,3.56,0,0,0,2.09-2.9h0V242h0a3.56,3.56,0,0,1-2.09,2.9,11,11,0,0,1-10,0,3.49,3.49,0,0,1-2.06-2.9h0V228.63Z" style="fill:#fff;opacity:0.1"/><path d="M292.22,227.08l0,0Z" style="fill:#455a64"/><path d="M292.51,226.72l0,0Z" style="fill:#455a64"/><path d="M305.87,228.63a2.34,2.34,0,0,0,0-.38v0a3,3,0,0,0-.7-1.43l-.07-.09a5.27,5.27,0,0,0-1.26-1,11.08,11.08,0,0,0-10,0l-.49.31a.1.1,0,0,1-.05,0,3.72,3.72,0,0,0-.37.3l0,0a3.34,3.34,0,0,0-.33.32l0,0a3.92,3.92,0,0,0-.27.33l0,0a2.5,2.5,0,0,0-.21.35h0a2.55,2.55,0,0,0-.29,1.16,3.49,3.49,0,0,0,2.06,2.9,11.08,11.08,0,0,0,10,0A3.56,3.56,0,0,0,305.87,228.63Zm-2.65,2.57a9.82,9.82,0,0,1-8.91,0c-2.45-1.43-2.43-3.74,0-5.16a9.83,9.83,0,0,1,8.9,0C305.69,227.47,305.68,229.78,303.22,231.2Z" style="fill:#455a64"/><path d="M305.87,228.63a2.34,2.34,0,0,0,0-.38v0a3,3,0,0,0-.7-1.43l-.07-.09a5.27,5.27,0,0,0-1.26-1,11.08,11.08,0,0,0-10,0l-.49.31a.1.1,0,0,1-.05,0,3.72,3.72,0,0,0-.37.3l0,0a3.34,3.34,0,0,0-.33.32l0,0a3.92,3.92,0,0,0-.27.33l0,0a2.5,2.5,0,0,0-.21.35h0a2.55,2.55,0,0,0-.29,1.16,3.49,3.49,0,0,0,2.06,2.9,11.08,11.08,0,0,0,10,0A3.56,3.56,0,0,0,305.87,228.63Zm-2.65,2.57a9.82,9.82,0,0,1-8.91,0c-2.45-1.43-2.43-3.74,0-5.16a9.83,9.83,0,0,1,8.9,0C305.69,227.47,305.68,229.78,303.22,231.2Z" style="fill:#fff;opacity:0.30000000000000004"/><path d="M16.67,352.94a6.25,6.25,0,0,0-.4.5A6.25,6.25,0,0,1,16.67,352.94Z" style="fill:#455a64"/><path d="M35.45,352.89a7.83,7.83,0,0,0-1.87-1.48A7.83,7.83,0,0,1,35.45,352.89Z" style="fill:#455a64"/><path d="M18.61,351.41a8.33,8.33,0,0,0-.73.46A8.33,8.33,0,0,1,18.61,351.41Z" style="fill:#455a64"/><path d="M16.25,353.48a4,4,0,0,0-.32.52A4,4,0,0,1,16.25,353.48Z" style="fill:#455a64"/><path d="M17.2,352.41c-.18.16-.34.32-.49.48C16.86,352.73,17,352.57,17.2,352.41Z" style="fill:#455a64"/><path d="M36.6,355.16a4.36,4.36,0,0,0-1-2.14A4.36,4.36,0,0,1,36.6,355.16Z" style="fill:#455a64"/><path d="M17.81,351.93a6.41,6.41,0,0,0-.56.44A6.41,6.41,0,0,1,17.81,351.93Z" style="fill:#455a64"/><path d="M36.65,355.75a3.66,3.66,0,0,0,0-.57A3.66,3.66,0,0,1,36.65,355.75Z" style="fill:#455a64"/><path d="M17.88,351.87l-.07.06Z" style="fill:#455a64"/><path d="M35.56,353l-.11-.13Z" style="fill:#455a64"/><path d="M36.6,355.18v0Z" style="fill:#455a64"/><path d="M32.73,356.13a14.68,14.68,0,0,0-13.29,0,6.36,6.36,0,0,0-2,1.75c-1.44-2-.76-4.37,2-6a14.65,14.65,0,0,1,13.29,0c2.77,1.6,3.42,4,2,6A6.35,6.35,0,0,0,32.73,356.13Z" style="fill:#455a64"/><path d="M32.69,359.59a14.65,14.65,0,0,1-13.29,0,6.33,6.33,0,0,1-2-1.71,6.36,6.36,0,0,1,2-1.75,14.68,14.68,0,0,1,13.29,0,6.35,6.35,0,0,1,2,1.72A6.46,6.46,0,0,1,32.69,359.59Z" style="fill:#ba68c8"/><path d="M32.69,359.59a14.65,14.65,0,0,1-13.29,0,6.33,6.33,0,0,1-2-1.71,6.36,6.36,0,0,1,2-1.75,14.68,14.68,0,0,1,13.29,0,6.35,6.35,0,0,1,2,1.72A6.46,6.46,0,0,1,32.69,359.59Z" style="opacity:0.30000000000000004"/><path d="M17.25,352.37l-.05,0Z" style="fill:#455a64"/><path d="M15.93,354h0Z" style="fill:#455a64"/><path d="M15.48,355.75h0c0,1.57,1,3.14,3.07,4.33a16.54,16.54,0,0,0,15,0c2.07-1.19,3.11-2.76,3.12-4.33h0v19.89h0c0,1.57-1,3.14-3.12,4.34a16.54,16.54,0,0,1-15,0c-2.05-1.2-3.07-2.76-3.07-4.33h0V355.75Z" style="fill:#455a64"/><path d="M15.48,355.75h0c0,1.57,1,3.14,3.07,4.33a16.54,16.54,0,0,0,15,0c2.07-1.19,3.11-2.76,3.12-4.33h0v19.89h0c0,1.57-1,3.14-3.12,4.34a16.54,16.54,0,0,1-15,0c-2.05-1.2-3.07-2.76-3.07-4.33h0V355.75Z" style="fill:#fff;opacity:0.1"/><path d="M16.27,353.44l0,0Z" style="fill:#455a64"/><path d="M16.71,352.89l0,.05Z" style="fill:#455a64"/><path d="M36.65,355.75a3.66,3.66,0,0,0,0-.57v0a4.36,4.36,0,0,0-1-2.14l-.11-.13a7.83,7.83,0,0,0-1.87-1.48,16.52,16.52,0,0,0-15,0,8.33,8.33,0,0,0-.73.46l-.07.06a6.41,6.41,0,0,0-.56.44l-.05,0c-.18.16-.34.32-.49.48l0,.05a6.25,6.25,0,0,0-.4.5l0,0a4,4,0,0,0-.32.52h0a3.94,3.94,0,0,0-.44,1.74c0,1.57,1,3.14,3.07,4.33a16.54,16.54,0,0,0,15,0C35.6,358.89,36.64,357.32,36.65,355.75Zm-4,3.84a14.65,14.65,0,0,1-13.29,0c-3.66-2.12-3.63-5.57,0-7.7a14.65,14.65,0,0,1,13.29,0C36.39,354,36.36,357.47,32.69,359.59Z" style="fill:#455a64"/><path d="M36.65,355.75a3.66,3.66,0,0,0,0-.57v0a4.36,4.36,0,0,0-1-2.14l-.11-.13a7.83,7.83,0,0,0-1.87-1.48,16.52,16.52,0,0,0-15,0,8.33,8.33,0,0,0-.73.46l-.07.06a6.41,6.41,0,0,0-.56.44l-.05,0c-.18.16-.34.32-.49.48l0,.05a6.25,6.25,0,0,0-.4.5l0,0a4,4,0,0,0-.32.52h0a3.94,3.94,0,0,0-.44,1.74c0,1.57,1,3.14,3.07,4.33a16.54,16.54,0,0,0,15,0C35.6,358.89,36.64,357.32,36.65,355.75Zm-4,3.84a14.65,14.65,0,0,1-13.29,0c-3.66-2.12-3.63-5.57,0-7.7a14.65,14.65,0,0,1,13.29,0C36.39,354,36.36,357.47,32.69,359.59Z" style="fill:#fff;opacity:0.30000000000000004"/><path d="M61.13,371.42a5.17,5.17,0,0,0-.48.59A5.17,5.17,0,0,1,61.13,371.42Z" style="fill:#455a64"/><path d="M83.15,371.37a8.92,8.92,0,0,0-2.21-1.74A8.92,8.92,0,0,1,83.15,371.37Z" style="fill:#455a64"/><path d="M63.39,369.63c-.3.17-.59.36-.85.54C62.8,370,63.09,369.8,63.39,369.63Z" style="fill:#455a64"/><path d="M60.63,372.05a5.73,5.73,0,0,0-.38.62A5.73,5.73,0,0,1,60.63,372.05Z" style="fill:#455a64"/><path d="M61.74,370.81a7.56,7.56,0,0,0-.57.56A7.56,7.56,0,0,1,61.74,370.81Z" style="fill:#455a64"/><path d="M84.49,374a5.09,5.09,0,0,0-1.22-2.5A5.09,5.09,0,0,1,84.49,374Z" style="fill:#455a64"/><path d="M62.45,370.24c-.23.17-.45.34-.65.52C62,370.58,62.22,370.41,62.45,370.24Z" style="fill:#455a64"/><path d="M84.55,374.71a3.68,3.68,0,0,0-.06-.66A3.68,3.68,0,0,1,84.55,374.71Z" style="fill:#455a64"/><path d="M62.54,370.17l-.09.07Z" style="fill:#455a64"/><path d="M83.27,371.52l-.12-.15Z" style="fill:#455a64"/><path d="M84.49,374.05v0Z" style="fill:#455a64"/><path d="M80,375.16c-4.28-2.49-11.27-2.48-15.58,0a7.67,7.67,0,0,0-2.38,2c-1.69-2.32-.9-5.12,2.38-7,4.31-2.49,11.3-2.49,15.58,0,3.25,1.88,4,4.66,2.33,7A7.36,7.36,0,0,0,80,375.16Z" style="fill:#455a64"/><path d="M79.9,379.22c-4.31,2.49-11.3,2.5-15.58,0a7.49,7.49,0,0,1-2.33-2,7.67,7.67,0,0,1,2.38-2c4.31-2.48,11.3-2.49,15.58,0a7.36,7.36,0,0,1,2.33,2A7.52,7.52,0,0,1,79.9,379.22Z" style="fill:#ba68c8"/><path d="M79.9,379.22c-4.31,2.49-11.3,2.5-15.58,0a7.49,7.49,0,0,1-2.33-2,7.67,7.67,0,0,1,2.38-2c4.31-2.48,11.3-2.49,15.58,0a7.36,7.36,0,0,1,2.33,2A7.52,7.52,0,0,1,79.9,379.22Z" style="fill:#6320ee"/><path d="M61.8,370.76l-.06.05Z" style="fill:#455a64"/><path d="M60.25,372.67h0Z" style="fill:#455a64"/><path d="M59.73,374.72h0c0,1.84,1.19,3.68,3.6,5.08,4.82,2.8,12.7,2.8,17.56,0,2.43-1.4,3.65-3.25,3.66-5.09h0V398h0c0,1.85-1.23,3.69-3.66,5.09-4.86,2.8-12.74,2.8-17.56,0-2.41-1.4-3.61-3.24-3.6-5.08h0V374.71Z" style="fill:#455a64"/><path d="M59.73,374.72h0c0,1.84,1.19,3.68,3.6,5.08,4.82,2.8,12.7,2.8,17.56,0,2.43-1.4,3.65-3.25,3.66-5.09h0V398h0c0,1.85-1.23,3.69-3.66,5.09-4.86,2.8-12.74,2.8-17.56,0-2.41-1.4-3.61-3.24-3.6-5.08h0V374.71Z" style="fill:#fff;opacity:0.1"/><path d="M60.65,372s0,0,0,0S60.64,372,60.65,372Z" style="fill:#455a64"/><path d="M61.17,371.37l0,.05Z" style="fill:#455a64"/><path d="M84.55,374.71a3.68,3.68,0,0,0-.06-.66v0a5.09,5.09,0,0,0-1.22-2.5l-.12-.15a8.92,8.92,0,0,0-2.21-1.74c-4.82-2.81-12.69-2.81-17.55,0-.3.17-.59.36-.85.54l-.09.07c-.23.17-.45.34-.65.52l-.06.05a7.56,7.56,0,0,0-.57.56l0,.05a5.17,5.17,0,0,0-.48.59s0,0,0,0a5.73,5.73,0,0,0-.38.62h0a4.45,4.45,0,0,0-.52,2c0,1.84,1.19,3.68,3.6,5.08,4.82,2.8,12.7,2.8,17.56,0C83.32,378.4,84.54,376.55,84.55,374.71Zm-4.65,4.51c-4.31,2.49-11.3,2.5-15.58,0s-4.26-6.54.05-9,11.3-2.49,15.58,0S84.21,376.74,79.9,379.22Z" style="fill:#455a64"/><path d="M84.55,374.71a3.68,3.68,0,0,0-.06-.66v0a5.09,5.09,0,0,0-1.22-2.5l-.12-.15a8.92,8.92,0,0,0-2.21-1.74c-4.82-2.81-12.69-2.81-17.55,0-.3.17-.59.36-.85.54l-.09.07c-.23.17-.45.34-.65.52l-.06.05a7.56,7.56,0,0,0-.57.56l0,.05a5.17,5.17,0,0,0-.48.59s0,0,0,0a5.73,5.73,0,0,0-.38.62h0a4.45,4.45,0,0,0-.52,2c0,1.84,1.19,3.68,3.6,5.08,4.82,2.8,12.7,2.8,17.56,0C83.32,378.4,84.54,376.55,84.55,374.71Zm-4.65,4.51c-4.31,2.49-11.3,2.5-15.58,0s-4.26-6.54.05-9,11.3-2.49,15.58,0S84.21,376.74,79.9,379.22Z" style="fill:#fff;opacity:0.30000000000000004"/><path d="M47,386.92a4.23,4.23,0,0,0-.33.41A4.23,4.23,0,0,1,47,386.92Z" style="fill:#455a64"/><path d="M62.35,386.88a6.24,6.24,0,0,0-1.53-1.21A6.24,6.24,0,0,1,62.35,386.88Z" style="fill:#455a64"/><path d="M48.61,385.67c-.21.12-.41.25-.6.38C48.2,385.92,48.4,385.79,48.61,385.67Z" style="fill:#455a64"/><path d="M46.68,387.36c-.09.14-.18.28-.26.42C46.5,387.64,46.59,387.5,46.68,387.36Z" style="fill:#455a64"/><path d="M47.46,386.49c-.14.13-.28.26-.4.39C47.18,386.75,47.32,386.62,47.46,386.49Z" style="fill:#455a64"/><path d="M63.29,388.73a3.5,3.5,0,0,0-.85-1.74A3.5,3.5,0,0,1,63.29,388.73Z" style="fill:#455a64"/><path d="M48,386.1a5.37,5.37,0,0,0-.45.35A5.37,5.37,0,0,1,48,386.1Z" style="fill:#455a64"/><path d="M63.33,389.21a2.49,2.49,0,0,0,0-.47A2.49,2.49,0,0,1,63.33,389.21Z" style="fill:#455a64"/><path d="M48,386.05l-.06.05Z" style="fill:#455a64"/><path d="M62.44,387l-.09-.11Z" style="fill:#455a64"/><path d="M63.29,388.74h0Z" style="fill:#455a64"/><path d="M60.13,389.52a12,12,0,0,0-10.84,0A5.29,5.29,0,0,0,47.63,391c-1.17-1.62-.62-3.57,1.66-4.88a11.94,11.94,0,0,1,10.84,0c2.26,1.31,2.79,3.24,1.62,4.85A5.18,5.18,0,0,0,60.13,389.52Z" style="fill:#455a64"/><path d="M60.1,392.35a12,12,0,0,1-10.85,0,5.16,5.16,0,0,1-1.62-1.4,5.29,5.29,0,0,1,1.66-1.43,12,12,0,0,1,10.84,0,5.18,5.18,0,0,1,1.62,1.4A5.14,5.14,0,0,1,60.1,392.35Z" style="fill:#ba68c8"/><path d="M60.1,392.35a12,12,0,0,1-10.85,0,5.16,5.16,0,0,1-1.62-1.4,5.29,5.29,0,0,1,1.66-1.43,12,12,0,0,1,10.84,0,5.18,5.18,0,0,1,1.62,1.4A5.14,5.14,0,0,1,60.1,392.35Z" style="opacity:0.30000000000000004"/><path d="M47.5,386.45l0,0Z" style="fill:#455a64"/><path d="M46.42,387.78h0Z" style="fill:#455a64"/><path d="M46.06,389.21h0c0,1.28.83,2.56,2.5,3.54a13.49,13.49,0,0,0,12.22,0c1.69-1,2.54-2.26,2.55-3.54h0v16.23h0c0,1.29-.86,2.57-2.55,3.54a13.46,13.46,0,0,1-12.22,0c-1.67-1-2.51-2.25-2.5-3.53h0V389.21Z" style="fill:#455a64"/><path d="M46.06,389.21h0c0,1.28.83,2.56,2.5,3.54a13.49,13.49,0,0,0,12.22,0c1.69-1,2.54-2.26,2.55-3.54h0v16.23h0c0,1.29-.86,2.57-2.55,3.54a13.46,13.46,0,0,1-12.22,0c-1.67-1-2.51-2.25-2.5-3.53h0V389.21Z" style="fill:#fff;opacity:0.1"/><path d="M46.7,387.33l0,0Z" style="fill:#455a64"/><path d="M47.06,386.88l0,0Z" style="fill:#455a64"/><path d="M63.33,389.21a2.49,2.49,0,0,0,0-.47h0a3.5,3.5,0,0,0-.85-1.74l-.09-.11a6.24,6.24,0,0,0-1.53-1.21,13.47,13.47,0,0,0-12.21,0c-.21.12-.41.25-.6.38l-.06.05a5.37,5.37,0,0,0-.45.35l0,0c-.14.13-.28.26-.4.39l0,0a4.23,4.23,0,0,0-.33.41l0,0c-.09.14-.18.28-.26.42h0a3.08,3.08,0,0,0-.36,1.42c0,1.28.83,2.56,2.5,3.54a13.49,13.49,0,0,0,12.22,0C62.47,391.77,63.32,390.49,63.33,389.21Zm-3.23,3.14a12,12,0,0,1-10.85,0c-3-1.73-3-4.55,0-6.28a11.94,11.94,0,0,1,10.84,0C63.11,387.8,63.1,390.62,60.1,392.35Z" style="fill:#455a64"/><path d="M63.33,389.21a2.49,2.49,0,0,0,0-.47h0a3.5,3.5,0,0,0-.85-1.74l-.09-.11a6.24,6.24,0,0,0-1.53-1.21,13.47,13.47,0,0,0-12.21,0c-.21.12-.41.25-.6.38l-.06.05a5.37,5.37,0,0,0-.45.35l0,0c-.14.13-.28.26-.4.39l0,0a4.23,4.23,0,0,0-.33.41l0,0c-.09.14-.18.28-.26.42h0a3.08,3.08,0,0,0-.36,1.42c0,1.28.83,2.56,2.5,3.54a13.49,13.49,0,0,0,12.22,0C62.47,391.77,63.32,390.49,63.33,389.21Zm-3.23,3.14a12,12,0,0,1-10.85,0c-3-1.73-3-4.55,0-6.28a11.94,11.94,0,0,1,10.84,0C63.11,387.8,63.1,390.62,60.1,392.35Z" style="fill:#fff;opacity:0.30000000000000004"/><path d="M391.21,395.57a5.22,5.22,0,0,0-.38.47A5.22,5.22,0,0,1,391.21,395.57Z" style="fill:#455a64"/><path d="M408.74,395.53a7,7,0,0,0-1.75-1.38A7,7,0,0,1,408.74,395.53Z" style="fill:#455a64"/><path d="M393,394.15a6.56,6.56,0,0,0-.68.43A6.56,6.56,0,0,1,393,394.15Z" style="fill:#455a64"/><path d="M390.81,396.08q-.17.24-.3.48Q390.65,396.32,390.81,396.08Z" style="fill:#455a64"/><path d="M391.7,395.08c-.17.15-.32.3-.46.45C391.38,395.38,391.53,395.23,391.7,395.08Z" style="fill:#455a64"/><path d="M409.81,397.65a4.14,4.14,0,0,0-1-2A4.14,4.14,0,0,1,409.81,397.65Z" style="fill:#455a64"/><path d="M392.26,394.63c-.18.14-.36.27-.52.41C391.9,394.9,392.08,394.77,392.26,394.63Z" style="fill:#455a64"/><path d="M409.86,398.19a4.91,4.91,0,0,0,0-.53A4.91,4.91,0,0,1,409.86,398.19Z" style="fill:#455a64"/><path d="M392.33,394.58a.18.18,0,0,1-.07.05A.18.18,0,0,0,392.33,394.58Z" style="fill:#455a64"/><path d="M408.84,395.65l-.1-.12Z" style="fill:#455a64"/><path d="M409.82,397.66h0Z" style="fill:#455a64"/><path d="M406.2,398.55a13.71,13.71,0,0,0-12.41,0,6,6,0,0,0-1.89,1.64c-1.35-1.86-.72-4.08,1.89-5.59a13.71,13.71,0,0,1,12.41,0c2.58,1.5,3.19,3.71,1.85,5.56A5.84,5.84,0,0,0,406.2,398.55Z" style="fill:#455a64"/><path d="M406.16,401.79a13.71,13.71,0,0,1-12.41,0,5.94,5.94,0,0,1-1.85-1.6,6,6,0,0,1,1.89-1.64,13.71,13.71,0,0,1,12.41,0,5.84,5.84,0,0,1,1.85,1.61A6.19,6.19,0,0,1,406.16,401.79Z" style="fill:#ba68c8"/><path d="M406.16,401.79a13.71,13.71,0,0,1-12.41,0,5.94,5.94,0,0,1-1.85-1.6,6,6,0,0,1,1.89-1.64,13.71,13.71,0,0,1,12.41,0,5.84,5.84,0,0,1,1.85,1.61A6.19,6.19,0,0,1,406.16,401.79Z" style="fill:#6320ee"/><path d="M391.74,395l0,0Z" style="fill:#455a64"/><path d="M390.51,396.56v0Z" style="fill:#455a64"/><path d="M390.1,398.2h0c0,1.46.94,2.93,2.86,4a15.43,15.43,0,0,0,14,0c1.93-1.11,2.9-2.58,2.91-4.05h0v18.58h0c0,1.47-1,2.94-2.91,4.05a15.43,15.43,0,0,1-14,0c-1.92-1.11-2.87-2.58-2.86-4h0V398.19Z" style="fill:#455a64"/><path d="M390.1,398.2h0c0,1.46.94,2.93,2.86,4a15.43,15.43,0,0,0,14,0c1.93-1.11,2.9-2.58,2.91-4.05h0v18.58h0c0,1.47-1,2.94-2.91,4.05a15.43,15.43,0,0,1-14,0c-1.92-1.11-2.87-2.58-2.86-4h0V398.19Z" style="fill:#fff;opacity:0.1"/><path d="M390.83,396l0,0Z" style="fill:#455a64"/><path d="M391.24,395.53l0,0Z" style="fill:#455a64"/><path d="M409.86,398.19a4.91,4.91,0,0,0,0-.53h0a4.14,4.14,0,0,0-1-2l-.1-.12a7,7,0,0,0-1.75-1.38,15.38,15.38,0,0,0-14,0,6.56,6.56,0,0,0-.68.43.18.18,0,0,1-.07.05c-.18.14-.36.27-.52.41l0,0c-.17.15-.32.3-.46.45l0,0a5.22,5.22,0,0,0-.38.47l0,0q-.17.24-.3.48v0a3.51,3.51,0,0,0-.41,1.62c0,1.46.94,2.93,2.86,4a15.43,15.43,0,0,0,14,0C408.88,401.13,409.85,399.66,409.86,398.19Zm-3.7,3.6a13.71,13.71,0,0,1-12.41,0c-3.41-2-3.39-5.21,0-7.19a13.71,13.71,0,0,1,12.41,0C409.61,396.58,409.59,399.81,406.16,401.79Z" style="fill:#455a64"/><path d="M409.86,398.19a4.91,4.91,0,0,0,0-.53h0a4.14,4.14,0,0,0-1-2l-.1-.12a7,7,0,0,0-1.75-1.38,15.38,15.38,0,0,0-14,0,6.56,6.56,0,0,0-.68.43.18.18,0,0,1-.07.05c-.18.14-.36.27-.52.41l0,0c-.17.15-.32.3-.46.45l0,0a5.22,5.22,0,0,0-.38.47l0,0q-.17.24-.3.48v0a3.51,3.51,0,0,0-.41,1.62c0,1.46.94,2.93,2.86,4a15.43,15.43,0,0,0,14,0C408.88,401.13,409.85,399.66,409.86,398.19Zm-3.7,3.6a13.71,13.71,0,0,1-12.41,0c-3.41-2-3.39-5.21,0-7.19a13.71,13.71,0,0,1,12.41,0C409.61,396.58,409.59,399.81,406.16,401.79Z" style="fill:#fff;opacity:0.30000000000000004"/><path d="M374.07,413a3.92,3.92,0,0,0-.27.33A3.92,3.92,0,0,1,374.07,413Z" style="fill:#455a64"/><path d="M386.27,412.92a4.9,4.9,0,0,0-1.22-1A4.9,4.9,0,0,1,386.27,412.92Z" style="fill:#455a64"/><path d="M375.32,412a5.4,5.4,0,0,0-.47.3A5.4,5.4,0,0,1,375.32,412Z" style="fill:#455a64"/><path d="M373.79,413.3a3.13,3.13,0,0,0-.21.34A3.13,3.13,0,0,1,373.79,413.3Z" style="fill:#455a64"/><path d="M374.41,412.61c-.12.1-.22.21-.32.31C374.19,412.82,374.29,412.71,374.41,412.61Z" style="fill:#455a64"/><path d="M387,414.39a2.93,2.93,0,0,0-.68-1.38A2.93,2.93,0,0,1,387,414.39Z" style="fill:#455a64"/><path d="M374.8,412.3a3.44,3.44,0,0,0-.36.28A3.44,3.44,0,0,1,374.8,412.3Z" style="fill:#455a64"/><path d="M387.05,414.78a2.22,2.22,0,0,0,0-.37A2.22,2.22,0,0,1,387.05,414.78Z" style="fill:#455a64"/><path d="M374.85,412.26l-.05,0Z" style="fill:#455a64"/><path d="M386.34,413l-.07-.09Z" style="fill:#455a64"/><path d="M387,414.41v0Z" style="fill:#455a64"/><path d="M384.5,415a9.57,9.57,0,0,0-8.63,0,4.2,4.2,0,0,0-1.32,1.14c-.94-1.29-.5-2.84,1.32-3.89a9.54,9.54,0,0,1,8.63,0c1.8,1.05,2.22,2.59,1.29,3.87A4,4,0,0,0,384.5,415Z" style="fill:#455a64"/><path d="M384.47,417.28a9.54,9.54,0,0,1-8.63,0,4,4,0,0,1-1.29-1.12,4.2,4.2,0,0,1,1.32-1.14,9.57,9.57,0,0,1,8.63,0,4,4,0,0,1,1.29,1.12A4.32,4.32,0,0,1,384.47,417.28Z" style="fill:#ba68c8"/><path d="M384.47,417.28a9.54,9.54,0,0,1-8.63,0,4,4,0,0,1-1.29-1.12,4.2,4.2,0,0,1,1.32-1.14,9.57,9.57,0,0,1,8.63,0,4,4,0,0,1,1.29,1.12A4.32,4.32,0,0,1,384.47,417.28Z" style="opacity:0.30000000000000004"/><path d="M374.44,412.58l0,0Z" style="fill:#455a64"/><path d="M373.58,413.64h0Z" style="fill:#455a64"/><path d="M373.29,414.78h0a3.4,3.4,0,0,0,2,2.81,10.7,10.7,0,0,0,9.73,0,3.46,3.46,0,0,0,2-2.81h0V427.7h0a3.46,3.46,0,0,1-2,2.82,10.7,10.7,0,0,1-9.73,0,3.4,3.4,0,0,1-2-2.81h0V414.78Z" style="fill:#455a64"/><path d="M373.29,414.78h0a3.4,3.4,0,0,0,2,2.81,10.7,10.7,0,0,0,9.73,0,3.46,3.46,0,0,0,2-2.81h0V427.7h0a3.46,3.46,0,0,1-2,2.82,10.7,10.7,0,0,1-9.73,0,3.4,3.4,0,0,1-2-2.81h0V414.78Z" style="fill:#fff;opacity:0.1"/><path d="M373.8,413.28v0Z" style="fill:#455a64"/><path d="M374.09,412.92l0,0Z" style="fill:#455a64"/><path d="M387.05,414.78a2.22,2.22,0,0,0,0-.37v0a2.93,2.93,0,0,0-.68-1.38l-.07-.09a4.9,4.9,0,0,0-1.22-1,10.7,10.7,0,0,0-9.73,0,5.4,5.4,0,0,0-.47.3l-.05,0a3.44,3.44,0,0,0-.36.28l0,0c-.12.1-.22.21-.32.31l0,0a3.92,3.92,0,0,0-.27.33v0a3.13,3.13,0,0,0-.21.34h0a2.6,2.6,0,0,0-.29,1.13,3.4,3.4,0,0,0,2,2.81,10.7,10.7,0,0,0,9.73,0A3.46,3.46,0,0,0,387.05,414.78Zm-2.58,2.5a9.54,9.54,0,0,1-8.63,0c-2.38-1.38-2.36-3.63,0-5a9.54,9.54,0,0,1,8.63,0C386.87,413.65,386.86,415.9,384.47,417.28Z" style="fill:#455a64"/><path d="M387.05,414.78a2.22,2.22,0,0,0,0-.37v0a2.93,2.93,0,0,0-.68-1.38l-.07-.09a4.9,4.9,0,0,0-1.22-1,10.7,10.7,0,0,0-9.73,0,5.4,5.4,0,0,0-.47.3l-.05,0a3.44,3.44,0,0,0-.36.28l0,0c-.12.1-.22.21-.32.31l0,0a3.92,3.92,0,0,0-.27.33v0a3.13,3.13,0,0,0-.21.34h0a2.6,2.6,0,0,0-.29,1.13,3.4,3.4,0,0,0,2,2.81,10.7,10.7,0,0,0,9.73,0A3.46,3.46,0,0,0,387.05,414.78Zm-2.58,2.5a9.54,9.54,0,0,1-8.63,0c-2.38-1.38-2.36-3.63,0-5a9.54,9.54,0,0,1,8.63,0C386.87,413.65,386.86,415.9,384.47,417.28Z" style="fill:#fff;opacity:0.30000000000000004"/><polygon points="238.19 3.18 226.5 0 37.22 109.28 96.64 396.76 108.34 399.94 297.61 290.66 238.19 3.18" style="fill:#ba68c8"/><polygon points="238.19 3.18 226.5 0 37.22 109.28 96.64 396.76 108.34 399.94 297.61 290.66 238.19 3.18" style="fill:#6320ee;opacity:0.35000000000000003"/><polygon points="37.22 109.28 96.64 396.76 108.34 399.94 48.92 112.45 37.22 109.28" style="opacity:0.1"/><polygon points="238.19 3.18 226.5 0 37.22 109.28 48.92 112.45 238.19 3.18" style="fill:#fff;opacity:0.30000000000000004"/><path d="M168,208.84a3.15,3.15,0,0,0,1.6.37A3.15,3.15,0,0,1,168,208.84Z" style="fill:none"/><path d="M179.91,197.68c.47,2.24,2,3.54,3.66,3.47-1.71.07-3.19-1.23-3.66-3.47l-3.1-15A3,3,0,0,0,176,181a3,3,0,0,1,.85,1.62Z" style="fill:none"/><path d="M190.28,224.3a46,46,0,0,1,.57-9A46,46,0,0,0,190.28,224.3Z" style="fill:none"/><path d="M161.27,193.11a2.17,2.17,0,0,1,.8.13A2.17,2.17,0,0,0,161.27,193.11Z" style="fill:none"/><path d="M177.76,180a5.19,5.19,0,0,1,.58,1.35A5.19,5.19,0,0,0,177.76,180Z" style="fill:none"/><path d="M194.55,197.41a25.53,25.53,0,0,0,.33-5.21A25.53,25.53,0,0,1,194.55,197.41Z" style="fill:none"/><path d="M186.18,200a6,6,0,0,1-.84.61,4.25,4.25,0,0,1-.5.22,4.25,4.25,0,0,0,.5-.22A6,6,0,0,0,186.18,200Z" style="fill:none"/><path d="M186.32,181.73a4.27,4.27,0,0,0,.1.8l.43,2.11-.43-2.11A4.27,4.27,0,0,1,186.32,181.73Z" style="fill:none"/><path d="M194.88,192.1a22.89,22.89,0,0,0-.45-3.66L192.89,181l1.54,7.47A22.89,22.89,0,0,1,194.88,192.1Z" style="fill:none"/><path d="M191.53,177.19a3.34,3.34,0,0,1,.57.78A3.34,3.34,0,0,0,191.53,177.19Z" style="fill:none"/><path d="M163.41,191.36a3.37,3.37,0,0,1,.31.21A3.37,3.37,0,0,0,163.41,191.36Z" style="fill:none"/><path d="M162.06,190.88a3.32,3.32,0,0,1,1.19.38A3.32,3.32,0,0,0,162.06,190.88Z" style="fill:none"/><path d="M171.94,205.76a5.08,5.08,0,0,0,.93-1.91A5.08,5.08,0,0,1,171.94,205.76Z" style="fill:none"/><path d="M173,178.77a4.55,4.55,0,0,1,.89-.39A4.55,4.55,0,0,0,173,178.77Z" style="fill:none"/><path d="M177.09,179.12a4.25,4.25,0,0,1,.51.59A4.25,4.25,0,0,0,177.09,179.12Z" style="fill:none"/><path d="M175.61,178.31a3.28,3.28,0,0,1,1.47.8A3.28,3.28,0,0,0,175.61,178.31Z" style="fill:none"/><path d="M174.34,178.28a3.28,3.28,0,0,1,.43,0A3.28,3.28,0,0,0,174.34,178.28Z" style="fill:none"/><path d="M190.3,224.63q.09,2,.36,3.84Q190.39,226.58,190.3,224.63Z" style="fill:none"/><path d="M162.45,218.3l7.65,8.1a23.8,23.8,0,0,1,4.65,7.38,23.8,23.8,0,0,0-4.65-7.38Z" style="fill:none"/><path d="M156.15,200c-.67-3.24.88-7.09,3.45-8.57a4.09,4.09,0,0,1,1.91-.58,4.09,4.09,0,0,0-1.91.58c-2.57,1.48-4.12,5.33-3.45,8.57l1.95,9.41a19.66,19.66,0,0,0,2.64,6.67,19.66,19.66,0,0,1-2.64-6.67Z" style="fill:none"/><path d="M171,206.62a3.65,3.65,0,0,0,1-.86,3.65,3.65,0,0,1-1,.86,2.38,2.38,0,0,1-1.09.34A2.38,2.38,0,0,0,171,206.62Z" style="fill:none"/><path d="M166,205.74a4.41,4.41,0,0,0,2,3.1,4.41,4.41,0,0,1-2-3.1l-2.11-10.18a3.35,3.35,0,0,0-1-1.84,3.35,3.35,0,0,1,1,1.84Z" style="fill:none"/><polygon points="181.87 265.68 173.02 270.79 183.09 264.98 181.87 265.68" style="fill:none"/><path d="M184.91,198.56a4.85,4.85,0,0,0,2-4.91,4.85,4.85,0,0,1-2,4.91,2.46,2.46,0,0,1-1.09.34A2.46,2.46,0,0,0,184.91,198.56Z" style="fill:none"/><path d="M172.93,201.71l-3.1-15a8.1,8.1,0,0,1,2.34-7.3,8.1,8.1,0,0,0-2.34,7.3l3.1,15a4.84,4.84,0,0,1-.06,2.14A4.84,4.84,0,0,0,172.93,201.71Z" style="fill:none"/><path d="M196.06,187.5a26.6,26.6,0,0,1,.52,5.62,26.6,26.6,0,0,0-.52-5.62l-1.95-9.41a5.31,5.31,0,0,0-1.45-2.81,5.31,5.31,0,0,1,1.45,2.81Z" style="fill:none"/><path d="M192.69,229.91a38.27,38.27,0,0,1-.76-8.15A38.27,38.27,0,0,0,192.69,229.91Z" style="fill:none"/><polygon points="183.5 264.74 183.5 264.74 197.22 256.82 196.51 257.23 183.5 264.74" style="fill:none"/><path d="M188.24,174.9a3.58,3.58,0,0,1,4.4.37,3.58,3.58,0,0,0-4.4-.37c-2.57,1.49-4.12,5.33-3.45,8.57l2.11,10.18-2.11-10.18C184.12,180.23,185.67,176.39,188.24,174.9Z" style="fill:none"/><path d="M198.39,309.77l3-1.75a4.69,4.69,0,0,0,1.93-4.77L195.11,308C195.49,309.8,197,310.6,198.39,309.77Z" style="fill:#455a64"/><path d="M155.8,104.28c.23,1.13,1.15,1.64,2,1.12a3,3,0,0,0,1.2-3l-5.77-27.91c-.23-1.13-1.16-1.63-2.05-1.12a3,3,0,0,0-1.2,3Z" style="fill:#fff"/><path d="M129.88,131.09a1.24,1.24,0,0,0,1.62.21,2.29,2.29,0,0,0,.75-.74,2.73,2.73,0,0,0,0-3.14l-16.08-17.78a1.23,1.23,0,0,0-1.62-.21,2.32,2.32,0,0,0-.76.74,2.76,2.76,0,0,0,0,3.15Z" style="fill:#fff"/><path d="M93.2,166.7l22.09,2.88a1.3,1.3,0,0,0,.87-.19,2.78,2.78,0,0,0,1.2-1.84c.24-1.24-.28-2.34-1.17-2.46L94.1,162.23a1.36,1.36,0,0,0-.87.19,2.76,2.76,0,0,0-1.2,1.83C91.79,165.49,92.31,166.59,93.2,166.7Z" style="fill:#fff"/><path d="M117.15,206.45c-.24-1.13-1.15-1.63-2.05-1.11l-22.17,12.8a3,3,0,0,0-1.21,3c.24,1.14,1.15,1.64,2.06,1.12l22.16-12.8A2.94,2.94,0,0,0,117.15,206.45Z" style="fill:#fff"/><path d="M130.06,236.63a2.32,2.32,0,0,0-.76.74l-16.31,25a2.76,2.76,0,0,0,0,3.15,1.26,1.26,0,0,0,1.63.21,2.27,2.27,0,0,0,.74-.74l16.32-25a2.75,2.75,0,0,0,0-3.14A1.23,1.23,0,0,0,130.06,236.63Z" style="fill:#fff"/><path d="M214.27,112.74A2.17,2.17,0,0,0,215,112l16.31-25a2.73,2.73,0,0,0,0-3.14,1.25,1.25,0,0,0-1.62-.21,2.35,2.35,0,0,0-.76.75l-16.31,25a2.74,2.74,0,0,0,0,3.15A1.23,1.23,0,0,0,214.27,112.74Z" style="fill:#fff"/><path d="M187.27,98.79a1.3,1.3,0,0,0,.87-.19,2.75,2.75,0,0,0,1.2-1.84l6.09-30.58c.25-1.23-.28-2.33-1.18-2.45a1.37,1.37,0,0,0-.87.19,2.74,2.74,0,0,0-1.19,1.84L186.1,96.34C185.85,97.58,186.38,98.68,187.27,98.79Z" style="fill:#fff"/><path d="M251.12,182.66,229,179.78a1.45,1.45,0,0,0-.87.2,2.71,2.71,0,0,0-1.19,1.84c-.25,1.24.28,2.34,1.17,2.45l22.08,2.88a1.37,1.37,0,0,0,.87-.19,2.77,2.77,0,0,0,1.2-1.84C252.54,183.87,252,182.78,251.12,182.66Z" style="fill:#fff"/><path d="M184.62,302.88c1.14,5.51,5.62,7.93,10,5.4l.49-.28,8.23-4.75.5-.29c4.38-2.53,7-9,5.87-14.57Z" style="fill:#455a64"/><path d="M184.62,302.88c1.14,5.51,5.62,7.93,10,5.4l.49-.28,8.23-4.75.5-.29c4.38-2.53,7-9,5.87-14.57Z" style="opacity:0.15"/><path d="M227.18,142.92c.24,1.13,1.16,1.63,2.06,1.11l22.16-12.79a3,3,0,0,0,1.21-3c-.23-1.13-1.16-1.63-2.06-1.11l-22.16,12.8A3,3,0,0,0,227.18,142.92Z" style="fill:#fff"/><polygon points="213.59 283.13 211.76 274.28 209.6 275.52 179.95 292.64 177.79 293.89 179.62 302.74 181.78 301.49 181.78 301.49 211.43 284.37 211.43 284.37 211.43 284.37 213.59 283.13" style="fill:#455a64"/><polygon points="181.78 301.49 181.78 301.49 182.34 304.19 184.62 302.88 209.71 288.39 211.99 287.07 211.43 284.37 211.43 284.37 181.78 301.49" style="fill:#455a64"/><polygon points="179.39 289.94 179.95 292.64 209.6 275.52 209.05 272.82 179.39 289.94 179.39 289.94" style="fill:#455a64"/><polygon points="177.01 278.39 177.56 281.09 207.22 263.97 206.66 261.27 177.01 278.39 177.01 278.39" style="fill:#455a64"/><g style="opacity:0.30000000000000004"><polygon points="181.78 301.49 181.78 301.49 182.34 304.19 184.62 302.88 209.71 288.39 211.99 287.07 211.43 284.37 211.43 284.37 181.78 301.49"/><polygon points="179.39 289.94 179.95 292.64 209.6 275.52 209.05 272.82 179.39 289.94 179.39 289.94"/><polygon points="177.01 278.39 177.56 281.09 207.22 263.97 206.66 261.27 177.01 278.39 177.01 278.39"/></g><polygon points="179.39 289.94 209.05 272.82 209.05 272.82 211.2 271.58 209.37 262.73 207.22 263.97 177.56 281.09 175.4 282.33 177.23 291.19 179.39 289.94 179.39 289.94" style="fill:#455a64"/><path d="M183.5,264.74h0L178,238.36a28.29,28.29,0,0,0-6.76-13.82l-7.66-8.09a16.39,16.39,0,0,1-3.9-8l-1.94-9.41a5.5,5.5,0,0,1,2.24-5.58,2.69,2.69,0,0,1,1.25-.38,2.17,2.17,0,0,1,.8.13,2.21,2.21,0,0,1,.82.48,3.35,3.35,0,0,1,1,1.84L166,205.74a4.41,4.41,0,0,0,2,3.1,3.15,3.15,0,0,0,1.6.37,3.81,3.81,0,0,0,1.76-.54c2.38-1.37,3.81-4.91,3.19-7.9l-3.11-15a4.86,4.86,0,0,1,2-4.92A2,2,0,0,1,176,181a3,3,0,0,1,.85,1.62l3.1,15c.47,2.24,2,3.54,3.66,3.47a3.77,3.77,0,0,0,1.27-.32,4.25,4.25,0,0,0,.5-.22,6,6,0,0,0,.84-.61,8.07,8.07,0,0,0,2.34-7.29l-1.67-8.07-.43-2.11a4.27,4.27,0,0,1-.1-.8,5.43,5.43,0,0,1,2.35-4.78,2.33,2.33,0,0,1,2.86.24,3.34,3.34,0,0,1,.57.78,4.25,4.25,0,0,1,.39,1.06l.4,1.94,1.54,7.47a22.89,22.89,0,0,1,.45,3.66v.1a25.53,25.53,0,0,1-.33,5.21q-.11.66-.24,1.32l-3,14.26c-.16.76-.31,1.53-.43,2.29a46,46,0,0,0-.57,9c0,.11,0,.22,0,.33q.09,2,.36,3.84c.11.8.24,1.6.4,2.38l5.45,26.38.71-.41.92-.53-5.45-26.38a38.27,38.27,0,0,1-.76-8.15,43.71,43.71,0,0,1,1-8.52l3-14.26a29.48,29.48,0,0,0,.66-5.86,26.6,26.6,0,0,0-.52-5.62l-1.95-9.41a5.31,5.31,0,0,0-1.45-2.81h0a3.58,3.58,0,0,0-4.4-.37c-2.57,1.49-4.12,5.33-3.45,8.57l2.11,10.18a4.85,4.85,0,0,1-2,4.91,2.46,2.46,0,0,1-1.09.34,2.18,2.18,0,0,1-2.08-1.51,3.27,3.27,0,0,1-.19-.65l-3.11-15c0-.14-.07-.27-.1-.4a5.19,5.19,0,0,0-.58-1.35l-.16-.25a4.25,4.25,0,0,0-.51-.59h0a3.28,3.28,0,0,0-1.47-.8,2.9,2.9,0,0,0-.41-.06,2,2,0,0,0-.43,0,3.28,3.28,0,0,0-.43,0l-.44.1a4.55,4.55,0,0,0-.89.39,6.2,6.2,0,0,0-.84.61,8.1,8.1,0,0,0-2.34,7.3l3.1,15a4.84,4.84,0,0,1-.06,2.14,5.08,5.08,0,0,1-.93,1.91,3.65,3.65,0,0,1-1,.86,2.19,2.19,0,0,1-3.37-1.82l-2.1-10.18a5,5,0,0,0-1.76-3.05,3.37,3.37,0,0,0-.31-.21l-.16-.1a3.32,3.32,0,0,0-1.19-.38,3.37,3.37,0,0,0-.55,0,4.09,4.09,0,0,0-1.91.58c-2.57,1.48-4.12,5.33-3.45,8.57l1.95,9.41a19.66,19.66,0,0,0,2.64,6.67,14.62,14.62,0,0,0,.95,1.34c.24.3.5.6.76.87l7.65,8.1a23.8,23.8,0,0,1,4.65,7.38,32.27,32.27,0,0,1,1.67,5.52l5.45,26.38,1.22-.7Z" style="fill:#fff"/><polygon points="198.14 256.29 197.22 256.82 183.5 264.74 183.09 264.98 173.02 270.79 174.85 279.63 177.01 278.39 177.01 278.39 206.66 261.27 206.66 261.27 208.81 260.02 206.98 251.18 198.14 256.29 198.14 256.29" style="fill:#455a64"/><path d="M191.06,230.85c-.16-.78-.29-1.58-.4-2.38q-.27-1.89-.36-3.84c0-.11,0-.22,0-.33a46,46,0,0,1,.57-9c.12-.76.27-1.53.43-2.29l3-14.26q.13-.66.24-1.32a25.53,25.53,0,0,0,.33-5.21v-.1a22.89,22.89,0,0,0-.45-3.66L192.89,181l-.4-1.94a4.25,4.25,0,0,0-.39-1.06,3.34,3.34,0,0,0-.57-.78,2.33,2.33,0,0,0-2.86-.24,5.43,5.43,0,0,0-2.35,4.78,4.27,4.27,0,0,0,.1.8l.43,2.11,1.67,8.07a8.07,8.07,0,0,1-2.34,7.29,6,6,0,0,1-.84.61,4.25,4.25,0,0,1-.5.22,3.77,3.77,0,0,1-1.27.32c-1.71.07-3.19-1.23-3.66-3.47l-3.1-15A3,3,0,0,0,176,181a2,2,0,0,0-2.52-.21,4.86,4.86,0,0,0-2,4.92l3.11,15c.62,3-.81,6.53-3.19,7.9a3.81,3.81,0,0,1-1.76.54,3.15,3.15,0,0,1-1.6-.37,4.41,4.41,0,0,1-2-3.1l-2.11-10.18a3.35,3.35,0,0,0-1-1.84,2.21,2.21,0,0,0-.82-.48,2.17,2.17,0,0,0-.8-.13,2.69,2.69,0,0,0-1.25.38,5.5,5.5,0,0,0-2.24,5.58l1.94,9.41a16.39,16.39,0,0,0,3.9,8l7.66,8.09A28.29,28.29,0,0,1,178,238.36l5.46,26.38h0l13-7.51Z" style="fill:#6320ee;opacity:0.68"/><path d="M159.19,111.93l-.75.44c-26.12,15.63-42.19,54.82-36.19,88.31C125.64,219.61,135.2,233,147.57,239c6.5,3.18,11.59,9.48,14.09,18.1l.16.56c1.93,6.61,6,11.36,11.2,13.09l8.85-5.11-5.45-26.38a32.27,32.27,0,0,0-1.67-5.52,23.8,23.8,0,0,0-4.65-7.38l-7.65-8.1c-.26-.27-.52-.57-.76-.87a14.62,14.62,0,0,1-.95-1.34,19.66,19.66,0,0,1-2.64-6.67L156.15,200c-.67-3.24.88-7.09,3.45-8.57a4.09,4.09,0,0,1,1.91-.58,3.37,3.37,0,0,1,.55,0,3.32,3.32,0,0,1,1.19.38l.16.1a3.37,3.37,0,0,1,.31.21,5,5,0,0,1,1.76,3.05l2.1,10.18a2.19,2.19,0,0,0,3.37,1.82,3.65,3.65,0,0,0,1-.86,5.08,5.08,0,0,0,.93-1.91,4.84,4.84,0,0,0,.06-2.14l-3.1-15a8.1,8.1,0,0,1,2.34-7.3,6.2,6.2,0,0,1,.84-.61,4.55,4.55,0,0,1,.89-.39l.44-.1a3.28,3.28,0,0,1,.43,0,2,2,0,0,1,.43,0,2.9,2.9,0,0,1,.41.06,3.28,3.28,0,0,1,1.47.8h0a4.25,4.25,0,0,1,.51.59l.16.25a5.19,5.19,0,0,1,.58,1.35c0,.13.07.26.1.4l3.11,15a3.27,3.27,0,0,0,.19.65,2.18,2.18,0,0,0,2.08,1.51,2.46,2.46,0,0,0,1.09-.34,4.85,4.85,0,0,0,2-4.91l-2.11-10.18c-.67-3.24.88-7.08,3.45-8.57a3.58,3.58,0,0,1,4.4.37h0a5.31,5.31,0,0,1,1.45,2.81l1.95,9.41a26.6,26.6,0,0,1,.52,5.62,29.48,29.48,0,0,1-.66,5.86l-3,14.26a43.71,43.71,0,0,0-1,8.52,38.27,38.27,0,0,0,.76,8.15l5.45,26.38h0l8.84-5.11a38.06,38.06,0,0,0,4-21.85l-.08-.61a54.54,54.54,0,0,1,4.18-28.25c7.41-17,10.15-36.79,6.42-54.84C214.38,111.26,186.49,96.17,159.19,111.93Z" style="fill:#6320ee;opacity:0.68"/><path d="M89,248.54a3.9,3.9,0,0,0-4.34.18A4.39,4.39,0,0,0,83,252.8a3.82,3.82,0,0,0,1.52,2.57,2.79,2.79,0,0,0,2.9.2,1.61,1.61,0,0,1-1.42-.7,1.43,1.43,0,0,1,0-1.49c.49-.83,1.63-.94,2.44-1.47C89.45,251.21,90,249.24,89,248.54Z" style="fill:#37474f"/><path d="M89.13,250.16a1.1,1.1,0,0,1-.87-2l13.61-6.34,1.19,2.72Z" style="fill:#fff"/><path d="M143.85,225.19h0a.69.69,0,0,0-.89-.36l-42.18,17a1.89,1.89,0,0,0-1,2.5h0a1.88,1.88,0,0,0,2.52,1l41.23-19.22A.69.69,0,0,0,143.85,225.19Z" style="fill:#455a64"/><path d="M83.45,253.22a.56.56,0,0,0,.59-.13c.2-.25.08-.68.31-.9a.69.69,0,0,1,.72,0,1.13,1.13,0,0,0,.74.1c.27-.1.38-.4.54-.64a1,1,0,0,1,.91-.51.68.68,0,0,1,.66.72.74.74,0,0,1-.29.47A3.17,3.17,0,0,0,86,253.38a1.43,1.43,0,0,0,0,1.49,1.61,1.61,0,0,0,1.42.7,2.79,2.79,0,0,1-2.9-.2,3.75,3.75,0,0,1-1.5-2.51A1.06,1.06,0,0,0,83.45,253.22Z" style="fill:#ba68c8"/><path d="M176.67,242.31l16.54,37.51-5.87,6.44.43,15.4,16.66-14.46a9,9,0,0,0,2.21-10.7l-13.39-27.83a11.42,11.42,0,0,0-10.52-6.47Z" style="fill:#ebebeb"/><path d="M196.58,284.42s-2.64-2.19-3.37-4.6l-1.46,1.6A7.45,7.45,0,0,0,196.58,284.42Z" style="opacity:0.30000000000000004"/><path d="M161,437.59c-.71,2.23-3.16,3.5-5.49,3.69s-4.64-.47-6.94-.89c-5.16-.93-10.14,0-15.28-.13a21.77,21.77,0,0,1-5-.54,8.34,8.34,0,0,1-4.29-2.53,5.72,5.72,0,0,1-1.24-2.7,5.3,5.3,0,0,0,1.24,4.2,8.28,8.28,0,0,0,4.29,2.54,22.34,22.34,0,0,0,5,.54c5.14.12,10.12-.8,15.28.13,2.3.42,4.6,1.07,6.94.89s4.78-1.46,5.49-3.7a5.91,5.91,0,0,0,.18-2.37A5.38,5.38,0,0,1,161,437.59Z" style="fill:#263238"/><path d="M160.86,433.31c-.32-1.56-.64-3.12-1-4.69a7.05,7.05,0,0,0-.8-2.38,2.34,2.34,0,0,0-2.08-1.19c-2.83-.38-6.8-1.4-9.15.21a21,21,0,0,1-12.63,3.67c-2.33-.08-4.67-.56-7-.28s-4.73,1.58-5.42,3.81a4.5,4.5,0,0,0-.12,2,5.72,5.72,0,0,0,1.24,2.7,8.34,8.34,0,0,0,4.29,2.53,21.77,21.77,0,0,0,5,.54c5.14.12,10.12-.8,15.28.13,2.3.42,4.6,1.08,6.94.89s4.78-1.46,5.49-3.69a5.38,5.38,0,0,0,.18-.87A11.28,11.28,0,0,0,160.86,433.31Z" style="fill:#37474f"/><path d="M147.2,420.36l-.2,6.1a2.41,2.41,0,0,0,2.24,2.5,38.17,38.17,0,0,0,6.15-.06,3.47,3.47,0,0,0,3.15-3.27l.24-4.51Z" style="fill:#ffc3a7"/><path d="M187.06,417.11a4.1,4.1,0,0,1-3.7,4.14,7.28,7.28,0,0,1-7.15-2.94c-.77-1.11-1.2-2.42-1.93-3.56a16.17,16.17,0,0,0-4-3.9,16.9,16.9,0,0,1-4-3.87,5.69,5.69,0,0,1-.77-5.17,5.26,5.26,0,0,0-.38.65,5.88,5.88,0,0,0,.72,5.5,17.21,17.21,0,0,0,4.13,4,16.8,16.8,0,0,1,4.09,4c.74,1.18,1.19,2.53,2,3.67a7.41,7.41,0,0,0,7.3,3,4.69,4.69,0,0,0,2.94-1.68,5.72,5.72,0,0,0,.85-3.5C187.08,417.37,187.07,417.24,187.06,417.11Z" style="fill:#263238"/><path d="M185.21,409.44c-1.86-3.25-5.68-5.62-8.64-7.92a11.06,11.06,0,0,0-5.72-2.6,5.38,5.38,0,0,0-5.33,2.72,1.77,1.77,0,0,0-.06.17,5.69,5.69,0,0,0,.77,5.17,16.9,16.9,0,0,0,4,3.87,16.17,16.17,0,0,1,4,3.9c.73,1.14,1.16,2.45,1.93,3.56a7.28,7.28,0,0,0,7.15,2.94,4.1,4.1,0,0,0,3.7-4.14,8.68,8.68,0,0,0,0-.88A14.45,14.45,0,0,0,185.21,409.44Z" style="fill:#37474f"/><path d="M177.16,406.62v5.55a9.31,9.31,0,0,0,8.64-.38l.52-5Z" style="fill:#ffc3a7"/><path d="M187.77,306c1.67,5-.38,28.72-1.35,51.46,3.61,8.61,2.63,33,.55,50.36,0,0-3.6,2.22-10.12,0l-8.19-47.86-1.13-27.05s-2.06,24-4.41,39.4c2.21,11.79,1.66,14-3.82,50.27a13.67,13.67,0,0,1-12.28,0c-3.09-50.95-2-97.38-1.37-114.08Z" style="fill:#455a64"/><path d="M168.22,349.33l-.93-22.06c5.71,0,11-4.26,15-8.3-3.87,6.89-11.36,9.94-11.36,9.94Z" style="opacity:0.30000000000000004"/><path d="M144.78,266.6v43.2c25.44,10.66,41.93,1,44.16-4-1.17-17.58,3-38.16,2.67-46.9s-1.39-18.58-14.94-16.61l-14.42,1.41-7.31,1.78Z" style="fill:#fff"/><path d="M176.67,235.41a3.84,3.84,0,0,0,2.81-1,2.75,2.75,0,0,0,.67-2.41,2.67,2.67,0,0,0,1.94-1.57,3,3,0,0,0-.46-2.64,4.41,4.41,0,0,0,2.87-2.34,4.68,4.68,0,0,0,.13-3.79,4.12,4.12,0,0,0,2.88-2.8,4.48,4.48,0,0,0-.82-4.11,5.52,5.52,0,0,0,.65-5.51,5.83,5.83,0,0,0-4.74-3.2,5.7,5.7,0,0,0-1.86-5.11,5.52,5.52,0,0,0-5.24-1,5,5,0,0,0-8.39-1.44,3.88,3.88,0,0,0-3.4-1.25,4,4,0,0,0-3.07,2,5.14,5.14,0,0,0-7.27,4.93,3,3,0,0,0-2.18,3,3.22,3.22,0,0,0,2.51,2.89,71.92,71.92,0,0,0,6.76,19.8c1.42,2.77,3.18,5.59,5.95,7C169.4,238.49,174.1,237.6,176.67,235.41Z" style="fill:#455a64"/><polygon points="152.67 219.13 149.69 224.32 152.95 225.53 152.67 219.13" style="fill:#e6a181"/><path d="M153.7,210.1a48.34,48.34,0,0,0-.86,22.05,7.48,7.48,0,0,0,1.37,3.48,5.49,5.49,0,0,0,3.79,1.75,16.44,16.44,0,0,0,4.25-.41v6.75c5.13,1.21,10.4,1.69,14.42-1.41v-6.9a18.38,18.38,0,0,1-8.95.55c-3.54-1.9-4.25-8.37-3.75-10.08a2.67,2.67,0,0,0,2.77,1A3.73,3.73,0,0,0,169,225a7.53,7.53,0,0,0,.86-2.87,5.18,5.18,0,0,0-.53-3.56,3.7,3.7,0,0,0-4-1.35,5.72,5.72,0,0,0-3.38,2.82,8.82,8.82,0,0,0-.59,1.29.8.8,0,0,1-1.55-.2,10.7,10.7,0,0,1,1-5.65,3.9,3.9,0,0,1-2.89-1.77,3.67,3.67,0,0,1-.56-3.24A10.77,10.77,0,0,1,153.7,210.1Z" style="fill:#ffc3a7"/><path d="M104,259.63a181.85,181.85,0,0,0,19.86,25.53,4.88,4.88,0,0,0,6.18.65c10.09-6.65,18.43-17.93,18.43-17.93l-10.94-7.52-9.47,12.3-17.9-17.61L109,245.26a2.43,2.43,0,0,0-1.43-1.92l-5.05-2.18a2.36,2.36,0,0,0-1.88,0l-2.94,1.23a1.29,1.29,0,0,0-.55,1.95h0a1.31,1.31,0,0,0,1.41.48l1.45-.43-3.42,2.54a2.71,2.71,0,0,0-1.09,2.17v1.75a2.7,2.7,0,0,0,1.2,2.25l.42.27a1.38,1.38,0,0,0,2-.48h0C99.71,256.56,104,259.63,104,259.63Z" style="fill:#ffc3a7"/><path d="M100,244.37l.92-.61a1.47,1.47,0,0,1,1.1-.21l4.17.82-3.9-1.34a1.46,1.46,0,0,0-1.66.51Z" style="fill:#e6a181"/><path d="M99.07,252.87c-.38-1.37-.6-3.21,0-3.89l-1.7.94.19,1.75Z" style="fill:#e6a181"/><path d="M120,262.76a2.24,2.24,0,0,1,2.07.55l2.51,2.4a2.19,2.19,0,0,1,.66,1.91l0,.23-.72-.69c-8.93,2.84-8,11.77-8,11.77l1.26,1.61a2.24,2.24,0,0,1-2.11-.81l-3.12-3.94a2.14,2.14,0,0,1-.47-1.46C112.22,271.81,113.18,264.47,120,262.76Z" style="fill:#fff"/><path d="M120,262.76a2.24,2.24,0,0,1,2.07.55l2.51,2.4a2.19,2.19,0,0,1,.66,1.91l0,.23-.72-.69c-8.93,2.84-8,11.77-8,11.77l1.26,1.61a2.24,2.24,0,0,1-2.11-.81l-3.12-3.94a2.14,2.14,0,0,1-.47-1.46C112.22,271.81,113.18,264.47,120,262.76Z" style="fill:#fff"/><path d="M124.49,267.16l.72.69,3,2.85,1.06-1.64,12.21-15.9a20.17,20.17,0,0,1,13.6-7.75l1.63-.2S160,258.93,153,266.57l-13.41,14.19a53.11,53.11,0,0,1-9,6.91,6.26,6.26,0,0,1-8.32-1.4l-5.77-7.34S115.56,270,124.49,267.16Z" style="fill:#fff"/><path d="M124.49,267.16l.72.69,3,2.85,1.06-1.64,12.21-15.9a20.17,20.17,0,0,1,13.6-7.75l1.63-.2S160,258.93,153,266.57l-13.41,14.19a53.11,53.11,0,0,1-9,6.91,6.26,6.26,0,0,1-8.32-1.4l-5.77-7.34S115.56,270,124.49,267.16Z" style="fill:#ebebeb"/><path d="M324.28,375.52a44,44,0,0,0,5.37,3.12l-5.75,7a31.61,31.61,0,0,0-4.88-2.29C319.5,378.09,324.28,375.52,324.28,375.52Z" style="fill:#9c5857"/><path d="M331.62,393.54c0-7,4.85-10.53,7.07-9.39L337.45,383a6.58,6.58,0,0,0-4.28,1.88,10.67,10.67,0,0,0-2.8,6,47.6,47.6,0,0,0-.3,6.76c0,2.25.05,5-.77,7.09a13.46,13.46,0,0,1-11-2.93,6,6,0,0,0-.08,1.74,12.69,12.69,0,0,0,11.6,2.7C332.48,403.87,331.62,399.52,331.62,393.54Z" style="fill:#f5f5f5"/><path d="M338.69,384.15c-2.22-1.14-7.07,2.35-7.07,9.39,0,6,.86,10.33-1.8,12.69l.22-.05c2.44-.77,4.55-2.27,6.8-3.51a3,3,0,0,0,1.56-2.85,23.6,23.6,0,0,1,.4-6.83c.34-1.53,1-3,1.19-4.54A4.68,4.68,0,0,0,338.69,384.15Z" style="fill:#455a64"/><path d="M338.69,384.15c-2.22-1.14-7.07,2.35-7.07,9.39,0,6,.86,10.33-1.8,12.69l.22-.05c2.44-.77,4.55-2.27,6.8-3.51a3,3,0,0,0,1.56-2.85,23.6,23.6,0,0,1,.4-6.83c.34-1.53,1-3,1.19-4.54A4.68,4.68,0,0,0,338.69,384.15Z" style="opacity:0.30000000000000004"/><path d="M338.69,384.15c-2.22-1.14-7.07,2.35-7.07,9.39,0,6,.86,10.33-1.8,12.69l.22-.05c2.44-.77,4.55-2.27,6.8-3.51a3,3,0,0,0,1.56-2.85,23.6,23.6,0,0,1,.4-6.83c.34-1.53,1-3,1.19-4.54A4.68,4.68,0,0,0,338.69,384.15Z" style="fill:#fff;opacity:0.2"/><path d="M329.82,378c-3.91,1-5.59,4.18-7,7.74,1.44.8,2.77,1.27,3.3,2.82l-.09,1.25a3.16,3.16,0,0,0,.26.52c.13.19.28.36.39.56a1,1,0,0,1,.14.66.57.57,0,0,1-.42.48.62.62,0,0,1-.52-.22l-.08,1.09a3.8,3.8,0,0,0,.31.6c.12.19.27.36.38.56a1.09,1.09,0,0,1,.15.66.58.58,0,0,1-.43.48.62.62,0,0,1-.56-.26l-.15,2c-2.49,1.83-3.08,5-3.15,7.18a12.58,12.58,0,0,0,6.94.62c.82-2.1.74-4.84.77-7.09a47.6,47.6,0,0,1,.3-6.76,10.67,10.67,0,0,1,2.8-6,6.58,6.58,0,0,1,4.28-1.88A34.53,34.53,0,0,0,329.82,378Z" style="fill:#37474f"/><path d="M326.83,391.53a1,1,0,0,0-.14-.66c-.11-.2-.26-.37-.39-.56a3.16,3.16,0,0,1-.26-.52l-.15,2a.62.62,0,0,0,.52.22A.57.57,0,0,0,326.83,391.53Z" style="fill:#fff"/><path d="M326.65,394.7a1.09,1.09,0,0,0-.15-.66c-.11-.2-.26-.37-.38-.56a3.8,3.8,0,0,1-.31-.6l-.15,2a.62.62,0,0,0,.56.26A.58.58,0,0,0,326.65,394.7Z" style="fill:#fff"/><path d="M325.51,396.92a6.17,6.17,0,0,0-5.32,1.49,6.09,6.09,0,0,0-1.89,3.38,13.77,13.77,0,0,0,4.06,2.31C322.43,401.88,323,398.75,325.51,396.92Z" style="fill:#fff"/><path d="M256.36,392.35c-.62,1.29-2.55,2.47-4.67,2.82a21.32,21.32,0,0,1-6.41-.41,42.56,42.56,0,0,0-9.57-.24,49.44,49.44,0,0,1-6,.42,9.4,9.4,0,0,1-5.6-1.77,5.75,5.75,0,0,1-2.1-3.57,5.4,5.4,0,0,0,2.1,4.82,9.47,9.47,0,0,0,5.6,1.77,49.45,49.45,0,0,0,6-.43,42.56,42.56,0,0,1,9.57.25c2.13.29,4.43.91,6.56.56s4.06-1.54,4.67-2.82Z" style="fill:#f5f5f5"/><path d="M233.14,388.57c1.78,0,1.13-2.64,2.82-4.41-.69,0-1.38,0-2.07,0C232.36,386.41,231.93,388.57,233.14,388.57Z" style="fill:#fff"/><path d="M236.84,388.43c1.8,0,1.33-3.15,3.09-5-.4.13-.81.26-1.22.35s-.71.14-1.06.19C236.08,386.22,235.62,388.43,236.84,388.43Z" style="fill:#fff"/><path d="M254.51,382.4a2.42,2.42,0,0,0-.93-1.46l-9.64-.24a8.3,8.3,0,0,1-4,2.75c-1.76,1.83-1.29,5-3.09,5-1.22,0-.76-2.21.81-4.44-.56.08-1.12.14-1.69.17-1.69,1.77-1,4.41-2.82,4.41-1.21,0-.78-2.16.75-4.36l-1.36,0c-.4,0-.82,0-1.23-.06-3.55,2.8-3.85,5.84-3.39,10.62a12.75,12.75,0,0,0,1.85.19,49.44,49.44,0,0,0,6-.42,42.56,42.56,0,0,1,9.57.24,21.32,21.32,0,0,0,6.41.41c2.12-.35,4.05-1.53,4.67-2.82Z" style="fill:#455a64"/><path d="M231.3,384.13a15,15,0,0,0-4.82,0,5.71,5.71,0,0,0-4.34,3.77,4.25,4.25,0,0,0-.08,1.7,5.75,5.75,0,0,0,2.1,3.57,8.35,8.35,0,0,0,3.75,1.58C227.45,390,227.75,386.93,231.3,384.13Z" style="fill:#fff"/><path d="M243.66,378v4.65a1.92,1.92,0,0,0,1.91,1.91h4.86a3.13,3.13,0,0,0,3.13-3l.12-3.53Z" style="fill:#9c5857"/><path d="M279.81,300.05a56.91,56.91,0,0,0-.62,6.51l-28.59,8a19.59,19.59,0,0,0-14,22.3c2.75,15.46,6.25,36.4,6,42,4.2,3.19,11.82,0,11.82,0,.69-17.31,4.18-27.3,2.16-41.41l30.94-6.21-6.18,22.32a14.66,14.66,0,0,0,8.23,17.32l30.21,13.24a8.43,8.43,0,0,1,5.82-8c-9.69-8.72-13.57-15.79-23.82-18.28,0,0,9.83-21.6,16.2-32.54s3.15-21.77-1.19-29.44Z" style="fill:#ba68c8"/><path d="M279.81,300.05a56.91,56.91,0,0,0-.62,6.51l-28.59,8a19.59,19.59,0,0,0-14,22.3c2.75,15.46,6.25,36.4,6,42,4.2,3.19,11.82,0,11.82,0,.69-17.31,4.18-27.3,2.16-41.41l30.94-6.21-6.18,22.32a14.66,14.66,0,0,0,8.23,17.32l30.21,13.24a8.43,8.43,0,0,1,5.82-8c-9.69-8.72-13.57-15.79-23.82-18.28,0,0,9.83-21.6,16.2-32.54s3.15-21.77-1.19-29.44Z" style="fill:#6320ee"/><path d="M316.82,295.85a5.13,5.13,0,0,1-.55-2L316,289l-34.78,2.23c-.46,2.44-.92,5.43-1.38,8.81A51.74,51.74,0,0,0,316.82,295.85Z" style="fill:#9c5857"/><path d="M294.29,250.78,285,252.61c-2.05,3.77-4.15,7.3-6.21,11.06-1.55,2.84-3.14,5.85-3,9.08a9.22,9.22,0,0,0,5.57,8l-1.07,12.71c14.61,4.46,32.47.54,36.39-2.84,1.16-5.33,2.18-11,3.33-16.32a54.84,54.84,0,0,0,1.58-10.48,18.46,18.46,0,0,0-2.46-10.18l-.06-.09a11.35,11.35,0,0,0-11.42-4.9Z" style="fill:#ba68c8"/><path d="M294.29,250.78,285,252.61c-2.05,3.77-4.15,7.3-6.21,11.06-1.55,2.84-3.14,5.85-3,9.08a9.22,9.22,0,0,0,5.57,8l-1.07,12.71c14.61,4.46,32.47.54,36.39-2.84,1.16-5.33,2.18-11,3.33-16.32a54.84,54.84,0,0,0,1.58-10.48,18.46,18.46,0,0,0-2.46-10.18l-.06-.09a11.35,11.35,0,0,0-11.42-4.9Z" style="fill:#6320ee"/><polygon points="281.48 228.48 278.61 233.48 281.76 234.64 281.48 228.48" style="fill:#783130"/><path d="M281.16,226.26c.46-4.38,1.74-8.51,4.59-10.61A23.71,23.71,0,0,0,289,231.33a6.9,6.9,0,0,1,2.12-3.76,4,4,0,0,1,4.08-.87,4,4,0,0,1,2.06,2.24,5.31,5.31,0,0,1-6.65,7,10.2,10.2,0,0,0,7.85,8,13.18,13.18,0,0,0,7.62-.72l1.19,5.9c-4.81,5.13-13,1.68-13,1.68L293.21,245c-9.46.57-10.34.41-11.38-4.8A51.16,51.16,0,0,1,281.16,226.26Z" style="fill:#9c5857"/><path d="M294.16,207.91c-4.48-1.6-9.78.82-12.23,4.9s-2.31,9.35-.47,13.74a15.92,15.92,0,0,1,4.29-10.9c-.89,6.71-.11,11.59,3.29,15.68a4.91,4.91,0,0,1,1.15,3.13c0,1.12-.27,2.24-.19,3.36.16,2.37,1.75,4.35,3.25,6.18s3.05,3.87,3.1,6.23c.08,3.92-1.12,8.07-1.35,12a18.16,18.16,0,0,0,2.66,11.23,14.82,14.82,0,0,0,14.74,5.91A17.21,17.21,0,0,0,324.77,269a20.58,20.58,0,0,0-.61-16.33c-2-4.25-5.27-7.8-7.18-12.09-2.12-4.74-2.44-10.06-3.05-15.22s-1.68-10.52-4.93-14.57S298.67,205.33,294.16,207.91Z" style="fill:#263238"/><path d="M195.89,228a4.73,4.73,0,0,0-5.24-.64,5.32,5.32,0,0,0-2.77,4.59,4.67,4.67,0,0,0,1.31,3.39,3.44,3.44,0,0,0,3.46.81,2,2,0,0,1-1.58-1.13,1.78,1.78,0,0,1,.26-1.8c.76-.9,2.15-.8,3.23-1.28C196,231.28,197,229,195.89,228Z" style="fill:#37474f"/><path d="M195.79,230a1.33,1.33,0,0,1-.65-2.58l17.62-4.94.89,3.51Z" style="fill:#e0e0e0"/><path d="M266.51,210.74h0a.83.83,0,0,0-1-.61l-54.08,12.14a2.29,2.29,0,0,0-1.72,2.79h0a2.3,2.3,0,0,0,2.84,1.65l53.37-15A.84.84,0,0,0,266.51,210.74Z" style="fill:#455a64"/><path d="M188.35,232.5a.66.66,0,0,0,.74,0c.3-.26.23-.8.55-1a.86.86,0,0,1,.88.09,1.29,1.29,0,0,0,.87.27c.34-.07.53-.41.77-.66a1.29,1.29,0,0,1,1.2-.44.86.86,0,0,1,.66,1,1,1,0,0,1-.45.51,3.83,3.83,0,0,0-2.24,1,1.78,1.78,0,0,0-.26,1.8,2,2,0,0,0,1.58,1.13,3.44,3.44,0,0,1-3.46-.81,4.59,4.59,0,0,1-1.3-3.33A1.23,1.23,0,0,0,188.35,232.5Z" style="fill:#ba68c8"/><path d="M283.31,251.79c-5.4.38-12.18.94-18.87.81A75.93,75.93,0,0,1,250,251s-11.29-14.7-14.6-20.51l-1.18-9.79a2.41,2.41,0,0,0-1.43-1.92l-5-2.19a2.43,2.43,0,0,0-1.89,0l-2.94,1.23a1.29,1.29,0,0,0,.86,2.43l1.45-.43-3.42,2.54a2.71,2.71,0,0,0-1.09,2.17v1.75a2.69,2.69,0,0,0,1.21,2.25l.41.27a1.38,1.38,0,0,0,2-.48c.55,3.15,3.74,5.84,4.66,6.56L237.17,256a14.88,14.88,0,0,0,11.33,9.31l13.1,2.29,17.33,3a11.6,11.6,0,0,0,12.95-8.32l0-.17A8.29,8.29,0,0,0,283.31,251.79Z" style="fill:#9c5857"/><path d="M225.24,219.82l.92-.61a1.47,1.47,0,0,1,1.1-.22l4.17.83-3.9-1.35a1.48,1.48,0,0,0-1.66.51Z" style="fill:#783130"/><path d="M224.33,228.32c-.38-1.37-.6-3.21,0-3.89l-1.7.94.19,1.75Z" style="fill:#783130"/><path d="M311.32,320.72c-4.91,6.39-13.94,8.86-23.77,10.54l-1.19,4.29C289.57,334.85,304.66,331.09,311.32,320.72Z" style="opacity:0.30000000000000004"/><path d="M188.35,232.5a.66.66,0,0,0,.74,0c.3-.26.23-.8.55-1a.86.86,0,0,1,.88.09,1.29,1.29,0,0,0,.87.27c.34-.07.53-.41.77-.66a1.29,1.29,0,0,1,1.2-.44.86.86,0,0,1,.66,1,1,1,0,0,1-.45.51,3.83,3.83,0,0,0-2.24,1,1.78,1.78,0,0,0-.26,1.8,2,2,0,0,0,1.58,1.13,3.44,3.44,0,0,1-3.46-.81,4.59,4.59,0,0,1-1.3-3.33A1.23,1.23,0,0,0,188.35,232.5Z" style="opacity:0.1"/><path d="M247.87,163.7a15.42,15.42,0,0,0-17.15-1.21,17.31,17.31,0,0,0-8.21,15.37,15,15,0,0,0,4.84,10.78,11.09,11.09,0,0,0,11.34,2.07,6.48,6.48,0,0,1-5.3-3.41,5.72,5.72,0,0,1,.54-5.88c2.3-3,6.85-3,10.26-4.71C248.66,174.44,251.73,166.9,247.87,163.7Z" style="fill:#455a64"/><path d="M247.86,170.13a4.33,4.33,0,0,1-2.54-8.27l56.42-19,3.47,11.26Z" style="fill:#e0e0e0"/><path d="M474.35,95.9h0A2.7,2.7,0,0,0,471,94.08L297.41,142.57a7.45,7.45,0,0,0-5.11,9.36h0a7.44,7.44,0,0,0,9.49,4.86L472.63,99.27A2.71,2.71,0,0,0,474.35,95.9Z" style="fill:#455a64"/><path d="M474.35,95.9a2.33,2.33,0,0,0-.39-.77,2.72,2.72,0,0,1-1.86,2.44l-171.51,55.5A7.44,7.44,0,0,1,292,149.9a7.22,7.22,0,0,0,.32,2,7.44,7.44,0,0,0,9.49,4.86L472.63,99.27A2.71,2.71,0,0,0,474.35,95.9Z" style="opacity:0.30000000000000004"/><path d="M224.15,179.68a2.13,2.13,0,0,0,2.39-.24c.91-.9.6-2.62,1.6-3.4.8-.62,2-.3,2.87.15a4.34,4.34,0,0,0,2.87.74c1.09-.28,1.66-1.43,2.39-2.29A4.29,4.29,0,0,1,240.1,173a2.78,2.78,0,0,1,2.3,3.14,3,3,0,0,1-1.35,1.72c-2.7.79-5.48,1.38-7.12,3.55a5.72,5.72,0,0,0-.54,5.88,6.48,6.48,0,0,0,5.3,3.41,11.09,11.09,0,0,1-11.34-2.07,15,15,0,0,1-4.82-10.57A4.25,4.25,0,0,0,224.15,179.68Z" style="fill:#ba68c8"/><path d="M224.15,179.68a2.13,2.13,0,0,0,2.39-.24c.91-.9.6-2.62,1.6-3.4.8-.62,2-.3,2.87.15a4.34,4.34,0,0,0,2.87.74c1.09-.28,1.66-1.43,2.39-2.29A4.29,4.29,0,0,1,240.1,173a2.78,2.78,0,0,1,2.3,3.14,3,3,0,0,1-1.35,1.72c-2.7.79-5.48,1.38-7.12,3.55a5.72,5.72,0,0,0-.54,5.88,6.48,6.48,0,0,0,5.3,3.41,11.09,11.09,0,0,1-11.34-2.07,15,15,0,0,1-4.82-10.57A4.25,4.25,0,0,0,224.15,179.68Z" style="opacity:0.1"/><path d="M404.36,282.33c7.27-1.37,10.42-7.87,10.42-7.87C405.82,270.25,404.36,282.33,404.36,282.33Z" style="fill:#37474f"/><path d="M406,279.16l4.61,7.29,7.09-4.93-3.35-7.62C408.91,273.9,406,279.16,406,279.16Z" style="fill:#ffa8a7"/><path d="M416.94,295c0-6.23,4.3-9.32,6.26-8.31l-1.1-1.06a5.83,5.83,0,0,0-3.79,1.67,9.47,9.47,0,0,0-2.48,5.34,42.76,42.76,0,0,0-.26,6c0,2,0,4.42-.68,6.28a11.92,11.92,0,0,1-9.75-2.6,5,5,0,0,0-.07,1.55,11.23,11.23,0,0,0,10.27,2.39C417.7,304.11,416.94,300.25,416.94,295Z" style="fill:#263238"/><path d="M414.89,304.86c.72-1.86.65-4.29.68-6.28a42.76,42.76,0,0,1,.26-6,9.47,9.47,0,0,1,2.48-5.34,5.83,5.83,0,0,1,3.79-1.67,58.3,58.3,0,0,1-4.19-4.41,8.77,8.77,0,0,0-7.9,5.41,14.61,14.61,0,0,1,2.07,3.95l-.55,7.42a5.42,5.42,0,0,0-4.71,1.32,5.32,5.32,0,0,0-1.68,3A11.92,11.92,0,0,0,414.89,304.86Z" style="fill:#37474f"/><path d="M423.2,286.64c-2-1-6.26,2.08-6.26,8.31,0,5.3.76,9.16-1.6,11.25l.2-.05a34.28,34.28,0,0,0,6-3.1,2.67,2.67,0,0,0,1.39-2.53,20.71,20.71,0,0,1,.35-6c.3-1.36.87-2.65,1.06-4A4.13,4.13,0,0,0,423.2,286.64Z" style="fill:#37474f"/><path d="M423.2,286.64c-2-1-6.26,2.08-6.26,8.31,0,5.3.76,9.16-1.6,11.25l.2-.05a34.28,34.28,0,0,0,6-3.1,2.67,2.67,0,0,0,1.39-2.53,20.71,20.71,0,0,1,.35-6c.3-1.36.87-2.65,1.06-4A4.13,4.13,0,0,0,423.2,286.64Z" style="fill:#fff;opacity:0.1"/><path d="M365,308.25c-.6,1.89-2.67,3-4.64,3.13a23.07,23.07,0,0,1-5.87-.76c-4.36-.79-8.57,0-12.92-.1a18.31,18.31,0,0,1-4.24-.47,7,7,0,0,1-3.64-2.14,4.68,4.68,0,0,1-1-2.27,4.46,4.46,0,0,0,1,3.55,7,7,0,0,0,3.64,2.14,18.3,18.3,0,0,0,4.24.46c4.35.1,8.56-.68,12.92.11a23.05,23.05,0,0,0,5.87.75c2-.16,4-1.24,4.64-3.12a4.86,4.86,0,0,0,.15-2A3.64,3.64,0,0,1,365,308.25Z" style="fill:#263238"/><path d="M364.84,304.64c-.27-1.32-.53-2.64-.8-4a5.89,5.89,0,0,0-.67-2,2,2,0,0,0-1.77-1c-2.39-.32-5.74-1.18-7.73.18a17.82,17.82,0,0,1-10.68,3.11,36.58,36.58,0,0,0-5.91-.24c-2,.24-4,1.33-4.58,3.22a3.84,3.84,0,0,0-.1,1.72,4.68,4.68,0,0,0,1,2.27,7,7,0,0,0,3.64,2.14,18.31,18.31,0,0,0,4.24.47c4.35.1,8.56-.69,12.92.1a23.07,23.07,0,0,0,5.87.76c2-.16,4-1.24,4.64-3.13a3.64,3.64,0,0,0,.15-.73A9.06,9.06,0,0,0,364.84,304.64Z" style="fill:#37474f"/><path d="M353.21,292.26l-.09,6.59A2.06,2.06,0,0,0,355,301a33.35,33.35,0,0,0,5.2,0,3,3,0,0,0,2.66-2.77l.12-5.23Z" style="fill:#ffa8a7"/><path d="M365.14,294.1a15.28,15.28,0,0,1-7.71,1.25c-2-.32-4.73-.92-6.11-2.43.43-19.23-.11-44.52-.29-51.82a38.09,38.09,0,0,1,.13-4.14l4.18-48.05,40.51-3.65c3.32,9.75,3.18,50.05,2.91,53.37,10.1,9.7,11.59,24,16,35.83-4.53-.31-10.42,7.87-10.42,7.87L383,245.72a16,16,0,0,1-2-5.39c-1.18-6.89-4.08-24-4.38-27.69-3.33,15.53-8.67,32.23-8.67,32.23C371.75,260.79,366.11,280.42,365.14,294.1Z" style="fill:#455a64"/><path d="M388.92,197.6s-3.69,2.58-10.29,3c0,0-.6,5.57-2,12,.13,1.52.7,5.36,1.4,9.81.45-5.49,1.33-13.82,2.85-19.41C380.89,203,386.5,201.38,388.92,197.6Z" style="opacity:0.30000000000000004"/><path d="M355.34,149.28v39.63c23.33,9.78,38.46,1,40.51-3.65-1.08-16.13,2.33-35,3.25-42.94,1-8.38,3.86-18.12-14.51-15.32l-13.23,1.29-6.7,1.63Z" style="fill:#6320ee"/><path d="M363.51,97.45c-2.83-1.07-5.6-5.14-2.76-6.93.79-.59,3.09.09,4.95,0-1.63-1.47-2-3.23-1.21-3.78s3,1.53,7,1.14,17.6-4.79,19.31,5.18a2.63,2.63,0,0,1,4-.69l-2.83,2c4.2,5.91,2.83,12.76-7.35,26.28a7.49,7.49,0,0,1-10,1.44l-4.2-10.37-4.11-5Z" style="fill:#263238"/><polygon points="362.57 105.74 359.83 110.5 362.83 111.6 362.57 105.74" style="fill:#f28f8f"/><path d="M363.51,97.45a44.3,44.3,0,0,0-.78,20.22,6.81,6.81,0,0,0,1.26,3.2,5,5,0,0,0,3.47,1.6,14.63,14.63,0,0,0,3.9-.37v6.19c4.71,1.11,9.54,1.55,13.23-1.29v-6.34a16.84,16.84,0,0,1-8.21.52c-3.25-1.75-3.9-7.69-3.44-9.25a2.43,2.43,0,0,0,2.54.89,3.37,3.37,0,0,0,2.1-1.67,7.1,7.1,0,0,0,.79-2.64,4.81,4.81,0,0,0-.48-3.26,3.4,3.4,0,0,0-3.68-1.24,5.21,5.21,0,0,0-3.09,2.59,7.44,7.44,0,0,0-.55,1.18.73.73,0,0,1-1.42-.18,9.73,9.73,0,0,1,.93-5.18,3.61,3.61,0,0,1-2.66-1.63,3.38,3.38,0,0,1-.51-3A10,10,0,0,1,363.51,97.45Z" style="fill:#ffa8a7"/><path d="M341.7,153.88l-4.85,9.63c-3-1.32-13.12-2.42-18.71-6-2.47-4.8-4.18-6-5-7.36a18.92,18.92,0,0,1-1.15-2.66,1.21,1.21,0,0,0-1.36-.8h0a1.22,1.22,0,0,0-1,1.18,16,16,0,0,0,1.17,4.72,21.16,21.16,0,0,1-6.23-6.49,2.43,2.43,0,0,0-3.51-.61l-.59.44a4.43,4.43,0,0,0-1.77,3.72l.08,2a6.85,6.85,0,0,0,2.26,4.84l1.38,1.26a28.22,28.22,0,0,0,5.12,3.69l4.23,2.37c9.88,7.16,18.17,11,25.66,12.43a5.71,5.71,0,0,0,5.22-1.64,84.74,84.74,0,0,0,9.48-12.31Z" style="fill:#ffa8a7"/><path d="M334.54,167.31a15.9,15.9,0,0,1,2.31-3.8,14.58,14.58,0,0,0-2.25-.7A6.24,6.24,0,0,0,334.54,167.31Z" style="opacity:0.2"/><path d="M364.66,129.92c-10.91.83-16.4,6.07-24.6,25.4a16,16,0,0,0,13.41,8.53c5.23-8.54,11.36-15.79,14.26-22.57S364.66,129.92,364.66,129.92Z" style="fill:#6320ee"/></svg>